<svg width="333" height="222" viewBox="0 0 333 222" fill="none" xmlns="http://www.w3.org/2000/svg">
<g filter="url(#filter0_d_9916_27615)">
<g clip-path="url(#clip0_9916_27615)">
<rect x="1.3335" y="1" width="330.667" height="220" rx="12" fill="white"/>
<g filter="url(#filter1_d_9916_27615)">
<rect x="16.6667" y="47.9421" width="145.472" height="57.2264" rx="4.5283" fill="white" shape-rendering="crispEdges"/>
<rect x="17.2328" y="48.5082" width="144.34" height="56.0943" rx="3.96226" stroke="#EEEEF1" stroke-width="1.13208" shape-rendering="crispEdges"/>
<path d="M31.214 72.0554V64.0743H34.531C35.3989 64.0743 36.0668 64.2781 36.5347 64.6856C37.0027 65.0932 37.2366 65.6705 37.2366 66.4177C37.2366 66.8856 37.1347 67.2932 36.931 67.6403C36.7272 67.9799 36.4328 68.2403 36.0479 68.4215C35.663 68.6026 35.1989 68.7007 34.6555 68.7158L34.746 68.5799H35.0177C35.297 68.5875 35.5423 68.6667 35.7536 68.8177C35.9649 68.9611 36.1574 69.1913 36.331 69.5083L37.7121 72.0554H36.4102L35.0404 69.5196C34.9347 69.3233 34.8177 69.1724 34.6894 69.0667C34.5687 68.9611 34.4253 68.8894 34.2593 68.8516C34.1008 68.8064 33.9083 68.7837 33.6819 68.7837H32.4027V72.0554H31.214ZM32.4027 67.8667H34.3611C34.9347 67.8667 35.3649 67.7498 35.6517 67.5158C35.9385 67.2743 36.0819 66.9158 36.0819 66.4403C36.0819 65.9724 35.9347 65.6215 35.6404 65.3875C35.3536 65.1535 34.9234 65.0366 34.3498 65.0366H32.4027V67.8667ZM41.333 72.1573C40.7217 72.1573 40.1934 72.0441 39.7481 71.8177C39.3104 71.5837 38.9708 71.2516 38.7293 70.8215C38.4953 70.3913 38.3783 69.8818 38.3783 69.2932C38.3783 68.7196 38.4915 68.2177 38.718 67.7875C38.9519 67.3573 39.2727 67.0215 39.6802 66.7799C40.0953 66.5384 40.5708 66.4177 41.1066 66.4177C41.6274 66.4177 42.0689 66.5309 42.4312 66.7573C42.801 66.9762 43.0878 67.2932 43.2915 67.7083C43.4953 68.1158 43.5972 68.6064 43.5972 69.1799V69.5535H39.284V68.8403H42.7934L42.6123 69.0101C42.6123 68.4441 42.484 68.0101 42.2274 67.7083C41.9783 67.3988 41.6161 67.2441 41.1406 67.2441C40.7859 67.2441 40.484 67.3233 40.2349 67.4818C39.9934 67.6403 39.8047 67.8667 39.6689 68.1611C39.5406 68.4479 39.4764 68.7875 39.4764 69.1799V69.2705C39.4764 69.7083 39.5481 70.0743 39.6915 70.3686C39.8349 70.663 40.0463 70.8856 40.3255 71.0366C40.6047 71.1799 40.9444 71.2516 41.3444 71.2516C41.6613 71.2516 41.9708 71.2064 42.2727 71.1158C42.5821 71.0177 42.8727 70.8592 43.1444 70.6403L43.4953 71.4441C43.2312 71.6705 42.9029 71.8479 42.5104 71.9762C42.118 72.0969 41.7255 72.1573 41.333 72.1573ZM46.4168 72.0554L44.0394 66.5196H45.2847L47.1073 71.0705H46.8243L48.6922 66.5196H49.8696L47.4696 72.0554H46.4168ZM53.284 72.1573C52.6726 72.1573 52.1443 72.0441 51.6991 71.8177C51.2613 71.5837 50.9217 71.2516 50.6802 70.8215C50.4462 70.3913 50.3292 69.8818 50.3292 69.2932C50.3292 68.7196 50.4425 68.2177 50.6689 67.7875C50.9028 67.3573 51.2236 67.0215 51.6311 66.7799C52.0462 66.5384 52.5217 66.4177 53.0575 66.4177C53.5783 66.4177 54.0198 66.5309 54.3821 66.7573C54.7519 66.9762 55.0387 67.2932 55.2425 67.7083C55.4462 68.1158 55.5481 68.6064 55.5481 69.1799V69.5535H51.2349V68.8403H54.7443L54.5632 69.0101C54.5632 68.4441 54.4349 68.0101 54.1783 67.7083C53.9292 67.3988 53.567 67.2441 53.0915 67.2441C52.7368 67.2441 52.4349 67.3233 52.1858 67.4818C51.9443 67.6403 51.7557 67.8667 51.6198 68.1611C51.4915 68.4479 51.4274 68.7875 51.4274 69.1799V69.2705C51.4274 69.7083 51.4991 70.0743 51.6425 70.3686C51.7858 70.663 51.9972 70.8856 52.2764 71.0366C52.5557 71.1799 52.8953 71.2516 53.2953 71.2516C53.6123 71.2516 53.9217 71.2064 54.2236 71.1158C54.533 71.0177 54.8236 70.8592 55.0953 70.6403L55.4462 71.4441C55.1821 71.6705 54.8538 71.8479 54.4613 71.9762C54.0689 72.0969 53.6764 72.1573 53.284 72.1573ZM56.8262 72.0554V66.5196H57.947V67.6969H57.8451C58.0111 67.2743 58.2715 66.9573 58.6262 66.746C58.9885 66.5271 59.396 66.4177 59.8488 66.4177C60.2941 66.4177 60.6602 66.5007 60.947 66.6667C61.2413 66.8252 61.4602 67.0705 61.6036 67.4026C61.7545 67.7347 61.83 68.1498 61.83 68.6479V72.0554H60.6639V68.7158C60.6639 68.3988 60.6224 68.1422 60.5394 67.946C60.4639 67.7422 60.3394 67.5913 60.1658 67.4932C59.9998 67.395 59.7847 67.346 59.5205 67.346C59.2187 67.346 58.9507 67.4139 58.7168 67.5498C58.4828 67.6781 58.3017 67.863 58.1734 68.1045C58.0451 68.3384 57.9809 68.6139 57.9809 68.9309V72.0554H56.8262ZM65.4522 72.1573C64.9993 72.1573 64.622 72.0743 64.3201 71.9083C64.0182 71.7422 63.7918 71.4932 63.6409 71.1611C63.4899 70.829 63.4144 70.4139 63.4144 69.9158V66.5196H64.5805V69.9158C64.5805 70.2026 64.6182 70.4441 64.6937 70.6403C64.7767 70.8366 64.9012 70.9837 65.0673 71.0818C65.2409 71.1799 65.4597 71.229 65.7239 71.229C66.0107 71.229 66.2635 71.1649 66.4824 71.0366C66.7012 70.9007 66.8748 70.712 67.0031 70.4705C67.1314 70.229 67.1956 69.9535 67.1956 69.6441V66.5196H68.3503V72.0554H67.2295V70.8441H67.3541C67.1956 71.2667 66.9503 71.5913 66.6182 71.8177C66.2861 72.0441 65.8975 72.1573 65.4522 72.1573ZM72.642 72.1573C72.0307 72.1573 71.5024 72.0441 71.0571 71.8177C70.6194 71.5837 70.2797 71.2516 70.0382 70.8215C69.8043 70.3913 69.6873 69.8818 69.6873 69.2932C69.6873 68.7196 69.8005 68.2177 70.0269 67.7875C70.2609 67.3573 70.5816 67.0215 70.9892 66.7799C71.4043 66.5384 71.8797 66.4177 72.4156 66.4177C72.9363 66.4177 73.3779 66.5309 73.7401 66.7573C74.1099 66.9762 74.3967 67.2932 74.6005 67.7083C74.8043 68.1158 74.9062 68.6064 74.9062 69.1799V69.5535H70.593V68.8403H74.1024L73.9213 69.0101C73.9213 68.4441 73.793 68.0101 73.5363 67.7083C73.2873 67.3988 72.925 67.2441 72.4496 67.2441C72.0948 67.2441 71.793 67.3233 71.5439 67.4818C71.3024 67.6403 71.1137 67.8667 70.9779 68.1611C70.8496 68.4479 70.7854 68.7875 70.7854 69.1799V69.2705C70.7854 69.7083 70.8571 70.0743 71.0005 70.3686C71.1439 70.663 71.3552 70.8856 71.6345 71.0366C71.9137 71.1799 72.2533 71.2516 72.6533 71.2516C72.9703 71.2516 73.2797 71.2064 73.5816 71.1158C73.8911 71.0177 74.1816 70.8592 74.4533 70.6403L74.8043 71.4441C74.5401 71.6705 74.2118 71.8479 73.8194 71.9762C73.4269 72.0969 73.0345 72.1573 72.642 72.1573Z" fill="#60606C"/>
<path d="M33.6045 92.0846V81.793H34.2638V92.0846H33.6045ZM35.6025 85.0252C35.5623 84.6553 35.3935 84.3686 35.096 84.1649C34.7985 83.9612 34.4206 83.8593 33.9623 83.8593C33.6353 83.8593 33.3526 83.9103 33.1141 84.0121C32.8782 84.1113 32.696 84.248 32.5673 84.4222C32.4387 84.5964 32.3744 84.796 32.3744 85.0212C32.3717 85.2061 32.4146 85.3669 32.503 85.5036C32.5914 85.6376 32.708 85.7502 32.8527 85.8413C32.9975 85.9324 33.1556 86.0088 33.3271 86.0704C33.4987 86.1321 33.6662 86.183 33.8296 86.2232L34.6216 86.4282C34.903 86.4952 35.1844 86.5863 35.4658 86.7016C35.7473 86.8168 36.0032 86.9656 36.2337 87.1478C36.4669 87.3301 36.6545 87.5539 36.7965 87.8192C36.9386 88.0845 37.0096 88.4008 37.0096 88.768C37.0096 89.2397 36.8876 89.6577 36.6438 90.0222C36.4025 90.3841 36.0528 90.6695 35.5945 90.8785C35.1362 91.0849 34.5814 91.1881 33.9302 91.1881C33.3057 91.1881 32.7643 91.0903 32.306 90.8946C31.8477 90.6963 31.4886 90.4135 31.2286 90.0464C30.9713 89.6765 30.8306 89.233 30.8065 88.7157H32.1412C32.1626 89.0105 32.2551 89.2557 32.4186 89.4514C32.5847 89.6443 32.7978 89.7891 33.0578 89.8856C33.3177 89.9794 33.6059 90.0263 33.9221 90.0263C34.2625 90.0263 34.564 89.9727 34.8266 89.8655C35.0893 89.7583 35.2957 89.6095 35.4457 89.4192C35.5985 89.2289 35.6749 89.0078 35.6749 88.7559C35.6749 88.5227 35.6079 88.3311 35.4739 88.181C35.3426 88.0309 35.1617 87.9063 34.9312 87.8071C34.7034 87.708 34.442 87.6209 34.1472 87.5458L33.1864 87.2885C32.5191 87.1116 31.9911 86.8477 31.6025 86.4966C31.2165 86.1455 31.0236 85.6791 31.0236 85.0976C31.0236 84.6205 31.1536 84.2037 31.4135 83.8473C31.6735 83.4881 32.0259 83.2094 32.4708 83.0111C32.9184 82.8101 33.4223 82.7096 33.9824 82.7096C34.5506 82.7096 35.0504 82.8087 35.4819 83.0071C35.9161 83.2054 36.2578 83.4788 36.5071 83.8272C36.7563 84.1756 36.8863 84.5749 36.897 85.0252H35.6025ZM41.4827 82.8221V91.0554H40.14V84.1528H40.0917L38.1419 85.4151V84.1528L40.1882 82.8221H41.4827ZM46.5327 91.2001C45.8895 91.2001 45.3374 91.0326 44.8764 90.6976C44.4181 90.3626 44.0657 89.8775 43.8191 89.2423C43.5752 88.6071 43.4546 87.8406 43.4573 86.9428C43.4573 86.0476 43.5792 85.2852 43.8231 84.6553C44.0697 84.0228 44.4221 83.5404 44.8804 83.2081C45.3414 82.8757 45.8921 82.7096 46.5327 82.7096C47.1759 82.7096 47.7267 82.8757 48.185 83.2081C48.646 83.5404 48.9984 84.0228 49.2423 84.6553C49.4888 85.2878 49.6121 86.0503 49.6121 86.9428C49.6121 87.8433 49.4902 88.6112 49.2463 89.2464C49.0024 89.8815 48.65 90.3666 48.189 90.7016C47.7307 91.034 47.1786 91.2001 46.5327 91.2001ZM46.5327 90.0544C47.0741 90.0544 47.4989 89.7904 47.8071 89.2624C48.1153 88.7318 48.2694 87.9586 48.2694 86.9428C48.2694 86.2728 48.1984 85.7073 48.0563 85.2463C47.917 84.7826 47.7173 84.4329 47.4573 84.197C47.2 83.9585 46.8918 83.8392 46.5327 83.8392C45.9967 83.8392 45.5732 84.1046 45.2623 84.6352C44.9541 85.1659 44.8 85.9351 44.8 86.9428C44.7973 87.6182 44.8657 88.1877 45.005 88.6514C45.1471 89.1123 45.3467 89.4621 45.604 89.7006C45.864 89.9365 46.1736 90.0544 46.5327 90.0544ZM52.2752 89.9298L52.2189 90.368C52.1787 90.6976 52.1117 91.0367 52.0179 91.3851C51.9241 91.7362 51.8249 92.0605 51.7204 92.3579C51.6185 92.6554 51.5355 92.8913 51.4711 93.0655H50.5666C50.6041 92.8993 50.6537 92.6755 50.7153 92.3941C50.7797 92.1127 50.8413 91.7965 50.9003 91.4454C50.9619 91.097 51.0061 90.7418 51.0329 90.38L51.0651 89.9298H52.2752ZM53.8658 91.0554V90.0825L56.6799 87.2323C56.9667 86.9321 57.2052 86.6681 57.3955 86.4403C57.5858 86.2125 57.7278 85.994 57.8216 85.785C57.9154 85.5759 57.9623 85.3535 57.9623 85.1177C57.9623 84.8496 57.8994 84.6192 57.7734 84.4262C57.6501 84.2305 57.4799 84.0805 57.2628 83.9759C57.0484 83.8687 56.8059 83.8151 56.5352 83.8151C56.2484 83.8151 55.9978 83.8741 55.7834 83.992C55.5717 84.1099 55.4082 84.2748 55.293 84.4865C55.1777 84.6982 55.1201 84.9501 55.1201 85.2423H53.8417C53.8417 84.7331 53.9583 84.2882 54.1914 83.9076C54.4246 83.527 54.7462 83.2322 55.1563 83.0232C55.5663 82.8141 56.0327 82.7096 56.5553 82.7096C57.0886 82.7096 57.5563 82.8128 57.9583 83.0191C58.363 83.2228 58.6779 83.5029 58.9031 83.8593C59.1309 84.2158 59.2448 84.6178 59.2448 85.0654C59.2448 85.3709 59.1872 85.6711 59.0719 85.9659C58.9567 86.2607 58.7557 86.589 58.4689 86.9508C58.1821 87.31 57.7814 87.7442 57.2669 88.2534L55.7191 89.8574V89.9177H59.3734V91.0554H53.8658ZM63.7199 91.2001C63.0767 91.2001 62.5246 91.0326 62.0636 90.6976C61.6053 90.3626 61.2529 89.8775 61.0063 89.2423C60.7624 88.6071 60.6418 87.8406 60.6445 86.9428C60.6445 86.0476 60.7664 85.2852 61.0103 84.6553C61.2569 84.0228 61.6093 83.5404 62.0676 83.2081C62.5286 82.8757 63.0793 82.7096 63.7199 82.7096C64.3631 82.7096 64.9139 82.8757 65.3722 83.2081C65.8332 83.5404 66.1856 84.0228 66.4295 84.6553C66.676 85.2878 66.7993 86.0503 66.7993 86.9428C66.7993 87.8433 66.6774 88.6112 66.4335 89.2464C66.1896 89.8815 65.8372 90.3666 65.3762 90.7016C64.9179 91.034 64.3658 91.2001 63.7199 91.2001ZM63.7199 90.0544C64.2613 90.0544 64.6861 89.7904 64.9943 89.2624C65.3025 88.7318 65.4566 87.9586 65.4566 86.9428C65.4566 86.2728 65.3856 85.7073 65.2435 85.2463C65.1042 84.7826 64.9045 84.4329 64.6445 84.197C64.3872 83.9585 64.079 83.8392 63.7199 83.8392C63.1839 83.8392 62.7604 84.1046 62.4495 84.6352C62.1413 85.1659 61.9872 85.9351 61.9872 86.9428C61.9845 87.6182 62.0529 88.1877 62.1922 88.6514C62.3343 89.1123 62.5339 89.4621 62.7912 89.7006C63.0512 89.9365 63.3608 90.0544 63.7199 90.0544ZM71.0664 91.168C70.6885 91.1653 70.3173 91.0983 69.9528 90.967C69.591 90.8357 69.2627 90.6186 68.9679 90.3157C68.6758 90.0129 68.4412 89.6068 68.2644 89.0976C68.0902 88.5884 68.0044 87.9545 68.0071 87.1961C68.0071 86.4858 68.0794 85.8533 68.2242 85.2986C68.3716 84.7411 68.5819 84.2707 68.8553 83.8875C69.1314 83.5042 69.4637 83.2121 69.8523 83.0111C70.2409 82.8101 70.6778 82.7096 71.1629 82.7096C71.6641 82.7096 72.109 82.8087 72.4976 83.0071C72.8862 83.2027 73.2011 83.4734 73.4423 83.8191C73.6835 84.1649 73.835 84.5562 73.8966 84.993H72.574C72.4936 84.6607 72.3328 84.3927 72.0915 84.189C71.8503 83.9826 71.5408 83.8794 71.1629 83.8794C70.5733 83.8794 70.1163 84.1367 69.792 84.6513C69.4677 85.1632 69.3029 85.8721 69.2975 86.778H69.3578C69.4945 86.5448 69.6674 86.3451 69.8764 86.179C70.0855 86.0101 70.32 85.8815 70.58 85.793C70.8399 85.7019 71.116 85.6564 71.4081 85.6564C71.8879 85.6564 72.3207 85.7729 72.7066 86.0061C73.0926 86.2366 73.3994 86.5542 73.6272 86.9589C73.8551 87.3636 73.969 87.8286 73.969 88.3539C73.969 88.8845 73.847 89.3643 73.6031 89.7931C73.3619 90.2192 73.0242 90.5556 72.59 90.8022C72.1559 91.0487 71.648 91.1707 71.0664 91.168ZM71.0624 90.0584C71.3679 90.0584 71.6413 89.9834 71.8825 89.8333C72.1264 89.6832 72.318 89.4809 72.4574 89.2262C72.5967 88.9716 72.6664 88.6875 72.6664 88.374C72.6664 88.0658 72.5981 87.787 72.4614 87.5378C72.3274 87.2859 72.1411 87.0862 71.9026 86.9388C71.6641 86.7887 71.392 86.7137 71.0865 86.7137C70.856 86.7137 70.6416 86.7579 70.4433 86.8463C70.2476 86.9348 70.0761 87.0567 69.9287 87.2122C69.7813 87.3676 69.6661 87.5458 69.583 87.7468C69.4999 87.9478 69.4583 88.1609 69.4583 88.386C69.4583 88.6862 69.5267 88.9636 69.6634 89.2182C69.8027 89.4701 69.993 89.6738 70.2342 89.8293C70.4781 89.982 70.7542 90.0584 71.0624 90.0584ZM75.8189 91.1358C75.5884 91.1358 75.3901 91.0554 75.2239 90.8946C75.0604 90.7311 74.98 90.5328 74.9827 90.2996C74.98 90.0718 75.0604 89.8775 75.2239 89.7167C75.3901 89.5532 75.5884 89.4715 75.8189 89.4715C76.044 89.4715 76.2383 89.5532 76.4018 89.7167C76.568 89.8775 76.6524 90.0718 76.6551 90.2996C76.6524 90.4551 76.6122 90.5958 76.5345 90.7217C76.4595 90.8477 76.359 90.9482 76.233 91.0233C76.107 91.0983 75.969 91.1358 75.8189 91.1358ZM78.1493 91.0554V90.0825L80.9634 87.2323C81.2502 86.9321 81.4887 86.6681 81.679 86.4403C81.8693 86.2125 82.0113 85.994 82.1051 85.785C82.1989 85.5759 82.2458 85.3535 82.2458 85.1177C82.2458 84.8496 82.1828 84.6192 82.0569 84.4262C81.9336 84.2305 81.7634 84.0805 81.5463 83.9759C81.3319 83.8687 81.0893 83.8151 80.8187 83.8151C80.5319 83.8151 80.2813 83.8741 80.0669 83.992C79.8552 84.1099 79.6917 84.2748 79.5764 84.4865C79.4612 84.6982 79.4036 84.9501 79.4036 85.2423H78.1252C78.1252 84.7331 78.2417 84.2882 78.4749 83.9076C78.7081 83.527 79.0297 83.2322 79.4397 83.0232C79.8498 82.8141 80.3161 82.7096 80.8388 82.7096C81.3721 82.7096 81.8398 82.8128 82.2418 83.0191C82.6465 83.2228 82.9614 83.5029 83.1865 83.8593C83.4143 84.2158 83.5282 84.6178 83.5282 85.0654C83.5282 85.3709 83.4706 85.6711 83.3554 85.9659C83.2401 86.2607 83.0391 86.589 82.7524 86.9508C82.4656 87.31 82.0649 87.7442 81.5503 88.2534L80.0026 89.8574V89.9177H83.6569V91.0554H78.1493ZM88.0034 91.2001C87.3601 91.2001 86.808 91.0326 86.3471 90.6976C85.8888 90.3626 85.5363 89.8775 85.2898 89.2423C85.0459 88.6071 84.9253 87.8406 84.9279 86.9428C84.9279 86.0476 85.0499 85.2852 85.2938 84.6553C85.5403 84.0228 85.8928 83.5404 86.3511 83.2081C86.812 82.8757 87.3628 82.7096 88.0034 82.7096C88.6466 82.7096 89.1973 82.8757 89.6556 83.2081C90.1166 83.5404 90.469 84.0228 90.7129 84.6553C90.9595 85.2878 91.0828 86.0503 91.0828 86.9428C91.0828 87.8433 90.9608 88.6112 90.717 89.2464C90.4731 89.8815 90.1206 90.3666 89.6597 90.7016C89.2014 91.034 88.6493 91.2001 88.0034 91.2001ZM88.0034 90.0544C88.5447 90.0544 88.9695 89.7904 89.2777 89.2624C89.586 88.7318 89.7401 87.9586 89.7401 86.9428C89.7401 86.2728 89.669 85.7073 89.527 85.2463C89.3876 84.7826 89.188 84.4329 88.928 84.197C88.6707 83.9585 88.3625 83.8392 88.0034 83.8392C87.4673 83.8392 87.0439 84.1046 86.733 84.6352C86.4248 85.1659 86.2707 85.9351 86.2707 86.9428C86.268 87.6182 86.3363 88.1877 86.4757 88.6514C86.6177 89.1123 86.8174 89.4621 87.0747 89.7006C87.3347 89.9365 87.6442 90.0544 88.0034 90.0544Z" fill="#131316"/>
<path d="M112.233 61.3384V70.7723M112.233 61.3384L116.007 65.112M112.233 61.3384L108.459 65.112" stroke="#3BB764" stroke-width="1.13208" stroke-linecap="round" stroke-linejoin="round"/>
<path d="M124.833 69.5554V68.5592H126.69V62.5705L127.29 62.5818L125.229 63.8611L124.742 62.9894L127.029 61.5743H127.867V68.5592H129.61V69.5554H124.833ZM133.738 69.6573C133.119 69.6573 132.598 69.4988 132.176 69.1818C131.753 68.8649 131.432 68.4045 131.213 67.8007C130.995 67.1894 130.885 66.4422 130.885 65.5592C130.885 64.6611 130.991 63.9101 131.202 63.3064C131.421 62.7026 131.742 62.246 132.164 61.9366C132.595 61.6271 133.119 61.4724 133.738 61.4724C134.364 61.4724 134.889 61.6271 135.312 61.9366C135.734 62.2384 136.051 62.6913 136.262 63.295C136.481 63.8988 136.591 64.6498 136.591 65.5479C136.591 66.4309 136.481 67.1781 136.262 67.7894C136.044 68.4007 135.723 68.8649 135.3 69.1818C134.878 69.4988 134.357 69.6573 133.738 69.6573ZM133.738 68.6724C134.312 68.6724 134.738 68.4196 135.017 67.9139C135.296 67.4083 135.436 66.6196 135.436 65.5479C135.436 64.4762 135.296 63.695 135.017 63.2045C134.746 62.7064 134.319 62.4573 133.738 62.4573C133.164 62.4573 132.738 62.7064 132.459 63.2045C132.179 63.695 132.04 64.4762 132.04 65.5479C132.04 66.6196 132.179 67.4083 132.459 67.9139C132.738 68.4196 133.164 68.6724 133.738 68.6724ZM140.503 69.8498L139.734 69.3969L144.409 61.2799L145.179 61.7328L140.503 69.8498ZM139.677 66.3516C139.269 66.3516 138.915 66.2535 138.613 66.0573C138.318 65.8611 138.092 65.5818 137.934 65.2196C137.775 64.8498 137.696 64.412 137.696 63.9064C137.696 63.1441 137.873 62.5479 138.228 62.1177C138.583 61.6875 139.066 61.4724 139.677 61.4724C140.084 61.4724 140.435 61.5705 140.73 61.7667C141.032 61.9554 141.262 62.2309 141.42 62.5932C141.579 62.9554 141.658 63.3932 141.658 63.9064C141.658 64.412 141.579 64.8498 141.42 65.2196C141.262 65.5818 141.035 65.8611 140.741 66.0573C140.447 66.2535 140.092 66.3516 139.677 66.3516ZM139.677 65.5479C139.994 65.5479 140.243 65.412 140.424 65.1403C140.605 64.8686 140.696 64.4573 140.696 63.9064C140.696 63.3554 140.605 62.9441 140.424 62.6724C140.243 62.4007 139.994 62.2649 139.677 62.2649C139.36 62.2649 139.111 62.4007 138.93 62.6724C138.749 62.9366 138.658 63.3479 138.658 63.9064C138.658 64.4649 138.749 64.8799 138.93 65.1516C139.111 65.4158 139.36 65.5479 139.677 65.5479ZM145.235 69.6573C144.828 69.6573 144.473 69.563 144.171 69.3743C143.877 69.1781 143.651 68.8988 143.492 68.5366C143.341 68.1667 143.266 67.7252 143.266 67.212C143.266 66.4498 143.439 65.8535 143.786 65.4233C144.141 64.9932 144.624 64.7781 145.235 64.7781C145.651 64.7781 146.005 64.8762 146.3 65.0724C146.594 65.2686 146.82 65.5479 146.979 65.9101C147.137 66.2724 147.217 66.7064 147.217 67.212C147.217 67.7252 147.137 68.1667 146.979 68.5366C146.82 68.8988 146.594 69.1781 146.3 69.3743C146.005 69.563 145.651 69.6573 145.235 69.6573ZM145.235 68.8649C145.552 68.8649 145.801 68.729 145.983 68.4573C146.164 68.1856 146.254 67.7705 146.254 67.212C146.254 66.6686 146.164 66.2611 145.983 65.9894C145.801 65.7177 145.552 65.5818 145.235 65.5818C144.926 65.5818 144.681 65.7177 144.5 65.9894C144.318 66.2535 144.228 66.6611 144.228 67.212C144.228 67.7705 144.318 68.1856 144.5 68.4573C144.681 68.729 144.926 68.8649 145.235 68.8649Z" fill="#3BB764"/>
<path d="M113.999 91.3762L111.622 85.8404H112.867L114.69 90.3913H114.407L116.274 85.8404H117.452L115.052 91.3762H113.999ZM120.187 91.4781C119.885 91.4781 119.591 91.4517 119.304 91.3989C119.025 91.346 118.765 91.2706 118.523 91.1724C118.289 91.0743 118.085 90.9536 117.912 90.8102L118.24 90.0177C118.429 90.1536 118.629 90.2668 118.84 90.3574C119.059 90.4479 119.282 90.5158 119.508 90.5611C119.742 90.6064 119.972 90.6291 120.199 90.6291C120.606 90.6291 120.912 90.5611 121.116 90.4253C121.319 90.2819 121.421 90.0894 121.421 89.8479C121.421 89.6517 121.353 89.5007 121.217 89.3951C121.089 89.2819 120.885 89.1989 120.606 89.146L119.508 88.9309C119.025 88.8328 118.663 88.6592 118.421 88.4102C118.18 88.1611 118.059 87.8366 118.059 87.4366C118.059 87.097 118.153 86.7989 118.342 86.5423C118.531 86.2857 118.795 86.0894 119.134 85.9536C119.482 85.8102 119.882 85.7385 120.334 85.7385C120.599 85.7385 120.855 85.7649 121.104 85.8177C121.353 85.863 121.587 85.9347 121.806 86.0328C122.025 86.1309 122.21 86.2555 122.361 86.4064L122.021 87.1989C121.87 87.0706 121.7 86.9611 121.512 86.8706C121.331 86.78 121.138 86.7121 120.934 86.6668C120.731 86.614 120.531 86.5875 120.334 86.5875C119.934 86.5875 119.632 86.663 119.429 86.814C119.225 86.9574 119.123 87.1498 119.123 87.3913C119.123 87.58 119.183 87.7347 119.304 87.8555C119.432 87.9687 119.625 88.0517 119.882 88.1045L120.98 88.3196C121.478 88.4177 121.855 88.5875 122.112 88.8291C122.368 89.063 122.497 89.3838 122.497 89.7913C122.497 90.1385 122.399 90.4404 122.202 90.697C122.014 90.946 121.746 91.1385 121.399 91.2743C121.051 91.4102 120.648 91.4781 120.187 91.4781ZM123.609 91.3762V90.0177H124.99V91.3762H123.609ZM128.848 91.3762L132.403 83.3951H133.399L136.965 91.3762H135.754L134.78 89.1121L135.312 89.4404H130.489L131.021 89.1121L130.059 91.3762H128.848ZM132.889 84.7083L131.18 88.7611L130.897 88.4781H134.904L134.633 88.7611L132.912 84.7083H132.889ZM137.929 93.414V85.8404H139.05V87.0743H138.959C139.08 86.6668 139.318 86.3423 139.673 86.1007C140.027 85.8592 140.45 85.7385 140.941 85.7385C141.431 85.7385 141.858 85.8555 142.22 86.0894C142.59 86.3234 142.876 86.6555 143.08 87.0857C143.291 87.5083 143.397 88.014 143.397 88.6026C143.397 89.1838 143.295 89.6932 143.091 90.1309C142.888 90.5611 142.601 90.8932 142.231 91.1272C141.869 91.3611 141.439 91.4781 140.941 91.4781C140.458 91.4781 140.042 91.3611 139.695 91.1272C139.348 90.8857 139.11 90.5687 138.982 90.1762H139.084V93.414H137.929ZM140.646 90.5724C141.129 90.5724 141.51 90.4026 141.79 90.063C142.076 89.7234 142.22 89.2366 142.22 88.6026C142.22 87.9611 142.076 87.4743 141.79 87.1423C141.51 86.8102 141.129 86.6441 140.646 86.6441C140.171 86.6441 139.79 86.8102 139.503 87.1423C139.216 87.4743 139.073 87.9611 139.073 88.6026C139.073 89.2366 139.216 89.7234 139.503 90.063C139.79 90.4026 140.171 90.5724 140.646 90.5724ZM144.717 91.3762V85.8404H145.838V87.1649H145.736C145.857 86.7196 146.076 86.38 146.393 86.146C146.71 85.9045 147.125 85.7649 147.638 85.7272L148.046 85.7045L148.136 86.7007L147.4 86.7687C146.91 86.8215 146.536 86.98 146.28 87.2441C146.023 87.5083 145.895 87.8668 145.895 88.3196V91.3762H144.717Z" fill="#60606C"/>
</g>
<g filter="url(#filter2_d_9916_27615)">
<rect x="171.195" y="47.9421" width="145.472" height="57.2264" rx="4.5283" fill="white" shape-rendering="crispEdges"/>
<rect x="171.761" y="48.5082" width="144.34" height="56.0943" rx="3.96226" stroke="#EEEEF1" stroke-width="1.13208" shape-rendering="crispEdges"/>
<path d="M185.742 72.0554V64.0743H190.939V65.0366H186.886V67.5271H190.689V68.4894H186.886V71.0932H190.939V72.0554H185.742ZM191.648 72.0554L194.138 68.9082V69.4969L191.772 66.5196H193.12L194.772 68.6479H194.421L196.074 66.5196H197.421L195.067 69.4743V68.9422L197.557 72.0554H196.199L194.421 69.7799H194.761L192.995 72.0554H191.648ZM198.464 74.0932V66.5196H199.585V67.7535H199.494C199.615 67.346 199.853 67.0215 200.207 66.7799C200.562 66.5384 200.985 66.4177 201.475 66.4177C201.966 66.4177 202.392 66.5347 202.754 66.7686C203.124 67.0026 203.411 67.3347 203.615 67.7649C203.826 68.1875 203.932 68.6932 203.932 69.2818C203.932 69.863 203.83 70.3724 203.626 70.8101C203.422 71.2403 203.136 71.5724 202.766 71.8064C202.404 72.0403 201.973 72.1573 201.475 72.1573C200.992 72.1573 200.577 72.0403 200.23 71.8064C199.883 71.5649 199.645 71.2479 199.517 70.8554H199.619V74.0932H198.464ZM201.181 71.2516C201.664 71.2516 202.045 71.0818 202.324 70.7422C202.611 70.4026 202.754 69.9158 202.754 69.2818C202.754 68.6403 202.611 68.1535 202.324 67.8215C202.045 67.4894 201.664 67.3233 201.181 67.3233C200.705 67.3233 200.324 67.4894 200.037 67.8215C199.751 68.1535 199.607 68.6403 199.607 69.2818C199.607 69.9158 199.751 70.4026 200.037 70.7422C200.324 71.0818 200.705 71.2516 201.181 71.2516ZM207.89 72.1573C207.278 72.1573 206.75 72.0441 206.305 71.8177C205.867 71.5837 205.527 71.2516 205.286 70.8215C205.052 70.3913 204.935 69.8818 204.935 69.2932C204.935 68.7196 205.048 68.2177 205.275 67.7875C205.509 67.3573 205.829 67.0215 206.237 66.7799C206.652 66.5384 207.127 66.4177 207.663 66.4177C208.184 66.4177 208.626 66.5309 208.988 66.7573C209.358 66.9762 209.644 67.2932 209.848 67.7083C210.052 68.1158 210.154 68.6064 210.154 69.1799V69.5535H205.841V68.8403H209.35L209.169 69.0101C209.169 68.4441 209.041 68.0101 208.784 67.7083C208.535 67.3988 208.173 67.2441 207.697 67.2441C207.342 67.2441 207.041 67.3233 206.792 67.4818C206.55 67.6403 206.361 67.8667 206.226 68.1611C206.097 68.4479 206.033 68.7875 206.033 69.1799V69.2705C206.033 69.7083 206.105 70.0743 206.248 70.3686C206.392 70.663 206.603 70.8856 206.882 71.0366C207.161 71.1799 207.501 71.2516 207.901 71.2516C208.218 71.2516 208.527 71.2064 208.829 71.1158C209.139 71.0177 209.429 70.8592 209.701 70.6403L210.052 71.4441C209.788 71.6705 209.459 71.8479 209.067 71.9762C208.675 72.0969 208.282 72.1573 207.89 72.1573ZM211.432 72.0554V66.5196H212.553V67.6969H212.451C212.617 67.2743 212.877 66.9573 213.232 66.746C213.594 66.5271 214.002 66.4177 214.455 66.4177C214.9 66.4177 215.266 66.5007 215.553 66.6667C215.847 66.8252 216.066 67.0705 216.209 67.4026C216.36 67.7347 216.436 68.1498 216.436 68.6479V72.0554H215.27V68.7158C215.27 68.3988 215.228 68.1422 215.145 67.946C215.07 67.7422 214.945 67.5913 214.772 67.4932C214.605 67.395 214.39 67.346 214.126 67.346C213.824 67.346 213.556 67.4139 213.322 67.5498C213.089 67.6781 212.907 67.863 212.779 68.1045C212.651 68.3384 212.587 68.6139 212.587 68.9309V72.0554H211.432ZM220.024 72.1573C219.722 72.1573 219.428 72.1309 219.141 72.0781C218.862 72.0252 218.601 71.9498 218.36 71.8516C218.126 71.7535 217.922 71.6328 217.748 71.4894L218.077 70.6969C218.265 70.8328 218.465 70.946 218.677 71.0366C218.896 71.1271 219.118 71.195 219.345 71.2403C219.579 71.2856 219.809 71.3083 220.035 71.3083C220.443 71.3083 220.748 71.2403 220.952 71.1045C221.156 70.9611 221.258 70.7686 221.258 70.5271C221.258 70.3309 221.19 70.1799 221.054 70.0743C220.926 69.9611 220.722 69.8781 220.443 69.8252L219.345 69.6101C218.862 69.512 218.499 69.3384 218.258 69.0894C218.016 68.8403 217.896 68.5158 217.896 68.1158C217.896 67.7762 217.99 67.4781 218.179 67.2215C218.367 66.9649 218.631 66.7686 218.971 66.6328C219.318 66.4894 219.718 66.4177 220.171 66.4177C220.435 66.4177 220.692 66.4441 220.941 66.4969C221.19 66.5422 221.424 66.6139 221.643 66.712C221.862 66.8101 222.047 66.9347 222.198 67.0856L221.858 67.8781C221.707 67.7498 221.537 67.6403 221.348 67.5498C221.167 67.4592 220.975 67.3913 220.771 67.346C220.567 67.2932 220.367 67.2667 220.171 67.2667C219.771 67.2667 219.469 67.3422 219.265 67.4932C219.062 67.6366 218.96 67.829 218.96 68.0705C218.96 68.2592 219.02 68.4139 219.141 68.5347C219.269 68.6479 219.462 68.7309 219.718 68.7837L220.816 68.9988C221.314 69.0969 221.692 69.2667 221.948 69.5083C222.205 69.7422 222.333 70.063 222.333 70.4705C222.333 70.8177 222.235 71.1196 222.039 71.3762C221.85 71.6252 221.582 71.8177 221.235 71.9535C220.888 72.0894 220.484 72.1573 220.024 72.1573ZM226.286 72.1573C225.675 72.1573 225.146 72.0441 224.701 71.8177C224.263 71.5837 223.924 71.2516 223.682 70.8215C223.448 70.3913 223.331 69.8818 223.331 69.2932C223.331 68.7196 223.444 68.2177 223.671 67.7875C223.905 67.3573 224.226 67.0215 224.633 66.7799C225.048 66.5384 225.524 66.4177 226.059 66.4177C226.58 66.4177 227.022 66.5309 227.384 66.7573C227.754 66.9762 228.041 67.2932 228.244 67.7083C228.448 68.1158 228.55 68.6064 228.55 69.1799V69.5535H224.237V68.8403H227.746L227.565 69.0101C227.565 68.4441 227.437 68.0101 227.18 67.7083C226.931 67.3988 226.569 67.2441 226.093 67.2441C225.739 67.2441 225.437 67.3233 225.188 67.4818C224.946 67.6403 224.758 67.8667 224.622 68.1611C224.493 68.4479 224.429 68.7875 224.429 69.1799V69.2705C224.429 69.7083 224.501 70.0743 224.644 70.3686C224.788 70.663 224.999 70.8856 225.278 71.0366C225.558 71.1799 225.897 71.2516 226.297 71.2516C226.614 71.2516 226.924 71.2064 227.226 71.1158C227.535 71.0177 227.826 70.8592 228.097 70.6403L228.448 71.4441C228.184 71.6705 227.856 71.8479 227.463 71.9762C227.071 72.0969 226.678 72.1573 226.286 72.1573ZM231.798 72.1573C231.496 72.1573 231.202 72.1309 230.915 72.0781C230.636 72.0252 230.375 71.9498 230.134 71.8516C229.9 71.7535 229.696 71.6328 229.522 71.4894L229.851 70.6969C230.039 70.8328 230.239 70.946 230.451 71.0366C230.67 71.1271 230.892 71.195 231.119 71.2403C231.353 71.2856 231.583 71.3083 231.809 71.3083C232.217 71.3083 232.522 71.2403 232.726 71.1045C232.93 70.9611 233.032 70.7686 233.032 70.5271C233.032 70.3309 232.964 70.1799 232.828 70.0743C232.7 69.9611 232.496 69.8781 232.217 69.8252L231.119 69.6101C230.636 69.512 230.273 69.3384 230.032 69.0894C229.79 68.8403 229.67 68.5158 229.67 68.1158C229.67 67.7762 229.764 67.4781 229.953 67.2215C230.141 66.9649 230.405 66.7686 230.745 66.6328C231.092 66.4894 231.492 66.4177 231.945 66.4177C232.209 66.4177 232.466 66.4441 232.715 66.4969C232.964 66.5422 233.198 66.6139 233.417 66.712C233.636 66.8101 233.821 66.9347 233.972 67.0856L233.632 67.8781C233.481 67.7498 233.311 67.6403 233.122 67.5498C232.941 67.4592 232.749 67.3913 232.545 67.346C232.341 67.2932 232.141 67.2667 231.945 67.2667C231.545 67.2667 231.243 67.3422 231.039 67.4932C230.836 67.6366 230.734 67.829 230.734 68.0705C230.734 68.2592 230.794 68.4139 230.915 68.5347C231.043 68.6479 231.236 68.7309 231.492 68.7837L232.59 68.9988C233.089 69.0969 233.466 69.2667 233.722 69.5083C233.979 69.7422 234.107 70.063 234.107 70.4705C234.107 70.8177 234.009 71.1196 233.813 71.3762C233.624 71.6252 233.356 71.8177 233.009 71.9535C232.662 72.0894 232.258 72.1573 231.798 72.1573Z" fill="#60606C"/>
<path d="M188.133 92.0846V81.793H188.792V92.0846H188.133ZM190.131 85.0252C190.091 84.6553 189.922 84.3686 189.624 84.1649C189.327 83.9612 188.949 83.8593 188.491 83.8593C188.164 83.8593 187.881 83.9103 187.642 84.0121C187.407 84.1113 187.224 84.248 187.096 84.4222C186.967 84.5964 186.903 84.796 186.903 85.0212C186.9 85.2061 186.943 85.3669 187.031 85.5036C187.12 85.6376 187.236 85.7502 187.381 85.8413C187.526 85.9324 187.684 86.0088 187.855 86.0704C188.027 86.1321 188.194 86.183 188.358 86.2232L189.15 86.4282C189.431 86.4952 189.713 86.5863 189.994 86.7016C190.276 86.8168 190.532 86.9656 190.762 87.1478C190.995 87.3301 191.183 87.5539 191.325 87.8192C191.467 88.0845 191.538 88.4008 191.538 88.768C191.538 89.2397 191.416 89.6577 191.172 90.0222C190.931 90.3841 190.581 90.6695 190.123 90.8785C189.665 91.0849 189.11 91.1881 188.458 91.1881C187.834 91.1881 187.293 91.0903 186.834 90.8946C186.376 90.6963 186.017 90.4135 185.757 90.0464C185.5 89.6765 185.359 89.233 185.335 88.7157H186.67C186.691 89.0105 186.783 89.2557 186.947 89.4514C187.113 89.6443 187.326 89.7891 187.586 89.8856C187.846 89.9794 188.134 90.0263 188.45 90.0263C188.791 90.0263 189.092 89.9727 189.355 89.8655C189.618 89.7583 189.824 89.6095 189.974 89.4192C190.127 89.2289 190.203 89.0078 190.203 88.7559C190.203 88.5227 190.136 88.3311 190.002 88.181C189.871 88.0309 189.69 87.9063 189.459 87.8071C189.232 87.708 188.97 87.6209 188.676 87.5458L187.715 87.2885C187.047 87.1116 186.519 86.8477 186.131 86.4966C185.745 86.1455 185.552 85.6791 185.552 85.0976C185.552 84.6205 185.682 84.2037 185.942 83.8473C186.202 83.4881 186.554 83.2094 186.999 83.0111C187.447 82.8101 187.951 82.7096 188.511 82.7096C189.079 82.7096 189.579 82.8087 190.01 83.0071C190.444 83.2054 190.786 83.4788 191.035 83.8272C191.285 84.1756 191.415 84.5749 191.425 85.0252H190.131ZM195.573 91.168C195.056 91.168 194.592 91.0688 194.182 90.8705C193.774 90.6722 193.449 90.4001 193.205 90.0544C192.964 89.7087 192.835 89.3147 192.819 88.8725H194.122C194.151 89.2182 194.304 89.5023 194.58 89.7247C194.856 89.9472 195.187 90.0584 195.573 90.0584C195.881 90.0584 196.154 89.9887 196.393 89.8494C196.631 89.7073 196.819 89.5117 196.956 89.2624C197.092 89.0105 197.161 88.7251 197.161 88.4061C197.161 88.0792 197.09 87.7897 196.948 87.5378C196.808 87.2832 196.615 87.0835 196.369 86.9388C196.125 86.7941 195.845 86.7204 195.529 86.7177C195.279 86.715 195.031 86.7592 194.785 86.8503C194.538 86.9388 194.34 87.0554 194.19 87.2001L192.968 87.0111L193.418 82.8221H198.045V83.9598H194.536L194.282 86.2152H194.331C194.486 86.049 194.699 85.911 194.97 85.8011C195.243 85.6912 195.538 85.6363 195.854 85.6363C196.355 85.6363 196.802 85.7555 197.193 85.994C197.584 86.2299 197.892 86.5542 198.118 86.9669C198.345 87.377 198.459 87.846 198.459 88.374C198.459 88.9127 198.336 89.3924 198.089 89.8132C197.843 90.234 197.502 90.565 197.068 90.8062C196.637 91.0474 196.138 91.168 195.573 91.168ZM201.167 89.9298L201.11 90.368C201.07 90.6976 201.003 91.0367 200.909 91.3851C200.815 91.7362 200.716 92.0605 200.612 92.3579C200.51 92.6554 200.427 92.8913 200.363 93.0655H199.458C199.495 92.8993 199.545 92.6755 199.607 92.3941C199.671 92.1127 199.733 91.7965 199.792 91.4454C199.853 91.097 199.898 90.7418 199.924 90.38L199.956 89.9298H201.167ZM202.596 89.4795V88.4021L206.126 82.8221H206.998V84.386H206.456L203.987 88.2936V88.3579H208.864V89.4795H202.596ZM206.508 91.0554V89.1499L206.52 88.6634V82.8221H207.786V91.0554H206.508ZM212.937 91.168C212.42 91.168 211.956 91.0688 211.546 90.8705C211.139 90.6722 210.813 90.4001 210.569 90.0544C210.328 89.7087 210.199 89.3147 210.183 88.8725H211.486C211.515 89.2182 211.668 89.5023 211.944 89.7247C212.22 89.9472 212.551 90.0584 212.937 90.0584C213.245 90.0584 213.518 89.9887 213.757 89.8494C213.996 89.7073 214.183 89.5117 214.32 89.2624C214.457 89.0105 214.525 88.7251 214.525 88.4061C214.525 88.0792 214.454 87.7897 214.312 87.5378C214.172 87.2832 213.979 87.0835 213.733 86.9388C213.489 86.7941 213.209 86.7204 212.893 86.7177C212.643 86.715 212.396 86.7592 212.149 86.8503C211.902 86.9388 211.704 87.0554 211.554 87.2001L210.332 87.0111L210.782 82.8221H215.409V83.9598H211.9L211.646 86.2152H211.695C211.85 86.049 212.063 85.911 212.334 85.8011C212.607 85.6912 212.902 85.6363 213.218 85.6363C213.719 85.6363 214.166 85.7555 214.557 85.994C214.948 86.2299 215.257 86.5542 215.482 86.9669C215.709 87.377 215.823 87.846 215.823 88.374C215.823 88.9127 215.7 89.3924 215.454 89.8132C215.207 90.234 214.867 90.565 214.432 90.8062C214.001 91.0474 213.502 91.168 212.937 91.168ZM220.113 91.168C219.735 91.1653 219.363 91.0983 218.999 90.967C218.637 90.8357 218.309 90.6186 218.014 90.3157C217.722 90.0129 217.487 89.6068 217.311 89.0976C217.136 88.5884 217.051 87.9545 217.053 87.1961C217.053 86.4858 217.126 85.8533 217.27 85.2986C217.418 84.7411 217.628 84.2707 217.901 83.8875C218.178 83.5042 218.51 83.2121 218.898 83.0111C219.287 82.8101 219.724 82.7096 220.209 82.7096C220.71 82.7096 221.155 82.8087 221.544 83.0071C221.932 83.2027 222.247 83.4734 222.488 83.8191C222.73 84.1649 222.881 84.5562 222.943 84.993H221.62C221.54 84.6607 221.379 84.3927 221.138 84.189C220.896 83.9826 220.587 83.8794 220.209 83.8794C219.619 83.8794 219.162 84.1367 218.838 84.6513C218.514 85.1632 218.349 85.8721 218.344 86.778H218.404C218.541 86.5448 218.714 86.3451 218.923 86.179C219.132 86.0101 219.366 85.8815 219.626 85.793C219.886 85.7019 220.162 85.6564 220.454 85.6564C220.934 85.6564 221.367 85.7729 221.753 86.0061C222.139 86.2366 222.446 86.5542 222.673 86.9589C222.901 87.3636 223.015 87.8286 223.015 88.3539C223.015 88.8845 222.893 89.3643 222.649 89.7931C222.408 90.2192 222.07 90.5556 221.636 90.8022C221.202 91.0487 220.694 91.1707 220.113 91.168ZM220.109 90.0584C220.414 90.0584 220.687 89.9834 220.929 89.8333C221.173 89.6832 221.364 89.4809 221.504 89.2262C221.643 88.9716 221.713 88.6875 221.713 88.374C221.713 88.0658 221.644 87.787 221.508 87.5378C221.374 87.2859 221.187 87.0862 220.949 86.9388C220.71 86.7887 220.438 86.7137 220.133 86.7137C219.902 86.7137 219.688 86.7579 219.489 86.8463C219.294 86.9348 219.122 87.0567 218.975 87.2122C218.827 87.3676 218.712 87.5458 218.629 87.7468C218.546 87.9478 218.504 88.1609 218.504 88.386C218.504 88.6862 218.573 88.9636 218.71 89.2182C218.849 89.4701 219.039 89.6738 219.28 89.8293C219.524 89.982 219.8 90.0584 220.109 90.0584ZM224.865 91.1358C224.635 91.1358 224.436 91.0554 224.27 90.8946C224.107 90.7311 224.026 90.5328 224.029 90.2996C224.026 90.0718 224.107 89.8775 224.27 89.7167C224.436 89.5532 224.635 89.4715 224.865 89.4715C225.09 89.4715 225.285 89.5532 225.448 89.7167C225.614 89.8775 225.699 90.0718 225.701 90.2996C225.699 90.4551 225.658 90.5958 225.581 90.7217C225.506 90.8477 225.405 90.9482 225.279 91.0233C225.153 91.0983 225.015 91.1358 224.865 91.1358ZM227.195 91.0554V90.0825L230.01 87.2323C230.296 86.9321 230.535 86.6681 230.725 86.4403C230.915 86.2125 231.057 85.994 231.151 85.785C231.245 85.5759 231.292 85.3535 231.292 85.1177C231.292 84.8496 231.229 84.6192 231.103 84.4262C230.98 84.2305 230.81 84.0805 230.592 83.9759C230.378 83.8687 230.136 83.8151 229.865 83.8151C229.578 83.8151 229.327 83.8741 229.113 83.992C228.901 84.1099 228.738 84.2748 228.623 84.4865C228.507 84.6982 228.45 84.9501 228.45 85.2423H227.171C227.171 84.7331 227.288 84.2882 227.521 83.9076C227.754 83.527 228.076 83.2322 228.486 83.0232C228.896 82.8141 229.362 82.7096 229.885 82.7096C230.418 82.7096 230.886 82.8128 231.288 83.0191C231.693 83.2228 232.008 83.5029 232.233 83.8593C232.46 84.2158 232.574 84.6178 232.574 85.0654C232.574 85.3709 232.517 85.6711 232.402 85.9659C232.286 86.2607 232.085 86.589 231.799 86.9508C231.512 87.31 231.111 87.7442 230.596 88.2534L229.049 89.8574V89.9177H232.703V91.0554H227.195ZM233.777 89.4795V88.4021L237.307 82.8221H238.179V84.386H237.636L235.168 88.2936V88.3579H240.045V89.4795H233.777ZM237.689 91.0554V89.1499L237.701 88.6634V82.8221H238.967V91.0554H237.689Z" fill="#131316"/>
<path d="M266.761 70.7723L266.761 61.3384M266.761 70.7723L262.988 66.9988M266.761 70.7723L270.535 66.9988" stroke="#3BB764" stroke-width="1.13208" stroke-linecap="round" stroke-linejoin="round"/>
<path d="M279.361 69.5554V68.5592H281.218V62.5705L281.818 62.5818L279.758 63.8611L279.271 62.9894L281.558 61.5743H282.395V68.5592H284.139V69.5554H279.361ZM285.821 69.5554V68.6837L288.493 65.8196C288.742 65.5554 288.942 65.3101 289.093 65.0837C289.244 64.8498 289.353 64.6271 289.421 64.4158C289.496 64.1969 289.534 63.9818 289.534 63.7705C289.534 63.3479 289.402 63.0271 289.138 62.8083C288.881 62.5894 288.508 62.4799 288.017 62.4799C287.64 62.4799 287.278 62.5516 286.93 62.695C286.583 62.8384 286.251 63.0573 285.934 63.3516L285.515 62.446C285.825 62.1516 286.213 61.9177 286.681 61.7441C287.149 61.563 287.636 61.4724 288.142 61.4724C288.693 61.4724 289.157 61.5592 289.534 61.7328C289.919 61.8988 290.21 62.1479 290.406 62.4799C290.61 62.8045 290.712 63.1969 290.712 63.6573C290.712 63.8988 290.681 64.1366 290.621 64.3705C290.561 64.5969 290.47 64.8233 290.349 65.0498C290.236 65.2762 290.093 65.5101 289.919 65.7516C289.746 65.9932 289.534 66.2384 289.285 66.4875L287.044 68.8422V68.5592H291.017V69.5554H285.821ZM295.032 69.8498L294.262 69.3969L298.937 61.2799L299.707 61.7328L295.032 69.8498ZM294.205 66.3516C293.798 66.3516 293.443 66.2535 293.141 66.0573C292.847 65.8611 292.62 65.5818 292.462 65.2196C292.303 64.8498 292.224 64.412 292.224 63.9064C292.224 63.1441 292.401 62.5479 292.756 62.1177C293.111 61.6875 293.594 61.4724 294.205 61.4724C294.613 61.4724 294.964 61.5705 295.258 61.7667C295.56 61.9554 295.79 62.2309 295.949 62.5932C296.107 62.9554 296.186 63.3932 296.186 63.9064C296.186 64.412 296.107 64.8498 295.949 65.2196C295.79 65.5818 295.564 65.8611 295.269 66.0573C294.975 66.2535 294.62 66.3516 294.205 66.3516ZM294.205 65.5479C294.522 65.5479 294.771 65.412 294.952 65.1403C295.134 64.8686 295.224 64.4573 295.224 63.9064C295.224 63.3554 295.134 62.9441 294.952 62.6724C294.771 62.4007 294.522 62.2649 294.205 62.2649C293.888 62.2649 293.639 62.4007 293.458 62.6724C293.277 62.9366 293.186 63.3479 293.186 63.9064C293.186 64.4649 293.277 64.8799 293.458 65.1516C293.639 65.4158 293.888 65.5479 294.205 65.5479ZM299.764 69.6573C299.356 69.6573 299.001 69.563 298.7 69.3743C298.405 69.1781 298.179 68.8988 298.02 68.5366C297.869 68.1667 297.794 67.7252 297.794 67.212C297.794 66.4498 297.968 65.8535 298.315 65.4233C298.669 64.9932 299.152 64.7781 299.764 64.7781C300.179 64.7781 300.534 64.8762 300.828 65.0724C301.122 65.2686 301.349 65.5479 301.507 65.9101C301.666 66.2724 301.745 66.7064 301.745 67.212C301.745 67.7252 301.666 68.1667 301.507 68.5366C301.349 68.8988 301.122 69.1781 300.828 69.3743C300.534 69.563 300.179 69.6573 299.764 69.6573ZM299.764 68.8649C300.081 68.8649 300.33 68.729 300.511 68.4573C300.692 68.1856 300.783 67.7705 300.783 67.212C300.783 66.6686 300.692 66.2611 300.511 65.9894C300.33 65.7177 300.081 65.5818 299.764 65.5818C299.454 65.5818 299.209 65.7177 299.028 65.9894C298.847 66.2535 298.756 66.6611 298.756 67.212C298.756 67.7705 298.847 68.1856 299.028 68.4573C299.209 68.729 299.454 68.8649 299.764 68.8649Z" fill="#3BB764"/>
<path d="M268.527 91.3762L266.15 85.8404H267.395L269.218 90.3913H268.935L270.803 85.8404H271.98L269.58 91.3762H268.527ZM274.716 91.4781C274.414 91.4781 274.119 91.4517 273.833 91.3989C273.553 91.346 273.293 91.2706 273.051 91.1724C272.817 91.0743 272.614 90.9536 272.44 90.8102L272.768 90.0177C272.957 90.1536 273.157 90.2668 273.368 90.3574C273.587 90.4479 273.81 90.5158 274.036 90.5611C274.27 90.6064 274.5 90.6291 274.727 90.6291C275.134 90.6291 275.44 90.5611 275.644 90.4253C275.848 90.2819 275.949 90.0894 275.949 89.8479C275.949 89.6517 275.882 89.5007 275.746 89.3951C275.617 89.2819 275.414 89.1989 275.134 89.146L274.036 88.9309C273.553 88.8328 273.191 88.6592 272.949 88.4102C272.708 88.1611 272.587 87.8366 272.587 87.4366C272.587 87.097 272.682 86.7989 272.87 86.5423C273.059 86.2857 273.323 86.0894 273.663 85.9536C274.01 85.8102 274.41 85.7385 274.863 85.7385C275.127 85.7385 275.383 85.7649 275.633 85.8177C275.882 85.863 276.116 85.9347 276.334 86.0328C276.553 86.1309 276.738 86.2555 276.889 86.4064L276.549 87.1989C276.399 87.0706 276.229 86.9611 276.04 86.8706C275.859 86.78 275.666 86.7121 275.463 86.6668C275.259 86.614 275.059 86.5875 274.863 86.5875C274.463 86.5875 274.161 86.663 273.957 86.814C273.753 86.9574 273.651 87.1498 273.651 87.3913C273.651 87.58 273.712 87.7347 273.833 87.8555C273.961 87.9687 274.153 88.0517 274.41 88.1045L275.508 88.3196C276.006 88.4177 276.383 88.5875 276.64 88.8291C276.897 89.063 277.025 89.3838 277.025 89.7913C277.025 90.1385 276.927 90.4404 276.731 90.697C276.542 90.946 276.274 91.1385 275.927 91.2743C275.58 91.4102 275.176 91.4781 274.716 91.4781ZM278.137 91.3762V90.0177H279.518V91.3762H278.137ZM283.376 91.3762L286.931 83.3951H287.927L291.493 91.3762H290.282L289.308 89.1121L289.84 89.4404H285.018L285.55 89.1121L284.587 91.3762H283.376ZM287.418 84.7083L285.708 88.7611L285.425 88.4781H289.433L289.161 88.7611L287.44 84.7083H287.418ZM292.458 93.414V85.8404H293.578V87.0743H293.488C293.608 86.6668 293.846 86.3423 294.201 86.1007C294.556 85.8592 294.978 85.7385 295.469 85.7385C295.959 85.7385 296.386 85.8555 296.748 86.0894C297.118 86.3234 297.405 86.6555 297.608 87.0857C297.82 87.5083 297.925 88.014 297.925 88.6026C297.925 89.1838 297.824 89.6932 297.62 90.1309C297.416 90.5611 297.129 90.8932 296.759 91.1272C296.397 91.3611 295.967 91.4781 295.469 91.4781C294.986 91.4781 294.571 91.3611 294.224 91.1272C293.876 90.8857 293.639 90.5687 293.51 90.1762H293.612V93.414H292.458ZM295.175 90.5724C295.658 90.5724 296.039 90.4026 296.318 90.063C296.605 89.7234 296.748 89.2366 296.748 88.6026C296.748 87.9611 296.605 87.4743 296.318 87.1423C296.039 86.8102 295.658 86.6441 295.175 86.6441C294.699 86.6441 294.318 86.8102 294.031 87.1423C293.744 87.4743 293.601 87.9611 293.601 88.6026C293.601 89.2366 293.744 89.7234 294.031 90.063C294.318 90.4026 294.699 90.5724 295.175 90.5724ZM299.246 91.3762V85.8404H300.366V87.1649H300.264C300.385 86.7196 300.604 86.38 300.921 86.146C301.238 85.9045 301.653 85.7649 302.166 85.7272L302.574 85.7045L302.664 86.7007L301.929 86.7687C301.438 86.8215 301.064 86.98 300.808 87.2441C300.551 87.5083 300.423 87.8668 300.423 88.3196V91.3762H299.246Z" fill="#60606C"/>
</g>
<g filter="url(#filter3_d_9916_27615)">
<rect x="16.6667" y="116.832" width="300" height="57.2264" rx="4.5283" fill="white" shape-rendering="crispEdges"/>
<rect x="17.2328" y="117.398" width="298.868" height="56.0943" rx="3.96226" stroke="#EEEEF1" stroke-width="1.13208" shape-rendering="crispEdges"/>
<path d="M31.214 140.945V132.964H32.131L36.9536 139.326H36.7159V132.964H37.814V140.945H36.897L32.0857 134.583H32.3234V140.945H31.214ZM42.2506 141.047C41.6393 141.047 41.111 140.934 40.6657 140.707C40.228 140.473 39.8884 140.141 39.6469 139.711C39.4129 139.281 39.2959 138.771 39.2959 138.183C39.2959 137.609 39.4091 137.107 39.6356 136.677C39.8695 136.247 40.1903 135.911 40.5978 135.669C41.0129 135.428 41.4884 135.307 42.0242 135.307C42.545 135.307 42.9865 135.42 43.3488 135.647C43.7186 135.866 44.0054 136.183 44.2091 136.598C44.4129 137.005 44.5148 137.496 44.5148 138.069V138.443H40.2016V137.73H43.711L43.5299 137.9C43.5299 137.334 43.4016 136.9 43.145 136.598C42.8959 136.288 42.5337 136.134 42.0582 136.134C41.7035 136.134 41.4016 136.213 41.1525 136.371C40.911 136.53 40.7223 136.756 40.5865 137.05C40.4582 137.337 40.394 137.677 40.394 138.069V138.16C40.394 138.598 40.4657 138.964 40.6091 139.258C40.7525 139.552 40.9639 139.775 41.2431 139.926C41.5223 140.069 41.862 140.141 42.262 140.141C42.5789 140.141 42.8884 140.096 43.1903 140.005C43.4997 139.907 43.7903 139.749 44.062 139.53L44.4129 140.334C44.1488 140.56 43.8205 140.737 43.428 140.866C43.0356 140.986 42.6431 141.047 42.2506 141.047ZM48.1705 141.047C47.4686 141.047 46.9441 140.869 46.5969 140.515C46.2573 140.152 46.0875 139.632 46.0875 138.952V136.303H45.012V135.409H46.0988V133.745H47.2422V135.409H49.0083V136.303H47.2535V138.873C47.2535 139.273 47.3366 139.575 47.5026 139.779C47.6762 139.975 47.9554 140.073 48.3403 140.073C48.4611 140.073 48.5818 140.062 48.7026 140.039C48.8233 140.009 48.9403 139.975 49.0535 139.937L49.246 140.809C49.1177 140.884 48.9516 140.941 48.7479 140.979C48.5516 141.024 48.3592 141.047 48.1705 141.047ZM53.0563 142.983V135.409H54.1771V136.643H54.0865C54.2073 136.235 54.445 135.911 54.7997 135.669C55.1544 135.428 55.5771 135.307 56.0676 135.307C56.5582 135.307 56.9846 135.424 57.3469 135.658C57.7167 135.892 58.0035 136.224 58.2073 136.654C58.4186 137.077 58.5242 137.583 58.5242 138.171C58.5242 138.752 58.4223 139.262 58.2186 139.7C58.0148 140.13 57.728 140.462 57.3582 140.696C56.9959 140.93 56.5657 141.047 56.0676 141.047C55.5846 141.047 55.1695 140.93 54.8223 140.696C54.4752 140.454 54.2374 140.137 54.1091 139.745H54.211V142.983H53.0563ZM55.7733 140.141C56.2563 140.141 56.6374 139.971 56.9167 139.632C57.2035 139.292 57.3469 138.805 57.3469 138.171C57.3469 137.53 57.2035 137.043 56.9167 136.711C56.6374 136.379 56.2563 136.213 55.7733 136.213C55.2978 136.213 54.9167 136.379 54.6299 136.711C54.3431 137.043 54.1997 137.53 54.1997 138.171C54.1997 138.805 54.3431 139.292 54.6299 139.632C54.9167 139.971 55.2978 140.141 55.7733 140.141ZM59.8443 140.945V135.409H60.9651V136.734H60.8632C60.984 136.288 61.2028 135.949 61.5198 135.715C61.8368 135.473 62.2519 135.334 62.7651 135.296L63.1726 135.273L63.2632 136.269L62.5274 136.337C62.0368 136.39 61.6632 136.549 61.4066 136.813C61.15 137.077 61.0217 137.435 61.0217 137.888V140.945H59.8443ZM66.5233 141.047C65.9648 141.047 65.478 140.93 65.0629 140.696C64.6554 140.462 64.3384 140.13 64.112 139.7C63.8931 139.269 63.7837 138.76 63.7837 138.171C63.7837 137.59 63.8931 137.084 64.112 136.654C64.3384 136.224 64.6554 135.892 65.0629 135.658C65.478 135.424 65.9648 135.307 66.5233 135.307C67.0818 135.307 67.5648 135.424 67.9724 135.658C68.3799 135.892 68.6969 136.224 68.9233 136.654C69.1497 137.084 69.2629 137.59 69.2629 138.171C69.2629 138.76 69.1497 139.269 68.9233 139.7C68.6969 140.13 68.3799 140.462 67.9724 140.696C67.5648 140.93 67.0818 141.047 66.5233 141.047ZM66.5233 140.141C66.9988 140.141 67.3799 139.971 67.6667 139.632C67.9535 139.292 68.0969 138.805 68.0969 138.171C68.0969 137.537 67.9535 137.054 67.6667 136.722C67.3875 136.383 67.0063 136.213 66.5233 136.213C66.0403 136.213 65.6554 136.383 65.3686 136.722C65.0894 137.054 64.9497 137.537 64.9497 138.171C64.9497 138.805 65.0894 139.292 65.3686 139.632C65.6554 139.971 66.0403 140.141 66.5233 140.141ZM70.8856 140.945V136.292H69.7988V135.409H71.2026L70.8856 135.715V135.307C70.8856 134.552 71.0818 133.983 71.4743 133.598C71.8667 133.213 72.4667 132.994 73.2743 132.941L73.7384 132.918L73.8064 133.801L73.3309 133.835C73.029 133.85 72.7837 133.911 72.595 134.017C72.4064 134.115 72.2667 134.258 72.1762 134.447C72.0856 134.628 72.0403 134.862 72.0403 135.149V135.545L72.0064 135.409H75.6064V140.945H74.4516V136.292H72.0403V140.945H70.8856ZM74.3611 134.118V132.93H75.6969V134.118H74.3611ZM79.6453 141.047C78.9434 141.047 78.4189 140.869 78.0717 140.515C77.7321 140.152 77.5623 139.632 77.5623 138.952V136.303H76.4868V135.409H77.5736V133.745H78.717V135.409H80.483V136.303H78.7283V138.873C78.7283 139.273 78.8113 139.575 78.9774 139.779C79.151 139.975 79.4302 140.073 79.8151 140.073C79.9359 140.073 80.0566 140.062 80.1774 140.039C80.2981 140.009 80.4151 139.975 80.5283 139.937L80.7208 140.809C80.5925 140.884 80.4264 140.941 80.2227 140.979C80.0264 141.024 79.834 141.047 79.6453 141.047Z" fill="#60606C"/>
<path d="M33.6045 160.974V150.682H34.2638V160.974H33.6045ZM35.6025 153.915C35.5623 153.545 35.3935 153.258 35.096 153.054C34.7985 152.851 34.4206 152.749 33.9623 152.749C33.6353 152.749 33.3526 152.8 33.1141 152.902C32.8782 153.001 32.696 153.137 32.5673 153.312C32.4387 153.486 32.3744 153.685 32.3744 153.911C32.3717 154.095 32.4146 154.256 32.503 154.393C32.5914 154.527 32.708 154.64 32.8527 154.731C32.9975 154.822 33.1556 154.898 33.3271 154.96C33.4987 155.021 33.6662 155.072 33.8296 155.113L34.6216 155.318C34.903 155.385 35.1844 155.476 35.4658 155.591C35.7473 155.706 36.0032 155.855 36.2337 156.037C36.4669 156.219 36.6545 156.443 36.7965 156.709C36.9386 156.974 37.0096 157.29 37.0096 157.657C37.0096 158.129 36.8876 158.547 36.6438 158.912C36.4025 159.273 36.0528 159.559 35.5945 159.768C35.1362 159.974 34.5814 160.077 33.9302 160.077C33.3057 160.077 32.7643 159.98 32.306 159.784C31.8477 159.586 31.4886 159.303 31.2286 158.936C30.9713 158.566 30.8306 158.122 30.8065 157.605H32.1412C32.1626 157.9 32.2551 158.145 32.4186 158.341C32.5847 158.534 32.7978 158.678 33.0578 158.775C33.3177 158.869 33.6059 158.916 33.9221 158.916C34.2625 158.916 34.564 158.862 34.8266 158.755C35.0893 158.648 35.2957 158.499 35.4457 158.309C35.5985 158.118 35.6749 157.897 35.6749 157.645C35.6749 157.412 35.6079 157.22 35.4739 157.07C35.3426 156.92 35.1617 156.796 34.9312 156.697C34.7034 156.597 34.442 156.51 34.1472 156.435L33.1864 156.178C32.5191 156.001 31.9911 155.737 31.6025 155.386C31.2165 155.035 31.0236 154.569 31.0236 153.987C31.0236 153.51 31.1536 153.093 31.4135 152.737C31.6735 152.378 32.0259 152.099 32.4708 151.9C32.9184 151.699 33.4223 151.599 33.9824 151.599C34.5506 151.599 35.0504 151.698 35.4819 151.896C35.9161 152.095 36.2578 152.368 36.5071 152.717C36.7563 153.065 36.8863 153.464 36.897 153.915H35.6025ZM38.1098 158.369V157.292L41.6395 151.712H42.5119V153.275H41.9691L39.5008 157.183V157.247H44.3772V158.369H38.1098ZM42.0214 159.945V158.039L42.0335 157.553V151.712H43.2998V159.945H42.0214ZM47.0362 158.819L46.9799 159.257C46.9397 159.587 46.8727 159.926 46.7789 160.274C46.6851 160.626 46.586 160.95 46.4814 161.247C46.3796 161.545 46.2965 161.781 46.2322 161.955H45.3276C45.3652 161.789 45.4148 161.565 45.4764 161.284C45.5407 161.002 45.6024 160.686 45.6613 160.335C45.723 159.986 45.7672 159.631 45.794 159.269L45.8261 158.819H47.0362ZM48.6842 159.945L52.238 152.91V152.849H48.1213V151.712H53.6289V152.881L50.0791 159.945H48.6842ZM54.103 158.369V157.292L57.6327 151.712H58.5051V153.275H57.9623L55.494 157.183V157.247H60.3704V158.369H54.103ZM58.0146 159.945V158.039L58.0267 157.553V151.712H59.293V159.945H58.0146ZM64.4556 151.599C64.8335 151.602 65.2033 151.67 65.5651 151.804C65.9296 151.935 66.258 152.151 66.5501 152.451C66.8449 152.751 67.0794 153.155 67.2536 153.661C67.4278 154.168 67.5149 154.798 67.5149 155.551C67.5176 156.266 67.4452 156.904 67.2978 157.464C67.1504 158.022 66.9387 158.494 66.6626 158.879C66.3893 159.263 66.0583 159.555 65.6697 159.756C65.2811 159.957 64.8442 160.057 64.3591 160.057C63.8579 160.057 63.413 159.96 63.0244 159.764C62.6358 159.566 62.3195 159.294 62.0757 158.948C61.8344 158.599 61.6844 158.201 61.6254 157.754H62.948C63.0284 158.094 63.1892 158.369 63.4304 158.578C63.6717 158.784 63.9812 158.888 64.3591 158.888C64.9487 158.888 65.407 158.632 65.734 158.12C66.061 157.605 66.2245 156.887 66.2245 155.965H66.1641C66.0275 156.198 65.8546 156.399 65.6455 156.568C65.4392 156.737 65.2047 156.867 64.942 156.958C64.6821 157.046 64.406 157.091 64.1139 157.091C63.6368 157.091 63.204 156.975 62.8154 156.745C62.4294 156.512 62.1226 156.193 61.8947 155.788C61.6669 155.383 61.553 154.92 61.553 154.397C61.553 153.872 61.6736 153.397 61.9148 152.974C62.1561 152.548 62.4937 152.211 62.9279 151.965C63.3621 151.716 63.8713 151.594 64.4556 151.599ZM64.4596 152.709C64.1541 152.709 63.8794 152.784 63.6355 152.934C63.3943 153.081 63.204 153.282 63.0646 153.537C62.9252 153.789 62.8556 154.069 62.8556 154.377C62.8556 154.685 62.9239 154.965 63.0606 155.217C63.1973 155.466 63.3849 155.665 63.6234 155.812C63.8619 155.96 64.134 156.033 64.4395 156.033C64.6673 156.033 64.879 155.989 65.0747 155.901C65.273 155.812 65.4459 155.69 65.5933 155.535C65.7407 155.377 65.8559 155.197 65.939 154.996C66.0248 154.795 66.0663 154.585 66.0636 154.365C66.0636 154.07 65.994 153.798 65.8546 153.549C65.7179 153.297 65.5276 153.094 65.2837 152.942C65.0425 152.786 64.7678 152.709 64.4596 152.709ZM69.4081 160.025C69.1776 160.025 68.9793 159.945 68.8131 159.784C68.6496 159.621 68.5692 159.422 68.5719 159.189C68.5692 158.961 68.6496 158.767 68.8131 158.606C68.9793 158.443 69.1776 158.361 69.4081 158.361C69.6332 158.361 69.8275 158.443 69.991 158.606C70.1572 158.767 70.2416 158.961 70.2443 159.189C70.2416 159.344 70.2014 159.485 70.1237 159.611C70.0486 159.737 69.9481 159.838 69.8222 159.913C69.6962 159.988 69.5582 160.025 69.4081 160.025ZM74.4139 151.599C74.7918 151.602 75.1616 151.67 75.5234 151.804C75.8879 151.935 76.2162 152.151 76.5084 152.451C76.8032 152.751 77.0377 153.155 77.2119 153.661C77.3861 154.168 77.4732 154.798 77.4732 155.551C77.4759 156.266 77.4035 156.904 77.2561 157.464C77.1087 158.022 76.897 158.494 76.6209 158.879C76.3476 159.263 76.0166 159.555 75.628 159.756C75.2393 159.957 74.8025 160.057 74.3174 160.057C73.8162 160.057 73.3713 159.96 72.9827 159.764C72.5941 159.566 72.2778 159.294 72.0339 158.948C71.7927 158.599 71.6426 158.201 71.5837 157.754H72.9063C72.9867 158.094 73.1475 158.369 73.3887 158.578C73.6299 158.784 73.9395 158.888 74.3174 158.888C74.907 158.888 75.3653 158.632 75.6923 158.12C76.0192 157.605 76.1827 156.887 76.1827 155.965H76.1224C75.9857 156.198 75.8129 156.399 75.6038 156.568C75.3975 156.737 75.163 156.867 74.9003 156.958C74.6403 157.046 74.3643 157.091 74.0722 157.091C73.5951 157.091 73.1623 156.975 72.7736 156.745C72.3877 156.512 72.0808 156.193 71.853 155.788C71.6252 155.383 71.5113 154.92 71.5113 154.397C71.5113 153.872 71.6319 153.397 71.8731 152.974C72.1143 152.548 72.452 152.211 72.8862 151.965C73.3204 151.716 73.8296 151.594 74.4139 151.599ZM74.4179 152.709C74.1124 152.709 73.8376 152.784 73.5938 152.934C73.3525 153.081 73.1623 153.282 73.0229 153.537C72.8835 153.789 72.8138 154.069 72.8138 154.377C72.8138 154.685 72.8822 154.965 73.0189 155.217C73.1556 155.466 73.3432 155.665 73.5817 155.812C73.8202 155.96 74.0923 156.033 74.3978 156.033C74.6256 156.033 74.8373 155.989 75.033 155.901C75.2313 155.812 75.4042 155.69 75.5516 155.535C75.699 155.377 75.8142 155.197 75.8973 154.996C75.9831 154.795 76.0246 154.585 76.0219 154.365C76.0219 154.07 75.9522 153.798 75.8129 153.549C75.6762 153.297 75.4859 153.094 75.242 152.942C75.0008 152.786 74.7261 152.709 74.4179 152.709ZM81.7543 160.057C81.3765 160.055 81.0053 159.988 80.6408 159.856C80.279 159.725 79.9506 159.508 79.6558 159.205C79.3637 158.902 79.1292 158.496 78.9523 157.987C78.7781 157.478 78.6923 156.844 78.695 156.085C78.695 155.375 78.7674 154.743 78.9121 154.188C79.0595 153.631 79.2699 153.16 79.5433 152.777C79.8193 152.394 80.1516 152.102 80.5403 151.9C80.9289 151.699 81.3657 151.599 81.8508 151.599C82.352 151.599 82.7969 151.698 83.1855 151.896C83.5741 152.092 83.889 152.363 84.1303 152.709C84.3715 153.054 84.5229 153.446 84.5845 153.882H83.2619C83.1815 153.55 83.0207 153.282 82.7795 153.078C82.5383 152.872 82.2287 152.769 81.8508 152.769C81.2612 152.769 80.8043 153.026 80.48 153.541C80.1557 154.053 79.9908 154.762 79.9855 155.667H80.0458C80.1825 155.434 80.3553 155.235 80.5644 155.068C80.7734 154.9 81.0079 154.771 81.2679 154.682C81.5279 154.591 81.8039 154.546 82.0961 154.546C82.5758 154.546 83.0086 154.662 83.3946 154.896C83.7805 155.126 84.0874 155.444 84.3152 155.848C84.543 156.253 84.6569 156.718 84.6569 157.243C84.6569 157.774 84.535 158.254 84.2911 158.682C84.0499 159.109 83.7122 159.445 83.278 159.692C82.8438 159.938 82.3359 160.06 81.7543 160.057ZM81.7503 158.948C82.0559 158.948 82.3292 158.873 82.5704 158.723C82.8143 158.573 83.006 158.37 83.1453 158.116C83.2847 157.861 83.3544 157.577 83.3544 157.263C83.3544 156.955 83.286 156.676 83.1493 156.427C83.0153 156.175 82.8291 155.976 82.5905 155.828C82.352 155.678 82.08 155.603 81.7744 155.603C81.544 155.603 81.3296 155.647 81.1312 155.736C80.9356 155.824 80.764 155.946 80.6166 156.102C80.4692 156.257 80.354 156.435 80.2709 156.636C80.1878 156.837 80.1463 157.05 80.1463 157.275C80.1463 157.576 80.2146 157.853 80.3513 158.108C80.4907 158.36 80.681 158.563 80.9222 158.719C81.1661 158.871 81.4421 158.948 81.7503 158.948Z" fill="#131316"/>
<path d="M266.761 130.228V139.662M266.761 130.228L270.535 134.001M266.761 130.228L262.988 134.001" stroke="#3BB764" stroke-width="1.13208" stroke-linecap="round" stroke-linejoin="round"/>
<path d="M281.354 138.547C280.999 138.547 280.652 138.513 280.312 138.445C279.98 138.369 279.667 138.264 279.373 138.128C279.086 137.984 278.833 137.815 278.614 137.618L279.022 136.713C279.376 137 279.742 137.211 280.12 137.347C280.505 137.475 280.905 137.539 281.32 137.539C281.674 137.539 281.976 137.49 282.225 137.392C282.474 137.286 282.663 137.135 282.791 136.939C282.92 136.735 282.984 136.486 282.984 136.192C282.984 135.762 282.841 135.441 282.554 135.23C282.274 135.011 281.863 134.901 281.32 134.901H280.097V133.917H281.207C281.524 133.917 281.795 133.864 282.022 133.758C282.256 133.645 282.437 133.49 282.565 133.294C282.693 133.09 282.758 132.845 282.758 132.558C282.758 132.173 282.629 131.879 282.373 131.675C282.124 131.471 281.761 131.369 281.286 131.369C280.886 131.369 280.508 131.441 280.154 131.584C279.799 131.72 279.467 131.939 279.158 132.241L278.75 131.335C279.059 131.026 279.448 130.788 279.916 130.622C280.384 130.449 280.871 130.362 281.376 130.362C281.905 130.362 282.358 130.445 282.735 130.611C283.112 130.777 283.403 131.015 283.607 131.324C283.81 131.626 283.912 131.996 283.912 132.434C283.912 132.909 283.78 133.32 283.516 133.667C283.252 134.015 282.89 134.252 282.429 134.381V134.267C282.784 134.328 283.09 134.449 283.346 134.63C283.603 134.811 283.799 135.041 283.935 135.32C284.071 135.592 284.139 135.909 284.139 136.271C284.139 136.739 284.025 137.147 283.799 137.494C283.573 137.834 283.252 138.094 282.837 138.275C282.422 138.456 281.927 138.547 281.354 138.547ZM287.7 138.547C287.421 138.547 287.142 138.513 286.863 138.445C286.583 138.369 286.319 138.264 286.07 138.128C285.821 137.984 285.598 137.815 285.402 137.618L285.821 136.724C286.1 137.003 286.398 137.211 286.715 137.347C287.04 137.475 287.372 137.539 287.712 137.539C288.066 137.539 288.376 137.475 288.64 137.347C288.912 137.218 289.142 137.026 289.33 136.769C289.519 136.513 289.659 136.196 289.749 135.818C289.847 135.441 289.896 135.003 289.896 134.505V133.6H289.987C289.934 133.992 289.806 134.335 289.602 134.63C289.398 134.917 289.142 135.135 288.832 135.286C288.53 135.437 288.183 135.513 287.791 135.513C287.33 135.513 286.919 135.407 286.557 135.196C286.202 134.977 285.919 134.675 285.708 134.29C285.504 133.905 285.402 133.471 285.402 132.988C285.402 132.475 285.512 132.022 285.73 131.63C285.957 131.23 286.263 130.92 286.647 130.701C287.032 130.475 287.478 130.362 287.983 130.362C288.632 130.362 289.179 130.517 289.625 130.826C290.078 131.128 290.421 131.573 290.655 132.162C290.889 132.75 291.006 133.46 291.006 134.29C291.006 135.196 290.874 135.966 290.61 136.6C290.353 137.234 289.976 137.717 289.478 138.049C288.987 138.381 288.395 138.547 287.7 138.547ZM288.063 134.562C288.364 134.562 288.632 134.494 288.866 134.358C289.1 134.222 289.281 134.034 289.41 133.792C289.546 133.543 289.613 133.26 289.613 132.943C289.613 132.618 289.549 132.335 289.421 132.094C289.293 131.852 289.112 131.664 288.878 131.528C288.644 131.384 288.372 131.313 288.063 131.313C287.753 131.313 287.481 131.384 287.247 131.528C287.021 131.664 286.84 131.852 286.704 132.094C286.576 132.335 286.512 132.618 286.512 132.943C286.512 133.26 286.576 133.543 286.704 133.792C286.84 134.034 287.021 134.222 287.247 134.358C287.481 134.494 287.753 134.562 288.063 134.562ZM295.032 138.739L294.262 138.286L298.937 130.169L299.707 130.622L295.032 138.739ZM294.205 135.241C293.798 135.241 293.443 135.143 293.141 134.947C292.847 134.75 292.62 134.471 292.462 134.109C292.303 133.739 292.224 133.301 292.224 132.796C292.224 132.034 292.401 131.437 292.756 131.007C293.111 130.577 293.594 130.362 294.205 130.362C294.613 130.362 294.964 130.46 295.258 130.656C295.56 130.845 295.79 131.12 295.949 131.483C296.107 131.845 296.186 132.283 296.186 132.796C296.186 133.301 296.107 133.739 295.949 134.109C295.79 134.471 295.564 134.75 295.269 134.947C294.975 135.143 294.62 135.241 294.205 135.241ZM294.205 134.437C294.522 134.437 294.771 134.301 294.952 134.03C295.134 133.758 295.224 133.347 295.224 132.796C295.224 132.245 295.134 131.834 294.952 131.562C294.771 131.29 294.522 131.154 294.205 131.154C293.888 131.154 293.639 131.29 293.458 131.562C293.277 131.826 293.186 132.237 293.186 132.796C293.186 133.354 293.277 133.769 293.458 134.041C293.639 134.305 293.888 134.437 294.205 134.437ZM299.764 138.547C299.356 138.547 299.001 138.452 298.7 138.264C298.405 138.067 298.179 137.788 298.02 137.426C297.869 137.056 297.794 136.615 297.794 136.101C297.794 135.339 297.968 134.743 298.315 134.313C298.669 133.883 299.152 133.667 299.764 133.667C300.179 133.667 300.534 133.766 300.828 133.962C301.122 134.158 301.349 134.437 301.507 134.8C301.666 135.162 301.745 135.596 301.745 136.101C301.745 136.615 301.666 137.056 301.507 137.426C301.349 137.788 301.122 138.067 300.828 138.264C300.534 138.452 300.179 138.547 299.764 138.547ZM299.764 137.754C300.081 137.754 300.33 137.618 300.511 137.347C300.692 137.075 300.783 136.66 300.783 136.101C300.783 135.558 300.692 135.15 300.511 134.879C300.33 134.607 300.081 134.471 299.764 134.471C299.454 134.471 299.209 134.607 299.028 134.879C298.847 135.143 298.756 135.55 298.756 136.101C298.756 136.66 298.847 137.075 299.028 137.347C299.209 137.618 299.454 137.754 299.764 137.754Z" fill="#3BB764"/>
<path d="M268.527 160.266L266.15 154.73H267.395L269.218 159.281H268.935L270.803 154.73H271.98L269.58 160.266H268.527ZM274.716 160.368C274.414 160.368 274.119 160.341 273.833 160.288C273.553 160.235 273.293 160.16 273.051 160.062C272.817 159.964 272.614 159.843 272.44 159.7L272.768 158.907C272.957 159.043 273.157 159.156 273.368 159.247C273.587 159.337 273.81 159.405 274.036 159.451C274.27 159.496 274.5 159.518 274.727 159.518C275.134 159.518 275.44 159.451 275.644 159.315C275.848 159.171 275.949 158.979 275.949 158.737C275.949 158.541 275.882 158.39 275.746 158.284C275.617 158.171 275.414 158.088 275.134 158.035L274.036 157.82C273.553 157.722 273.191 157.549 272.949 157.3C272.708 157.051 272.587 156.726 272.587 156.326C272.587 155.986 272.682 155.688 272.87 155.432C273.059 155.175 273.323 154.979 273.663 154.843C274.01 154.7 274.41 154.628 274.863 154.628C275.127 154.628 275.383 154.654 275.633 154.707C275.882 154.752 276.116 154.824 276.334 154.922C276.553 155.02 276.738 155.145 276.889 155.296L276.549 156.088C276.399 155.96 276.229 155.851 276.04 155.76C275.859 155.669 275.666 155.601 275.463 155.556C275.259 155.503 275.059 155.477 274.863 155.477C274.463 155.477 274.161 155.552 273.957 155.703C273.753 155.847 273.651 156.039 273.651 156.281C273.651 156.469 273.712 156.624 273.833 156.745C273.961 156.858 274.153 156.941 274.41 156.994L275.508 157.209C276.006 157.307 276.383 157.477 276.64 157.718C276.897 157.952 277.025 158.273 277.025 158.681C277.025 159.028 276.927 159.33 276.731 159.586C276.542 159.835 276.274 160.028 275.927 160.164C275.58 160.3 275.176 160.368 274.716 160.368ZM278.137 160.266V158.907H279.518V160.266H278.137ZM283.376 160.266L286.931 152.284H287.927L291.493 160.266H290.282L289.308 158.001L289.84 158.33H285.018L285.55 158.001L284.587 160.266H283.376ZM287.418 153.598L285.708 157.651L285.425 157.368H289.433L289.161 157.651L287.44 153.598H287.418ZM292.458 162.303V154.73H293.578V155.964H293.488C293.608 155.556 293.846 155.232 294.201 154.99C294.556 154.749 294.978 154.628 295.469 154.628C295.959 154.628 296.386 154.745 296.748 154.979C297.118 155.213 297.405 155.545 297.608 155.975C297.82 156.398 297.925 156.903 297.925 157.492C297.925 158.073 297.824 158.583 297.62 159.02C297.416 159.451 297.129 159.783 296.759 160.017C296.397 160.251 295.967 160.368 295.469 160.368C294.986 160.368 294.571 160.251 294.224 160.017C293.876 159.775 293.639 159.458 293.51 159.066H293.612V162.303H292.458ZM295.175 159.462C295.658 159.462 296.039 159.292 296.318 158.952C296.605 158.613 296.748 158.126 296.748 157.492C296.748 156.851 296.605 156.364 296.318 156.032C296.039 155.7 295.658 155.534 295.175 155.534C294.699 155.534 294.318 155.7 294.031 156.032C293.744 156.364 293.601 156.851 293.601 157.492C293.601 158.126 293.744 158.613 294.031 158.952C294.318 159.292 294.699 159.462 295.175 159.462ZM299.246 160.266V154.73H300.366V156.054H300.264C300.385 155.609 300.604 155.269 300.921 155.035C301.238 154.794 301.653 154.654 302.166 154.617L302.574 154.594L302.664 155.59L301.929 155.658C301.438 155.711 301.064 155.869 300.808 156.134C300.551 156.398 300.423 156.756 300.423 157.209V160.266H299.246Z" fill="#60606C"/>
</g>
</g>
</g>
<defs>
<filter id="filter0_d_9916_27615" x="0.333496" y="0" width="332.667" height="222" filterUnits="userSpaceOnUse" color-interpolation-filters="sRGB">
<feFlood flood-opacity="0" result="BackgroundImageFix"/>
<feColorMatrix in="SourceAlpha" type="matrix" values="0 0 0 0 0 0 0 0 0 0 0 0 0 0 0 0 0 0 127 0" result="hardAlpha"/>
<feMorphology radius="1" operator="dilate" in="SourceAlpha" result="effect1_dropShadow_9916_27615"/>
<feOffset/>
<feComposite in2="hardAlpha" operator="out"/>
<feColorMatrix type="matrix" values="0 0 0 0 0.0666667 0 0 0 0 0.0666667 0 0 0 0 0.0666667 0 0 0 0.04 0"/>
<feBlend mode="normal" in2="BackgroundImageFix" result="effect1_dropShadow_9916_27615"/>
<feBlend mode="normal" in="SourceGraphic" in2="effect1_dropShadow_9916_27615" result="shape"/>
</filter>
<filter id="filter1_d_9916_27615" x="-5.97476" y="29.8289" width="190.755" height="102.509" filterUnits="userSpaceOnUse" color-interpolation-filters="sRGB">
<feFlood flood-opacity="0" result="BackgroundImageFix"/>
<feColorMatrix in="SourceAlpha" type="matrix" values="0 0 0 0 0 0 0 0 0 0 0 0 0 0 0 0 0 0 127 0" result="hardAlpha"/>
<feOffset dy="4.5283"/>
<feGaussianBlur stdDeviation="11.3208"/>
<feComposite in2="hardAlpha" operator="out"/>
<feColorMatrix type="matrix" values="0 0 0 0 0.0745098 0 0 0 0 0.0745098 0 0 0 0 0.0862745 0 0 0 0.05 0"/>
<feBlend mode="normal" in2="BackgroundImageFix" result="effect1_dropShadow_9916_27615"/>
<feBlend mode="normal" in="SourceGraphic" in2="effect1_dropShadow_9916_27615" result="shape"/>
</filter>
<filter id="filter2_d_9916_27615" x="148.554" y="29.8289" width="190.755" height="102.509" filterUnits="userSpaceOnUse" color-interpolation-filters="sRGB">
<feFlood flood-opacity="0" result="BackgroundImageFix"/>
<feColorMatrix in="SourceAlpha" type="matrix" values="0 0 0 0 0 0 0 0 0 0 0 0 0 0 0 0 0 0 127 0" result="hardAlpha"/>
<feOffset dy="4.5283"/>
<feGaussianBlur stdDeviation="11.3208"/>
<feComposite in2="hardAlpha" operator="out"/>
<feColorMatrix type="matrix" values="0 0 0 0 0.0745098 0 0 0 0 0.0745098 0 0 0 0 0.0862745 0 0 0 0.05 0"/>
<feBlend mode="normal" in2="BackgroundImageFix" result="effect1_dropShadow_9916_27615"/>
<feBlend mode="normal" in="SourceGraphic" in2="effect1_dropShadow_9916_27615" result="shape"/>
</filter>
<filter id="filter3_d_9916_27615" x="-5.97476" y="98.7183" width="345.283" height="102.509" filterUnits="userSpaceOnUse" color-interpolation-filters="sRGB">
<feFlood flood-opacity="0" result="BackgroundImageFix"/>
<feColorMatrix in="SourceAlpha" type="matrix" values="0 0 0 0 0 0 0 0 0 0 0 0 0 0 0 0 0 0 127 0" result="hardAlpha"/>
<feOffset dy="4.5283"/>
<feGaussianBlur stdDeviation="11.3208"/>
<feComposite in2="hardAlpha" operator="out"/>
<feColorMatrix type="matrix" values="0 0 0 0 0.0745098 0 0 0 0 0.0745098 0 0 0 0 0.0862745 0 0 0 0.05 0"/>
<feBlend mode="normal" in2="BackgroundImageFix" result="effect1_dropShadow_9916_27615"/>
<feBlend mode="normal" in="SourceGraphic" in2="effect1_dropShadow_9916_27615" result="shape"/>
</filter>
<clipPath id="clip0_9916_27615">
<rect x="1.3335" y="1" width="330.667" height="220" rx="12" fill="white"/>
</clipPath>
</defs>
</svg>
