<svg width="461" height="298" viewBox="0 0 461 298" fill="none" xmlns="http://www.w3.org/2000/svg">
<g filter="url(#filter0_d_10093_885)">
<rect x="180" y="160" width="111.286" height="43.7132" rx="3.46415" fill="white" shape-rendering="crispEdges"/>
<rect x="180.433" y="160.433" width="110.42" height="42.8472" rx="3.03113" stroke="#EEEEF1" stroke-width="0.866038" shape-rendering="crispEdges"/>
<path d="M191.224 178.857V172.751H195.277V173.548H192.159V175.366H195.095V176.163H192.159V178.06H195.277V178.857H191.224ZM196.037 178.857L197.83 176.414L197.847 176.917L196.115 174.57H197.163L198.324 176.155H198.211L199.371 174.57H200.419L198.696 176.899L198.713 176.432L200.506 178.857H199.449L198.211 177.168H198.315L197.085 178.857H196.037ZM201.361 180.415V174.57H202.219V175.488H202.21C202.331 175.17 202.528 174.925 202.799 174.752C203.076 174.578 203.397 174.492 203.76 174.492C204.153 174.492 204.494 174.584 204.782 174.769C205.077 174.954 205.302 175.213 205.458 175.548C205.619 175.877 205.7 176.264 205.7 176.709C205.7 177.148 205.622 177.534 205.466 177.869C205.311 178.204 205.088 178.467 204.8 178.657C204.511 178.842 204.165 178.935 203.76 178.935C203.402 178.935 203.094 178.851 202.834 178.683C202.58 178.51 202.395 178.282 202.279 177.999H202.297V180.415H201.361ZM203.527 178.198C203.908 178.198 204.208 178.068 204.427 177.809C204.652 177.543 204.765 177.176 204.765 176.709C204.765 176.241 204.655 175.877 204.436 175.618C204.216 175.358 203.913 175.228 203.527 175.228C203.14 175.228 202.834 175.358 202.609 175.618C202.389 175.877 202.279 176.241 202.279 176.709C202.279 177.176 202.392 177.543 202.617 177.809C202.842 178.068 203.145 178.198 203.527 178.198ZM208.997 178.935C208.501 178.935 208.074 178.848 207.716 178.675C207.364 178.496 207.092 178.239 206.902 177.904C206.717 177.569 206.625 177.174 206.625 176.717C206.625 176.284 206.711 175.9 206.884 175.566C207.063 175.231 207.314 174.968 207.638 174.778C207.967 174.587 208.351 174.492 208.79 174.492C209.205 174.492 209.56 174.581 209.855 174.76C210.155 174.933 210.383 175.185 210.539 175.514C210.701 175.837 210.781 176.224 210.781 176.674V176.969H207.352V176.371H210.141L209.993 176.518C209.993 176.079 209.889 175.747 209.682 175.522C209.474 175.291 209.182 175.176 208.807 175.176C208.547 175.176 208.319 175.234 208.123 175.349C207.932 175.465 207.782 175.629 207.672 175.843C207.568 176.051 207.517 176.305 207.517 176.605V176.7C207.517 177.035 207.574 177.312 207.69 177.532C207.805 177.751 207.976 177.915 208.201 178.025C208.426 178.135 208.7 178.19 209.023 178.19C209.254 178.19 209.491 178.158 209.734 178.094C209.976 178.031 210.198 177.918 210.4 177.757L210.686 178.415C210.473 178.588 210.213 178.718 209.907 178.805C209.601 178.891 209.298 178.935 208.997 178.935ZM211.933 178.857V174.57H212.808V175.47H212.791C212.929 175.159 213.134 174.919 213.405 174.752C213.683 174.578 213.994 174.492 214.341 174.492C214.693 174.492 214.985 174.555 215.215 174.682C215.452 174.809 215.628 175.006 215.744 175.271C215.865 175.531 215.926 175.86 215.926 176.258V178.857H214.99V176.302C214.99 176.077 214.959 175.889 214.895 175.739C214.837 175.583 214.742 175.467 214.609 175.392C214.476 175.312 214.3 175.271 214.081 175.271C213.844 175.271 213.634 175.323 213.449 175.427C213.27 175.531 213.128 175.675 213.024 175.86C212.92 176.039 212.869 176.244 212.869 176.475V178.857H211.933ZM218.931 178.935C218.689 178.935 218.452 178.914 218.221 178.874C217.99 178.833 217.776 178.776 217.58 178.701C217.39 178.626 217.225 178.533 217.087 178.424L217.355 177.774C217.499 177.878 217.658 177.965 217.831 178.034C218.01 178.097 218.192 178.146 218.377 178.181C218.562 178.21 218.741 178.224 218.914 178.224C219.249 178.224 219.503 178.178 219.676 178.086C219.855 177.988 219.944 177.849 219.944 177.67C219.944 177.514 219.892 177.399 219.789 177.324C219.685 177.243 219.517 177.182 219.286 177.142L218.386 176.995C217.987 176.925 217.687 176.79 217.485 176.588C217.289 176.38 217.19 176.12 217.19 175.808C217.19 175.543 217.263 175.312 217.407 175.115C217.551 174.919 217.762 174.766 218.039 174.656C218.316 174.547 218.645 174.492 219.026 174.492C219.234 174.492 219.442 174.512 219.65 174.552C219.858 174.587 220.051 174.642 220.23 174.717C220.415 174.792 220.565 174.887 220.681 175.003L220.403 175.644C220.282 175.545 220.144 175.465 219.988 175.401C219.838 175.338 219.679 175.288 219.511 175.254C219.344 175.219 219.182 175.202 219.026 175.202C218.709 175.202 218.464 175.254 218.29 175.358C218.123 175.456 218.039 175.594 218.039 175.773C218.039 175.924 218.088 176.039 218.186 176.12C218.285 176.201 218.44 176.258 218.654 176.293L219.529 176.458C219.956 176.533 220.274 176.665 220.481 176.856C220.689 177.047 220.793 177.306 220.793 177.635C220.793 177.907 220.715 178.141 220.559 178.337C220.409 178.527 220.193 178.675 219.91 178.779C219.633 178.883 219.306 178.935 218.931 178.935ZM224.052 178.935C223.555 178.935 223.128 178.848 222.77 178.675C222.418 178.496 222.146 178.239 221.956 177.904C221.771 177.569 221.679 177.174 221.679 176.717C221.679 176.284 221.765 175.9 221.938 175.566C222.117 175.231 222.369 174.968 222.692 174.778C223.021 174.587 223.405 174.492 223.844 174.492C224.259 174.492 224.615 174.581 224.909 174.76C225.209 174.933 225.437 175.185 225.593 175.514C225.755 175.837 225.836 176.224 225.836 176.674V176.969H222.406V176.371H225.195L225.048 176.518C225.048 176.079 224.944 175.747 224.736 175.522C224.528 175.291 224.236 175.176 223.861 175.176C223.601 175.176 223.373 175.234 223.177 175.349C222.986 175.465 222.836 175.629 222.727 175.843C222.623 176.051 222.571 176.305 222.571 176.605V176.7C222.571 177.035 222.628 177.312 222.744 177.532C222.859 177.751 223.03 177.915 223.255 178.025C223.48 178.135 223.754 178.19 224.078 178.19C224.309 178.19 224.545 178.158 224.788 178.094C225.03 178.031 225.253 177.918 225.455 177.757L225.74 178.415C225.527 178.588 225.267 178.718 224.961 178.805C224.655 178.891 224.352 178.935 224.052 178.935ZM228.59 178.935C228.347 178.935 228.11 178.914 227.879 178.874C227.648 178.833 227.435 178.776 227.239 178.701C227.048 178.626 226.883 178.533 226.745 178.424L227.013 177.774C227.158 177.878 227.316 177.965 227.49 178.034C227.669 178.097 227.851 178.146 228.035 178.181C228.22 178.21 228.399 178.224 228.572 178.224C228.907 178.224 229.161 178.178 229.334 178.086C229.513 177.988 229.603 177.849 229.603 177.67C229.603 177.514 229.551 177.399 229.447 177.324C229.343 177.243 229.176 177.182 228.945 177.142L228.044 176.995C227.646 176.925 227.345 176.79 227.143 176.588C226.947 176.38 226.849 176.12 226.849 175.808C226.849 175.543 226.921 175.312 227.065 175.115C227.21 174.919 227.42 174.766 227.698 174.656C227.975 174.547 228.304 174.492 228.685 174.492C228.893 174.492 229.1 174.512 229.308 174.552C229.516 174.587 229.71 174.642 229.889 174.717C230.073 174.792 230.223 174.887 230.339 175.003L230.062 175.644C229.941 175.545 229.802 175.465 229.646 175.401C229.496 175.338 229.337 175.288 229.17 175.254C229.002 175.219 228.841 175.202 228.685 175.202C228.367 175.202 228.122 175.254 227.949 175.358C227.781 175.456 227.698 175.594 227.698 175.773C227.698 175.924 227.747 176.039 227.845 176.12C227.943 176.201 228.099 176.258 228.312 176.293L229.187 176.458C229.614 176.533 229.932 176.665 230.14 176.856C230.348 177.047 230.452 177.306 230.452 177.635C230.452 177.907 230.374 178.141 230.218 178.337C230.068 178.527 229.851 178.675 229.568 178.779C229.291 178.883 228.965 178.935 228.59 178.935Z" fill="#888888"/>
<path d="M192.957 193.644V185.771H193.462V193.644H192.957ZM194.486 188.243C194.455 187.961 194.326 187.741 194.098 187.585C193.871 187.429 193.582 187.352 193.231 187.352C192.981 187.352 192.765 187.391 192.582 187.468C192.402 187.544 192.262 187.649 192.164 187.782C192.065 187.915 192.016 188.068 192.016 188.24C192.014 188.382 192.047 188.505 192.115 188.609C192.182 188.712 192.272 188.798 192.382 188.868C192.493 188.937 192.614 188.996 192.745 189.043C192.876 189.09 193.005 189.129 193.13 189.16L193.735 189.317C193.951 189.368 194.166 189.438 194.381 189.526C194.597 189.614 194.792 189.728 194.969 189.867C195.147 190.007 195.291 190.178 195.399 190.381C195.508 190.584 195.562 190.826 195.562 191.107C195.562 191.468 195.469 191.787 195.282 192.066C195.098 192.343 194.83 192.561 194.48 192.721C194.129 192.879 193.705 192.958 193.206 192.958C192.729 192.958 192.315 192.883 191.964 192.734C191.613 192.582 191.339 192.366 191.14 192.085C190.943 191.802 190.835 191.462 190.817 191.067H191.838C191.854 191.292 191.925 191.48 192.05 191.629C192.177 191.777 192.34 191.888 192.539 191.962C192.738 192.033 192.958 192.069 193.2 192.069C193.461 192.069 193.691 192.028 193.892 191.946C194.093 191.864 194.251 191.75 194.366 191.605C194.483 191.459 194.541 191.29 194.541 191.097C194.541 190.919 194.49 190.772 194.387 190.658C194.287 190.543 194.149 190.447 193.972 190.372C193.798 190.296 193.598 190.229 193.373 190.172L192.638 189.975C192.127 189.84 191.723 189.638 191.426 189.369C191.131 189.1 190.983 188.744 190.983 188.299C190.983 187.934 191.082 187.615 191.281 187.342C191.48 187.068 191.75 186.854 192.09 186.703C192.432 186.549 192.818 186.472 193.246 186.472C193.681 186.472 194.063 186.548 194.394 186.7C194.726 186.851 194.987 187.06 195.178 187.327C195.368 187.594 195.468 187.899 195.476 188.243H194.486ZM198.649 192.943C198.253 192.943 197.899 192.867 197.585 192.715C197.273 192.563 197.024 192.355 196.838 192.091C196.653 191.826 196.555 191.525 196.542 191.187H197.539C197.561 191.451 197.678 191.668 197.889 191.839C198.1 192.009 198.354 192.094 198.649 192.094C198.885 192.094 199.094 192.041 199.276 191.934C199.459 191.825 199.602 191.676 199.707 191.485C199.811 191.292 199.864 191.074 199.864 190.83C199.864 190.58 199.809 190.358 199.701 190.166C199.594 189.971 199.446 189.818 199.258 189.707C199.071 189.597 198.857 189.54 198.615 189.538C198.424 189.536 198.235 189.57 198.046 189.64C197.858 189.707 197.706 189.797 197.591 189.907L196.656 189.763L197.001 186.558H200.54V187.428H197.855L197.662 189.154H197.699C197.818 189.027 197.981 188.921 198.188 188.837C198.397 188.753 198.622 188.711 198.864 188.711C199.248 188.711 199.589 188.802 199.888 188.985C200.188 189.165 200.423 189.413 200.596 189.729C200.77 190.043 200.857 190.401 200.857 190.805C200.857 191.217 200.763 191.584 200.574 191.906C200.386 192.228 200.125 192.481 199.793 192.666C199.463 192.85 199.082 192.943 198.649 192.943ZM202.928 191.995L202.885 192.331C202.854 192.583 202.803 192.842 202.731 193.109C202.66 193.377 202.584 193.625 202.504 193.853C202.426 194.081 202.362 194.261 202.313 194.394H201.621C201.65 194.267 201.688 194.096 201.735 193.881C201.784 193.665 201.831 193.423 201.876 193.155C201.923 192.888 201.957 192.617 201.978 192.34L202.002 191.995H202.928ZM204.022 191.651V190.827L206.722 186.558H207.39V187.754H206.974L205.086 190.744V190.793H208.817V191.651H204.022ZM207.014 192.857V191.399L207.024 191.027V186.558H207.992V192.857H207.014ZM211.932 192.943C211.537 192.943 211.182 192.867 210.868 192.715C210.557 192.563 210.308 192.355 210.121 192.091C209.937 191.826 209.838 191.525 209.826 191.187H210.822C210.845 191.451 210.962 191.668 211.173 191.839C211.384 192.009 211.637 192.094 211.932 192.094C212.168 192.094 212.377 192.041 212.56 191.934C212.742 191.825 212.886 191.676 212.99 191.485C213.095 191.292 213.147 191.074 213.147 190.83C213.147 190.58 213.093 190.358 212.984 190.166C212.878 189.971 212.73 189.818 212.541 189.707C212.355 189.597 212.141 189.54 211.899 189.538C211.708 189.536 211.518 189.57 211.33 189.64C211.141 189.707 210.989 189.797 210.875 189.907L209.94 189.763L210.284 186.558H213.824V187.428H211.139L210.945 189.154H210.982C211.101 189.027 211.264 188.921 211.471 188.837C211.68 188.753 211.906 188.711 212.148 188.711C212.531 188.711 212.873 188.802 213.172 188.985C213.471 189.165 213.707 189.413 213.879 189.729C214.053 190.043 214.141 190.401 214.141 190.805C214.141 191.217 214.046 191.584 213.858 191.906C213.669 192.228 213.409 192.481 213.077 192.666C212.746 192.85 212.365 192.943 211.932 192.943ZM217.422 192.943C217.133 192.941 216.849 192.889 216.57 192.789C216.293 192.688 216.042 192.522 215.816 192.291C215.593 192.059 215.414 191.748 215.278 191.359C215.145 190.969 215.079 190.484 215.081 189.904C215.081 189.361 215.137 188.877 215.248 188.453C215.36 188.026 215.521 187.666 215.73 187.373C215.942 187.08 216.196 186.856 216.493 186.703C216.79 186.549 217.125 186.472 217.496 186.472C217.879 186.472 218.219 186.548 218.517 186.7C218.814 186.849 219.055 187.056 219.239 187.321C219.424 187.585 219.54 187.885 219.587 188.219H218.575C218.514 187.965 218.391 187.76 218.206 187.604C218.022 187.446 217.785 187.367 217.496 187.367C217.045 187.367 216.695 187.564 216.447 187.957C216.199 188.349 216.073 188.891 216.069 189.584H216.115C216.219 189.406 216.352 189.253 216.512 189.126C216.671 188.997 216.851 188.899 217.05 188.831C217.249 188.761 217.46 188.726 217.683 188.726C218.05 188.726 218.381 188.815 218.677 188.994C218.972 189.17 219.207 189.413 219.381 189.723C219.555 190.032 219.642 190.388 219.642 190.79C219.642 191.196 219.549 191.563 219.362 191.891C219.178 192.217 218.92 192.474 218.587 192.663C218.255 192.851 217.867 192.945 217.422 192.943ZM217.419 192.094C217.652 192.094 217.862 192.036 218.046 191.922C218.233 191.807 218.379 191.652 218.486 191.457C218.593 191.262 218.646 191.045 218.646 190.805C218.646 190.569 218.594 190.356 218.489 190.166C218.386 189.973 218.244 189.82 218.062 189.707C217.879 189.593 217.671 189.535 217.437 189.535C217.261 189.535 217.097 189.569 216.945 189.637C216.795 189.704 216.664 189.798 216.551 189.916C216.439 190.035 216.351 190.172 216.287 190.325C216.223 190.479 216.192 190.642 216.192 190.814C216.192 191.044 216.244 191.256 216.349 191.451C216.455 191.644 216.601 191.8 216.785 191.919C216.972 192.035 217.183 192.094 217.419 192.094ZM221.058 192.918C220.881 192.918 220.729 192.857 220.602 192.734C220.477 192.608 220.416 192.457 220.418 192.278C220.416 192.104 220.477 191.955 220.602 191.832C220.729 191.707 220.881 191.645 221.058 191.645C221.23 191.645 221.378 191.707 221.503 191.832C221.631 191.955 221.695 192.104 221.697 192.278C221.695 192.397 221.664 192.505 221.605 192.601C221.548 192.698 221.471 192.775 221.374 192.832C221.278 192.889 221.172 192.918 221.058 192.918ZM222.84 192.857V192.112L224.993 189.932C225.212 189.702 225.395 189.5 225.54 189.326C225.686 189.152 225.795 188.985 225.866 188.825C225.938 188.665 225.974 188.495 225.974 188.314C225.974 188.109 225.926 187.933 225.83 187.785C225.735 187.636 225.605 187.521 225.439 187.441C225.275 187.359 225.089 187.318 224.882 187.318C224.663 187.318 224.471 187.363 224.307 187.453C224.145 187.543 224.02 187.669 223.932 187.831C223.844 187.993 223.8 188.186 223.8 188.41H222.822C222.822 188.02 222.911 187.68 223.089 187.388C223.268 187.097 223.514 186.872 223.827 186.712C224.141 186.552 224.498 186.472 224.898 186.472C225.306 186.472 225.663 186.551 225.971 186.709C226.281 186.865 226.522 187.079 226.694 187.352C226.868 187.624 226.955 187.932 226.955 188.274C226.955 188.508 226.911 188.738 226.823 188.963C226.735 189.189 226.581 189.44 226.362 189.717C226.142 189.991 225.836 190.323 225.442 190.713L224.258 191.94V191.986H227.054V192.857H222.84ZM227.875 191.651V190.827L230.575 186.558H231.243V187.754H230.828L228.939 190.744V190.793H232.67V191.651H227.875ZM230.868 192.857V191.399L230.877 191.027V186.558H231.846V192.857H230.868Z" fill="black"/>
<path d="M253.233 177.465L253.233 170.248M253.233 177.465L250.346 174.578M253.233 177.465L256.12 174.578" stroke="#3BB764" stroke-width="0.866038" stroke-linecap="round" stroke-linejoin="round"/>
<path d="M262.707 176.857V176.06H264.292V171.513L264.769 171.565L263.028 172.656L262.63 171.946L264.543 170.751H265.228V176.06H266.683V176.857H262.707ZM267.779 176.857V176.164L269.858 173.981C270.06 173.773 270.215 173.586 270.325 173.418C270.435 173.245 270.513 173.081 270.559 172.925C270.611 172.769 270.637 172.61 270.637 172.448C270.637 172.131 270.536 171.891 270.334 171.73C270.132 171.562 269.852 171.478 269.494 171.478C269.217 171.478 268.94 171.53 268.662 171.634C268.391 171.738 268.131 171.906 267.883 172.137L267.545 171.418C267.799 171.181 268.105 170.999 268.463 170.872C268.827 170.739 269.202 170.673 269.589 170.673C269.999 170.673 270.351 170.742 270.646 170.881C270.94 171.014 271.165 171.207 271.321 171.461C271.483 171.715 271.564 172.021 271.564 172.379C271.564 172.558 271.541 172.734 271.494 172.907C271.454 173.081 271.39 173.254 271.304 173.427C271.217 173.594 271.105 173.768 270.966 173.947C270.833 174.12 270.674 174.302 270.49 174.492L268.905 176.146V176.06H271.797V176.857H267.779ZM274.938 177.09L274.332 176.735L277.908 170.517L278.515 170.872L274.938 177.09ZM274.262 174.406C273.951 174.406 273.676 174.331 273.44 174.181C273.209 174.03 273.03 173.817 272.903 173.54C272.776 173.257 272.712 172.919 272.712 172.526C272.712 171.943 272.854 171.49 273.136 171.167C273.419 170.838 273.795 170.673 274.262 170.673C274.58 170.673 274.854 170.748 275.085 170.898C275.316 171.043 275.495 171.253 275.622 171.53C275.749 171.808 275.812 172.14 275.812 172.526C275.812 172.913 275.749 173.248 275.622 173.531C275.495 173.814 275.316 174.03 275.085 174.181C274.854 174.331 274.58 174.406 274.262 174.406ZM274.262 173.782C274.505 173.782 274.698 173.681 274.843 173.479C274.993 173.271 275.068 172.954 275.068 172.526C275.068 172.111 274.993 171.802 274.843 171.6C274.698 171.392 274.505 171.288 274.262 171.288C274.02 171.288 273.826 171.389 273.682 171.591C273.538 171.787 273.466 172.099 273.466 172.526C273.466 172.954 273.538 173.271 273.682 173.479C273.826 173.681 274.02 173.782 274.262 173.782ZM278.584 176.935C278.272 176.935 277.998 176.862 277.761 176.718C277.53 176.568 277.351 176.354 277.224 176.077C277.097 175.794 277.034 175.456 277.034 175.064C277.034 174.481 277.175 174.025 277.458 173.696C277.741 173.366 278.116 173.202 278.584 173.202C278.901 173.202 279.176 173.277 279.407 173.427C279.637 173.577 279.816 173.791 279.943 174.068C280.071 174.345 280.134 174.677 280.134 175.064C280.134 175.451 280.071 175.786 279.943 176.068C279.822 176.346 279.643 176.559 279.407 176.709C279.176 176.859 278.901 176.935 278.584 176.935ZM278.584 176.32C278.826 176.32 279.02 176.219 279.164 176.017C279.314 175.809 279.389 175.491 279.389 175.064C279.389 174.642 279.314 174.331 279.164 174.129C279.02 173.926 278.826 173.825 278.584 173.825C278.341 173.825 278.148 173.926 278.004 174.129C277.859 174.325 277.787 174.637 277.787 175.064C277.787 175.497 277.859 175.814 278.004 176.017C278.148 176.219 278.341 176.32 278.584 176.32Z" fill="#3BB764"/>
<path d="M252.799 193.517L250.997 189.23H251.993L253.31 192.616H253.232L254.557 189.23H255.518L253.708 193.517H252.799ZM257.84 193.595C257.598 193.595 257.361 193.575 257.13 193.534C256.899 193.494 256.686 193.436 256.489 193.361C256.299 193.286 256.134 193.194 255.996 193.084L256.264 192.434C256.408 192.538 256.567 192.625 256.74 192.694C256.919 192.758 257.101 192.807 257.286 192.841C257.471 192.87 257.65 192.885 257.823 192.885C258.158 192.885 258.412 192.839 258.585 192.746C258.764 192.648 258.854 192.509 258.854 192.33C258.854 192.175 258.802 192.059 258.698 191.984C258.594 191.903 258.426 191.843 258.195 191.802L257.295 191.655C256.896 191.586 256.596 191.45 256.394 191.248C256.198 191.04 256.1 190.78 256.1 190.469C256.1 190.203 256.172 189.972 256.316 189.776C256.46 189.579 256.671 189.426 256.948 189.317C257.225 189.207 257.555 189.152 257.936 189.152C258.143 189.152 258.351 189.172 258.559 189.213C258.767 189.247 258.96 189.302 259.139 189.377C259.324 189.452 259.474 189.548 259.59 189.663L259.313 190.304C259.191 190.206 259.053 190.125 258.897 190.061C258.747 189.998 258.588 189.949 258.421 189.914C258.253 189.88 258.091 189.862 257.936 189.862C257.618 189.862 257.373 189.914 257.199 190.018C257.032 190.116 256.948 190.255 256.948 190.434C256.948 190.584 256.997 190.699 257.096 190.78C257.194 190.861 257.35 190.919 257.563 190.953L258.438 191.118C258.865 191.193 259.183 191.326 259.391 191.516C259.598 191.707 259.702 191.967 259.702 192.296C259.702 192.567 259.624 192.801 259.468 192.997C259.318 193.188 259.102 193.335 258.819 193.439C258.542 193.543 258.216 193.595 257.84 193.595ZM260.658 193.517V192.426H261.801V193.517H260.658ZM264.996 193.517L267.716 187.411H268.538L271.258 193.517H270.279L269.534 191.794L269.967 192.088H266.278L266.702 191.794L265.966 193.517H264.996ZM268.105 188.451L266.806 191.516L266.59 191.309H269.656L269.439 191.516L268.14 188.451H268.105ZM272.155 195.076V189.23H273.012V190.148H273.004C273.125 189.831 273.321 189.585 273.593 189.412C273.87 189.239 274.19 189.152 274.554 189.152C274.947 189.152 275.287 189.245 275.576 189.429C275.87 189.614 276.095 189.874 276.251 190.209C276.413 190.538 276.494 190.925 276.494 191.369C276.494 191.808 276.416 192.195 276.26 192.53C276.104 192.865 275.882 193.127 275.593 193.318C275.304 193.503 274.958 193.595 274.554 193.595C274.196 193.595 273.887 193.511 273.627 193.344C273.373 193.171 273.188 192.942 273.073 192.66H273.09V195.076H272.155ZM274.32 192.859C274.701 192.859 275.001 192.729 275.221 192.469C275.446 192.203 275.559 191.837 275.559 191.369C275.559 190.902 275.449 190.538 275.229 190.278C275.01 190.018 274.707 189.888 274.32 189.888C273.933 189.888 273.627 190.018 273.402 190.278C273.183 190.538 273.073 190.902 273.073 191.369C273.073 191.837 273.186 192.203 273.411 192.469C273.636 192.729 273.939 192.859 274.32 192.859ZM277.669 193.517V189.23H278.518V190.252H278.509C278.613 189.929 278.789 189.675 279.038 189.49C279.286 189.299 279.598 189.193 279.973 189.169L280.38 189.135L280.458 189.984L279.791 190.035C279.416 190.07 279.124 190.194 278.916 190.408C278.708 190.622 278.605 190.893 278.605 191.222V193.517H277.669Z" fill="#888888"/>
</g>
<g filter="url(#filter1_d_10093_885)">
<rect x="311" y="105" width="111.286" height="43.7132" rx="3.46415" fill="white" shape-rendering="crispEdges"/>
<rect x="311.433" y="105.433" width="110.42" height="42.8472" rx="3.03113" stroke="#EEEEF1" stroke-width="0.866038" shape-rendering="crispEdges"/>
<path d="M322.224 123.857V117.751H326.277V118.548H323.159V120.366H326.095V121.163H323.159V123.06H326.277V123.857H322.224ZM327.037 123.857L328.83 121.414L328.847 121.917L327.115 119.57H328.163L329.324 121.155H329.211L330.371 119.57H331.419L329.696 121.899L329.713 121.432L331.506 123.857H330.449L329.211 122.168H329.315L328.085 123.857H327.037ZM332.361 125.415V119.57H333.219V120.488H333.21C333.331 120.17 333.528 119.925 333.799 119.752C334.076 119.578 334.397 119.492 334.76 119.492C335.153 119.492 335.494 119.584 335.782 119.769C336.077 119.954 336.302 120.213 336.458 120.548C336.619 120.877 336.7 121.264 336.7 121.709C336.7 122.148 336.622 122.534 336.466 122.869C336.311 123.204 336.088 123.467 335.8 123.657C335.511 123.842 335.165 123.935 334.76 123.935C334.402 123.935 334.094 123.851 333.834 123.683C333.58 123.51 333.395 123.282 333.279 122.999H333.297V125.415H332.361ZM334.527 123.198C334.908 123.198 335.208 123.068 335.427 122.809C335.652 122.543 335.765 122.176 335.765 121.709C335.765 121.241 335.655 120.877 335.436 120.618C335.216 120.358 334.913 120.228 334.527 120.228C334.14 120.228 333.834 120.358 333.609 120.618C333.389 120.877 333.279 121.241 333.279 121.709C333.279 122.176 333.392 122.543 333.617 122.809C333.842 123.068 334.145 123.198 334.527 123.198ZM339.997 123.935C339.501 123.935 339.074 123.848 338.716 123.675C338.364 123.496 338.092 123.239 337.902 122.904C337.717 122.569 337.625 122.174 337.625 121.717C337.625 121.284 337.711 120.9 337.884 120.566C338.063 120.231 338.314 119.968 338.638 119.778C338.967 119.587 339.351 119.492 339.79 119.492C340.205 119.492 340.56 119.581 340.855 119.76C341.155 119.933 341.383 120.185 341.539 120.514C341.701 120.837 341.781 121.224 341.781 121.674V121.969H338.352V121.371H341.141L340.993 121.518C340.993 121.079 340.889 120.747 340.682 120.522C340.474 120.291 340.182 120.176 339.807 120.176C339.547 120.176 339.319 120.234 339.123 120.349C338.932 120.465 338.782 120.629 338.672 120.843C338.568 121.051 338.517 121.305 338.517 121.605V121.7C338.517 122.035 338.574 122.312 338.69 122.532C338.805 122.751 338.976 122.915 339.201 123.025C339.426 123.135 339.7 123.19 340.023 123.19C340.254 123.19 340.491 123.158 340.734 123.094C340.976 123.031 341.198 122.918 341.4 122.757L341.686 123.415C341.473 123.588 341.213 123.718 340.907 123.805C340.601 123.891 340.298 123.935 339.997 123.935ZM342.933 123.857V119.57H343.808V120.47H343.791C343.929 120.159 344.134 119.919 344.405 119.752C344.683 119.578 344.994 119.492 345.341 119.492C345.693 119.492 345.985 119.555 346.215 119.682C346.452 119.809 346.628 120.006 346.744 120.271C346.865 120.531 346.926 120.86 346.926 121.258V123.857H345.99V121.302C345.99 121.077 345.959 120.889 345.895 120.739C345.837 120.583 345.742 120.467 345.609 120.392C345.476 120.312 345.3 120.271 345.081 120.271C344.844 120.271 344.634 120.323 344.449 120.427C344.27 120.531 344.128 120.675 344.024 120.86C343.92 121.039 343.869 121.244 343.869 121.475V123.857H342.933ZM349.931 123.935C349.689 123.935 349.452 123.914 349.221 123.874C348.99 123.833 348.776 123.776 348.58 123.701C348.39 123.626 348.225 123.533 348.087 123.424L348.355 122.774C348.499 122.878 348.658 122.965 348.831 123.034C349.01 123.097 349.192 123.146 349.377 123.181C349.562 123.21 349.741 123.224 349.914 123.224C350.249 123.224 350.503 123.178 350.676 123.086C350.855 122.988 350.944 122.849 350.944 122.67C350.944 122.514 350.892 122.399 350.789 122.324C350.685 122.243 350.517 122.182 350.286 122.142L349.386 121.995C348.987 121.925 348.687 121.79 348.485 121.588C348.289 121.38 348.19 121.12 348.19 120.808C348.19 120.543 348.263 120.312 348.407 120.115C348.551 119.919 348.762 119.766 349.039 119.656C349.316 119.547 349.645 119.492 350.026 119.492C350.234 119.492 350.442 119.512 350.65 119.552C350.858 119.587 351.051 119.642 351.23 119.717C351.415 119.792 351.565 119.887 351.681 120.003L351.403 120.644C351.282 120.545 351.144 120.465 350.988 120.401C350.838 120.338 350.679 120.288 350.511 120.254C350.344 120.219 350.182 120.202 350.026 120.202C349.709 120.202 349.464 120.254 349.29 120.358C349.123 120.456 349.039 120.594 349.039 120.773C349.039 120.924 349.088 121.039 349.186 121.12C349.285 121.201 349.44 121.258 349.654 121.293L350.529 121.458C350.956 121.533 351.274 121.665 351.481 121.856C351.689 122.047 351.793 122.306 351.793 122.635C351.793 122.907 351.715 123.141 351.559 123.337C351.409 123.527 351.193 123.675 350.91 123.779C350.633 123.883 350.306 123.935 349.931 123.935ZM355.052 123.935C354.555 123.935 354.128 123.848 353.77 123.675C353.418 123.496 353.146 123.239 352.956 122.904C352.771 122.569 352.679 122.174 352.679 121.717C352.679 121.284 352.765 120.9 352.938 120.566C353.117 120.231 353.369 119.968 353.692 119.778C354.021 119.587 354.405 119.492 354.844 119.492C355.259 119.492 355.615 119.581 355.909 119.76C356.209 119.933 356.437 120.185 356.593 120.514C356.755 120.837 356.836 121.224 356.836 121.674V121.969H353.406V121.371H356.195L356.048 121.518C356.048 121.079 355.944 120.747 355.736 120.522C355.528 120.291 355.236 120.176 354.861 120.176C354.601 120.176 354.373 120.234 354.177 120.349C353.986 120.465 353.836 120.629 353.727 120.843C353.623 121.051 353.571 121.305 353.571 121.605V121.7C353.571 122.035 353.628 122.312 353.744 122.532C353.859 122.751 354.03 122.915 354.255 123.025C354.48 123.135 354.754 123.19 355.078 123.19C355.309 123.19 355.545 123.158 355.788 123.094C356.03 123.031 356.253 122.918 356.455 122.757L356.74 123.415C356.527 123.588 356.267 123.718 355.961 123.805C355.655 123.891 355.352 123.935 355.052 123.935ZM359.59 123.935C359.347 123.935 359.11 123.914 358.879 123.874C358.648 123.833 358.435 123.776 358.239 123.701C358.048 123.626 357.883 123.533 357.745 123.424L358.013 122.774C358.158 122.878 358.316 122.965 358.49 123.034C358.669 123.097 358.851 123.146 359.035 123.181C359.22 123.21 359.399 123.224 359.572 123.224C359.907 123.224 360.161 123.178 360.334 123.086C360.513 122.988 360.603 122.849 360.603 122.67C360.603 122.514 360.551 122.399 360.447 122.324C360.343 122.243 360.176 122.182 359.945 122.142L359.044 121.995C358.646 121.925 358.345 121.79 358.143 121.588C357.947 121.38 357.849 121.12 357.849 120.808C357.849 120.543 357.921 120.312 358.065 120.115C358.21 119.919 358.42 119.766 358.698 119.656C358.975 119.547 359.304 119.492 359.685 119.492C359.893 119.492 360.1 119.512 360.308 119.552C360.516 119.587 360.71 119.642 360.889 119.717C361.073 119.792 361.223 119.887 361.339 120.003L361.062 120.644C360.941 120.545 360.802 120.465 360.646 120.401C360.496 120.338 360.337 120.288 360.17 120.254C360.002 120.219 359.841 120.202 359.685 120.202C359.367 120.202 359.122 120.254 358.949 120.358C358.781 120.456 358.698 120.594 358.698 120.773C358.698 120.924 358.747 121.039 358.845 121.12C358.943 121.201 359.099 121.258 359.312 121.293L360.187 121.458C360.614 121.533 360.932 121.665 361.14 121.856C361.348 122.047 361.452 122.306 361.452 122.635C361.452 122.907 361.374 123.141 361.218 123.337C361.068 123.527 360.851 123.675 360.568 123.779C360.291 123.883 359.965 123.935 359.59 123.935Z" fill="#888888"/>
<path d="M323.957 138.644V130.771H324.462V138.644H323.957ZM325.486 133.243C325.455 132.961 325.326 132.741 325.098 132.585C324.871 132.429 324.582 132.352 324.231 132.352C323.981 132.352 323.765 132.391 323.582 132.468C323.402 132.544 323.262 132.649 323.164 132.782C323.065 132.915 323.016 133.068 323.016 133.24C323.014 133.382 323.047 133.505 323.115 133.609C323.182 133.712 323.272 133.798 323.382 133.868C323.493 133.937 323.614 133.996 323.745 134.043C323.876 134.09 324.005 134.129 324.13 134.16L324.735 134.317C324.951 134.368 325.166 134.438 325.381 134.526C325.597 134.614 325.792 134.728 325.969 134.867C326.147 135.007 326.291 135.178 326.399 135.381C326.508 135.584 326.562 135.826 326.562 136.107C326.562 136.468 326.469 136.787 326.282 137.066C326.098 137.343 325.83 137.561 325.48 137.721C325.129 137.879 324.705 137.958 324.206 137.958C323.729 137.958 323.315 137.883 322.964 137.734C322.613 137.582 322.339 137.366 322.14 137.085C321.943 136.802 321.835 136.462 321.817 136.067H322.838C322.854 136.292 322.925 136.48 323.05 136.629C323.177 136.777 323.34 136.888 323.539 136.962C323.738 137.033 323.958 137.069 324.2 137.069C324.461 137.069 324.691 137.028 324.892 136.946C325.093 136.864 325.251 136.75 325.366 136.605C325.483 136.459 325.541 136.29 325.541 136.097C325.541 135.919 325.49 135.772 325.387 135.658C325.287 135.543 325.149 135.447 324.972 135.372C324.798 135.296 324.598 135.229 324.373 135.172L323.638 134.975C323.127 134.84 322.723 134.638 322.426 134.369C322.131 134.1 321.983 133.744 321.983 133.299C321.983 132.934 322.082 132.615 322.281 132.342C322.48 132.068 322.75 131.854 323.09 131.703C323.432 131.549 323.818 131.472 324.246 131.472C324.681 131.472 325.063 131.548 325.394 131.7C325.726 131.851 325.987 132.06 326.178 132.327C326.368 132.594 326.468 132.899 326.476 133.243H325.486ZM329.649 137.943C329.253 137.943 328.899 137.867 328.585 137.715C328.273 137.563 328.024 137.355 327.838 137.091C327.653 136.826 327.555 136.525 327.542 136.187H328.539C328.561 136.451 328.678 136.668 328.889 136.839C329.1 137.009 329.354 137.094 329.649 137.094C329.885 137.094 330.094 137.041 330.276 136.934C330.459 136.825 330.602 136.676 330.707 136.485C330.811 136.292 330.864 136.074 330.864 135.83C330.864 135.58 330.809 135.358 330.701 135.166C330.594 134.971 330.446 134.818 330.258 134.707C330.071 134.597 329.857 134.54 329.615 134.538C329.424 134.536 329.235 134.57 329.046 134.64C328.858 134.707 328.706 134.797 328.591 134.907L327.656 134.763L328.001 131.558H331.54V132.428H328.855L328.662 134.154H328.699C328.818 134.027 328.981 133.921 329.188 133.837C329.397 133.753 329.622 133.711 329.864 133.711C330.248 133.711 330.589 133.802 330.888 133.985C331.188 134.165 331.423 134.413 331.596 134.729C331.77 135.043 331.857 135.401 331.857 135.805C331.857 136.217 331.763 136.584 331.574 136.906C331.386 137.228 331.125 137.481 330.793 137.666C330.463 137.85 330.082 137.943 329.649 137.943ZM333.928 136.995L333.885 137.331C333.854 137.583 333.803 137.842 333.731 138.109C333.66 138.377 333.584 138.625 333.504 138.853C333.426 139.081 333.362 139.261 333.313 139.394H332.621C332.65 139.267 332.688 139.096 332.735 138.881C332.784 138.665 332.831 138.423 332.876 138.155C332.923 137.888 332.957 137.617 332.978 137.34L333.002 136.995H333.928ZM335.022 136.651V135.827L337.722 131.558H338.39V132.754H337.974L336.086 135.744V135.793H339.817V136.651H335.022ZM338.014 137.857V136.399L338.024 136.027V131.558H338.992V137.857H338.014ZM342.932 137.943C342.537 137.943 342.182 137.867 341.868 137.715C341.557 137.563 341.308 137.355 341.121 137.091C340.937 136.826 340.838 136.525 340.826 136.187H341.822C341.845 136.451 341.962 136.668 342.173 136.839C342.384 137.009 342.637 137.094 342.932 137.094C343.168 137.094 343.377 137.041 343.56 136.934C343.742 136.825 343.886 136.676 343.99 136.485C344.095 136.292 344.147 136.074 344.147 135.83C344.147 135.58 344.093 135.358 343.984 135.166C343.878 134.971 343.73 134.818 343.541 134.707C343.355 134.597 343.141 134.54 342.899 134.538C342.708 134.536 342.518 134.57 342.33 134.64C342.141 134.707 341.989 134.797 341.875 134.907L340.94 134.763L341.284 131.558H344.824V132.428H342.139L341.945 134.154H341.982C342.101 134.027 342.264 133.921 342.471 133.837C342.68 133.753 342.906 133.711 343.148 133.711C343.531 133.711 343.873 133.802 344.172 133.985C344.471 134.165 344.707 134.413 344.879 134.729C345.053 135.043 345.141 135.401 345.141 135.805C345.141 136.217 345.046 136.584 344.858 136.906C344.669 137.228 344.409 137.481 344.077 137.666C343.746 137.85 343.365 137.943 342.932 137.943ZM348.422 137.943C348.133 137.941 347.849 137.889 347.57 137.789C347.293 137.688 347.042 137.522 346.816 137.291C346.593 137.059 346.414 136.748 346.278 136.359C346.145 135.969 346.079 135.484 346.081 134.904C346.081 134.361 346.137 133.877 346.248 133.453C346.36 133.026 346.521 132.666 346.73 132.373C346.942 132.08 347.196 131.856 347.493 131.703C347.79 131.549 348.125 131.472 348.496 131.472C348.879 131.472 349.219 131.548 349.517 131.7C349.814 131.849 350.055 132.056 350.239 132.321C350.424 132.585 350.54 132.885 350.587 133.219H349.575C349.514 132.965 349.391 132.76 349.206 132.604C349.022 132.446 348.785 132.367 348.496 132.367C348.045 132.367 347.695 132.564 347.447 132.957C347.199 133.349 347.073 133.891 347.069 134.584H347.115C347.219 134.406 347.352 134.253 347.512 134.126C347.671 133.997 347.851 133.899 348.05 133.831C348.249 133.761 348.46 133.726 348.683 133.726C349.05 133.726 349.381 133.815 349.677 133.994C349.972 134.17 350.207 134.413 350.381 134.723C350.555 135.032 350.642 135.388 350.642 135.79C350.642 136.196 350.549 136.563 350.362 136.891C350.178 137.217 349.92 137.474 349.587 137.663C349.255 137.851 348.867 137.945 348.422 137.943ZM348.419 137.094C348.652 137.094 348.862 137.036 349.046 136.922C349.233 136.807 349.379 136.652 349.486 136.457C349.593 136.262 349.646 136.045 349.646 135.805C349.646 135.569 349.594 135.356 349.489 135.166C349.386 134.973 349.244 134.82 349.062 134.707C348.879 134.593 348.671 134.535 348.437 134.535C348.261 134.535 348.097 134.569 347.945 134.637C347.795 134.704 347.664 134.798 347.551 134.916C347.439 135.035 347.351 135.172 347.287 135.325C347.223 135.479 347.192 135.642 347.192 135.814C347.192 136.044 347.244 136.256 347.349 136.451C347.455 136.644 347.601 136.8 347.785 136.919C347.972 137.035 348.183 137.094 348.419 137.094ZM352.058 137.918C351.881 137.918 351.729 137.857 351.602 137.734C351.477 137.608 351.416 137.457 351.418 137.278C351.416 137.104 351.477 136.955 351.602 136.832C351.729 136.707 351.881 136.645 352.058 136.645C352.23 136.645 352.378 136.707 352.503 136.832C352.631 136.955 352.695 137.104 352.697 137.278C352.695 137.397 352.664 137.505 352.605 137.601C352.548 137.698 352.471 137.775 352.374 137.832C352.278 137.889 352.172 137.918 352.058 137.918ZM353.84 137.857V137.112L355.993 134.932C356.212 134.702 356.395 134.5 356.54 134.326C356.686 134.152 356.795 133.985 356.866 133.825C356.938 133.665 356.974 133.495 356.974 133.314C356.974 133.109 356.926 132.933 356.83 132.785C356.735 132.636 356.605 132.521 356.439 132.441C356.275 132.359 356.089 132.318 355.882 132.318C355.663 132.318 355.471 132.363 355.307 132.453C355.145 132.543 355.02 132.669 354.932 132.831C354.844 132.993 354.8 133.186 354.8 133.41H353.822C353.822 133.02 353.911 132.68 354.089 132.388C354.268 132.097 354.514 131.872 354.827 131.712C355.141 131.552 355.498 131.472 355.898 131.472C356.306 131.472 356.663 131.551 356.971 131.709C357.281 131.865 357.522 132.079 357.694 132.352C357.868 132.624 357.955 132.932 357.955 133.274C357.955 133.508 357.911 133.738 357.823 133.963C357.735 134.189 357.581 134.44 357.362 134.717C357.142 134.991 356.836 135.323 356.442 135.713L355.258 136.94V136.986H358.054V137.857H353.84ZM358.875 136.651V135.827L361.575 131.558H362.243V132.754H361.828L359.939 135.744V135.793H363.67V136.651H358.875ZM361.868 137.857V136.399L361.877 136.027V131.558H362.846V137.857H361.868Z" fill="black"/>
<path d="M384.233 122.465L384.233 115.248M384.233 122.465L381.346 119.578M384.233 122.465L387.12 119.578" stroke="#3BB764" stroke-width="0.866038" stroke-linecap="round" stroke-linejoin="round"/>
<path d="M393.707 121.857V121.06H395.292V116.513L395.769 116.565L394.028 117.656L393.63 116.946L395.543 115.751H396.228V121.06H397.683V121.857H393.707ZM398.779 121.857V121.164L400.858 118.981C401.06 118.773 401.215 118.586 401.325 118.418C401.435 118.245 401.513 118.081 401.559 117.925C401.611 117.769 401.637 117.61 401.637 117.448C401.637 117.131 401.536 116.891 401.334 116.73C401.132 116.562 400.852 116.478 400.494 116.478C400.217 116.478 399.94 116.53 399.662 116.634C399.391 116.738 399.131 116.906 398.883 117.137L398.545 116.418C398.799 116.181 399.105 115.999 399.463 115.872C399.827 115.739 400.202 115.673 400.589 115.673C400.999 115.673 401.351 115.742 401.646 115.881C401.94 116.014 402.165 116.207 402.321 116.461C402.483 116.715 402.564 117.021 402.564 117.379C402.564 117.558 402.541 117.734 402.494 117.907C402.454 118.081 402.39 118.254 402.304 118.427C402.217 118.594 402.105 118.768 401.966 118.947C401.833 119.12 401.674 119.302 401.49 119.492L399.905 121.146V121.06H402.797V121.857H398.779ZM405.938 122.09L405.332 121.735L408.908 115.517L409.515 115.872L405.938 122.09ZM405.262 119.406C404.951 119.406 404.676 119.331 404.44 119.181C404.209 119.03 404.03 118.817 403.903 118.54C403.776 118.257 403.712 117.919 403.712 117.526C403.712 116.943 403.854 116.49 404.136 116.167C404.419 115.838 404.795 115.673 405.262 115.673C405.58 115.673 405.854 115.748 406.085 115.898C406.316 116.043 406.495 116.253 406.622 116.53C406.749 116.808 406.812 117.14 406.812 117.526C406.812 117.913 406.749 118.248 406.622 118.531C406.495 118.814 406.316 119.03 406.085 119.181C405.854 119.331 405.58 119.406 405.262 119.406ZM405.262 118.782C405.505 118.782 405.698 118.681 405.843 118.479C405.993 118.271 406.068 117.954 406.068 117.526C406.068 117.111 405.993 116.802 405.843 116.6C405.698 116.392 405.505 116.288 405.262 116.288C405.02 116.288 404.826 116.389 404.682 116.591C404.538 116.787 404.466 117.099 404.466 117.526C404.466 117.954 404.538 118.271 404.682 118.479C404.826 118.681 405.02 118.782 405.262 118.782ZM409.584 121.935C409.272 121.935 408.998 121.862 408.761 121.718C408.53 121.568 408.351 121.354 408.224 121.077C408.097 120.794 408.034 120.456 408.034 120.064C408.034 119.481 408.175 119.025 408.458 118.696C408.741 118.366 409.116 118.202 409.584 118.202C409.901 118.202 410.176 118.277 410.407 118.427C410.637 118.577 410.816 118.791 410.943 119.068C411.071 119.345 411.134 119.677 411.134 120.064C411.134 120.451 411.071 120.786 410.943 121.068C410.822 121.346 410.643 121.559 410.407 121.709C410.176 121.859 409.901 121.935 409.584 121.935ZM409.584 121.32C409.826 121.32 410.02 121.219 410.164 121.017C410.314 120.809 410.389 120.491 410.389 120.064C410.389 119.642 410.314 119.331 410.164 119.129C410.02 118.926 409.826 118.825 409.584 118.825C409.341 118.825 409.148 118.926 409.004 119.129C408.859 119.325 408.787 119.637 408.787 120.064C408.787 120.497 408.859 120.814 409.004 121.017C409.148 121.219 409.341 121.32 409.584 121.32Z" fill="#3BB764"/>
<path d="M383.799 138.517L381.997 134.23H382.993L384.31 137.616H384.232L385.557 134.23H386.518L384.708 138.517H383.799ZM388.84 138.595C388.598 138.595 388.361 138.575 388.13 138.534C387.899 138.494 387.686 138.436 387.489 138.361C387.299 138.286 387.134 138.194 386.996 138.084L387.264 137.434C387.408 137.538 387.567 137.625 387.74 137.694C387.919 137.758 388.101 137.807 388.286 137.841C388.471 137.87 388.65 137.885 388.823 137.885C389.158 137.885 389.412 137.839 389.585 137.746C389.764 137.648 389.854 137.509 389.854 137.33C389.854 137.175 389.802 137.059 389.698 136.984C389.594 136.903 389.426 136.843 389.195 136.802L388.295 136.655C387.896 136.586 387.596 136.45 387.394 136.248C387.198 136.04 387.1 135.78 387.1 135.469C387.1 135.203 387.172 134.972 387.316 134.776C387.46 134.579 387.671 134.426 387.948 134.317C388.225 134.207 388.555 134.152 388.936 134.152C389.143 134.152 389.351 134.172 389.559 134.213C389.767 134.247 389.96 134.302 390.139 134.377C390.324 134.452 390.474 134.548 390.59 134.663L390.313 135.304C390.191 135.206 390.053 135.125 389.897 135.061C389.747 134.998 389.588 134.949 389.421 134.914C389.253 134.88 389.091 134.862 388.936 134.862C388.618 134.862 388.373 134.914 388.199 135.018C388.032 135.116 387.948 135.255 387.948 135.434C387.948 135.584 387.997 135.699 388.096 135.78C388.194 135.861 388.35 135.919 388.563 135.953L389.438 136.118C389.865 136.193 390.183 136.326 390.391 136.516C390.598 136.707 390.702 136.967 390.702 137.296C390.702 137.567 390.624 137.801 390.468 137.997C390.318 138.188 390.102 138.335 389.819 138.439C389.542 138.543 389.216 138.595 388.84 138.595ZM391.658 138.517V137.426H392.801V138.517H391.658ZM395.996 138.517L398.716 132.411H399.538L402.258 138.517H401.279L400.534 136.794L400.967 137.088H397.278L397.702 136.794L396.966 138.517H395.996ZM399.105 133.451L397.806 136.516L397.59 136.309H400.656L400.439 136.516L399.14 133.451H399.105ZM403.155 140.076V134.23H404.012V135.148H404.004C404.125 134.831 404.321 134.585 404.593 134.412C404.87 134.239 405.19 134.152 405.554 134.152C405.947 134.152 406.287 134.245 406.576 134.429C406.87 134.614 407.095 134.874 407.251 135.209C407.413 135.538 407.494 135.925 407.494 136.369C407.494 136.808 407.416 137.195 407.26 137.53C407.104 137.865 406.882 138.127 406.593 138.318C406.304 138.503 405.958 138.595 405.554 138.595C405.196 138.595 404.887 138.511 404.627 138.344C404.373 138.171 404.188 137.942 404.073 137.66H404.09V140.076H403.155ZM405.32 137.859C405.701 137.859 406.001 137.729 406.221 137.469C406.446 137.203 406.559 136.837 406.559 136.369C406.559 135.902 406.449 135.538 406.229 135.278C406.01 135.018 405.707 134.888 405.32 134.888C404.933 134.888 404.627 135.018 404.402 135.278C404.183 135.538 404.073 135.902 404.073 136.369C404.073 136.837 404.186 137.203 404.411 137.469C404.636 137.729 404.939 137.859 405.32 137.859ZM408.669 138.517V134.23H409.518V135.252H409.509C409.613 134.929 409.789 134.675 410.038 134.49C410.286 134.299 410.598 134.193 410.973 134.169L411.38 134.135L411.458 134.984L410.791 135.035C410.416 135.07 410.124 135.194 409.916 135.408C409.708 135.622 409.605 135.893 409.605 136.222V138.517H408.669Z" fill="#888888"/>
</g>
<g filter="url(#filter2_d_10093_885)">
<rect x="105" y="88.1108" width="111.286" height="43.7132" rx="3.46415" fill="white" shape-rendering="crispEdges"/>
<rect x="105.433" y="88.5439" width="110.42" height="42.8472" rx="3.03113" stroke="#EEEEF1" stroke-width="0.866038" shape-rendering="crispEdges"/>
<path d="M116.224 106.967V100.862H118.822C119.492 100.862 120.008 101.018 120.372 101.33C120.736 101.636 120.918 102.074 120.918 102.646C120.918 102.981 120.848 103.269 120.71 103.512C120.577 103.754 120.387 103.948 120.138 104.092C119.89 104.231 119.599 104.317 119.264 104.352L119.298 104.326L119.428 104.335C119.584 104.358 119.726 104.421 119.853 104.525C119.98 104.623 120.098 104.779 120.208 104.993L121.264 106.967H120.234L119.212 105.062C119.137 104.912 119.05 104.797 118.952 104.716C118.859 104.635 118.75 104.58 118.623 104.551C118.502 104.517 118.357 104.499 118.19 104.499H117.168V106.967H116.224ZM117.168 103.746H118.727C119.154 103.746 119.469 103.659 119.671 103.486C119.879 103.307 119.982 103.038 119.982 102.681C119.982 102.328 119.876 102.069 119.662 101.901C119.454 101.728 119.134 101.641 118.701 101.641H117.168V103.746ZM124.322 107.045C123.826 107.045 123.398 106.959 123.04 106.786C122.688 106.607 122.417 106.35 122.226 106.015C122.042 105.68 121.949 105.284 121.949 104.828C121.949 104.395 122.036 104.011 122.209 103.676C122.388 103.342 122.639 103.079 122.963 102.888C123.292 102.698 123.676 102.603 124.114 102.603C124.53 102.603 124.885 102.692 125.18 102.871C125.48 103.044 125.708 103.295 125.864 103.625C126.025 103.948 126.106 104.335 126.106 104.785V105.079H122.677V104.482H125.465L125.318 104.629C125.318 104.19 125.214 103.858 125.006 103.633C124.799 103.402 124.507 103.287 124.132 103.287C123.872 103.287 123.644 103.344 123.447 103.46C123.257 103.575 123.107 103.74 122.997 103.954C122.893 104.161 122.841 104.415 122.841 104.716V104.811C122.841 105.146 122.899 105.423 123.014 105.642C123.13 105.862 123.3 106.026 123.525 106.136C123.751 106.246 124.025 106.301 124.348 106.301C124.579 106.301 124.816 106.269 125.058 106.205C125.301 106.142 125.523 106.029 125.725 105.868L126.011 106.526C125.797 106.699 125.538 106.829 125.232 106.915C124.926 107.002 124.622 107.045 124.322 107.045ZM128.394 106.967L126.592 102.681H127.588L128.905 106.067H128.827L130.152 102.681H131.113L129.303 106.967H128.394ZM133.964 107.045C133.467 107.045 133.04 106.959 132.682 106.786C132.33 106.607 132.058 106.35 131.868 106.015C131.683 105.68 131.591 105.284 131.591 104.828C131.591 104.395 131.677 104.011 131.85 103.676C132.029 103.342 132.281 103.079 132.604 102.888C132.933 102.698 133.317 102.603 133.756 102.603C134.171 102.603 134.527 102.692 134.821 102.871C135.121 103.044 135.349 103.295 135.505 103.625C135.667 103.948 135.748 104.335 135.748 104.785V105.079H132.318V104.482H135.107L134.96 104.629C134.96 104.19 134.856 103.858 134.648 103.633C134.44 103.402 134.148 103.287 133.773 103.287C133.513 103.287 133.285 103.344 133.089 103.46C132.898 103.575 132.748 103.74 132.639 103.954C132.535 104.161 132.483 104.415 132.483 104.716V104.811C132.483 105.146 132.54 105.423 132.656 105.642C132.771 105.862 132.942 106.026 133.167 106.136C133.392 106.246 133.666 106.301 133.99 106.301C134.221 106.301 134.457 106.269 134.7 106.205C134.942 106.142 135.165 106.029 135.367 105.868L135.652 106.526C135.439 106.699 135.179 106.829 134.873 106.915C134.567 107.002 134.264 107.045 133.964 107.045ZM136.899 106.967V102.681H137.774V103.581H137.757C137.895 103.269 138.1 103.03 138.372 102.862C138.649 102.689 138.961 102.603 139.307 102.603C139.659 102.603 139.951 102.666 140.182 102.793C140.418 102.92 140.594 103.116 140.71 103.382C140.831 103.642 140.892 103.971 140.892 104.369V106.967H139.956V104.413C139.956 104.187 139.925 104 139.861 103.85C139.803 103.694 139.708 103.578 139.575 103.503C139.443 103.422 139.267 103.382 139.047 103.382C138.81 103.382 138.6 103.434 138.415 103.538C138.236 103.642 138.094 103.786 137.991 103.971C137.887 104.15 137.835 104.355 137.835 104.586V106.967H136.899ZM143.889 107.045C143.536 107.045 143.239 106.982 142.997 106.855C142.76 106.722 142.581 106.526 142.46 106.266C142.338 106.006 142.278 105.683 142.278 105.296V102.681H143.213V105.27C143.213 105.478 143.242 105.657 143.3 105.807C143.363 105.957 143.461 106.073 143.594 106.153C143.733 106.234 143.909 106.275 144.123 106.275C144.348 106.275 144.547 106.223 144.72 106.119C144.899 106.009 145.038 105.865 145.136 105.686C145.24 105.501 145.292 105.299 145.292 105.079V102.681H146.227V106.967H145.352V106.041H145.378C145.24 106.358 145.043 106.607 144.789 106.786C144.541 106.959 144.241 107.045 143.889 107.045ZM149.77 107.045C149.274 107.045 148.847 106.959 148.489 106.786C148.137 106.607 147.865 106.35 147.675 106.015C147.49 105.68 147.398 105.284 147.398 104.828C147.398 104.395 147.484 104.011 147.657 103.676C147.836 103.342 148.087 103.079 148.411 102.888C148.74 102.698 149.124 102.603 149.563 102.603C149.978 102.603 150.333 102.692 150.628 102.871C150.928 103.044 151.156 103.295 151.312 103.625C151.474 103.948 151.555 104.335 151.555 104.785V105.079H148.125V104.482H150.914L150.766 104.629C150.766 104.19 150.663 103.858 150.455 103.633C150.247 103.402 149.955 103.287 149.58 103.287C149.32 103.287 149.092 103.344 148.896 103.46C148.705 103.575 148.555 103.74 148.445 103.954C148.342 104.161 148.29 104.415 148.29 104.716V104.811C148.29 105.146 148.347 105.423 148.463 105.642C148.578 105.862 148.749 106.026 148.974 106.136C149.199 106.246 149.473 106.301 149.796 106.301C150.027 106.301 150.264 106.269 150.507 106.205C150.749 106.142 150.971 106.029 151.173 105.868L151.459 106.526C151.246 106.699 150.986 106.829 150.68 106.915C150.374 107.002 150.071 107.045 149.77 107.045Z" fill="#888888"/>
<path d="M117.957 121.755V113.882H118.462V121.755H117.957ZM119.486 116.354C119.455 116.071 119.326 115.852 119.098 115.696C118.871 115.54 118.582 115.462 118.231 115.462C117.981 115.462 117.765 115.501 117.582 115.579C117.402 115.655 117.262 115.76 117.164 115.893C117.065 116.026 117.016 116.179 117.016 116.351C117.014 116.493 117.047 116.616 117.115 116.72C117.182 116.823 117.272 116.909 117.382 116.979C117.493 117.048 117.614 117.107 117.745 117.154C117.876 117.201 118.005 117.24 118.13 117.271L118.735 117.428C118.951 117.479 119.166 117.549 119.381 117.637C119.597 117.725 119.792 117.839 119.969 117.978C120.147 118.118 120.291 118.289 120.399 118.492C120.508 118.695 120.562 118.937 120.562 119.217C120.562 119.578 120.469 119.898 120.282 120.177C120.098 120.454 119.83 120.672 119.48 120.832C119.129 120.99 118.705 121.069 118.206 121.069C117.729 121.069 117.315 120.994 116.964 120.844C116.613 120.693 116.339 120.476 116.14 120.195C115.943 119.913 115.835 119.573 115.817 119.178H116.838C116.854 119.403 116.925 119.591 117.05 119.74C117.177 119.888 117.34 119.999 117.539 120.072C117.738 120.144 117.958 120.18 118.2 120.18C118.461 120.18 118.691 120.139 118.892 120.057C119.093 119.975 119.251 119.861 119.366 119.716C119.483 119.57 119.541 119.401 119.541 119.208C119.541 119.03 119.49 118.883 119.387 118.768C119.287 118.654 119.149 118.558 118.972 118.482C118.798 118.407 118.598 118.34 118.373 118.283L117.638 118.086C117.127 117.95 116.723 117.748 116.426 117.48C116.131 117.211 115.983 116.855 115.983 116.41C115.983 116.045 116.082 115.726 116.281 115.453C116.48 115.178 116.75 114.965 117.09 114.813C117.432 114.66 117.818 114.583 118.246 114.583C118.681 114.583 119.063 114.659 119.394 114.81C119.726 114.962 119.987 115.171 120.178 115.438C120.368 115.704 120.468 116.01 120.476 116.354H119.486ZM123.984 114.669V120.967H122.957V115.687H122.92L121.428 116.653V115.687L122.994 114.669H123.984ZM127.847 121.078C127.355 121.078 126.933 120.95 126.58 120.694C126.23 120.437 125.96 120.066 125.771 119.58C125.585 119.094 125.493 118.508 125.495 117.821C125.495 117.136 125.588 116.553 125.775 116.071C125.963 115.587 126.233 115.218 126.583 114.964C126.936 114.71 127.357 114.583 127.847 114.583C128.339 114.583 128.761 114.71 129.111 114.964C129.464 115.218 129.734 115.587 129.92 116.071C130.109 116.555 130.203 117.139 130.203 117.821C130.203 118.51 130.11 119.098 129.923 119.583C129.737 120.069 129.467 120.44 129.114 120.697C128.764 120.951 128.342 121.078 127.847 121.078ZM127.847 120.202C128.262 120.202 128.587 120 128.822 119.596C129.058 119.19 129.176 118.598 129.176 117.821C129.176 117.309 129.122 116.876 129.013 116.523C128.906 116.169 128.754 115.901 128.555 115.721C128.358 115.538 128.122 115.447 127.847 115.447C127.437 115.447 127.113 115.65 126.876 116.056C126.64 116.462 126.522 117.05 126.522 117.821C126.52 118.338 126.572 118.774 126.679 119.128C126.787 119.481 126.94 119.749 127.137 119.931C127.336 120.111 127.573 120.202 127.847 120.202ZM132.24 120.106L132.197 120.442C132.167 120.694 132.115 120.953 132.044 121.22C131.972 121.488 131.896 121.736 131.816 121.964C131.738 122.191 131.675 122.372 131.625 122.505H130.933C130.962 122.378 131 122.207 131.047 121.992C131.096 121.776 131.143 121.534 131.189 121.266C131.236 120.999 131.27 120.728 131.29 120.451L131.315 120.106H132.24ZM133.457 120.967V120.223L135.61 118.043C135.829 117.813 136.012 117.611 136.157 117.437C136.303 117.263 136.412 117.095 136.483 116.936C136.555 116.776 136.591 116.605 136.591 116.425C136.591 116.22 136.543 116.044 136.447 115.896C136.352 115.746 136.222 115.632 136.056 115.552C135.892 115.47 135.706 115.429 135.499 115.429C135.28 115.429 135.088 115.474 134.924 115.564C134.762 115.654 134.637 115.78 134.549 115.942C134.461 116.104 134.417 116.297 134.417 116.52H133.439C133.439 116.131 133.528 115.79 133.706 115.499C133.885 115.208 134.131 114.983 134.444 114.823C134.758 114.663 135.115 114.583 135.515 114.583C135.923 114.583 136.28 114.662 136.588 114.82C136.898 114.975 137.139 115.19 137.311 115.462C137.485 115.735 137.572 116.043 137.572 116.385C137.572 116.619 137.528 116.848 137.44 117.074C137.352 117.299 137.198 117.551 136.979 117.827C136.759 118.102 136.453 118.434 136.059 118.824L134.875 120.051V120.097H137.671V120.967H133.457ZM140.996 121.078C140.504 121.078 140.081 120.95 139.729 120.694C139.378 120.437 139.108 120.066 138.92 119.58C138.733 119.094 138.641 118.508 138.643 117.821C138.643 117.136 138.736 116.553 138.923 116.071C139.111 115.587 139.381 115.218 139.732 114.964C140.084 114.71 140.506 114.583 140.996 114.583C141.488 114.583 141.909 114.71 142.26 114.964C142.612 115.218 142.882 115.587 143.068 116.071C143.257 116.555 143.351 117.139 143.351 117.821C143.351 118.51 143.258 119.098 143.072 119.583C142.885 120.069 142.615 120.44 142.263 120.697C141.912 120.951 141.49 121.078 140.996 121.078ZM140.996 120.202C141.41 120.202 141.735 120 141.971 119.596C142.206 119.19 142.324 118.598 142.324 117.821C142.324 117.309 142.27 116.876 142.161 116.523C142.055 116.169 141.902 115.901 141.703 115.721C141.506 115.538 141.27 115.447 140.996 115.447C140.586 115.447 140.262 115.65 140.024 116.056C139.788 116.462 139.67 117.05 139.67 117.821C139.668 118.338 139.72 118.774 139.827 119.128C139.936 119.481 140.088 119.749 140.285 119.931C140.484 120.111 140.721 120.202 140.996 120.202ZM146.616 121.054C146.327 121.051 146.043 121 145.764 120.9C145.487 120.799 145.236 120.633 145.01 120.402C144.787 120.17 144.607 119.859 144.472 119.47C144.339 119.08 144.273 118.595 144.275 118.015C144.275 117.472 144.331 116.988 144.441 116.563C144.554 116.137 144.715 115.777 144.924 115.484C145.135 115.191 145.39 114.967 145.687 114.813C145.984 114.66 146.318 114.583 146.69 114.583C147.073 114.583 147.413 114.659 147.711 114.81C148.008 114.96 148.249 115.167 148.433 115.432C148.618 115.696 148.734 115.995 148.781 116.33H147.769C147.707 116.075 147.584 115.87 147.4 115.715C147.215 115.557 146.979 115.478 146.69 115.478C146.238 115.478 145.889 115.675 145.641 116.068C145.393 116.46 145.267 117.002 145.263 117.695H145.309C145.413 117.517 145.545 117.364 145.705 117.237C145.865 117.108 146.045 117.009 146.244 116.942C146.442 116.872 146.654 116.837 146.877 116.837C147.244 116.837 147.575 116.926 147.87 117.105C148.166 117.281 148.4 117.524 148.575 117.834C148.749 118.143 148.836 118.499 148.836 118.901C148.836 119.307 148.743 119.674 148.556 120.002C148.372 120.328 148.113 120.585 147.781 120.774C147.449 120.962 147.061 121.056 146.616 121.054ZM146.613 120.205C146.846 120.205 147.055 120.147 147.24 120.032C147.427 119.918 147.573 119.763 147.68 119.568C147.786 119.373 147.84 119.156 147.84 118.916C147.84 118.68 147.787 118.467 147.683 118.276C147.58 118.084 147.438 117.931 147.255 117.818C147.073 117.703 146.865 117.646 146.631 117.646C146.455 117.646 146.291 117.68 146.139 117.747C145.989 117.815 145.858 117.908 145.745 118.027C145.633 118.146 145.544 118.283 145.481 118.436C145.417 118.59 145.386 118.753 145.386 118.925C145.386 119.155 145.438 119.367 145.542 119.562C145.649 119.755 145.795 119.91 145.979 120.029C146.166 120.146 146.377 120.205 146.613 120.205ZM150.251 121.029C150.075 121.029 149.923 120.967 149.796 120.844C149.671 120.719 149.61 120.568 149.612 120.389C149.61 120.215 149.671 120.066 149.796 119.943C149.923 119.818 150.075 119.756 150.251 119.756C150.424 119.756 150.572 119.818 150.697 119.943C150.824 120.066 150.889 120.215 150.891 120.389C150.889 120.508 150.858 120.616 150.799 120.712C150.741 120.809 150.664 120.885 150.568 120.943C150.472 121 150.366 121.029 150.251 121.029ZM152.034 120.967V120.223L154.187 118.043C154.406 117.813 154.589 117.611 154.734 117.437C154.88 117.263 154.989 117.095 155.06 116.936C155.132 116.776 155.168 116.605 155.168 116.425C155.168 116.22 155.12 116.044 155.023 115.896C154.929 115.746 154.799 115.632 154.633 115.552C154.469 115.47 154.283 115.429 154.076 115.429C153.857 115.429 153.665 115.474 153.501 115.564C153.339 115.654 153.214 115.78 153.126 115.942C153.038 116.104 152.994 116.297 152.994 116.52H152.016C152.016 116.131 152.105 115.79 152.283 115.499C152.462 115.208 152.708 114.983 153.021 114.823C153.335 114.663 153.692 114.583 154.092 114.583C154.5 114.583 154.857 114.662 155.165 114.82C155.474 114.975 155.715 115.19 155.888 115.462C156.062 115.735 156.149 116.043 156.149 116.385C156.149 116.619 156.105 116.848 156.017 117.074C155.929 117.299 155.775 117.551 155.555 117.827C155.336 118.102 155.03 118.434 154.636 118.824L153.452 120.051V120.097H156.247V120.967H152.034ZM159.572 121.078C159.08 121.078 158.658 120.95 158.305 120.694C157.955 120.437 157.685 120.066 157.497 119.58C157.31 119.094 157.218 118.508 157.22 117.821C157.22 117.136 157.313 116.553 157.5 116.071C157.688 115.587 157.958 115.218 158.308 114.964C158.661 114.71 159.082 114.583 159.572 114.583C160.065 114.583 160.486 114.71 160.836 114.964C161.189 115.218 161.459 115.587 161.645 116.071C161.834 116.555 161.928 117.139 161.928 117.821C161.928 118.51 161.835 119.098 161.648 119.583C161.462 120.069 161.192 120.44 160.84 120.697C160.489 120.951 160.067 121.078 159.572 121.078ZM159.572 120.202C159.987 120.202 160.312 120 160.547 119.596C160.783 119.19 160.901 118.598 160.901 117.821C160.901 117.309 160.847 116.876 160.738 116.523C160.631 116.169 160.479 115.901 160.28 115.721C160.083 115.538 159.847 115.447 159.572 115.447C159.162 115.447 158.838 115.65 158.601 116.056C158.365 116.462 158.247 117.05 158.247 117.821C158.245 118.338 158.297 118.774 158.404 119.128C158.512 119.481 158.665 119.749 158.862 119.931C159.061 120.111 159.298 120.202 159.572 120.202Z" fill="black"/>
<path d="M178.233 98.359V105.576M178.233 98.359L181.12 101.246M178.233 98.359L175.346 101.246" stroke="#3BB764" stroke-width="0.866038" stroke-linecap="round" stroke-linejoin="round"/>
<path d="M187.707 104.967V104.171H189.292V99.624L189.769 99.6759L188.028 100.767L187.63 100.057L189.543 98.8618H190.228V104.171H191.683V104.967H187.707ZM194.684 105.045C194.205 105.045 193.801 104.927 193.472 104.69C193.149 104.448 192.903 104.096 192.736 103.634C192.568 103.166 192.485 102.592 192.485 101.91C192.485 101.229 192.568 100.657 192.736 100.196C192.903 99.7279 193.149 99.3757 193.472 99.139C193.801 98.9023 194.205 98.7839 194.684 98.7839C195.169 98.7839 195.573 98.9023 195.897 99.139C196.226 99.3757 196.471 99.725 196.633 100.187C196.8 100.649 196.884 101.22 196.884 101.902C196.884 102.577 196.8 103.152 196.633 103.625C196.465 104.093 196.217 104.448 195.888 104.69C195.565 104.927 195.164 105.045 194.684 105.045ZM194.684 104.249C195.117 104.249 195.438 104.061 195.646 103.686C195.859 103.305 195.966 102.71 195.966 101.902C195.966 101.099 195.862 100.513 195.654 100.144C195.446 99.7683 195.123 99.5807 194.684 99.5807C194.251 99.5807 193.928 99.7683 193.714 100.144C193.507 100.513 193.403 101.102 193.403 101.91C193.403 102.707 193.507 103.296 193.714 103.677C193.928 104.058 194.251 104.249 194.684 104.249ZM199.938 105.201L199.332 104.846L202.908 98.628L203.515 98.9831L199.938 105.201ZM199.262 102.517C198.951 102.517 198.676 102.441 198.44 102.291C198.209 102.141 198.03 101.928 197.903 101.65C197.776 101.368 197.712 101.03 197.712 100.637C197.712 100.054 197.854 99.6009 198.136 99.2775C198.419 98.9484 198.795 98.7839 199.262 98.7839C199.58 98.7839 199.854 98.859 200.085 99.0091C200.316 99.1534 200.495 99.3641 200.622 99.6413C200.749 99.9184 200.812 100.25 200.812 100.637C200.812 101.024 200.749 101.359 200.622 101.642C200.495 101.925 200.316 102.141 200.085 102.291C199.854 102.441 199.58 102.517 199.262 102.517ZM199.262 101.893C199.505 101.893 199.698 101.792 199.843 101.59C199.993 101.382 200.068 101.064 200.068 100.637C200.068 100.222 199.993 99.9126 199.843 99.7106C199.698 99.5027 199.505 99.3988 199.262 99.3988C199.02 99.3988 198.826 99.4998 198.682 99.7019C198.538 99.8982 198.466 100.21 198.466 100.637C198.466 101.064 198.538 101.382 198.682 101.59C198.826 101.792 199.02 101.893 199.262 101.893ZM203.584 105.045C203.272 105.045 202.998 104.973 202.761 104.829C202.53 104.679 202.351 104.465 202.224 104.188C202.097 103.905 202.034 103.567 202.034 103.175C202.034 102.592 202.175 102.135 202.458 101.806C202.741 101.477 203.116 101.313 203.584 101.313C203.901 101.313 204.176 101.388 204.407 101.538C204.637 101.688 204.816 101.902 204.943 102.179C205.071 102.456 205.134 102.788 205.134 103.175C205.134 103.562 205.071 103.896 204.943 104.179C204.822 104.456 204.643 104.67 204.407 104.82C204.176 104.97 203.901 105.045 203.584 105.045ZM203.584 104.43C203.826 104.43 204.02 104.329 204.164 104.127C204.314 103.92 204.389 103.602 204.389 103.175C204.389 102.753 204.314 102.441 204.164 102.239C204.02 102.037 203.826 101.936 203.584 101.936C203.341 101.936 203.148 102.037 203.004 102.239C202.859 102.436 202.787 102.747 202.787 103.175C202.787 103.608 202.859 103.925 203.004 104.127C203.148 104.329 203.341 104.43 203.584 104.43Z" fill="#3BB764"/>
<path d="M177.799 121.628L175.997 117.341H176.993L178.31 120.727H178.232L179.557 117.341H180.518L178.708 121.628H177.799ZM182.84 121.706C182.598 121.706 182.361 121.686 182.13 121.645C181.899 121.605 181.686 121.547 181.489 121.472C181.299 121.397 181.134 121.304 180.996 121.195L181.264 120.545C181.408 120.649 181.567 120.736 181.74 120.805C181.919 120.869 182.101 120.918 182.286 120.952C182.471 120.981 182.65 120.996 182.823 120.996C183.158 120.996 183.412 120.949 183.585 120.857C183.764 120.759 183.854 120.62 183.854 120.441C183.854 120.285 183.802 120.17 183.698 120.095C183.594 120.014 183.426 119.953 183.195 119.913L182.295 119.766C181.896 119.697 181.596 119.561 181.394 119.359C181.198 119.151 181.1 118.891 181.1 118.579C181.1 118.314 181.172 118.083 181.316 117.887C181.46 117.69 181.671 117.537 181.948 117.428C182.225 117.318 182.555 117.263 182.936 117.263C183.143 117.263 183.351 117.283 183.559 117.324C183.767 117.358 183.96 117.413 184.139 117.488C184.324 117.563 184.474 117.658 184.59 117.774L184.313 118.415C184.191 118.317 184.053 118.236 183.897 118.172C183.747 118.109 183.588 118.06 183.421 118.025C183.253 117.99 183.091 117.973 182.936 117.973C182.618 117.973 182.373 118.025 182.199 118.129C182.032 118.227 181.948 118.366 181.948 118.545C181.948 118.695 181.997 118.81 182.096 118.891C182.194 118.972 182.35 119.03 182.563 119.064L183.438 119.229C183.865 119.304 184.183 119.437 184.391 119.627C184.598 119.818 184.702 120.078 184.702 120.407C184.702 120.678 184.624 120.912 184.468 121.108C184.318 121.299 184.102 121.446 183.819 121.55C183.542 121.654 183.216 121.706 182.84 121.706ZM185.658 121.628V120.537H186.801V121.628H185.658ZM189.996 121.628L192.716 115.522H193.538L196.258 121.628H195.279L194.534 119.904L194.967 120.199H191.278L191.702 119.904L190.966 121.628H189.996ZM193.105 116.561L191.806 119.627L191.59 119.419H194.656L194.439 119.627L193.14 116.561H193.105ZM197.155 123.187V117.341H198.012V118.259H198.004C198.125 117.941 198.321 117.696 198.593 117.523C198.87 117.35 199.19 117.263 199.554 117.263C199.947 117.263 200.287 117.355 200.576 117.54C200.87 117.725 201.095 117.985 201.251 118.32C201.413 118.649 201.494 119.035 201.494 119.48C201.494 119.919 201.416 120.306 201.26 120.641C201.104 120.975 200.882 121.238 200.593 121.429C200.304 121.613 199.958 121.706 199.554 121.706C199.196 121.706 198.887 121.622 198.627 121.455C198.373 121.281 198.188 121.053 198.073 120.77H198.09V123.187H197.155ZM199.32 120.97C199.701 120.97 200.001 120.84 200.221 120.58C200.446 120.314 200.559 119.948 200.559 119.48C200.559 119.012 200.449 118.649 200.229 118.389C200.01 118.129 199.707 117.999 199.32 117.999C198.933 117.999 198.627 118.129 198.402 118.389C198.183 118.649 198.073 119.012 198.073 119.48C198.073 119.948 198.186 120.314 198.411 120.58C198.636 120.84 198.939 120.97 199.32 120.97ZM202.669 121.628V117.341H203.518V118.363H203.509C203.613 118.04 203.789 117.785 204.038 117.601C204.286 117.41 204.598 117.303 204.973 117.28L205.38 117.246L205.458 118.094L204.791 118.146C204.416 118.181 204.124 118.305 203.916 118.519C203.708 118.732 203.605 119.004 203.605 119.333V121.628H202.669Z" fill="#888888"/>
</g>
<g filter="url(#filter3_ddddd_10093_885)">
<rect x="80.5" y="125" width="300" height="57.2264" rx="4.5283" fill="white" shape-rendering="crispEdges"/>
<rect x="81.066" y="125.566" width="298.868" height="56.0943" rx="3.96226" stroke="#EEEEF1" stroke-width="1.13208" shape-rendering="crispEdges"/>
<path d="M95.0472 149.113V141.132H95.9641L100.787 147.494H100.549V141.132H101.647V149.113H100.73L95.9189 142.751H96.1566V149.113H95.0472ZM106.084 149.215C105.473 149.215 104.944 149.102 104.499 148.875C104.061 148.641 103.722 148.309 103.48 147.879C103.246 147.449 103.129 146.94 103.129 146.351C103.129 145.777 103.242 145.275 103.469 144.845C103.703 144.415 104.023 144.079 104.431 143.838C104.846 143.596 105.322 143.475 105.857 143.475C106.378 143.475 106.82 143.589 107.182 143.815C107.552 144.034 107.839 144.351 108.042 144.766C108.246 145.174 108.348 145.664 108.348 146.238V146.611H104.035V145.898H107.544L107.363 146.068C107.363 145.502 107.235 145.068 106.978 144.766C106.729 144.457 106.367 144.302 105.891 144.302C105.537 144.302 105.235 144.381 104.986 144.54C104.744 144.698 104.556 144.924 104.42 145.219C104.291 145.506 104.227 145.845 104.227 146.238V146.328C104.227 146.766 104.299 147.132 104.442 147.426C104.586 147.721 104.797 147.943 105.076 148.094C105.356 148.238 105.695 148.309 106.095 148.309C106.412 148.309 106.722 148.264 107.023 148.174C107.333 148.075 107.623 147.917 107.895 147.698L108.246 148.502C107.982 148.728 107.654 148.906 107.261 149.034C106.869 149.155 106.476 149.215 106.084 149.215ZM112.004 149.215C111.302 149.215 110.777 149.038 110.43 148.683C110.091 148.321 109.921 147.8 109.921 147.121V144.472H108.845V143.577H109.932V141.913H111.075V143.577H112.841V144.472H111.087V147.041C111.087 147.441 111.17 147.743 111.336 147.947C111.509 148.143 111.789 148.241 112.174 148.241C112.294 148.241 112.415 148.23 112.536 148.207C112.657 148.177 112.774 148.143 112.887 148.106L113.079 148.977C112.951 149.053 112.785 149.109 112.581 149.147C112.385 149.192 112.192 149.215 112.004 149.215ZM116.889 151.151V143.577H118.01V144.811H117.92C118.04 144.404 118.278 144.079 118.633 143.838C118.988 143.596 119.41 143.475 119.901 143.475C120.391 143.475 120.818 143.592 121.18 143.826C121.55 144.06 121.837 144.392 122.04 144.823C122.252 145.245 122.357 145.751 122.357 146.34C122.357 146.921 122.256 147.43 122.052 147.868C121.848 148.298 121.561 148.63 121.191 148.864C120.829 149.098 120.399 149.215 119.901 149.215C119.418 149.215 119.003 149.098 118.656 148.864C118.308 148.623 118.071 148.306 117.942 147.913H118.044V151.151H116.889ZM119.606 148.309C120.089 148.309 120.471 148.14 120.75 147.8C121.037 147.46 121.18 146.974 121.18 146.34C121.18 145.698 121.037 145.211 120.75 144.879C120.471 144.547 120.089 144.381 119.606 144.381C119.131 144.381 118.75 144.547 118.463 144.879C118.176 145.211 118.033 145.698 118.033 146.34C118.033 146.974 118.176 147.46 118.463 147.8C118.75 148.14 119.131 148.309 119.606 148.309ZM123.678 149.113V143.577H124.798V144.902H124.696C124.817 144.457 125.036 144.117 125.353 143.883C125.67 143.641 126.085 143.502 126.598 143.464L127.006 143.441L127.096 144.438L126.361 144.506C125.87 144.558 125.496 144.717 125.24 144.981C124.983 145.245 124.855 145.604 124.855 146.057V149.113H123.678ZM130.357 149.215C129.798 149.215 129.311 149.098 128.896 148.864C128.489 148.63 128.172 148.298 127.945 147.868C127.726 147.438 127.617 146.928 127.617 146.34C127.617 145.758 127.726 145.253 127.945 144.823C128.172 144.392 128.489 144.06 128.896 143.826C129.311 143.592 129.798 143.475 130.357 143.475C130.915 143.475 131.398 143.592 131.806 143.826C132.213 144.06 132.53 144.392 132.757 144.823C132.983 145.253 133.096 145.758 133.096 146.34C133.096 146.928 132.983 147.438 132.757 147.868C132.53 148.298 132.213 148.63 131.806 148.864C131.398 149.098 130.915 149.215 130.357 149.215ZM130.357 148.309C130.832 148.309 131.213 148.14 131.5 147.8C131.787 147.46 131.93 146.974 131.93 146.34C131.93 145.706 131.787 145.223 131.5 144.891C131.221 144.551 130.84 144.381 130.357 144.381C129.873 144.381 129.489 144.551 129.202 144.891C128.923 145.223 128.783 145.706 128.783 146.34C128.783 146.974 128.923 147.46 129.202 147.8C129.489 148.14 129.873 148.309 130.357 148.309ZM134.719 149.113V144.46H133.632V143.577H135.036L134.719 143.883V143.475C134.719 142.721 134.915 142.151 135.307 141.766C135.7 141.381 136.3 141.162 137.107 141.109L137.572 141.087L137.64 141.97L137.164 142.004C136.862 142.019 136.617 142.079 136.428 142.185C136.24 142.283 136.1 142.426 136.009 142.615C135.919 142.796 135.874 143.03 135.874 143.317V143.713L135.84 143.577H139.44V149.113H138.285V144.46H135.874V149.113H134.719ZM138.194 142.287V141.098H139.53V142.287H138.194ZM143.478 149.215C142.777 149.215 142.252 149.038 141.905 148.683C141.565 148.321 141.395 147.8 141.395 147.121V144.472H140.32V143.577H141.407V141.913H142.55V143.577H144.316V144.472H142.562V147.041C142.562 147.441 142.645 147.743 142.811 147.947C142.984 148.143 143.263 148.241 143.648 148.241C143.769 148.241 143.89 148.23 144.011 148.207C144.131 148.177 144.248 148.143 144.362 148.106L144.554 148.977C144.426 149.053 144.26 149.109 144.056 149.147C143.86 149.192 143.667 149.215 143.478 149.215Z" fill="#888888"/>
<path d="M97.4377 169.142V158.851H98.097V169.142H97.4377ZM99.4357 162.083C99.3955 161.713 99.2267 161.426 98.9292 161.223C98.6317 161.019 98.2538 160.917 97.7955 160.917C97.4685 160.917 97.1858 160.968 96.9472 161.07C96.7114 161.169 96.5292 161.306 96.4005 161.48C96.2719 161.654 96.2075 161.854 96.2075 162.079C96.2049 162.264 96.2477 162.425 96.3362 162.561C96.4246 162.695 96.5412 162.808 96.6859 162.899C96.8307 162.99 96.9888 163.067 97.1603 163.128C97.3318 163.19 97.4994 163.241 97.6628 163.281L98.4548 163.486C98.7362 163.553 99.0176 163.644 99.299 163.759C99.5805 163.875 99.8364 164.023 100.067 164.206C100.3 164.388 100.488 164.612 100.63 164.877C100.772 165.142 100.843 165.459 100.843 165.826C100.843 166.297 100.721 166.715 100.477 167.08C100.236 167.442 99.886 167.727 99.4277 167.936C98.9694 168.143 98.4146 168.246 97.7633 168.246C97.1389 168.246 96.5975 168.148 96.1392 167.952C95.6809 167.754 95.3218 167.471 95.0618 167.104C94.8045 166.734 94.6638 166.291 94.6397 165.773H95.9744C95.9958 166.068 96.0883 166.313 96.2518 166.509C96.4179 166.702 96.631 166.847 96.891 166.943C97.1509 167.037 97.439 167.084 97.7553 167.084C98.0957 167.084 98.3972 167.03 98.6598 166.923C98.9225 166.816 99.1289 166.667 99.2789 166.477C99.4317 166.287 99.5081 166.066 99.5081 165.814C99.5081 165.58 99.4411 165.389 99.3071 165.239C99.1758 165.089 98.9948 164.964 98.7644 164.865C98.5366 164.766 98.2752 164.679 97.9804 164.604L97.0196 164.346C96.3523 164.169 95.8243 163.905 95.4357 163.554C95.0497 163.203 94.8568 162.737 94.8568 162.155C94.8568 161.678 94.9868 161.261 95.2467 160.905C95.5067 160.546 95.8591 160.267 96.304 160.069C96.7516 159.868 97.2555 159.767 97.8156 159.767C98.3838 159.767 98.8836 159.866 99.3151 160.065C99.7493 160.263 100.091 160.537 100.34 160.885C100.59 161.233 100.719 161.633 100.73 162.083H99.4357ZM101.943 166.537V165.46L105.473 159.88H106.345V161.444H105.802L103.334 165.351V165.416H108.21V166.537H101.943ZM105.855 168.113V166.208L105.867 165.721V159.88H107.133V168.113H105.855ZM110.869 166.988L110.813 167.426C110.773 167.755 110.706 168.094 110.612 168.443C110.518 168.794 110.419 169.118 110.315 169.416C110.213 169.713 110.13 169.949 110.065 170.123H109.161C109.198 169.957 109.248 169.733 109.31 169.452C109.374 169.17 109.436 168.854 109.495 168.503C109.556 168.155 109.6 167.8 109.627 167.438L109.659 166.988H110.869ZM112.517 168.113L116.071 161.078V161.018H111.955V159.88H117.462V161.05L113.912 168.113H112.517ZM117.936 166.537V165.46L121.466 159.88H122.338V161.444H121.796L119.327 165.351V165.416H124.204V166.537H117.936ZM121.848 168.113V166.208L121.86 165.721V159.88H123.126V168.113H121.848ZM128.289 159.767C128.667 159.77 129.037 159.838 129.398 159.972C129.763 160.104 130.091 160.319 130.383 160.62C130.678 160.92 130.913 161.323 131.087 161.83C131.261 162.336 131.348 162.966 131.348 163.719C131.351 164.435 131.278 165.073 131.131 165.633C130.984 166.19 130.772 166.662 130.496 167.048C130.222 167.431 129.891 167.723 129.503 167.924C129.114 168.125 128.677 168.226 128.192 168.226C127.691 168.226 127.246 168.128 126.858 167.932C126.469 167.734 126.153 167.462 125.909 167.116C125.668 166.768 125.518 166.37 125.459 165.922H126.781C126.862 166.263 127.022 166.537 127.264 166.746C127.505 166.953 127.814 167.056 128.192 167.056C128.782 167.056 129.24 166.8 129.567 166.288C129.894 165.773 130.058 165.055 130.058 164.133H129.997C129.861 164.366 129.688 164.567 129.479 164.736C129.272 164.905 129.038 165.035 128.775 165.126C128.515 165.215 128.239 165.259 127.947 165.259C127.47 165.259 127.037 165.144 126.649 164.913C126.263 164.68 125.956 164.361 125.728 163.956C125.5 163.552 125.386 163.088 125.386 162.565C125.386 162.04 125.507 161.566 125.748 161.142C125.989 160.716 126.327 160.38 126.761 160.133C127.195 159.884 127.705 159.762 128.289 159.767ZM128.293 160.877C127.987 160.877 127.713 160.952 127.469 161.102C127.227 161.249 127.037 161.45 126.898 161.705C126.758 161.957 126.689 162.237 126.689 162.545C126.689 162.853 126.757 163.134 126.894 163.385C127.03 163.635 127.218 163.833 127.457 163.98C127.695 164.128 127.967 164.202 128.273 164.202C128.501 164.202 128.712 164.157 128.908 164.069C129.106 163.98 129.279 163.858 129.426 163.703C129.574 163.545 129.689 163.365 129.772 163.164C129.858 162.963 129.9 162.753 129.897 162.533C129.897 162.238 129.827 161.966 129.688 161.717C129.551 161.465 129.361 161.263 129.117 161.11C128.876 160.955 128.601 160.877 128.293 160.877ZM133.241 168.194C133.011 168.194 132.812 168.113 132.646 167.952C132.483 167.789 132.402 167.591 132.405 167.357C132.402 167.13 132.483 166.935 132.646 166.774C132.812 166.611 133.011 166.529 133.241 166.529C133.466 166.529 133.661 166.611 133.824 166.774C133.99 166.935 134.075 167.13 134.077 167.357C134.075 167.513 134.035 167.654 133.957 167.779C133.882 167.905 133.781 168.006 133.655 168.081C133.529 168.156 133.391 168.194 133.241 168.194ZM138.247 159.767C138.625 159.77 138.995 159.838 139.357 159.972C139.721 160.104 140.049 160.319 140.342 160.62C140.636 160.92 140.871 161.323 141.045 161.83C141.219 162.336 141.306 162.966 141.306 163.719C141.309 164.435 141.237 165.073 141.089 165.633C140.942 166.19 140.73 166.662 140.454 167.048C140.181 167.431 139.85 167.723 139.461 167.924C139.073 168.125 138.636 168.226 138.151 168.226C137.649 168.226 137.204 168.128 136.816 167.932C136.427 167.734 136.111 167.462 135.867 167.116C135.626 166.768 135.476 166.37 135.417 165.922H136.739C136.82 166.263 136.981 166.537 137.222 166.746C137.463 166.953 137.773 167.056 138.151 167.056C138.74 167.056 139.198 166.8 139.525 166.288C139.852 165.773 140.016 165.055 140.016 164.133H139.956C139.819 164.366 139.646 164.567 139.437 164.736C139.231 164.905 138.996 165.035 138.733 165.126C138.474 165.215 138.197 165.259 137.905 165.259C137.428 165.259 136.995 165.144 136.607 164.913C136.221 164.68 135.914 164.361 135.686 163.956C135.458 163.552 135.345 163.088 135.345 162.565C135.345 162.04 135.465 161.566 135.706 161.142C135.948 160.716 136.285 160.38 136.719 160.133C137.154 159.884 137.663 159.762 138.247 159.767ZM138.251 160.877C137.946 160.877 137.671 160.952 137.427 161.102C137.186 161.249 136.995 161.45 136.856 161.705C136.717 161.957 136.647 162.237 136.647 162.545C136.647 162.853 136.715 163.134 136.852 163.385C136.989 163.635 137.176 163.833 137.415 163.98C137.653 164.128 137.925 164.202 138.231 164.202C138.459 164.202 138.671 164.157 138.866 164.069C139.064 163.98 139.237 163.858 139.385 163.703C139.532 163.545 139.647 163.365 139.73 163.164C139.816 162.963 139.858 162.753 139.855 162.533C139.855 162.238 139.785 161.966 139.646 161.717C139.509 161.465 139.319 161.263 139.075 161.11C138.834 160.955 138.559 160.877 138.251 160.877ZM145.588 168.226C145.21 168.223 144.838 168.156 144.474 168.025C144.112 167.893 143.784 167.676 143.489 167.373C143.197 167.071 142.962 166.665 142.785 166.155C142.611 165.646 142.526 165.012 142.528 164.254C142.528 163.544 142.601 162.911 142.745 162.356C142.893 161.799 143.103 161.328 143.376 160.945C143.653 160.562 143.985 160.27 144.373 160.069C144.762 159.868 145.199 159.767 145.684 159.767C146.185 159.767 146.63 159.866 147.019 160.065C147.407 160.26 147.722 160.531 147.963 160.877C148.205 161.223 148.356 161.614 148.418 162.051H147.095C147.015 161.718 146.854 161.45 146.613 161.247C146.371 161.04 146.062 160.937 145.684 160.937C145.094 160.937 144.637 161.194 144.313 161.709C143.989 162.221 143.824 162.93 143.819 163.836H143.879C144.016 163.603 144.189 163.403 144.398 163.237C144.607 163.068 144.841 162.939 145.101 162.851C145.361 162.76 145.637 162.714 145.929 162.714C146.409 162.714 146.842 162.831 147.228 163.064C147.614 163.294 147.921 163.612 148.148 164.017C148.376 164.421 148.49 164.886 148.49 165.412C148.49 165.942 148.368 166.422 148.124 166.851C147.883 167.277 147.545 167.613 147.111 167.86C146.677 168.106 146.169 168.228 145.588 168.226ZM145.584 167.116C145.889 167.116 146.162 167.041 146.404 166.891C146.648 166.741 146.839 166.539 146.979 166.284C147.118 166.029 147.188 165.745 147.188 165.432C147.188 165.124 147.119 164.845 146.983 164.596C146.849 164.344 146.662 164.144 146.424 163.997C146.185 163.846 145.913 163.771 145.608 163.771C145.377 163.771 145.163 163.816 144.964 163.904C144.769 163.993 144.597 164.114 144.45 164.27C144.302 164.425 144.187 164.604 144.104 164.805C144.021 165.006 143.979 165.219 143.979 165.444C143.979 165.744 144.048 166.021 144.185 166.276C144.324 166.528 144.514 166.732 144.755 166.887C144.999 167.04 145.275 167.116 145.584 167.116Z" fill="black"/>
<path d="M330.594 138.396V147.83M330.594 138.396L334.368 142.17M330.594 138.396L326.821 142.17" stroke="#3BB764" stroke-width="1.13208" stroke-linecap="round" stroke-linejoin="round"/>
<path d="M345.187 146.715C344.832 146.715 344.485 146.681 344.145 146.613C343.813 146.538 343.5 146.432 343.206 146.296C342.919 146.153 342.666 145.983 342.447 145.787L342.855 144.881C343.209 145.168 343.575 145.379 343.953 145.515C344.338 145.643 344.738 145.708 345.153 145.708C345.507 145.708 345.809 145.659 346.058 145.56C346.307 145.455 346.496 145.304 346.624 145.108C346.753 144.904 346.817 144.655 346.817 144.36C346.817 143.93 346.674 143.61 346.387 143.398C346.107 143.179 345.696 143.07 345.153 143.07H343.93V142.085H345.04C345.357 142.085 345.628 142.032 345.855 141.926C346.089 141.813 346.27 141.659 346.398 141.462C346.526 141.259 346.591 141.013 346.591 140.726C346.591 140.342 346.462 140.047 346.206 139.843C345.957 139.64 345.594 139.538 345.119 139.538C344.719 139.538 344.341 139.61 343.987 139.753C343.632 139.889 343.3 140.108 342.991 140.41L342.583 139.504C342.892 139.194 343.281 138.957 343.749 138.791C344.217 138.617 344.704 138.53 345.209 138.53C345.738 138.53 346.191 138.613 346.568 138.779C346.945 138.945 347.236 139.183 347.44 139.493C347.643 139.794 347.745 140.164 347.745 140.602C347.745 141.077 347.613 141.489 347.349 141.836C347.085 142.183 346.723 142.421 346.262 142.549V142.436C346.617 142.496 346.923 142.617 347.179 142.798C347.436 142.979 347.632 143.21 347.768 143.489C347.904 143.76 347.972 144.077 347.972 144.44C347.972 144.908 347.858 145.315 347.632 145.662C347.406 146.002 347.085 146.262 346.67 146.443C346.255 146.625 345.76 146.715 345.187 146.715ZM351.533 146.715C351.254 146.715 350.975 146.681 350.696 146.613C350.416 146.538 350.152 146.432 349.903 146.296C349.654 146.153 349.431 145.983 349.235 145.787L349.654 144.893C349.933 145.172 350.231 145.379 350.548 145.515C350.873 145.643 351.205 145.708 351.545 145.708C351.899 145.708 352.209 145.643 352.473 145.515C352.745 145.387 352.975 145.194 353.163 144.938C353.352 144.681 353.492 144.364 353.582 143.987C353.68 143.61 353.729 143.172 353.729 142.674V141.768H353.82C353.767 142.16 353.639 142.504 353.435 142.798C353.231 143.085 352.975 143.304 352.665 143.455C352.363 143.606 352.016 143.681 351.624 143.681C351.163 143.681 350.752 143.576 350.39 143.364C350.035 143.145 349.752 142.843 349.541 142.459C349.337 142.074 349.235 141.64 349.235 141.157C349.235 140.643 349.345 140.191 349.563 139.798C349.79 139.398 350.096 139.089 350.48 138.87C350.865 138.643 351.311 138.53 351.816 138.53C352.465 138.53 353.013 138.685 353.458 138.994C353.911 139.296 354.254 139.742 354.488 140.33C354.722 140.919 354.839 141.628 354.839 142.459C354.839 143.364 354.707 144.134 354.443 144.768C354.186 145.402 353.809 145.885 353.311 146.217C352.82 146.549 352.228 146.715 351.533 146.715ZM351.896 142.73C352.197 142.73 352.465 142.662 352.699 142.526C352.933 142.391 353.114 142.202 353.243 141.96C353.379 141.711 353.446 141.428 353.446 141.111C353.446 140.787 353.382 140.504 353.254 140.262C353.126 140.021 352.945 139.832 352.711 139.696C352.477 139.553 352.205 139.481 351.896 139.481C351.586 139.481 351.314 139.553 351.08 139.696C350.854 139.832 350.673 140.021 350.537 140.262C350.409 140.504 350.345 140.787 350.345 141.111C350.345 141.428 350.409 141.711 350.537 141.96C350.673 142.202 350.854 142.391 351.08 142.526C351.314 142.662 351.586 142.73 351.896 142.73ZM358.865 146.908L358.095 146.455L362.77 138.338L363.54 138.791L358.865 146.908ZM358.038 143.41C357.631 143.41 357.276 143.311 356.974 143.115C356.68 142.919 356.453 142.64 356.295 142.277C356.136 141.908 356.057 141.47 356.057 140.964C356.057 140.202 356.234 139.606 356.589 139.176C356.944 138.745 357.427 138.53 358.038 138.53C358.446 138.53 358.797 138.628 359.091 138.825C359.393 139.013 359.623 139.289 359.782 139.651C359.94 140.013 360.019 140.451 360.019 140.964C360.019 141.47 359.94 141.908 359.782 142.277C359.623 142.64 359.397 142.919 359.102 143.115C358.808 143.311 358.453 143.41 358.038 143.41ZM358.038 142.606C358.355 142.606 358.604 142.47 358.785 142.198C358.967 141.926 359.057 141.515 359.057 140.964C359.057 140.413 358.967 140.002 358.785 139.73C358.604 139.459 358.355 139.323 358.038 139.323C357.721 139.323 357.472 139.459 357.291 139.73C357.11 139.994 357.019 140.406 357.019 140.964C357.019 141.523 357.11 141.938 357.291 142.21C357.472 142.474 357.721 142.606 358.038 142.606ZM363.597 146.715C363.189 146.715 362.834 146.621 362.533 146.432C362.238 146.236 362.012 145.957 361.853 145.594C361.702 145.225 361.627 144.783 361.627 144.27C361.627 143.508 361.801 142.911 362.148 142.481C362.502 142.051 362.985 141.836 363.597 141.836C364.012 141.836 364.367 141.934 364.661 142.13C364.955 142.326 365.182 142.606 365.34 142.968C365.499 143.33 365.578 143.764 365.578 144.27C365.578 144.783 365.499 145.225 365.34 145.594C365.182 145.957 364.955 146.236 364.661 146.432C364.367 146.621 364.012 146.715 363.597 146.715ZM363.597 145.923C363.914 145.923 364.163 145.787 364.344 145.515C364.525 145.243 364.616 144.828 364.616 144.27C364.616 143.726 364.525 143.319 364.344 143.047C364.163 142.776 363.914 142.64 363.597 142.64C363.287 142.64 363.042 142.776 362.861 143.047C362.68 143.311 362.589 143.719 362.589 144.27C362.589 144.828 362.68 145.243 362.861 145.515C363.042 145.787 363.287 145.923 363.597 145.923Z" fill="#3BB764"/>
<path d="M332.36 168.434L329.983 162.898H331.228L333.051 167.449H332.768L334.636 162.898H335.813L333.413 168.434H332.36ZM338.549 168.536C338.247 168.536 337.952 168.509 337.666 168.457C337.386 168.404 337.126 168.328 336.884 168.23C336.65 168.132 336.447 168.011 336.273 167.868L336.601 167.075C336.79 167.211 336.99 167.325 337.201 167.415C337.42 167.506 337.643 167.574 337.869 167.619C338.103 167.664 338.333 167.687 338.56 167.687C338.967 167.687 339.273 167.619 339.477 167.483C339.681 167.34 339.782 167.147 339.782 166.906C339.782 166.709 339.715 166.558 339.579 166.453C339.45 166.34 339.247 166.257 338.967 166.204L337.869 165.989C337.386 165.891 337.024 165.717 336.782 165.468C336.541 165.219 336.42 164.894 336.42 164.494C336.42 164.155 336.515 163.857 336.703 163.6C336.892 163.343 337.156 163.147 337.496 163.011C337.843 162.868 338.243 162.796 338.696 162.796C338.96 162.796 339.216 162.823 339.466 162.875C339.715 162.921 339.949 162.992 340.167 163.091C340.386 163.189 340.571 163.313 340.722 163.464L340.382 164.257C340.232 164.128 340.062 164.019 339.873 163.928C339.692 163.838 339.499 163.77 339.296 163.725C339.092 163.672 338.892 163.645 338.696 163.645C338.296 163.645 337.994 163.721 337.79 163.872C337.586 164.015 337.484 164.208 337.484 164.449C337.484 164.638 337.545 164.792 337.666 164.913C337.794 165.026 337.986 165.109 338.243 165.162L339.341 165.377C339.839 165.475 340.216 165.645 340.473 165.887C340.73 166.121 340.858 166.442 340.858 166.849C340.858 167.196 340.76 167.498 340.564 167.755C340.375 168.004 340.107 168.196 339.76 168.332C339.413 168.468 339.009 168.536 338.549 168.536ZM341.97 168.434V167.075H343.351V168.434H341.97ZM347.209 168.434L350.764 160.453H351.76L355.326 168.434H354.115L353.141 166.17L353.673 166.498H348.851L349.383 166.17L348.42 168.434H347.209ZM351.251 161.766L349.541 165.819L349.258 165.536H353.266L352.994 165.819L351.273 161.766H351.251ZM356.291 170.472V162.898H357.411V164.132H357.321C357.441 163.725 357.679 163.4 358.034 163.158C358.389 162.917 358.811 162.796 359.302 162.796C359.792 162.796 360.219 162.913 360.581 163.147C360.951 163.381 361.238 163.713 361.441 164.143C361.653 164.566 361.758 165.072 361.758 165.66C361.758 166.242 361.657 166.751 361.453 167.189C361.249 167.619 360.962 167.951 360.592 168.185C360.23 168.419 359.8 168.536 359.302 168.536C358.819 168.536 358.404 168.419 358.057 168.185C357.709 167.943 357.472 167.626 357.343 167.234H357.445V170.472H356.291ZM359.008 167.63C359.491 167.63 359.872 167.46 360.151 167.121C360.438 166.781 360.581 166.294 360.581 165.66C360.581 165.019 360.438 164.532 360.151 164.2C359.872 163.868 359.491 163.702 359.008 163.702C358.532 163.702 358.151 163.868 357.864 164.2C357.577 164.532 357.434 165.019 357.434 165.66C357.434 166.294 357.577 166.781 357.864 167.121C358.151 167.46 358.532 167.63 359.008 167.63ZM363.079 168.434V162.898H364.199V164.223H364.097C364.218 163.777 364.437 163.438 364.754 163.204C365.071 162.962 365.486 162.823 365.999 162.785L366.407 162.762L366.497 163.758L365.762 163.826C365.271 163.879 364.897 164.038 364.641 164.302C364.384 164.566 364.256 164.925 364.256 165.377V168.434H363.079Z" fill="#888888"/>
</g>
<defs>
<filter id="filter0_d_10093_885" x="162.679" y="146.143" width="145.927" height="78.3548" filterUnits="userSpaceOnUse" color-interpolation-filters="sRGB">
<feFlood flood-opacity="0" result="BackgroundImageFix"/>
<feColorMatrix in="SourceAlpha" type="matrix" values="0 0 0 0 0 0 0 0 0 0 0 0 0 0 0 0 0 0 127 0" result="hardAlpha"/>
<feOffset dy="3.46415"/>
<feGaussianBlur stdDeviation="8.66038"/>
<feComposite in2="hardAlpha" operator="out"/>
<feColorMatrix type="matrix" values="0 0 0 0 0.0745098 0 0 0 0 0.0745098 0 0 0 0 0.0862745 0 0 0 0.05 0"/>
<feBlend mode="normal" in2="BackgroundImageFix" result="effect1_dropShadow_10093_885"/>
<feBlend mode="normal" in="SourceGraphic" in2="effect1_dropShadow_10093_885" result="shape"/>
</filter>
<filter id="filter1_d_10093_885" x="293.679" y="91.1434" width="145.927" height="78.3548" filterUnits="userSpaceOnUse" color-interpolation-filters="sRGB">
<feFlood flood-opacity="0" result="BackgroundImageFix"/>
<feColorMatrix in="SourceAlpha" type="matrix" values="0 0 0 0 0 0 0 0 0 0 0 0 0 0 0 0 0 0 127 0" result="hardAlpha"/>
<feOffset dy="3.46415"/>
<feGaussianBlur stdDeviation="8.66038"/>
<feComposite in2="hardAlpha" operator="out"/>
<feColorMatrix type="matrix" values="0 0 0 0 0.0745098 0 0 0 0 0.0745098 0 0 0 0 0.0862745 0 0 0 0.05 0"/>
<feBlend mode="normal" in2="BackgroundImageFix" result="effect1_dropShadow_10093_885"/>
<feBlend mode="normal" in="SourceGraphic" in2="effect1_dropShadow_10093_885" result="shape"/>
</filter>
<filter id="filter2_d_10093_885" x="87.6792" y="74.2542" width="145.927" height="78.3548" filterUnits="userSpaceOnUse" color-interpolation-filters="sRGB">
<feFlood flood-opacity="0" result="BackgroundImageFix"/>
<feColorMatrix in="SourceAlpha" type="matrix" values="0 0 0 0 0 0 0 0 0 0 0 0 0 0 0 0 0 0 127 0" result="hardAlpha"/>
<feOffset dy="3.46415"/>
<feGaussianBlur stdDeviation="8.66038"/>
<feComposite in2="hardAlpha" operator="out"/>
<feColorMatrix type="matrix" values="0 0 0 0 0.0745098 0 0 0 0 0.0745098 0 0 0 0 0.0862745 0 0 0 0.05 0"/>
<feBlend mode="normal" in2="BackgroundImageFix" result="effect1_dropShadow_10093_885"/>
<feBlend mode="normal" in="SourceGraphic" in2="effect1_dropShadow_10093_885" result="shape"/>
</filter>
<filter id="filter3_ddddd_10093_885" x="0.5" y="80" width="460" height="217.226" filterUnits="userSpaceOnUse" color-interpolation-filters="sRGB">
<feFlood flood-opacity="0" result="BackgroundImageFix"/>
<feColorMatrix in="SourceAlpha" type="matrix" values="0 0 0 0 0 0 0 0 0 0 0 0 0 0 0 0 0 0 127 0" result="hardAlpha"/>
<feMorphology radius="1" operator="dilate" in="SourceAlpha" result="effect1_dropShadow_10093_885"/>
<feOffset/>
<feComposite in2="hardAlpha" operator="out"/>
<feColorMatrix type="matrix" values="0 0 0 0 0.0666667 0 0 0 0 0.0666667 0 0 0 0 0.0666667 0 0 0 0.04 0"/>
<feBlend mode="normal" in2="BackgroundImageFix" result="effect1_dropShadow_10093_885"/>
<feColorMatrix in="SourceAlpha" type="matrix" values="0 0 0 0 0 0 0 0 0 0 0 0 0 0 0 0 0 0 127 0" result="hardAlpha"/>
<feOffset dy="5"/>
<feGaussianBlur stdDeviation="1.81152"/>
<feColorMatrix type="matrix" values="0 0 0 0 0.0117647 0 0 0 0 0.00784314 0 0 0 0 0.00784314 0 0 0 0.0243888 0"/>
<feBlend mode="normal" in2="effect1_dropShadow_10093_885" result="effect2_dropShadow_10093_885"/>
<feColorMatrix in="SourceAlpha" type="matrix" values="0 0 0 0 0 0 0 0 0 0 0 0 0 0 0 0 0 0 127 0" result="hardAlpha"/>
<feOffset dy="10"/>
<feGaussianBlur stdDeviation="5.00862"/>
<feColorMatrix type="matrix" values="0 0 0 0 0.0117647 0 0 0 0 0.00784314 0 0 0 0 0.00784314 0 0 0 0.035 0"/>
<feBlend mode="normal" in2="effect2_dropShadow_10093_885" result="effect3_dropShadow_10093_885"/>
<feColorMatrix in="SourceAlpha" type="matrix" values="0 0 0 0 0 0 0 0 0 0 0 0 0 0 0 0 0 0 127 0" result="hardAlpha"/>
<feOffset dy="25"/>
<feGaussianBlur stdDeviation="12.0588"/>
<feColorMatrix type="matrix" values="0 0 0 0 0.01 0 0 0 0 0.00965 0 0 0 0 0.0094 0 0 0 0.0456112 0"/>
<feBlend mode="normal" in2="effect3_dropShadow_10093_885" result="effect4_dropShadow_10093_885"/>
<feColorMatrix in="SourceAlpha" type="matrix" values="0 0 0 0 0 0 0 0 0 0 0 0 0 0 0 0 0 0 127 0" result="hardAlpha"/>
<feOffset dy="35"/>
<feGaussianBlur stdDeviation="40"/>
<feColorMatrix type="matrix" values="0 0 0 0 0.0117647 0 0 0 0 0.00784314 0 0 0 0 0.00784314 0 0 0 0.07 0"/>
<feBlend mode="normal" in2="effect4_dropShadow_10093_885" result="effect5_dropShadow_10093_885"/>
<feBlend mode="normal" in="SourceGraphic" in2="effect5_dropShadow_10093_885" result="shape"/>
</filter>
</defs>
</svg>
