<svg width="327" height="327" viewBox="0 0 327 327" fill="none" xmlns="http://www.w3.org/2000/svg">
<g filter="url(#filter0_d_10093_703)">
<rect width="122" height="124.091" transform="translate(172 136)" fill="#FAFAFA"/>
<path d="M181.76 143.755H210.343C211.834 143.755 213.044 144.965 213.045 146.456V152.034C213.045 153.526 211.834 154.736 210.343 154.736H181.76C180.268 154.735 179.058 153.525 179.058 152.034V146.456C179.059 144.965 180.268 143.756 181.76 143.755Z" fill="#FAFAFA"/>
<path d="M181.76 143.755H210.343C211.834 143.755 213.044 144.965 213.045 146.456V152.034C213.045 153.526 211.834 154.736 210.343 154.736H181.76C180.268 154.735 179.058 153.525 179.058 152.034V146.456C179.059 144.965 180.268 143.756 181.76 143.755Z" stroke="#EAEAEA" stroke-width="0.174286"/>
<path d="M183.494 147.703H184.029L185.011 150.101H185.047L186.027 147.703H186.562V150.745H186.143V148.523H186.113L185.207 150.741H184.849L183.943 148.52H183.913V150.745H183.494V147.703ZM187.694 150.796C187.55 150.796 187.419 150.769 187.302 150.716C187.185 150.661 187.093 150.583 187.024 150.48C186.956 150.376 186.922 150.249 186.922 150.101C186.922 149.971 186.947 149.865 186.996 149.783C187.047 149.7 187.114 149.634 187.198 149.585C187.283 149.537 187.378 149.501 187.482 149.477C187.586 149.452 187.692 149.433 187.8 149.421C187.936 149.404 188.047 149.39 188.132 149.38C188.218 149.371 188.28 149.354 188.318 149.331C188.358 149.308 188.378 149.269 188.378 149.214V149.202C188.378 149.07 188.34 148.968 188.266 148.895C188.192 148.821 188.081 148.785 187.935 148.785C187.781 148.785 187.661 148.818 187.572 148.886C187.485 148.952 187.425 149.026 187.391 149.107L186.99 149.008C187.042 148.869 187.115 148.758 187.212 148.673C187.309 148.589 187.418 148.528 187.541 148.491C187.665 148.453 187.793 148.434 187.926 148.434C188.014 148.434 188.109 148.445 188.21 148.465C188.311 148.486 188.406 148.524 188.496 148.58C188.586 148.635 188.66 148.716 188.718 148.822C188.775 148.927 188.804 149.064 188.804 149.233V150.745H188.386V150.435H188.369C188.342 150.49 188.3 150.545 188.242 150.601C188.186 150.657 188.112 150.703 188.021 150.741C187.931 150.778 187.822 150.796 187.694 150.796ZM187.782 150.448C187.909 150.448 188.017 150.424 188.106 150.374C188.195 150.325 188.263 150.26 188.309 150.18C188.356 150.099 188.379 150.014 188.379 149.923V149.623C188.363 149.639 188.332 149.654 188.285 149.667C188.24 149.68 188.187 149.691 188.128 149.701C188.07 149.711 188.012 149.72 187.956 149.728C187.9 149.735 187.854 149.741 187.818 149.746C187.731 149.758 187.652 149.777 187.578 149.802C187.506 149.827 187.448 149.864 187.405 149.914C187.361 149.962 187.339 150.027 187.339 150.108C187.339 150.22 187.381 150.305 187.464 150.362C187.547 150.42 187.653 150.448 187.782 150.448ZM189.232 150.745V148.464H189.643V148.823H189.667C189.709 148.703 189.782 148.607 189.888 148.537C189.994 148.465 190.115 148.43 190.249 148.43C190.276 148.43 190.308 148.431 190.346 148.433C190.385 148.434 190.415 148.436 190.437 148.439V148.85C190.421 148.846 190.39 148.841 190.344 148.834C190.3 148.827 190.255 148.823 190.209 148.823C190.103 148.823 190.009 148.846 189.926 148.89C189.842 148.935 189.777 148.996 189.728 149.074C189.68 149.153 189.657 149.242 189.657 149.343V150.745H189.232Z" fill="#111111"/>
<path d="M204.766 149.245C204.766 147.705 206.014 146.457 207.554 146.457C209.094 146.457 210.343 147.705 210.343 149.245C210.343 150.786 209.094 152.034 207.554 152.034C206.014 152.034 204.766 150.786 204.766 149.245Z" fill="#5BA183"/>
<g clip-path="url(#clip0_10093_703)">
<path d="M208.832 148.287L207.075 150.044L206.276 149.246" stroke="#FAFAFA" stroke-width="0.348571" stroke-linecap="round" stroke-linejoin="round"/>
</g>
<path d="M215.92 146.457C215.92 144.917 217.168 143.668 218.709 143.668H247.291C248.832 143.668 250.08 144.917 250.08 146.457V152.034C250.08 153.574 248.832 154.823 247.291 154.823H218.709C217.168 154.823 215.92 153.574 215.92 152.034V146.457Z" fill="#F2F0EF"/>
<path d="M220.675 150.745H220.208L221.308 147.703H221.807L222.906 150.745H222.439L221.569 148.241H221.545L220.675 150.745ZM220.768 149.556H222.344V149.929H220.768V149.556ZM223.14 151.601V148.464H223.554V148.832H223.592C223.618 148.787 223.655 148.733 223.703 148.67C223.751 148.608 223.819 148.553 223.905 148.506C223.991 148.458 224.106 148.434 224.25 148.434C224.435 148.434 224.6 148.481 224.744 148.575C224.889 148.668 225.003 148.803 225.086 148.979C225.169 149.155 225.211 149.365 225.211 149.609C225.211 149.855 225.17 150.066 225.087 150.242C225.005 150.418 224.892 150.554 224.747 150.649C224.604 150.743 224.439 150.79 224.253 150.79C224.113 150.79 223.999 150.767 223.911 150.72C223.824 150.674 223.755 150.619 223.706 150.557C223.656 150.493 223.618 150.438 223.592 150.39H223.565V151.601H223.14ZM223.557 149.605C223.557 149.767 223.581 149.91 223.627 150.034C223.675 150.157 223.744 150.253 223.834 150.322C223.924 150.39 224.034 150.425 224.165 150.425C224.3 150.425 224.412 150.388 224.504 150.316C224.596 150.244 224.665 150.146 224.71 150.022C224.757 149.898 224.78 149.759 224.78 149.605C224.78 149.452 224.757 149.315 224.712 149.193C224.666 149.071 224.598 148.975 224.507 148.905C224.415 148.835 224.302 148.8 224.165 148.8C224.033 148.8 223.922 148.833 223.832 148.901C223.742 148.968 223.674 149.062 223.627 149.183C223.581 149.303 223.557 149.443 223.557 149.605ZM225.539 150.745V148.464H225.951V148.823H225.974C226.016 148.703 226.09 148.607 226.196 148.537C226.302 148.465 226.422 148.43 226.557 148.43C226.583 148.43 226.616 148.431 226.653 148.433C226.692 148.434 226.722 148.436 226.744 148.439V148.85C226.728 148.846 226.697 148.841 226.652 148.834C226.607 148.827 226.562 148.823 226.517 148.823C226.411 148.823 226.316 148.846 226.233 148.89C226.15 148.935 226.084 148.996 226.035 149.074C225.988 149.153 225.964 149.242 225.964 149.343V150.745H225.539Z" fill="#111111"/>
<path d="M241.714 149.245C241.714 147.705 242.963 146.457 244.503 146.457C246.043 146.457 247.291 147.705 247.291 149.245C247.291 150.786 246.043 152.034 244.503 152.034C242.963 152.034 241.714 150.786 241.714 149.245Z" fill="#0968F8"/>
<g clip-path="url(#clip1_10093_703)">
<path d="M244.503 150.843C245.385 150.843 246.1 150.128 246.1 149.245C246.1 148.363 245.385 147.648 244.503 147.648C243.621 147.648 242.905 148.363 242.905 149.245C242.905 150.128 243.621 150.843 244.503 150.843Z" stroke="#FAFAFA" stroke-width="0.348571" stroke-linecap="round" stroke-linejoin="round"/>
<path d="M244.503 148.287V149.246L245.142 149.565" stroke="#FAFAFA" stroke-width="0.348571" stroke-linecap="round" stroke-linejoin="round"/>
</g>
<path d="M252.869 146.457C252.869 144.917 254.117 143.668 255.657 143.668H284.24C285.78 143.668 287.029 144.917 287.029 146.457V152.034C287.029 153.574 285.78 154.823 284.24 154.823H255.657C254.117 154.823 252.869 153.574 252.869 152.034V146.457Z" fill="#F2F0EF"/>
<path d="M257.392 147.703H257.926L258.908 150.101H258.944L259.924 147.703H260.459V150.745H260.04V148.523H260.01L259.104 150.741H258.746L257.84 148.52H257.81V150.745H257.392V147.703ZM261.591 150.796C261.447 150.796 261.316 150.769 261.199 150.716C261.082 150.661 260.99 150.583 260.922 150.48C260.853 150.376 260.819 150.249 260.819 150.101C260.819 149.971 260.844 149.865 260.893 149.783C260.944 149.7 261.011 149.634 261.095 149.585C261.18 149.537 261.275 149.501 261.379 149.477C261.483 149.452 261.589 149.433 261.697 149.421C261.834 149.404 261.944 149.39 262.03 149.38C262.115 149.371 262.177 149.354 262.215 149.331C262.255 149.308 262.275 149.269 262.275 149.214V149.202C262.275 149.07 262.238 148.968 262.163 148.895C262.089 148.821 261.979 148.785 261.832 148.785C261.679 148.785 261.558 148.818 261.47 148.886C261.382 148.952 261.322 149.026 261.288 149.107L260.887 149.008C260.939 148.869 261.013 148.758 261.109 148.673C261.206 148.589 261.316 148.528 261.438 148.491C261.562 148.453 261.69 148.434 261.823 148.434C261.911 148.434 262.006 148.445 262.107 148.465C262.208 148.486 262.303 148.524 262.394 148.58C262.484 148.635 262.557 148.716 262.615 148.822C262.672 148.927 262.701 149.064 262.701 149.233V150.745H262.284V150.435H262.266C262.239 150.49 262.197 150.545 262.14 150.601C262.083 150.657 262.009 150.703 261.918 150.741C261.828 150.778 261.719 150.796 261.591 150.796ZM261.679 150.448C261.806 150.448 261.914 150.424 262.003 150.374C262.092 150.325 262.16 150.26 262.206 150.18C262.253 150.099 262.276 150.014 262.276 149.923V149.623C262.26 149.639 262.229 149.654 262.183 149.667C262.137 149.68 262.085 149.691 262.025 149.701C261.967 149.711 261.909 149.72 261.853 149.728C261.797 149.735 261.751 149.741 261.715 149.746C261.629 149.758 261.549 149.777 261.476 149.802C261.403 149.827 261.345 149.864 261.302 149.914C261.258 149.962 261.236 150.027 261.236 150.108C261.236 150.22 261.278 150.305 261.361 150.362C261.444 150.42 261.55 150.448 261.679 150.448ZM263.316 151.601C263.252 151.601 263.193 151.596 263.139 151.585C263.087 151.575 263.048 151.564 263.024 151.554L263.126 151.2C263.208 151.223 263.281 151.232 263.344 151.228C263.409 151.224 263.466 151.199 263.515 151.152C263.565 151.107 263.609 151.032 263.647 150.928L263.705 150.772L262.868 148.464H263.324L263.912 150.243H263.936L264.525 148.464H264.983L264.035 151.056C263.993 151.175 263.938 151.275 263.87 151.356C263.804 151.437 263.725 151.498 263.633 151.539C263.541 151.58 263.436 151.601 263.316 151.601Z" fill="#111111"/>
<rect x="272.526" y="145.897" width="11.7143" height="6.69714" rx="1.39429" fill="#DFA000"/>
<g clip-path="url(#clip2_10093_703)">
<path d="M275.837 150.843C276.719 150.843 277.435 150.128 277.435 149.245C277.435 148.363 276.719 147.648 275.837 147.648C274.955 147.648 274.24 148.363 274.24 149.245C274.24 150.128 274.955 150.843 275.837 150.843Z" stroke="#FAFAFA" stroke-width="0.348571" stroke-linecap="round" stroke-linejoin="round"/>
<path d="M275.837 148.606V149.245" stroke="#FAFAFA" stroke-width="0.348571" stroke-linecap="round" stroke-linejoin="round"/>
<path d="M275.837 149.885H275.839" stroke="#FAFAFA" stroke-width="0.348571" stroke-linecap="round" stroke-linejoin="round"/>
</g>
<path d="M280.432 151.287C280.251 151.287 280.088 151.252 279.943 151.181C279.799 151.11 279.683 151.013 279.597 150.889C279.511 150.765 279.464 150.624 279.456 150.466H279.866C279.879 150.599 279.939 150.709 280.046 150.795C280.154 150.881 280.282 150.925 280.432 150.925C280.553 150.925 280.66 150.897 280.753 150.841C280.847 150.785 280.921 150.708 280.974 150.61C281.028 150.512 281.054 150.4 281.054 150.275C281.054 150.148 281.027 150.034 280.971 149.935C280.916 149.835 280.839 149.757 280.742 149.699C280.646 149.642 280.536 149.612 280.411 149.611C280.319 149.61 280.225 149.625 280.13 149.656C280.035 149.687 279.958 149.727 279.897 149.776L279.508 149.721L279.683 148.203H281.32V148.57H280.037L279.936 149.441H279.954C280.014 149.385 280.093 149.34 280.19 149.304C280.287 149.268 280.389 149.25 280.497 149.25C280.683 149.25 280.849 149.295 280.995 149.383C281.14 149.471 281.255 149.591 281.338 149.744C281.421 149.896 281.463 150.071 281.463 150.268C281.463 150.464 281.419 150.639 281.331 150.792C281.242 150.946 281.121 151.067 280.965 151.155C280.81 151.243 280.632 151.287 280.432 151.287Z" fill="#FAFAFA"/>
<g clip-path="url(#clip3_10093_703)">
<path d="M180.486 163.373V165.908H180.133V163.732H180.118L179.507 164.135V163.789L180.139 163.373H180.486ZM181.991 165.943C181.84 165.943 181.704 165.914 181.583 165.855C181.463 165.796 181.367 165.714 181.295 165.611C181.223 165.508 181.184 165.391 181.177 165.258H181.519C181.53 165.37 181.58 165.461 181.669 165.533C181.759 165.605 181.866 165.641 181.991 165.641C182.091 165.641 182.18 165.618 182.258 165.572C182.336 165.525 182.398 165.46 182.442 165.379C182.487 165.297 182.509 165.204 182.509 165.1C182.509 164.994 182.486 164.899 182.44 164.817C182.394 164.733 182.33 164.668 182.249 164.62C182.169 164.572 182.077 164.548 181.973 164.547C181.896 164.546 181.818 164.558 181.739 164.584C181.66 164.609 181.595 164.643 181.545 164.684L181.221 164.638L181.367 163.373H182.731V163.679H181.661L181.577 164.404H181.592C181.642 164.358 181.708 164.32 181.789 164.29C181.87 164.261 181.955 164.246 182.045 164.246C182.2 164.246 182.338 164.283 182.46 164.356C182.581 164.43 182.676 164.53 182.746 164.657C182.815 164.784 182.85 164.93 182.85 165.094C182.85 165.257 182.813 165.403 182.739 165.531C182.666 165.659 182.564 165.759 182.435 165.833C182.305 165.906 182.157 165.943 181.991 165.943ZM183.618 165.245L183.614 164.829H183.677L184.464 164.007H184.874L184.001 164.916H183.957L183.618 165.245ZM183.304 165.908V163.373H183.644V165.908H183.304ZM184.509 165.908L183.802 164.99L184.038 164.753L184.928 165.908H184.509Z" fill="#818887"/>
<path d="M180.407 173.586V176.121H180.055V173.945H180.04L179.428 174.347V174.002L180.061 173.586H180.407ZM181.954 176.159C181.762 176.159 181.598 176.108 181.463 176.006C181.328 175.903 181.224 175.755 181.152 175.56C181.08 175.365 181.045 175.13 181.045 174.853C181.045 174.579 181.08 174.345 181.152 174.151C181.225 173.957 181.329 173.808 181.464 173.706C181.6 173.603 181.764 173.551 181.954 173.551C182.144 173.551 182.307 173.603 182.443 173.706C182.579 173.808 182.683 173.957 182.755 174.151C182.828 174.345 182.864 174.579 182.864 174.853C182.864 175.13 182.828 175.365 182.756 175.56C182.685 175.755 182.581 175.903 182.445 176.006C182.309 176.108 182.146 176.159 181.954 176.159ZM181.954 175.853C182.131 175.853 182.269 175.768 182.368 175.596C182.468 175.423 182.517 175.176 182.516 174.853C182.516 174.639 182.494 174.458 182.448 174.31C182.404 174.16 182.339 174.047 182.255 173.969C182.172 173.892 182.072 173.853 181.954 173.853C181.779 173.853 181.641 173.94 181.541 174.113C181.441 174.285 181.391 174.532 181.391 174.853C181.391 175.068 181.413 175.25 181.458 175.399C181.503 175.548 181.568 175.661 181.651 175.738C181.735 175.815 181.836 175.853 181.954 175.853ZM183.618 175.457L183.614 175.041H183.677L184.464 174.219H184.874L184.001 175.128H183.957L183.618 175.457ZM183.304 176.121V173.586H183.644V176.121H183.304ZM184.509 176.121L183.802 175.202L184.038 174.966L184.928 176.121H184.509Z" fill="#818887"/>
<path d="M180.991 186.368C180.84 186.368 180.704 186.338 180.583 186.28C180.463 186.22 180.367 186.139 180.295 186.036C180.223 185.933 180.184 185.815 180.177 185.683H180.519C180.53 185.795 180.58 185.886 180.669 185.958C180.759 186.03 180.866 186.066 180.991 186.066C181.091 186.066 181.18 186.043 181.258 185.996C181.336 185.949 181.398 185.885 181.442 185.803C181.487 185.722 181.509 185.629 181.509 185.525C181.509 185.418 181.486 185.324 181.44 185.241C181.394 185.158 181.33 185.092 181.249 185.045C181.169 184.997 181.077 184.972 180.973 184.972C180.896 184.971 180.818 184.983 180.739 185.009C180.66 185.034 180.595 185.068 180.545 185.109L180.221 185.063L180.367 183.798H181.731V184.104H180.661L180.577 184.829H180.592C180.642 184.783 180.708 184.745 180.789 184.715C180.87 184.686 180.955 184.671 181.045 184.671C181.2 184.671 181.338 184.707 181.46 184.781C181.581 184.854 181.676 184.955 181.746 185.082C181.815 185.209 181.85 185.354 181.85 185.519C181.85 185.682 181.813 185.828 181.739 185.956C181.666 186.084 181.564 186.184 181.435 186.258C181.305 186.331 181.157 186.368 180.991 186.368ZM182.618 185.67L182.614 185.254H182.677L183.464 184.432H183.874L183.001 185.34H182.957L182.618 185.67ZM182.304 186.333V183.798H182.644V186.333H182.304ZM183.509 186.333L182.802 185.415L183.038 185.178L183.928 186.333H183.509Z" fill="#818887"/>
<path d="M180.86 196.584C180.668 196.584 180.504 196.533 180.369 196.43C180.233 196.328 180.13 196.179 180.058 195.985C179.986 195.79 179.95 195.554 179.95 195.278C179.95 195.004 179.986 194.77 180.058 194.576C180.131 194.381 180.235 194.233 180.37 194.13C180.506 194.027 180.67 193.976 180.86 193.976C181.05 193.976 181.213 194.027 181.349 194.13C181.485 194.233 181.589 194.381 181.661 194.576C181.734 194.77 181.77 195.004 181.77 195.278C181.77 195.554 181.734 195.79 181.662 195.985C181.59 196.179 181.487 196.328 181.35 196.43C181.215 196.533 181.052 196.584 180.86 196.584ZM180.86 196.278C181.037 196.278 181.175 196.192 181.274 196.021C181.373 195.848 181.423 195.601 181.422 195.278C181.422 195.064 181.399 194.883 181.354 194.734C181.31 194.585 181.245 194.472 181.161 194.394C181.078 194.317 180.977 194.278 180.86 194.278C180.684 194.278 180.547 194.364 180.447 194.538C180.347 194.71 180.297 194.957 180.297 195.278C180.297 195.492 180.319 195.674 180.364 195.824C180.409 195.972 180.474 196.085 180.557 196.163C180.641 196.24 180.742 196.278 180.86 196.278Z" fill="#818887"/>
<path d="M180.692 205.339V205.641H179.575V205.339H180.692ZM181.991 206.792C181.84 206.792 181.704 206.763 181.583 206.705C181.463 206.645 181.367 206.564 181.295 206.461C181.223 206.358 181.184 206.24 181.177 206.108H181.519C181.53 206.219 181.58 206.311 181.669 206.383C181.759 206.455 181.866 206.49 181.991 206.49C182.091 206.49 182.18 206.467 182.258 206.421C182.336 206.374 182.398 206.31 182.442 206.228C182.487 206.146 182.509 206.053 182.509 205.95C182.509 205.843 182.486 205.749 182.44 205.666C182.394 205.583 182.33 205.517 182.249 205.469C182.169 205.421 182.077 205.397 181.973 205.396C181.896 205.395 181.818 205.408 181.739 205.433C181.66 205.459 181.595 205.492 181.545 205.534L181.221 205.488L181.367 204.223H182.731V204.528H181.661L181.577 205.254H181.592C181.642 205.208 181.708 205.17 181.789 205.14C181.87 205.11 181.955 205.095 182.045 205.095C182.2 205.095 182.338 205.132 182.46 205.206C182.581 205.279 182.676 205.379 182.746 205.506C182.815 205.633 182.85 205.779 182.85 205.943C182.85 206.107 182.813 206.252 182.739 206.38C182.666 206.508 182.564 206.609 182.435 206.682C182.305 206.756 182.157 206.792 181.991 206.792ZM183.618 206.094L183.614 205.678H183.677L184.464 204.857H184.874L184.001 205.765H183.957L183.618 206.094ZM183.304 206.758V204.223H183.644V206.758H183.304ZM184.509 206.758L183.802 205.839L184.038 205.603L184.928 206.758H184.509Z" fill="#818887"/>
<path d="M180.994 215.552V215.854H179.877V215.552H180.994ZM182.407 214.435V216.97H182.055V214.794H182.04L181.428 215.196V214.851L182.061 214.435H182.407ZM183.954 217.009C183.762 217.009 183.598 216.957 183.463 216.855C183.328 216.753 183.224 216.604 183.152 216.409C183.08 216.215 183.045 215.979 183.045 215.703C183.045 215.429 183.08 215.195 183.152 215.001C183.225 214.806 183.329 214.658 183.464 214.555C183.6 214.452 183.764 214.4 183.954 214.4C184.144 214.4 184.307 214.452 184.443 214.555C184.579 214.658 184.683 214.806 184.755 215.001C184.828 215.195 184.864 215.429 184.864 215.703C184.864 215.979 184.828 216.215 184.756 216.409C184.685 216.604 184.581 216.753 184.445 216.855C184.309 216.957 184.146 217.009 183.954 217.009ZM183.954 216.703C184.131 216.703 184.269 216.617 184.368 216.445C184.468 216.273 184.517 216.025 184.516 215.703C184.516 215.489 184.494 215.308 184.448 215.159C184.404 215.01 184.339 214.896 184.255 214.819C184.172 214.741 184.072 214.703 183.954 214.703C183.779 214.703 183.641 214.789 183.541 214.962C183.441 215.135 183.391 215.382 183.391 215.703C183.391 215.917 183.413 216.099 183.458 216.249C183.503 216.397 183.568 216.51 183.651 216.588C183.735 216.664 183.836 216.703 183.954 216.703ZM185.618 216.307L185.614 215.891H185.677L186.464 215.069H186.874L186.001 215.977H185.957L185.618 216.307ZM185.304 216.97V214.435H185.644V216.97H185.304ZM186.509 216.97L185.802 216.052L186.038 215.815L186.928 216.97H186.509Z" fill="#818887"/>
<path d="M181.073 225.764V226.066H179.955V225.764H181.073ZM182.486 224.648V227.183H182.133V225.007H182.118L181.507 225.409V225.063L182.139 224.648H182.486ZM183.991 227.217C183.84 227.217 183.704 227.188 183.583 227.129C183.463 227.07 183.367 226.989 183.295 226.886C183.223 226.782 183.184 226.665 183.177 226.533H183.519C183.53 226.644 183.58 226.736 183.669 226.808C183.759 226.879 183.866 226.915 183.991 226.915C184.091 226.915 184.18 226.892 184.258 226.846C184.336 226.799 184.398 226.735 184.442 226.653C184.487 226.571 184.509 226.478 184.509 226.374C184.509 226.268 184.486 226.173 184.44 226.091C184.394 226.008 184.33 225.942 184.249 225.894C184.169 225.846 184.077 225.822 183.973 225.821C183.896 225.82 183.818 225.833 183.739 225.858C183.66 225.884 183.595 225.917 183.545 225.958L183.221 225.913L183.367 224.648H184.731V224.953H183.661L183.577 225.679H183.592C183.642 225.632 183.708 225.594 183.789 225.565C183.87 225.535 183.955 225.52 184.045 225.52C184.2 225.52 184.338 225.557 184.46 225.63C184.581 225.704 184.676 225.804 184.746 225.931C184.815 226.058 184.85 226.204 184.85 226.368C184.85 226.532 184.813 226.677 184.739 226.805C184.666 226.933 184.564 227.034 184.435 227.107C184.305 227.181 184.157 227.217 183.991 227.217ZM185.618 226.519L185.614 226.103H185.677L186.464 225.281H186.874L186.001 226.19H185.957L185.618 226.519ZM185.304 227.183V224.648H185.644V227.183H185.304ZM186.509 227.183L185.802 226.264L186.038 226.028L186.928 227.183H186.509Z" fill="#818887"/>
<g clip-path="url(#clip4_10093_703)">
<g clip-path="url(#clip5_10093_703)">
<line x1="156.471" y1="164.757" x2="307.751" y2="164.757" stroke="#FAFCFC" stroke-width="0.348571"/>
<line x1="156.471" y1="174.865" x2="307.751" y2="174.865" stroke="#FAFCFC" stroke-width="0.348571"/>
<line x1="156.471" y1="184.974" x2="307.751" y2="184.974" stroke="#FAFCFC" stroke-width="0.348571"/>
<line y1="-0.174286" x2="151.28" y2="-0.174286" transform="matrix(1 0 0 -1 156.471 195.257)" stroke="#FAFCFC" stroke-width="0.348571"/>
<line y1="-0.174286" x2="151.28" y2="-0.174286" transform="matrix(1 0 0 -1 156.471 205.365)" stroke="#FAFCFC" stroke-width="0.348571"/>
<line y1="-0.174286" x2="151.28" y2="-0.174286" transform="matrix(1 0 0 -1 156.471 215.474)" stroke="#FAFCFC" stroke-width="0.348571"/>
</g>
<g clip-path="url(#clip6_10093_703)">
<g opacity="0.5">
<path d="M199.317 215.823C199.317 216.208 199.004 216.52 198.619 216.52H196.528C196.143 216.52 195.831 216.208 195.831 215.823V195.605H199.317V215.823Z" fill="#5F6664"/>
<path d="M195.86 168.417C195.86 168.032 196.172 167.72 196.557 167.72H198.649C199.034 167.72 199.346 168.032 199.346 168.417V195.257H195.86V168.417Z" fill="#5BA183"/>
</g>
<circle cx="197.429" cy="184.103" r="0.871429" fill="#5F6664" stroke="#FAFCFC" stroke-width="0.348571"/>
<path d="M195.883 232.839H196.235V234.642C196.235 234.804 196.204 234.942 196.142 235.057C196.08 235.172 195.992 235.259 195.879 235.32C195.767 235.379 195.635 235.409 195.483 235.409C195.342 235.409 195.216 235.383 195.105 235.332C194.993 235.28 194.905 235.205 194.841 235.108C194.777 235.011 194.746 234.893 194.746 234.756H195.093C195.094 234.827 195.112 234.889 195.145 234.941C195.179 234.993 195.226 235.033 195.285 235.062C195.345 235.091 195.413 235.105 195.49 235.105C195.573 235.105 195.644 235.088 195.702 235.052C195.761 235.017 195.806 234.965 195.836 234.896C195.867 234.827 195.883 234.742 195.883 234.642V232.839ZM197.319 235.417C197.198 235.417 197.089 235.395 196.991 235.349C196.893 235.304 196.816 235.238 196.759 235.152C196.702 235.066 196.674 234.96 196.674 234.836C196.674 234.727 196.695 234.639 196.737 234.571C196.779 234.501 196.835 234.447 196.905 234.407C196.976 234.368 197.055 234.338 197.142 234.318C197.229 234.298 197.317 234.283 197.406 234.271C197.521 234.257 197.614 234.246 197.685 234.238C197.757 234.229 197.809 234.216 197.841 234.197C197.874 234.177 197.89 234.144 197.89 234.099V234.089C197.89 233.976 197.859 233.888 197.796 233.826C197.734 233.763 197.639 233.731 197.513 233.731C197.383 233.731 197.28 233.76 197.205 233.817C197.13 233.874 197.079 233.936 197.05 234.005L196.731 233.917C196.775 233.802 196.838 233.71 196.919 233.641C197 233.573 197.091 233.523 197.192 233.494C197.295 233.463 197.399 233.448 197.506 233.448C197.576 233.448 197.652 233.456 197.736 233.473C197.819 233.489 197.898 233.521 197.972 233.567C198.047 233.613 198.109 233.68 198.157 233.769C198.205 233.856 198.23 233.972 198.23 234.115V235.374H197.897V235.115H197.882C197.86 235.16 197.825 235.206 197.778 235.253C197.731 235.299 197.669 235.338 197.593 235.37C197.517 235.402 197.426 235.417 197.319 235.417ZM197.384 235.134C197.492 235.134 197.584 235.113 197.659 235.071C197.735 235.028 197.793 234.973 197.832 234.905C197.872 234.836 197.892 234.764 197.892 234.687V234.433C197.879 234.447 197.852 234.46 197.813 234.472C197.774 234.482 197.729 234.492 197.679 234.501C197.628 234.51 197.579 234.517 197.532 234.522C197.484 234.528 197.445 234.533 197.414 234.537C197.341 234.547 197.274 234.563 197.212 234.584C197.15 234.606 197.101 234.637 197.064 234.678C197.026 234.72 197.008 234.775 197.008 234.844C197.008 234.94 197.043 235.012 197.114 235.061C197.185 235.11 197.275 235.134 197.384 235.134ZM199.062 234.239V235.374H198.723V233.473H199.049V233.777H199.073C199.117 233.678 199.185 233.599 199.278 233.538C199.37 233.478 199.488 233.448 199.632 233.448C199.761 233.448 199.874 233.475 199.971 233.528C200.067 233.582 200.143 233.662 200.196 233.769C200.251 233.874 200.278 234.007 200.278 234.166V235.374H199.939V234.201C199.939 234.058 199.902 233.946 199.827 233.866C199.753 233.785 199.652 233.745 199.523 233.745C199.434 233.745 199.354 233.764 199.285 233.803C199.216 233.842 199.161 233.898 199.122 233.972C199.082 234.045 199.062 234.134 199.062 234.239Z" fill="#818887"/>
</g>
<g clip-path="url(#clip7_10093_703)">
<g opacity="0.5">
<path d="M219.104 221.4C219.104 221.785 218.792 222.097 218.407 222.097H216.315C215.93 222.097 215.618 221.785 215.618 221.4V195.605H219.104V221.4Z" fill="#5F6664"/>
<path d="M215.56 172.599C215.56 172.214 215.872 171.902 216.257 171.902H218.349C218.734 171.902 219.046 172.214 219.046 172.599V195.257H215.56V172.599Z" fill="#5BA183"/>
</g>
<circle cx="217.361" cy="196.302" r="0.871429" fill="#5F6664" stroke="#FAFCFC" stroke-width="0.348571"/>
<path d="M214.966 235.374V232.839H216.519V233.145H215.319V233.952H216.405V234.257H215.319V235.374H214.966ZM217.629 235.414C217.443 235.414 217.283 235.373 217.149 235.292C217.015 235.211 216.912 235.097 216.839 234.951C216.768 234.804 216.732 234.632 216.732 234.437C216.732 234.242 216.768 234.07 216.839 233.922C216.912 233.773 217.014 233.656 217.144 233.573C217.274 233.49 217.427 233.448 217.601 233.448C217.705 233.448 217.807 233.465 217.906 233.5C218.005 233.534 218.095 233.588 218.174 233.663C218.254 233.738 218.317 233.837 218.363 233.958C218.41 234.079 218.434 234.227 218.434 234.401V234.53H216.94V234.262H218.097C218.097 234.161 218.076 234.071 218.035 233.992C217.995 233.913 217.937 233.851 217.863 233.806C217.79 233.759 217.703 233.736 217.603 233.736C217.494 233.736 217.4 233.763 217.32 233.817C217.24 233.87 217.178 233.939 217.134 234.025C217.091 234.11 217.07 234.203 217.07 234.301V234.498C217.07 234.631 217.093 234.745 217.14 234.838C217.187 234.931 217.253 235.002 217.337 235.051C217.421 235.1 217.519 235.124 217.63 235.124C217.704 235.124 217.77 235.114 217.83 235.093C217.889 235.072 217.94 235.041 217.983 234.999C218.027 234.957 218.061 234.905 218.085 234.843L218.408 234.912C218.379 235.012 218.328 235.1 218.257 235.176C218.186 235.251 218.097 235.31 217.991 235.352C217.884 235.393 217.764 235.414 217.629 235.414ZM218.877 235.374V232.839H219.216V233.778H219.239C219.261 233.741 219.291 233.697 219.331 233.646C219.371 233.594 219.426 233.548 219.498 233.508C219.57 233.468 219.666 233.448 219.787 233.448C219.943 233.448 220.081 233.487 220.202 233.565C220.324 233.644 220.419 233.756 220.487 233.903C220.556 234.049 220.59 234.224 220.59 234.428C220.59 234.631 220.556 234.806 220.487 234.953C220.419 235.1 220.325 235.213 220.205 235.293C220.084 235.373 219.946 235.412 219.79 235.412C219.672 235.412 219.577 235.392 219.503 235.353C219.43 235.313 219.374 235.267 219.332 235.215C219.292 235.163 219.261 235.117 219.239 235.079H219.206V235.374H218.877ZM219.21 234.423C219.21 234.561 219.23 234.682 219.269 234.786C219.31 234.89 219.368 234.971 219.444 235.03C219.52 235.088 219.614 235.118 219.726 235.118C219.841 235.118 219.937 235.087 220.014 235.026C220.092 234.965 220.15 234.882 220.19 234.777C220.23 234.672 220.249 234.554 220.249 234.423C220.249 234.295 220.23 234.179 220.191 234.077C220.153 233.974 220.094 233.892 220.017 233.832C219.939 233.771 219.842 233.741 219.726 233.741C219.614 233.741 219.519 233.77 219.442 233.827C219.366 233.884 219.308 233.963 219.268 234.066C219.229 234.168 219.21 234.287 219.21 234.423Z" fill="#818887"/>
</g>
<g clip-path="url(#clip8_10093_703)">
<path d="M238.775 215.822C238.775 216.207 238.463 216.52 238.078 216.52H235.986C235.601 216.52 235.289 216.207 235.289 215.822V195.605H238.775V215.822Z" fill="#5F6664"/>
<path d="M235.289 172.599C235.289 172.214 235.601 171.902 235.986 171.902H238.078C238.463 171.902 238.775 172.214 238.775 172.599V195.257H235.289V172.599Z" fill="#5BA183"/>
<circle cx="236.887" cy="191.074" r="0.871429" fill="#5F6664" stroke="#FAFCFC" stroke-width="0.348571"/>
<path d="M234.396 232.839H234.822L235.65 234.863H235.68L236.509 232.839H236.933V235.374H236.601V233.504H236.576L235.811 235.371H235.519L234.754 233.502H234.73V235.374H234.396V232.839ZM238.019 235.417C237.898 235.417 237.789 235.395 237.691 235.349C237.594 235.304 237.516 235.238 237.459 235.152C237.403 235.066 237.374 234.96 237.374 234.835C237.374 234.727 237.395 234.639 237.437 234.571C237.479 234.501 237.535 234.447 237.606 234.407C237.677 234.368 237.755 234.338 237.842 234.318C237.929 234.298 238.018 234.283 238.107 234.271C238.222 234.257 238.314 234.246 238.385 234.238C238.457 234.229 238.509 234.216 238.541 234.197C238.574 234.177 238.591 234.144 238.591 234.099V234.089C238.591 233.976 238.559 233.888 238.497 233.825C238.434 233.763 238.34 233.731 238.213 233.731C238.083 233.731 237.98 233.76 237.905 233.817C237.831 233.874 237.779 233.936 237.75 234.005L237.431 233.917C237.476 233.801 237.538 233.709 237.619 233.641C237.7 233.572 237.791 233.523 237.893 233.494C237.995 233.463 238.099 233.448 238.206 233.448C238.276 233.448 238.353 233.456 238.436 233.473C238.519 233.489 238.598 233.52 238.673 233.567C238.748 233.613 238.809 233.68 238.857 233.768C238.906 233.856 238.93 233.971 238.93 234.115V235.374H238.597V235.115H238.582C238.56 235.16 238.525 235.206 238.478 235.253C238.431 235.299 238.37 235.338 238.294 235.37C238.218 235.402 238.126 235.417 238.019 235.417ZM238.085 235.134C238.193 235.134 238.284 235.113 238.359 235.071C238.435 235.028 238.493 234.972 238.533 234.905C238.572 234.836 238.592 234.764 238.592 234.687V234.433C238.579 234.447 238.552 234.46 238.513 234.472C238.474 234.482 238.43 234.492 238.379 234.501C238.329 234.509 238.28 234.517 238.232 234.522C238.185 234.528 238.146 234.533 238.114 234.537C238.042 234.547 237.974 234.563 237.913 234.584C237.851 234.606 237.801 234.637 237.764 234.678C237.727 234.72 237.708 234.775 237.708 234.844C237.708 234.94 237.744 235.012 237.815 235.061C237.886 235.109 237.976 235.134 238.085 235.134ZM239.423 235.374V233.473H239.752V233.768H239.771C239.806 233.669 239.867 233.591 239.956 233.532C240.045 233.473 240.146 233.443 240.259 233.443C240.281 233.443 240.308 233.444 240.339 233.445C240.372 233.447 240.397 233.449 240.415 233.452V233.782C240.402 233.779 240.377 233.775 240.339 233.77C240.303 233.764 240.266 233.761 240.227 233.761C240.138 233.761 240.058 233.78 239.988 233.817C239.919 233.854 239.864 233.905 239.823 233.971C239.783 234.037 239.763 234.113 239.763 234.197V235.374H239.423Z" fill="#818887"/>
</g>
<g clip-path="url(#clip9_10093_703)">
<g opacity="0.5">
<g clip-path="url(#clip10_10093_703)">
<path d="M255.021 177.928C255.021 177.543 255.333 177.231 255.718 177.231H257.81C258.195 177.231 258.507 177.543 258.507 177.928V186.294H255.021V177.928Z" fill="#F0F5F2"/>
<line x1="249.669" y1="182.685" x2="267.447" y2="164.908" stroke="#5BA183" stroke-width="0.348571"/>
<line x1="249.669" y1="184.079" x2="267.447" y2="166.302" stroke="#5BA183" stroke-width="0.348571"/>
<line x1="249.669" y1="185.474" x2="267.447" y2="167.697" stroke="#5BA183" stroke-width="0.348571"/>
<line x1="249.669" y1="186.868" x2="267.447" y2="169.091" stroke="#5BA183" stroke-width="0.348571"/>
<line x1="249.669" y1="188.262" x2="267.447" y2="170.485" stroke="#5BA183" stroke-width="0.348571"/>
<line x1="249.669" y1="189.657" x2="267.447" y2="171.879" stroke="#5BA183" stroke-width="0.348571"/>
<line x1="249.669" y1="191.051" x2="267.447" y2="173.274" stroke="#5BA183" stroke-width="0.348571"/>
<line x1="249.669" y1="192.445" x2="267.447" y2="174.668" stroke="#5BA183" stroke-width="0.348571"/>
<line x1="249.669" y1="193.839" x2="267.447" y2="176.062" stroke="#5BA183" stroke-width="0.348571"/>
<line x1="249.669" y1="195.234" x2="267.447" y2="177.456" stroke="#5BA183" stroke-width="0.348571"/>
<line x1="249.669" y1="196.628" x2="267.447" y2="178.851" stroke="#5BA183" stroke-width="0.348571"/>
<line x1="249.669" y1="198.022" x2="267.447" y2="180.245" stroke="#5BA183" stroke-width="0.348571"/>
<line x1="249.669" y1="199.416" x2="267.447" y2="181.639" stroke="#5BA183" stroke-width="0.348571"/>
</g>
<rect width="3.48571" height="9.76" transform="translate(255.021 185.423)" fill="#5BA183"/>
<rect width="3.48571" height="21.6114" transform="translate(255.021 195.531)" fill="#5F6664"/>
<g clip-path="url(#clip11_10093_703)">
<path d="M258.507 225.508C258.507 225.893 258.195 226.205 257.81 226.205H255.718C255.333 226.205 255.021 225.893 255.021 225.508V217.143H258.507V225.508Z" fill="#F0F5F2"/>
<line x1="263.859" y1="220.751" x2="246.082" y2="238.529" stroke="#525252" stroke-width="0.348571"/>
<line x1="263.859" y1="219.357" x2="246.082" y2="237.134" stroke="#525252" stroke-width="0.348571"/>
<line x1="263.859" y1="217.963" x2="246.082" y2="235.74" stroke="#525252" stroke-width="0.348571"/>
<line x1="263.859" y1="216.569" x2="246.082" y2="234.346" stroke="#525252" stroke-width="0.348571"/>
<line x1="263.859" y1="215.174" x2="246.082" y2="232.952" stroke="#525252" stroke-width="0.348571"/>
<line x1="263.859" y1="213.78" x2="246.082" y2="231.557" stroke="#525252" stroke-width="0.348571"/>
<line x1="263.859" y1="212.386" x2="246.082" y2="230.163" stroke="#525252" stroke-width="0.348571"/>
<line x1="263.859" y1="210.992" x2="246.082" y2="228.769" stroke="#525252" stroke-width="0.348571"/>
<line x1="263.859" y1="209.597" x2="246.082" y2="227.374" stroke="#525252" stroke-width="0.348571"/>
<line x1="263.859" y1="208.203" x2="246.082" y2="225.98" stroke="#525252" stroke-width="0.348571"/>
<line x1="263.859" y1="206.809" x2="246.082" y2="224.586" stroke="#525252" stroke-width="0.348571"/>
<line x1="263.859" y1="205.414" x2="246.082" y2="223.192" stroke="#525252" stroke-width="0.348571"/>
<line x1="263.859" y1="204.02" x2="246.082" y2="221.797" stroke="#525252" stroke-width="0.348571"/>
</g>
</g>
<path d="M254.344 235.374H253.971L254.891 232.839H255.282L256.202 235.374H255.829L255.097 233.276H255.077L254.344 235.374ZM254.432 234.382H255.74V234.684H254.432V234.382ZM256.529 236.087V233.473H256.858V233.778H256.89C256.913 233.741 256.944 233.697 256.983 233.646C257.023 233.594 257.079 233.548 257.15 233.508C257.222 233.468 257.318 233.448 257.439 233.448C257.595 233.448 257.733 233.487 257.853 233.565C257.975 233.644 258.07 233.756 258.138 233.903C258.207 234.049 258.242 234.224 258.242 234.428C258.242 234.631 258.208 234.806 258.139 234.953C258.071 235.1 257.976 235.213 257.856 235.293C257.736 235.373 257.598 235.412 257.442 235.412C257.324 235.412 257.229 235.392 257.155 235.353C257.083 235.313 257.026 235.267 256.984 235.215C256.944 235.163 256.913 235.117 256.89 235.079H256.868V236.087H256.529ZM256.862 234.423C256.862 234.561 256.882 234.682 256.921 234.786C256.962 234.89 257.02 234.971 257.096 235.03C257.173 235.088 257.266 235.118 257.377 235.118C257.492 235.118 257.589 235.087 257.666 235.026C257.744 234.965 257.802 234.882 257.841 234.777C257.881 234.672 257.9 234.554 257.9 234.423C257.9 234.295 257.881 234.179 257.842 234.077C257.803 233.974 257.745 233.892 257.668 233.832C257.59 233.771 257.493 233.741 257.377 233.741C257.265 233.741 257.17 233.77 257.093 233.827C257.017 233.884 256.96 233.963 256.92 234.066C256.881 234.168 256.862 234.287 256.862 234.423ZM258.653 235.374V233.473H258.981V233.768H259C259.035 233.669 259.097 233.591 259.185 233.532C259.274 233.473 259.375 233.443 259.488 233.443C259.51 233.443 259.537 233.444 259.569 233.445C259.601 233.447 259.626 233.449 259.644 233.452V233.782C259.631 233.779 259.606 233.775 259.569 233.77C259.532 233.764 259.495 233.761 259.456 233.761C259.367 233.761 259.287 233.78 259.217 233.817C259.148 233.854 259.093 233.905 259.052 233.971C259.012 234.037 258.992 234.113 258.992 234.197V235.374H258.653Z" fill="#5F6664"/>
<circle cx="256.685" cy="201.531" r="0.871429" fill="#5F6664" stroke="#FAFCFC" stroke-width="0.348571"/>
</g>
<g clip-path="url(#clip12_10093_703)">
<g opacity="0.5">
<g clip-path="url(#clip13_10093_703)">
<path d="M274.75 181.937C274.75 181.552 275.063 181.24 275.448 181.24H277.539C277.924 181.24 278.236 181.552 278.236 181.937V190.303H274.75V181.937Z" fill="#F0F5F2"/>
<line x1="269.399" y1="186.694" x2="287.176" y2="168.916" stroke="#5BA183" stroke-width="0.348571"/>
<line x1="269.399" y1="188.088" x2="287.176" y2="170.311" stroke="#5BA183" stroke-width="0.348571"/>
<line x1="269.399" y1="189.482" x2="287.176" y2="171.705" stroke="#5BA183" stroke-width="0.348571"/>
<line x1="269.399" y1="190.876" x2="287.176" y2="173.099" stroke="#5BA183" stroke-width="0.348571"/>
<line x1="269.399" y1="192.271" x2="287.176" y2="174.493" stroke="#5BA183" stroke-width="0.348571"/>
<line x1="269.399" y1="193.665" x2="287.176" y2="175.888" stroke="#5BA183" stroke-width="0.348571"/>
<line x1="269.399" y1="195.059" x2="287.176" y2="177.282" stroke="#5BA183" stroke-width="0.348571"/>
<line x1="269.399" y1="196.453" x2="287.176" y2="178.676" stroke="#5BA183" stroke-width="0.348571"/>
<line x1="269.399" y1="197.848" x2="287.176" y2="180.071" stroke="#5BA183" stroke-width="0.348571"/>
<line x1="269.399" y1="199.242" x2="287.176" y2="181.465" stroke="#5BA183" stroke-width="0.348571"/>
<line x1="269.399" y1="200.636" x2="287.176" y2="182.859" stroke="#5BA183" stroke-width="0.348571"/>
<line x1="269.399" y1="202.031" x2="287.176" y2="184.254" stroke="#5BA183" stroke-width="0.348571"/>
<line x1="269.399" y1="203.425" x2="287.176" y2="185.648" stroke="#5BA183" stroke-width="0.348571"/>
</g>
<rect width="3.48571" height="9.76" transform="translate(274.75 185.423)" fill="#5BA183"/>
<rect width="3.48571" height="13.9429" transform="translate(274.811 195.531)" fill="#5F6664"/>
<g clip-path="url(#clip14_10093_703)">
<path d="M278.236 217.84C278.236 218.225 277.924 218.537 277.539 218.537H275.448C275.063 218.537 274.75 218.225 274.75 217.84V209.474H278.236V217.84Z" fill="#F0F5F2"/>
<line x1="283.588" y1="213.083" x2="265.811" y2="230.86" stroke="#525252" stroke-width="0.348571"/>
<line x1="283.588" y1="211.689" x2="265.811" y2="229.466" stroke="#525252" stroke-width="0.348571"/>
<line x1="283.588" y1="210.295" x2="265.811" y2="228.072" stroke="#525252" stroke-width="0.348571"/>
<line x1="283.588" y1="208.9" x2="265.811" y2="226.677" stroke="#525252" stroke-width="0.348571"/>
<line x1="283.588" y1="207.506" x2="265.811" y2="225.283" stroke="#525252" stroke-width="0.348571"/>
<line x1="283.588" y1="206.112" x2="265.811" y2="223.889" stroke="#525252" stroke-width="0.348571"/>
<line x1="283.588" y1="204.717" x2="265.811" y2="222.494" stroke="#525252" stroke-width="0.348571"/>
<line x1="283.588" y1="203.323" x2="265.811" y2="221.1" stroke="#525252" stroke-width="0.348571"/>
<line x1="283.588" y1="201.929" x2="265.811" y2="219.706" stroke="#525252" stroke-width="0.348571"/>
<line x1="283.588" y1="200.534" x2="265.811" y2="218.312" stroke="#525252" stroke-width="0.348571"/>
<line x1="283.588" y1="199.14" x2="265.811" y2="216.917" stroke="#525252" stroke-width="0.348571"/>
<line x1="283.588" y1="197.746" x2="265.811" y2="215.523" stroke="#525252" stroke-width="0.348571"/>
<line x1="283.588" y1="196.352" x2="265.811" y2="214.129" stroke="#525252" stroke-width="0.348571"/>
</g>
</g>
<circle cx="276.493" cy="201.457" r="0.871429" fill="#5F6664" stroke="#FAFCFC" stroke-width="0.348571"/>
<path d="M273.286 232.839H273.712L274.54 234.863H274.569L275.399 232.839H275.823V235.374H275.49V233.504H275.466L274.701 235.371H274.408L273.643 233.502H273.62V235.374H273.286V232.839ZM276.909 235.417C276.788 235.417 276.679 235.395 276.581 235.349C276.483 235.304 276.406 235.238 276.349 235.152C276.292 235.066 276.264 234.96 276.264 234.835C276.264 234.727 276.285 234.639 276.327 234.571C276.369 234.501 276.425 234.447 276.495 234.407C276.566 234.368 276.645 234.338 276.732 234.318C276.819 234.298 276.908 234.283 276.997 234.271C277.111 234.257 277.204 234.246 277.275 234.238C277.347 234.229 277.399 234.216 277.431 234.197C277.464 234.177 277.481 234.144 277.481 234.099V234.089C277.481 233.976 277.449 233.888 277.387 233.825C277.324 233.763 277.229 233.731 277.103 233.731C276.973 233.731 276.87 233.76 276.795 233.817C276.721 233.874 276.669 233.936 276.64 234.005L276.321 233.917C276.365 233.801 276.428 233.709 276.509 233.641C276.59 233.572 276.681 233.523 276.783 233.494C276.885 233.463 276.989 233.448 277.096 233.448C277.166 233.448 277.243 233.456 277.326 233.473C277.409 233.489 277.488 233.52 277.562 233.567C277.637 233.613 277.699 233.68 277.747 233.768C277.795 233.856 277.82 233.971 277.82 234.115V235.374H277.487V235.115H277.472C277.45 235.16 277.415 235.206 277.368 235.253C277.321 235.299 277.259 235.338 277.184 235.37C277.108 235.402 277.016 235.417 276.909 235.417ZM276.974 235.134C277.082 235.134 277.174 235.113 277.249 235.071C277.325 235.028 277.383 234.972 277.422 234.905C277.462 234.836 277.482 234.764 277.482 234.687V234.433C277.469 234.447 277.442 234.46 277.403 234.472C277.364 234.482 277.319 234.492 277.269 234.501C277.219 234.509 277.17 234.517 277.122 234.522C277.075 234.528 277.035 234.533 277.004 234.537C276.931 234.547 276.864 234.563 276.802 234.584C276.74 234.606 276.691 234.637 276.654 234.678C276.617 234.72 276.598 234.775 276.598 234.844C276.598 234.94 276.634 235.012 276.705 235.061C276.776 235.109 276.865 235.134 276.974 235.134ZM278.461 236.087C278.408 236.087 278.36 236.083 278.317 236.075C278.274 236.066 278.243 236.058 278.224 236.049L278.307 235.764C278.376 235.782 278.438 235.789 278.492 235.785C278.545 235.782 278.593 235.76 278.634 235.72C278.675 235.681 278.712 235.617 278.745 235.527L278.795 235.392L278.095 233.473H278.461L278.959 234.964H278.979L279.478 233.473H279.843L279.05 235.636C279.013 235.735 278.968 235.818 278.912 235.885C278.858 235.953 278.793 236.003 278.718 236.036C278.643 236.07 278.557 236.087 278.461 236.087Z" fill="#5F6664"/>
</g>
</g>
<path d="M276.049 201.531H256.614C256.558 201.531 256.503 201.517 256.453 201.491L236.61 191.082C236.53 191.04 236.437 191.03 236.351 191.056L217.29 196.607C217.195 196.635 217.092 196.621 217.008 196.568L197.097 184.103" stroke="#525252" stroke-width="0.348571"/>
<path d="M186.254 248.028C186.254 247.258 186.879 246.634 187.649 246.634C188.419 246.634 189.043 247.258 189.043 248.028C189.043 248.798 188.419 249.422 187.649 249.422C186.879 249.422 186.254 248.798 186.254 248.028Z" fill="#5BA183"/>
<path d="M191.754 250.028V246.986H192.816C193.053 246.986 193.248 247.027 193.403 247.108C193.557 247.188 193.672 247.299 193.747 247.442C193.824 247.585 193.862 247.748 193.862 247.931C193.862 248.115 193.824 248.277 193.747 248.416C193.671 248.556 193.556 248.665 193.401 248.745C193.248 248.823 193.053 248.862 192.818 248.862H191.992V248.492H192.788C192.942 248.492 193.067 248.47 193.162 248.425C193.258 248.381 193.328 248.317 193.372 248.234C193.416 248.15 193.438 248.049 193.438 247.931C193.438 247.813 193.416 247.711 193.372 247.625C193.328 247.538 193.258 247.471 193.161 247.424C193.065 247.377 192.938 247.353 192.782 247.353H192.177V250.028H191.754ZM193.227 248.659L193.978 250.028H193.493L192.757 248.659H193.227ZM195.325 250.076C195.102 250.076 194.91 250.027 194.749 249.93C194.588 249.832 194.465 249.695 194.377 249.52C194.291 249.344 194.248 249.138 194.248 248.904C194.248 248.67 194.291 248.464 194.377 248.286C194.465 248.106 194.586 247.967 194.743 247.867C194.899 247.767 195.082 247.717 195.291 247.717C195.417 247.717 195.539 247.738 195.658 247.779C195.777 247.82 195.884 247.885 195.979 247.975C196.075 248.065 196.15 248.183 196.206 248.329C196.262 248.474 196.291 248.652 196.291 248.861V249.015H194.498V248.694H195.887C195.887 248.572 195.862 248.464 195.812 248.37C195.764 248.275 195.695 248.201 195.606 248.146C195.518 248.091 195.414 248.063 195.294 248.063C195.163 248.063 195.05 248.095 194.954 248.159C194.858 248.223 194.783 248.306 194.731 248.409C194.679 248.512 194.654 248.622 194.654 248.74V248.976C194.654 249.137 194.682 249.273 194.738 249.385C194.795 249.497 194.874 249.582 194.975 249.64C195.076 249.699 195.193 249.728 195.327 249.728C195.415 249.728 195.494 249.716 195.566 249.691C195.637 249.666 195.698 249.629 195.75 249.578C195.802 249.527 195.843 249.465 195.872 249.391L196.259 249.474C196.225 249.594 196.164 249.699 196.078 249.79C195.993 249.881 195.887 249.951 195.759 250.001C195.631 250.051 195.487 250.076 195.325 250.076ZM198.63 247.747L197.796 250.028H197.368L196.533 247.747H196.971L197.57 249.527H197.594L198.192 247.747H198.63ZM199.936 250.076C199.713 250.076 199.521 250.027 199.36 249.93C199.199 249.832 199.075 249.695 198.988 249.52C198.902 249.344 198.859 249.138 198.859 248.904C198.859 248.67 198.902 248.464 198.988 248.286C199.075 248.106 199.197 247.967 199.354 247.867C199.51 247.767 199.693 247.717 199.902 247.717C200.027 247.717 200.15 247.738 200.269 247.779C200.387 247.82 200.494 247.885 200.589 247.975C200.686 248.065 200.761 248.183 200.817 248.329C200.873 248.474 200.901 248.652 200.901 248.861V249.015H199.109V248.694H200.497C200.497 248.572 200.473 248.464 200.423 248.37C200.375 248.275 200.306 248.201 200.217 248.146C200.128 248.091 200.025 248.063 199.905 248.063C199.774 248.063 199.661 248.095 199.565 248.159C199.468 248.223 199.394 248.306 199.342 248.409C199.29 248.512 199.264 248.622 199.264 248.74V248.976C199.264 249.137 199.293 249.273 199.349 249.385C199.406 249.497 199.484 249.582 199.585 249.64C199.686 249.699 199.804 249.728 199.937 249.728C200.026 249.728 200.105 249.716 200.177 249.691C200.248 249.666 200.309 249.629 200.361 249.578C200.413 249.527 200.454 249.465 200.483 249.391L200.87 249.474C200.836 249.594 200.775 249.699 200.689 249.79C200.604 249.881 200.497 249.951 200.37 250.001C200.242 250.051 200.097 250.076 199.936 250.076ZM201.8 248.666V250.028H201.393V247.747H201.784V248.112H201.813C201.866 247.993 201.947 247.898 202.058 247.825C202.169 247.753 202.311 247.717 202.483 247.717C202.639 247.717 202.774 247.749 202.89 247.813C203.006 247.878 203.096 247.974 203.161 248.102C203.226 248.228 203.259 248.387 203.259 248.578V250.028H202.852V248.62C202.852 248.449 202.807 248.315 202.718 248.219C202.629 248.122 202.507 248.073 202.353 248.073C202.246 248.073 202.15 248.097 202.067 248.143C201.984 248.19 201.919 248.257 201.871 248.345C201.824 248.433 201.8 248.54 201.8 248.666ZM205.294 249.088V247.747H205.701V250.028H205.3V249.636H205.276C205.223 249.756 205.138 249.856 205.023 249.937C204.91 250.018 204.767 250.058 204.596 250.058C204.451 250.058 204.323 250.026 204.211 249.961C204.099 249.897 204.011 249.801 203.947 249.675C203.883 249.547 203.852 249.387 203.852 249.196V247.747H204.259V249.155C204.259 249.315 204.303 249.443 204.392 249.538C204.481 249.633 204.596 249.68 204.737 249.68C204.822 249.68 204.907 249.659 204.992 249.617C205.078 249.573 205.15 249.508 205.208 249.421C205.265 249.333 205.294 249.222 205.294 249.088ZM207.267 250.076C207.044 250.076 206.852 250.027 206.69 249.93C206.53 249.832 206.406 249.695 206.319 249.52C206.233 249.344 206.19 249.138 206.19 248.904C206.19 248.67 206.233 248.464 206.319 248.286C206.406 248.106 206.528 247.967 206.684 247.867C206.841 247.767 207.024 247.717 207.233 247.717C207.358 247.717 207.481 247.738 207.599 247.779C207.718 247.82 207.825 247.885 207.92 247.975C208.016 248.065 208.092 248.183 208.148 248.329C208.204 248.474 208.232 248.652 208.232 248.861V249.015H206.439V248.694H207.828C207.828 248.572 207.803 248.464 207.754 248.37C207.705 248.275 207.637 248.201 207.547 248.146C207.459 248.091 207.355 248.063 207.235 248.063C207.105 248.063 206.991 248.095 206.895 248.159C206.799 248.223 206.725 248.306 206.673 248.409C206.621 248.512 206.595 248.622 206.595 248.74V248.976C206.595 249.137 206.624 249.273 206.68 249.385C206.736 249.497 206.815 249.582 206.916 249.64C207.017 249.699 207.134 249.728 207.268 249.728C207.356 249.728 207.436 249.716 207.507 249.691C207.579 249.666 207.64 249.629 207.691 249.578C207.744 249.527 207.785 249.465 207.813 249.391L208.201 249.474C208.166 249.594 208.106 249.699 208.02 249.79C207.935 249.881 207.828 249.951 207.7 250.001C207.573 250.051 207.428 250.076 207.267 250.076Z" fill="#5F6664"/>
<path d="M212.62 248.028C212.62 247.258 213.244 246.634 214.014 246.634C214.784 246.634 215.409 247.258 215.409 248.028C215.409 248.798 214.784 249.423 214.014 249.423C213.244 249.423 212.62 248.798 212.62 248.028Z" fill="#5F6664"/>
<path d="M218.11 250.028V246.986H219.989V247.353H218.534V248.321H219.891V248.688H218.534V249.661H220.009V250.028H218.11ZM220.877 247.747L221.398 248.653L221.921 247.747H222.374L221.652 248.887L222.377 250.028H221.925L221.398 249.162L220.872 250.028H220.418L221.133 248.887L220.422 247.747H220.877ZM222.828 250.884V247.747H223.223V248.114H223.262C223.289 248.069 223.326 248.016 223.373 247.955C223.421 247.892 223.488 247.837 223.574 247.79C223.66 247.741 223.775 247.717 223.92 247.717C224.107 247.717 224.273 247.764 224.418 247.858C224.563 247.952 224.677 248.087 224.759 248.264C224.842 248.439 224.884 248.649 224.884 248.893C224.884 249.137 224.843 249.347 224.761 249.523C224.678 249.699 224.565 249.836 224.421 249.932C224.277 250.027 224.112 250.074 223.924 250.074C223.783 250.074 223.668 250.05 223.58 250.003C223.493 249.955 223.424 249.9 223.375 249.838C223.326 249.775 223.289 249.72 223.262 249.675H223.235V250.884H222.828ZM223.228 248.887C223.228 249.053 223.252 249.198 223.299 249.323C223.348 249.447 223.417 249.545 223.509 249.615C223.601 249.686 223.713 249.721 223.846 249.721C223.984 249.721 224.1 249.684 224.193 249.611C224.286 249.538 224.356 249.438 224.403 249.312C224.45 249.185 224.474 249.044 224.474 248.887C224.474 248.733 224.451 248.594 224.404 248.472C224.358 248.348 224.288 248.25 224.195 248.177C224.102 248.105 223.985 248.069 223.846 248.069C223.711 248.069 223.598 248.103 223.506 248.171C223.414 248.24 223.345 248.335 223.298 248.458C223.251 248.581 223.228 248.724 223.228 248.887ZM226.35 250.076C226.127 250.076 225.935 250.027 225.773 249.93C225.613 249.832 225.489 249.695 225.402 249.52C225.316 249.344 225.273 249.138 225.273 248.904C225.273 248.67 225.316 248.464 225.402 248.286C225.489 248.107 225.611 247.967 225.767 247.867C225.924 247.767 226.106 247.717 226.315 247.717C226.441 247.717 226.563 247.738 226.682 247.779C226.801 247.82 226.908 247.885 227.003 247.975C227.099 248.066 227.175 248.183 227.23 248.329C227.287 248.474 227.315 248.652 227.315 248.861V249.015H225.522V248.694H226.911C226.911 248.573 226.886 248.465 226.837 248.371C226.788 248.275 226.719 248.201 226.63 248.146C226.542 248.091 226.438 248.063 226.318 248.063C226.188 248.063 226.074 248.095 225.978 248.16C225.882 248.223 225.808 248.306 225.755 248.409C225.704 248.512 225.678 248.623 225.678 248.74V248.977C225.678 249.137 225.706 249.273 225.763 249.385C225.819 249.497 225.898 249.582 225.999 249.641C226.1 249.699 226.217 249.728 226.351 249.728C226.439 249.728 226.519 249.716 226.59 249.691C226.661 249.666 226.723 249.629 226.774 249.578C226.827 249.528 226.867 249.465 226.896 249.391L227.284 249.474C227.249 249.594 227.189 249.699 227.103 249.791C227.017 249.881 226.911 249.951 226.783 250.001C226.656 250.051 226.511 250.076 226.35 250.076ZM228.214 248.666V250.028H227.807V247.747H228.197V248.112H228.227C228.279 247.993 228.361 247.898 228.472 247.825C228.583 247.753 228.725 247.717 228.897 247.717C229.052 247.717 229.188 247.749 229.304 247.813C229.42 247.878 229.51 247.974 229.574 248.102C229.64 248.228 229.672 248.387 229.672 248.578V250.028H229.265V248.62C229.265 248.449 229.221 248.315 229.132 248.219C229.042 248.122 228.921 248.073 228.766 248.073C228.659 248.073 228.564 248.097 228.481 248.143C228.398 248.19 228.332 248.257 228.285 248.345C228.237 248.433 228.214 248.54 228.214 248.666ZM231.938 248.286L231.569 248.365C231.552 248.312 231.524 248.262 231.486 248.215C231.45 248.166 231.4 248.126 231.336 248.096C231.274 248.065 231.195 248.05 231.098 248.05C230.968 248.05 230.858 248.079 230.77 248.139C230.683 248.197 230.64 248.272 230.64 248.365C230.64 248.446 230.669 248.511 230.729 248.559C230.788 248.607 230.882 248.646 231.011 248.676L231.364 248.76C231.572 248.809 231.727 248.884 231.828 248.985C231.93 249.086 231.981 249.217 231.981 249.378C231.981 249.512 231.942 249.632 231.865 249.737C231.788 249.842 231.68 249.925 231.543 249.985C231.406 250.046 231.247 250.076 231.064 250.076C230.818 250.076 230.616 250.023 230.458 249.917C230.301 249.81 230.203 249.657 230.164 249.459L230.555 249.385C230.584 249.502 230.64 249.59 230.726 249.649C230.812 249.708 230.923 249.737 231.06 249.737C231.213 249.737 231.335 249.705 231.425 249.641C231.516 249.576 231.562 249.498 231.562 249.406C231.562 249.331 231.535 249.268 231.48 249.217C231.427 249.167 231.345 249.129 231.234 249.103L230.85 249.017C230.639 248.968 230.483 248.891 230.383 248.785C230.283 248.679 230.233 248.546 230.233 248.387C230.233 248.254 230.27 248.138 230.344 248.038C230.418 247.937 230.52 247.858 230.65 247.802C230.781 247.745 230.93 247.717 231.097 247.717C231.335 247.717 231.522 247.769 231.658 247.873C231.795 247.976 231.888 248.114 231.938 248.286ZM233.435 250.076C233.212 250.076 233.02 250.027 232.859 249.93C232.699 249.832 232.575 249.695 232.488 249.52C232.401 249.344 232.358 249.138 232.358 248.904C232.358 248.67 232.401 248.464 232.488 248.286C232.575 248.107 232.697 247.967 232.853 247.867C233.009 247.767 233.192 247.717 233.401 247.717C233.527 247.717 233.649 247.738 233.768 247.779C233.887 247.82 233.994 247.885 234.089 247.975C234.185 248.066 234.261 248.183 234.316 248.329C234.373 248.474 234.401 248.652 234.401 248.861V249.015H232.608V248.694H233.997C233.997 248.573 233.972 248.465 233.922 248.371C233.874 248.275 233.805 248.201 233.716 248.146C233.628 248.091 233.524 248.063 233.404 248.063C233.273 248.063 233.16 248.095 233.064 248.16C232.968 248.223 232.894 248.306 232.841 248.409C232.79 248.512 232.764 248.623 232.764 248.74V248.977C232.764 249.137 232.792 249.273 232.849 249.385C232.905 249.497 232.984 249.582 233.085 249.641C233.186 249.699 233.303 249.728 233.437 249.728C233.525 249.728 233.605 249.716 233.676 249.691C233.747 249.666 233.809 249.629 233.86 249.578C233.913 249.528 233.953 249.465 233.982 249.391L234.37 249.474C234.335 249.594 234.275 249.699 234.188 249.791C234.103 249.881 233.997 249.951 233.869 250.001C233.741 250.051 233.597 250.076 233.435 250.076ZM236.565 248.286L236.196 248.365C236.179 248.312 236.151 248.262 236.113 248.215C236.077 248.166 236.027 248.126 235.963 248.096C235.901 248.065 235.822 248.05 235.726 248.05C235.595 248.05 235.485 248.079 235.397 248.139C235.31 248.197 235.267 248.272 235.267 248.365C235.267 248.446 235.296 248.511 235.356 248.559C235.415 248.607 235.509 248.646 235.638 248.676L235.991 248.76C236.199 248.809 236.354 248.884 236.455 248.985C236.557 249.086 236.608 249.217 236.608 249.378C236.608 249.512 236.569 249.632 236.492 249.737C236.415 249.842 236.307 249.925 236.17 249.985C236.033 250.046 235.874 250.076 235.691 250.076C235.445 250.076 235.243 250.023 235.085 249.917C234.928 249.81 234.83 249.657 234.791 249.459L235.182 249.385C235.211 249.502 235.268 249.59 235.353 249.649C235.439 249.708 235.55 249.737 235.687 249.737C235.84 249.737 235.962 249.705 236.052 249.641C236.143 249.576 236.189 249.498 236.189 249.406C236.189 249.331 236.162 249.268 236.107 249.217C236.054 249.167 235.972 249.129 235.861 249.103L235.478 249.017C235.266 248.968 235.11 248.891 235.01 248.785C234.91 248.679 234.86 248.546 234.86 248.387C234.86 248.254 234.897 248.138 234.971 248.038C235.045 247.937 235.147 247.858 235.277 247.802C235.408 247.745 235.557 247.717 235.724 247.717C235.962 247.717 236.149 247.769 236.286 247.873C236.422 247.976 236.515 248.114 236.565 248.286Z" fill="#5F6664"/>
<rect x="240.986" y="243.634" width="38.76" height="8.78857" rx="1.39429" fill="#FAFCFC"/>
<g clip-path="url(#clip15_10093_703)">
<g clip-path="url(#clip16_10093_703)">
<path d="M241.683 242.8C241.683 242.415 241.995 242.103 242.38 242.103H247.957C248.342 242.103 248.654 242.415 248.654 242.8V253.954H241.683V242.8Z" fill="#F0F5F2"/>
<line x1="236.331" y1="247.557" x2="254.108" y2="229.779" stroke="#525252" stroke-width="0.348571"/>
<line x1="236.331" y1="248.951" x2="254.108" y2="231.174" stroke="#525252" stroke-width="0.348571"/>
<line x1="236.331" y1="250.345" x2="254.108" y2="232.568" stroke="#525252" stroke-width="0.348571"/>
<line x1="236.331" y1="251.739" x2="254.108" y2="233.962" stroke="#525252" stroke-width="0.348571"/>
<line x1="236.331" y1="253.134" x2="254.108" y2="235.357" stroke="#525252" stroke-width="0.348571"/>
<line x1="236.331" y1="254.528" x2="254.108" y2="236.751" stroke="#525252" stroke-width="0.348571"/>
<line x1="236.331" y1="255.922" x2="254.108" y2="238.145" stroke="#525252" stroke-width="0.348571"/>
<line x1="236.331" y1="257.317" x2="254.108" y2="239.539" stroke="#525252" stroke-width="0.348571"/>
<line x1="236.331" y1="258.711" x2="254.108" y2="240.934" stroke="#525252" stroke-width="0.348571"/>
<line x1="236.331" y1="260.105" x2="254.108" y2="242.328" stroke="#525252" stroke-width="0.348571"/>
<line x1="236.331" y1="261.499" x2="254.108" y2="243.722" stroke="#525252" stroke-width="0.348571"/>
<line x1="236.331" y1="262.894" x2="254.108" y2="245.117" stroke="#525252" stroke-width="0.348571"/>
<line x1="236.331" y1="264.288" x2="254.108" y2="246.511" stroke="#525252" stroke-width="0.348571"/>
</g>
</g>
<path d="M250.306 246.986H250.729V248.993C250.729 249.204 250.68 249.391 250.581 249.554C250.482 249.718 250.342 249.846 250.162 249.94C249.983 250.034 249.773 250.08 249.532 250.08C249.291 250.08 249.08 250.034 248.899 249.94C248.72 249.846 248.581 249.718 248.482 249.554C248.383 249.391 248.333 249.204 248.333 248.993V246.986H248.757V248.957C248.757 249.1 248.788 249.226 248.85 249.337C248.913 249.447 249.002 249.534 249.118 249.597C249.234 249.66 249.372 249.691 249.532 249.691C249.693 249.691 249.831 249.66 249.947 249.597C250.062 249.534 250.151 249.447 250.212 249.337C250.275 249.226 250.306 249.1 250.306 248.957V246.986ZM251.772 248.666V250.028H251.365V247.747H251.755V248.112H251.785C251.837 247.993 251.919 247.898 252.03 247.825C252.141 247.753 252.283 247.717 252.455 247.717C252.61 247.717 252.746 247.749 252.862 247.813C252.978 247.878 253.068 247.974 253.132 248.102C253.198 248.228 253.23 248.387 253.23 248.578V250.028H252.823V248.62C252.823 248.449 252.779 248.315 252.69 248.219C252.6 248.122 252.479 248.073 252.324 248.073C252.217 248.073 252.122 248.097 252.039 248.143C251.956 248.19 251.89 248.257 251.843 248.345C251.795 248.433 251.772 248.54 251.772 248.666ZM254.771 250.076C254.553 250.076 254.365 250.025 254.208 249.924C254.05 249.823 253.93 249.684 253.845 249.507C253.761 249.329 253.719 249.127 253.719 248.899C253.719 248.666 253.762 248.461 253.848 248.284C253.936 248.107 254.057 247.968 254.214 247.868C254.37 247.767 254.554 247.717 254.765 247.717C254.933 247.717 255.084 247.748 255.216 247.81C255.349 247.872 255.457 247.958 255.54 248.07C255.623 248.182 255.674 248.313 255.692 248.462H255.292C255.267 248.357 255.211 248.264 255.123 248.186C255.036 248.107 254.919 248.067 254.772 248.067C254.644 248.067 254.531 248.101 254.434 248.168C254.338 248.236 254.262 248.331 254.208 248.454C254.154 248.576 254.128 248.721 254.128 248.887C254.128 249.058 254.154 249.205 254.206 249.33C254.26 249.455 254.335 249.552 254.431 249.621C254.528 249.689 254.642 249.724 254.772 249.724C254.859 249.724 254.938 249.708 255.009 249.676C255.08 249.644 255.14 249.599 255.188 249.541C255.238 249.481 255.272 249.411 255.292 249.328H255.692C255.674 249.471 255.625 249.599 255.546 249.712C255.467 249.824 255.362 249.912 255.23 249.978C255.099 250.043 254.946 250.076 254.771 250.076ZM256.826 250.08C256.682 250.08 256.55 250.053 256.433 249.998C256.316 249.944 256.223 249.865 256.155 249.762C256.086 249.658 256.052 249.531 256.052 249.382C256.052 249.252 256.078 249.146 256.128 249.064C256.179 248.981 256.246 248.916 256.33 248.868C256.415 248.82 256.51 248.785 256.614 248.761C256.719 248.737 256.825 248.718 256.932 248.705C257.069 248.688 257.181 248.674 257.266 248.664C257.352 248.655 257.414 248.638 257.453 248.615C257.493 248.592 257.512 248.553 257.512 248.498V248.486C257.512 248.351 257.475 248.245 257.4 248.17C257.324 248.095 257.211 248.057 257.059 248.057C256.903 248.057 256.78 248.091 256.689 248.159C256.6 248.228 256.538 248.303 256.504 248.385L256.121 248.28C256.174 248.141 256.249 248.031 256.346 247.949C256.443 247.866 256.553 247.807 256.675 247.772C256.797 247.735 256.923 247.717 257.05 247.717C257.135 247.717 257.227 247.727 257.327 247.747C257.427 247.766 257.521 247.804 257.61 247.859C257.701 247.915 257.774 247.996 257.832 248.102C257.89 248.206 257.919 248.345 257.919 248.517V250.028H257.52V249.718H257.502C257.475 249.771 257.434 249.826 257.377 249.883C257.321 249.938 257.247 249.985 257.156 250.024C257.065 250.061 256.955 250.08 256.826 250.08ZM256.905 249.74C257.035 249.74 257.145 249.715 257.235 249.664C257.326 249.613 257.395 249.546 257.443 249.465C257.49 249.383 257.514 249.296 257.514 249.204V248.899C257.498 248.916 257.466 248.931 257.419 248.945C257.372 248.958 257.319 248.97 257.258 248.981C257.198 248.991 257.139 248.999 257.082 249.006C257.025 249.013 256.978 249.019 256.941 249.024C256.853 249.036 256.773 249.055 256.698 249.08C256.624 249.106 256.565 249.144 256.52 249.193C256.476 249.243 256.453 249.309 256.453 249.392C256.453 249.507 256.496 249.594 256.581 249.652C256.666 249.711 256.774 249.74 256.905 249.74ZM259.548 247.747V248.079H258.327V247.747H259.548ZM258.665 247.2H259.072V249.366C259.072 249.456 259.085 249.524 259.112 249.571C259.139 249.616 259.175 249.647 259.217 249.663C259.261 249.678 259.307 249.685 259.357 249.685C259.394 249.685 259.426 249.683 259.452 249.679C259.478 249.674 259.498 249.67 259.513 249.667L259.59 250.013C259.564 250.022 259.529 250.032 259.483 250.041C259.437 250.052 259.381 250.058 259.312 250.058C259.202 250.059 259.098 250.038 258.999 249.995C258.901 249.952 258.821 249.885 258.758 249.796C258.696 249.706 258.665 249.593 258.665 249.458V247.2ZM260.979 250.076C260.756 250.076 260.564 250.027 260.403 249.93C260.242 249.832 260.119 249.695 260.031 249.52C259.945 249.344 259.902 249.138 259.902 248.904C259.902 248.67 259.945 248.464 260.031 248.286C260.119 248.106 260.24 247.967 260.397 247.867C260.553 247.767 260.736 247.717 260.945 247.717C261.071 247.717 261.193 247.738 261.312 247.779C261.431 247.82 261.538 247.885 261.633 247.975C261.729 248.065 261.804 248.183 261.86 248.329C261.916 248.474 261.945 248.652 261.945 248.861V249.015H260.152V248.694H261.541C261.541 248.572 261.516 248.464 261.466 248.37C261.418 248.275 261.349 248.201 261.26 248.146C261.172 248.091 261.068 248.063 260.948 248.063C260.817 248.063 260.704 248.095 260.608 248.159C260.512 248.223 260.437 248.306 260.385 248.409C260.333 248.512 260.308 248.622 260.308 248.74V248.976C260.308 249.137 260.336 249.273 260.392 249.385C260.449 249.497 260.527 249.582 260.629 249.64C260.73 249.699 260.847 249.728 260.981 249.728C261.069 249.728 261.148 249.716 261.22 249.691C261.291 249.666 261.352 249.629 261.404 249.578C261.456 249.527 261.497 249.465 261.526 249.391L261.913 249.474C261.879 249.594 261.818 249.699 261.732 249.79C261.647 249.881 261.541 249.951 261.413 250.001C261.285 250.051 261.14 250.076 260.979 250.076ZM263.378 250.931C263.202 250.931 263.05 250.908 262.923 250.863C262.797 250.817 262.692 250.757 262.61 250.682C262.529 250.606 262.466 250.525 262.423 250.438L262.764 250.266C262.793 250.308 262.831 250.355 262.877 250.405C262.924 250.457 262.987 250.501 263.067 250.538C263.148 250.574 263.252 250.593 263.381 250.593C263.556 250.593 263.701 250.55 263.815 250.465C263.928 250.381 263.985 250.247 263.985 250.064V249.609H263.956C263.93 249.656 263.892 249.709 263.843 249.77C263.794 249.829 263.726 249.881 263.638 249.926C263.551 249.97 263.436 249.992 263.293 249.992C263.112 249.992 262.949 249.95 262.803 249.865C262.658 249.779 262.544 249.653 262.46 249.487C262.376 249.321 262.334 249.118 262.334 248.877C262.334 248.638 262.375 248.432 262.457 248.259C262.54 248.085 262.654 247.951 262.799 247.858C262.944 247.764 263.11 247.717 263.298 247.717C263.442 247.717 263.558 247.741 263.645 247.79C263.732 247.837 263.8 247.892 263.849 247.954C263.897 248.016 263.934 248.069 263.96 248.113H263.994V247.747H264.391V250.085C264.391 250.281 264.346 250.441 264.256 250.566C264.166 250.691 264.044 250.783 263.89 250.842C263.738 250.901 263.567 250.931 263.378 250.931ZM263.372 249.646C263.505 249.646 263.616 249.616 263.708 249.554C263.8 249.492 263.87 249.403 263.917 249.287C263.966 249.171 263.99 249.032 263.99 248.871C263.99 248.714 263.966 248.575 263.919 248.455C263.872 248.334 263.803 248.24 263.711 248.171C263.618 248.103 263.506 248.069 263.372 248.069C263.232 248.069 263.116 248.105 263.023 248.177C262.93 248.249 262.86 248.345 262.813 248.465C262.767 248.586 262.744 248.721 262.744 248.871C262.744 249.024 262.767 249.16 262.813 249.276C262.861 249.392 262.931 249.483 263.024 249.548C263.117 249.614 263.233 249.646 263.372 249.646ZM265.932 250.076C265.721 250.076 265.537 250.027 265.38 249.929C265.222 249.83 265.099 249.692 265.011 249.516C264.924 249.339 264.881 249.134 264.881 248.899C264.881 248.662 264.924 248.454 265.011 248.277C265.099 248.1 265.222 247.962 265.38 247.864C265.537 247.766 265.721 247.717 265.932 247.717C266.143 247.717 266.327 247.766 266.485 247.864C266.642 247.962 266.765 248.1 266.852 248.277C266.94 248.454 266.984 248.662 266.984 248.899C266.984 249.134 266.94 249.339 266.852 249.516C266.765 249.692 266.642 249.83 266.485 249.929C266.327 250.027 266.143 250.076 265.932 250.076ZM265.932 249.725C266.079 249.725 266.199 249.687 266.293 249.611C266.388 249.534 266.459 249.434 266.504 249.309C266.551 249.183 266.574 249.046 266.574 248.898C266.574 248.749 266.551 248.612 266.504 248.486C266.459 248.359 266.388 248.258 266.293 248.182C266.199 248.104 266.079 248.066 265.932 248.066C265.786 248.066 265.665 248.104 265.57 248.182C265.475 248.258 265.404 248.359 265.357 248.486C265.312 248.612 265.289 248.749 265.289 248.898C265.289 249.046 265.312 249.183 265.357 249.309C265.404 249.434 265.475 249.534 265.57 249.611C265.665 249.687 265.786 249.725 265.932 249.725ZM267.476 250.028V247.747H267.869V248.102H267.893C267.935 247.983 268.009 247.888 268.115 247.818C268.221 247.747 268.343 247.711 268.478 247.711C268.505 247.711 268.537 247.712 268.575 247.714C268.614 247.716 268.644 247.718 268.666 247.721V248.118C268.65 248.114 268.62 248.109 268.575 248.103C268.531 248.096 268.486 248.093 268.44 248.093C268.333 248.093 268.237 248.115 268.153 248.159C268.07 248.204 268.004 248.266 267.956 248.345C267.907 248.424 267.883 248.514 267.883 248.615V250.028H267.476ZM269.044 250.028V247.747H269.451V250.028H269.044ZM269.25 247.384C269.176 247.384 269.113 247.359 269.06 247.31C269.008 247.259 268.981 247.199 268.981 247.129C268.981 247.059 269.008 247 269.06 246.95C269.113 246.9 269.176 246.875 269.25 246.875C269.324 246.875 269.387 246.9 269.439 246.95C269.491 247 269.518 247.059 269.518 247.129C269.518 247.199 269.491 247.259 269.439 247.31C269.387 247.359 269.324 247.384 269.25 247.384ZM269.989 250.028V249.738L271.249 248.131V248.109H270.031V247.747H271.763V248.053L270.545 249.643V249.666H271.803V250.028H269.989ZM273.218 250.076C272.996 250.076 272.803 250.027 272.642 249.93C272.482 249.832 272.358 249.695 272.271 249.52C272.184 249.344 272.141 249.138 272.141 248.904C272.141 248.67 272.184 248.464 272.271 248.286C272.358 248.106 272.48 247.967 272.636 247.867C272.793 247.767 272.975 247.717 273.184 247.717C273.31 247.717 273.432 247.738 273.551 247.779C273.67 247.82 273.777 247.885 273.872 247.975C273.968 248.065 274.044 248.183 274.099 248.329C274.156 248.474 274.184 248.652 274.184 248.861V249.015H272.391V248.694H273.78C273.78 248.572 273.755 248.464 273.706 248.37C273.657 248.275 273.588 248.201 273.499 248.146C273.411 248.091 273.307 248.063 273.187 248.063C273.056 248.063 272.943 248.095 272.847 248.159C272.751 248.223 272.677 248.306 272.624 248.409C272.573 248.512 272.547 248.622 272.547 248.74V248.976C272.547 249.137 272.575 249.273 272.632 249.385C272.688 249.497 272.767 249.582 272.868 249.64C272.969 249.699 273.086 249.728 273.22 249.728C273.308 249.728 273.388 249.716 273.459 249.691C273.53 249.666 273.592 249.629 273.643 249.578C273.696 249.527 273.736 249.465 273.765 249.391L274.153 249.474C274.118 249.594 274.058 249.699 273.971 249.79C273.886 249.881 273.78 249.951 273.652 250.001C273.524 250.051 273.38 250.076 273.218 250.076ZM275.532 250.074C275.345 250.074 275.179 250.027 275.035 249.932C274.891 249.835 274.778 249.699 274.696 249.523C274.614 249.347 274.573 249.137 274.573 248.893C274.573 248.649 274.614 248.439 274.696 248.263C274.779 248.087 274.893 247.952 275.038 247.858C275.183 247.764 275.35 247.717 275.537 247.717C275.681 247.717 275.797 247.741 275.883 247.79C275.969 247.837 276.036 247.892 276.084 247.954C276.131 248.016 276.168 248.069 276.195 248.113H276.222V246.986H276.629V250.028H276.234V249.675H276.195C276.168 249.72 276.13 249.775 276.081 249.838C276.032 249.9 275.964 249.955 275.876 250.003C275.788 250.05 275.674 250.074 275.532 250.074ZM275.611 249.721C275.744 249.721 275.856 249.685 275.947 249.615C276.039 249.545 276.109 249.447 276.156 249.323C276.205 249.198 276.229 249.053 276.229 248.887C276.229 248.724 276.205 248.581 276.158 248.458C276.111 248.335 276.042 248.24 275.95 248.171C275.858 248.103 275.745 248.069 275.611 248.069C275.472 248.069 275.355 248.105 275.262 248.177C275.169 248.25 275.099 248.348 275.053 248.471C275.006 248.594 274.983 248.733 274.983 248.887C274.983 249.044 275.006 249.185 275.053 249.312C275.1 249.438 275.171 249.537 275.264 249.611C275.357 249.684 275.473 249.721 275.611 249.721Z" fill="#5F6664"/>
</g>
<g filter="url(#filter1_ddddd_10093_703)">
<path d="M137.697 207.913C118.789 201.769 102.693 189.08 92.3045 172.129C81.9164 155.177 77.9179 135.075 81.028 115.438C84.1382 95.8009 94.153 77.9182 109.271 65.0061C124.389 52.094 143.618 45 163.5 45V128.5L137.697 207.913Z" fill="#47999E"/>
<path d="M237.226 167.701C228.104 184.857 213.284 198.295 195.319 205.7C177.355 213.104 157.37 214.012 138.808 208.266L163.5 128.5L237.226 167.701Z" fill="#C2D6D3"/>
<path d="M244.86 147.283C243.284 154.108 240.856 160.708 237.633 166.927L163.5 128.5L244.86 147.283Z" fill="#E1EBEA"/>
<path d="M246.971 130.686C246.834 135.934 246.202 141.158 245.083 146.288L163.5 128.5L246.971 130.686Z" fill="#E1EBEA"/>
<path d="M246.463 119.048C246.859 122.524 247.037 126.022 246.994 129.52L163.5 128.5L246.463 119.048Z" fill="#204C47"/>
<path d="M236.531 88.0184C241.633 97.223 244.949 107.309 246.305 117.746L163.5 128.5L236.531 88.0184Z" fill="#DAB3E6"/>
<path d="M164.957 45.0127C179.464 45.2659 193.655 49.2948 206.13 56.7023C218.606 64.1098 228.936 74.6403 236.103 87.2558L163.5 128.5L164.957 45.0127Z" fill="#8A1D96"/>
</g>
<rect x="91.8334" y="56.5" width="143.143" height="143.143" rx="71.5714" fill="white"/>
<path d="M146.073 110.856V109.209H154.725V110.856H151.373V120.054H149.425V110.856H146.073ZM158.676 120.212C157.882 120.212 157.194 120.038 156.611 119.688C156.029 119.339 155.577 118.85 155.256 118.222C154.938 117.593 154.779 116.859 154.779 116.019C154.779 115.179 154.938 114.443 155.256 113.811C155.577 113.179 156.029 112.688 156.611 112.339C157.194 111.989 157.882 111.815 158.676 111.815C159.471 111.815 160.159 111.989 160.741 112.339C161.324 112.688 161.774 113.179 162.092 113.811C162.413 114.443 162.573 115.179 162.573 116.019C162.573 116.859 162.413 117.593 162.092 118.222C161.774 118.85 161.324 119.339 160.741 119.688C160.159 120.038 159.471 120.212 158.676 120.212ZM158.687 118.677C159.118 118.677 159.478 118.559 159.767 118.322C160.057 118.082 160.272 117.761 160.413 117.358C160.558 116.956 160.63 116.508 160.63 116.014C160.63 115.516 160.558 115.066 160.413 114.663C160.272 114.257 160.057 113.934 159.767 113.694C159.478 113.454 159.118 113.334 158.687 113.334C158.246 113.334 157.879 113.454 157.586 113.694C157.296 113.934 157.079 114.257 156.934 114.663C156.793 115.066 156.722 115.516 156.722 116.014C156.722 116.508 156.793 116.956 156.934 117.358C157.079 117.761 157.296 118.082 157.586 118.322C157.879 118.559 158.246 118.677 158.687 118.677ZM168.262 111.92V113.403H163.586V111.92H168.262ZM164.74 109.972H166.657V117.607C166.657 117.865 166.696 118.063 166.774 118.2C166.855 118.334 166.961 118.426 167.091 118.476C167.222 118.525 167.367 118.55 167.526 118.55C167.646 118.55 167.755 118.541 167.854 118.523C167.956 118.506 168.034 118.49 168.087 118.476L168.41 119.974C168.308 120.009 168.161 120.048 167.97 120.091C167.783 120.133 167.554 120.158 167.282 120.165C166.802 120.179 166.37 120.107 165.985 119.948C165.6 119.785 165.295 119.535 165.069 119.196C164.846 118.857 164.737 118.433 164.74 117.925V109.972ZM172.205 120.218C171.69 120.218 171.225 120.126 170.812 119.942C170.403 119.755 170.078 119.48 169.838 119.116C169.602 118.753 169.483 118.304 169.483 117.771C169.483 117.313 169.568 116.933 169.738 116.633C169.907 116.333 170.138 116.093 170.431 115.913C170.724 115.733 171.054 115.597 171.421 115.505C171.792 115.41 172.175 115.341 172.57 115.299C173.047 115.249 173.434 115.205 173.73 115.166C174.027 115.124 174.242 115.06 174.376 114.976C174.514 114.887 174.583 114.752 174.583 114.568V114.536C174.583 114.137 174.464 113.828 174.228 113.61C173.991 113.391 173.651 113.281 173.206 113.281C172.736 113.281 172.364 113.384 172.089 113.588C171.817 113.793 171.633 114.035 171.538 114.314L169.748 114.06C169.889 113.565 170.122 113.152 170.447 112.821C170.772 112.485 171.169 112.235 171.639 112.069C172.108 111.899 172.627 111.815 173.195 111.815C173.587 111.815 173.977 111.86 174.365 111.952C174.754 112.044 175.108 112.196 175.43 112.408C175.751 112.616 176.009 112.9 176.203 113.26C176.4 113.62 176.499 114.07 176.499 114.61V120.054H174.657V118.936H174.593C174.477 119.162 174.312 119.374 174.101 119.572C173.892 119.766 173.629 119.923 173.312 120.043C172.998 120.159 172.629 120.218 172.205 120.218ZM172.703 118.809C173.088 118.809 173.421 118.733 173.704 118.582C173.986 118.426 174.203 118.222 174.355 117.967C174.51 117.713 174.588 117.436 174.588 117.136V116.178C174.528 116.227 174.425 116.273 174.281 116.315C174.14 116.358 173.981 116.395 173.804 116.427C173.628 116.458 173.453 116.487 173.28 116.511C173.107 116.536 172.957 116.557 172.83 116.575C172.544 116.614 172.288 116.677 172.062 116.765C171.836 116.854 171.658 116.977 171.527 117.136C171.397 117.291 171.331 117.493 171.331 117.74C171.331 118.093 171.46 118.359 171.718 118.539C171.976 118.719 172.304 118.809 172.703 118.809ZM180.343 109.209V120.054H178.427V109.209H180.343Z" fill="#888888"/>
<path d="M123.016 146.716V130.45H124.058V146.716H123.016ZM125.78 135.819C125.729 135.306 125.511 134.908 125.125 134.624C124.74 134.341 124.217 134.199 123.556 134.199C123.107 134.199 122.728 134.262 122.418 134.389C122.109 134.512 121.872 134.684 121.707 134.904C121.546 135.124 121.465 135.374 121.465 135.654C121.457 135.887 121.505 136.09 121.611 136.264C121.722 136.437 121.872 136.588 122.063 136.715C122.253 136.838 122.473 136.946 122.723 137.039C122.973 137.128 123.24 137.204 123.524 137.268L124.693 137.547C125.261 137.674 125.782 137.844 126.256 138.055C126.731 138.267 127.141 138.528 127.489 138.837C127.836 139.146 128.105 139.511 128.296 139.93C128.491 140.349 128.59 140.83 128.594 141.372C128.59 142.169 128.387 142.859 127.984 143.444C127.586 144.024 127.01 144.475 126.256 144.797C125.506 145.115 124.602 145.274 123.543 145.274C122.492 145.274 121.577 145.113 120.798 144.791C120.023 144.469 119.417 143.992 118.981 143.361C118.549 142.726 118.322 141.94 118.301 141.004H120.963C120.993 141.44 121.118 141.804 121.338 142.097C121.563 142.385 121.861 142.603 122.234 142.751C122.611 142.895 123.037 142.967 123.511 142.967C123.977 142.967 124.382 142.899 124.725 142.764C125.072 142.628 125.341 142.44 125.532 142.198C125.722 141.957 125.818 141.679 125.818 141.366C125.818 141.074 125.731 140.828 125.557 140.629C125.388 140.43 125.138 140.26 124.807 140.121C124.481 139.981 124.081 139.854 123.607 139.739L122.19 139.383C121.092 139.117 120.226 138.699 119.591 138.132C118.955 137.564 118.64 136.8 118.644 135.838C118.64 135.05 118.849 134.362 119.273 133.773C119.701 133.184 120.288 132.724 121.033 132.394C121.779 132.064 122.626 131.898 123.575 131.898C124.541 131.898 125.384 132.064 126.104 132.394C126.828 132.724 127.391 133.184 127.794 133.773C128.196 134.362 128.404 135.044 128.416 135.819H125.78ZM135.122 145.267C134.224 145.267 133.423 145.102 132.72 144.772C132.021 144.441 131.466 143.986 131.055 143.406C130.644 142.825 130.43 142.16 130.413 141.41H133.082C133.112 141.914 133.323 142.323 133.717 142.637C134.111 142.95 134.579 143.107 135.122 143.107C135.554 143.107 135.935 143.012 136.265 142.821C136.6 142.626 136.86 142.357 137.047 142.014C137.237 141.667 137.333 141.268 137.333 140.819C137.333 140.362 137.235 139.96 137.04 139.612C136.85 139.265 136.585 138.994 136.246 138.799C135.907 138.604 135.52 138.504 135.083 138.5C134.702 138.5 134.332 138.579 133.971 138.735C133.616 138.892 133.338 139.106 133.139 139.377L130.693 138.939L131.309 132.076H139.264V134.326H133.578L133.241 137.585H133.317C133.546 137.263 133.891 136.996 134.353 136.785C134.814 136.573 135.331 136.467 135.903 136.467C136.687 136.467 137.386 136.651 138 137.02C138.614 137.388 139.099 137.895 139.455 138.538C139.811 139.178 139.987 139.915 139.982 140.75C139.987 141.626 139.783 142.406 139.372 143.088C138.966 143.766 138.396 144.299 137.663 144.689C136.935 145.075 136.087 145.267 135.122 145.267ZM144.449 143.31L144.379 144.009C144.324 144.568 144.218 145.125 144.062 145.68C143.909 146.239 143.748 146.746 143.579 147.199C143.414 147.652 143.28 148.008 143.178 148.266H141.425C141.488 148.016 141.575 147.667 141.685 147.218C141.795 146.773 141.899 146.273 141.997 145.718C142.094 145.163 142.155 144.598 142.181 144.022L142.213 143.31H144.449ZM146.702 142.802V140.635L152.134 132.076H154.002V135.075H152.897L149.472 140.495V140.597H157.192V142.802H146.702ZM152.948 145.089V142.141L152.999 141.182V132.076H155.578V145.089H152.948ZM163.778 145.267C162.88 145.267 162.079 145.102 161.376 144.772C160.677 144.441 160.122 143.986 159.712 143.406C159.301 142.825 159.087 142.16 159.07 141.41H161.738C161.768 141.914 161.98 142.323 162.374 142.637C162.768 142.95 163.236 143.107 163.778 143.107C164.21 143.107 164.591 143.012 164.922 142.821C165.256 142.626 165.517 142.357 165.703 142.014C165.894 141.667 165.989 141.268 165.989 140.819C165.989 140.362 165.892 139.96 165.697 139.612C165.506 139.265 165.242 138.994 164.903 138.799C164.564 138.604 164.176 138.504 163.74 138.5C163.359 138.5 162.988 138.579 162.628 138.735C162.272 138.892 161.995 139.106 161.796 139.377L159.349 138.939L159.966 132.076H167.921V134.326H162.234L161.897 137.585H161.974C162.202 137.263 162.548 136.996 163.009 136.785C163.471 136.573 163.988 136.467 164.56 136.467C165.343 136.467 166.042 136.651 166.656 137.02C167.271 137.388 167.756 137.895 168.112 138.538C168.467 139.178 168.643 139.915 168.639 140.75C168.643 141.626 168.44 142.406 168.029 143.088C167.622 143.766 167.053 144.299 166.32 144.689C165.591 145.075 164.744 145.267 163.778 145.267ZM175.552 145.267C174.883 145.263 174.237 145.151 173.614 144.931C172.996 144.71 172.441 144.352 171.949 143.857C171.458 143.361 171.068 142.704 170.78 141.887C170.496 141.069 170.354 140.065 170.354 138.875C170.359 137.782 170.484 136.806 170.729 135.946C170.979 135.082 171.335 134.349 171.797 133.747C172.263 133.146 172.82 132.688 173.468 132.375C174.116 132.057 174.843 131.898 175.647 131.898C176.516 131.898 177.282 132.068 177.948 132.407C178.613 132.741 179.146 133.197 179.549 133.773C179.955 134.349 180.201 134.995 180.286 135.711H177.573C177.467 135.258 177.244 134.902 176.905 134.643C176.567 134.385 176.147 134.256 175.647 134.256C174.8 134.256 174.156 134.624 173.716 135.361C173.279 136.098 173.057 137.1 173.049 138.367H173.138C173.332 137.981 173.595 137.653 173.925 137.382C174.26 137.107 174.639 136.897 175.063 136.753C175.491 136.605 175.942 136.531 176.416 136.531C177.187 136.531 177.873 136.713 178.475 137.077C179.076 137.437 179.551 137.933 179.898 138.564C180.246 139.195 180.419 139.917 180.419 140.731C180.419 141.612 180.214 142.395 179.803 143.081C179.396 143.768 178.826 144.306 178.094 144.695C177.365 145.081 176.518 145.272 175.552 145.267ZM175.539 143.107C175.963 143.107 176.342 143.005 176.677 142.802C177.011 142.599 177.274 142.323 177.465 141.976C177.655 141.629 177.751 141.239 177.751 140.807C177.751 140.375 177.655 139.987 177.465 139.644C177.278 139.301 177.02 139.028 176.689 138.824C176.359 138.621 175.982 138.519 175.558 138.519C175.241 138.519 174.946 138.579 174.675 138.697C174.408 138.816 174.173 138.981 173.97 139.193C173.771 139.405 173.614 139.65 173.5 139.93C173.385 140.205 173.328 140.5 173.328 140.813C173.328 141.232 173.423 141.616 173.614 141.963C173.809 142.311 174.072 142.588 174.402 142.796C174.737 143.003 175.116 143.107 175.539 143.107ZM183.436 145.255C183.016 145.255 182.656 145.106 182.356 144.81C182.059 144.509 181.911 144.149 181.911 143.73C181.911 143.314 182.059 142.959 182.356 142.662C182.656 142.366 183.016 142.217 183.436 142.217C183.842 142.217 184.198 142.366 184.503 142.662C184.808 142.959 184.961 143.314 184.961 143.73C184.961 144.009 184.889 144.265 184.745 144.498C184.605 144.727 184.421 144.911 184.192 145.051C183.963 145.187 183.711 145.255 183.436 145.255ZM187.158 145.089V143.107L191.79 138.818C192.184 138.437 192.514 138.094 192.781 137.789C193.052 137.484 193.257 137.185 193.397 136.893C193.537 136.596 193.607 136.276 193.607 135.933C193.607 135.552 193.52 135.224 193.346 134.948C193.173 134.669 192.936 134.455 192.635 134.307C192.334 134.154 191.993 134.078 191.612 134.078C191.214 134.078 190.866 134.158 190.57 134.319C190.273 134.48 190.044 134.711 189.883 135.012C189.723 135.313 189.642 135.671 189.642 136.086H187.031C187.031 135.234 187.223 134.495 187.609 133.868C187.994 133.241 188.534 132.756 189.229 132.413C189.924 132.07 190.724 131.898 191.631 131.898C192.563 131.898 193.374 132.064 194.064 132.394C194.759 132.72 195.299 133.173 195.685 133.754C196.07 134.334 196.263 134.999 196.263 135.749C196.263 136.24 196.165 136.725 195.971 137.204C195.78 137.683 195.439 138.214 194.948 138.799C194.456 139.379 193.764 140.076 192.87 140.889L190.97 142.751V142.84H196.434V145.089H187.158ZM197.951 142.802V140.635L203.384 132.076H205.252V135.075H204.147L200.722 140.495V140.597H208.442V142.802H197.951ZM204.197 145.089V142.141L204.248 141.182V132.076H206.828V145.089H204.197Z" fill="black"/>
</g>
<defs>
<filter id="filter0_d_10093_703" x="78.9998" y="44" width="216" height="217.091" filterUnits="userSpaceOnUse" color-interpolation-filters="sRGB">
<feFlood flood-opacity="0" result="BackgroundImageFix"/>
<feColorMatrix in="SourceAlpha" type="matrix" values="0 0 0 0 0 0 0 0 0 0 0 0 0 0 0 0 0 0 127 0" result="hardAlpha"/>
<feMorphology radius="1" operator="dilate" in="SourceAlpha" result="effect1_dropShadow_10093_703"/>
<feOffset/>
<feComposite in2="hardAlpha" operator="out"/>
<feColorMatrix type="matrix" values="0 0 0 0 0.0666667 0 0 0 0 0.0666667 0 0 0 0 0.0666667 0 0 0 0.04 0"/>
<feBlend mode="normal" in2="BackgroundImageFix" result="effect1_dropShadow_10093_703"/>
<feBlend mode="normal" in="SourceGraphic" in2="effect1_dropShadow_10093_703" result="shape"/>
</filter>
<filter id="filter1_ddddd_10093_703" x="-0.000183105" y="0" width="327" height="327" filterUnits="userSpaceOnUse" color-interpolation-filters="sRGB">
<feFlood flood-opacity="0" result="BackgroundImageFix"/>
<feColorMatrix in="SourceAlpha" type="matrix" values="0 0 0 0 0 0 0 0 0 0 0 0 0 0 0 0 0 0 127 0" result="hardAlpha"/>
<feMorphology radius="1" operator="dilate" in="SourceAlpha" result="effect1_dropShadow_10093_703"/>
<feOffset/>
<feComposite in2="hardAlpha" operator="out"/>
<feColorMatrix type="matrix" values="0 0 0 0 0.0666667 0 0 0 0 0.0666667 0 0 0 0 0.0666667 0 0 0 0.04 0"/>
<feBlend mode="normal" in2="BackgroundImageFix" result="effect1_dropShadow_10093_703"/>
<feColorMatrix in="SourceAlpha" type="matrix" values="0 0 0 0 0 0 0 0 0 0 0 0 0 0 0 0 0 0 127 0" result="hardAlpha"/>
<feOffset dy="5"/>
<feGaussianBlur stdDeviation="1.81152"/>
<feColorMatrix type="matrix" values="0 0 0 0 0.0117647 0 0 0 0 0.00784314 0 0 0 0 0.00784314 0 0 0 0.0243888 0"/>
<feBlend mode="normal" in2="effect1_dropShadow_10093_703" result="effect2_dropShadow_10093_703"/>
<feColorMatrix in="SourceAlpha" type="matrix" values="0 0 0 0 0 0 0 0 0 0 0 0 0 0 0 0 0 0 127 0" result="hardAlpha"/>
<feOffset dy="10"/>
<feGaussianBlur stdDeviation="5.00862"/>
<feColorMatrix type="matrix" values="0 0 0 0 0.0117647 0 0 0 0 0.00784314 0 0 0 0 0.00784314 0 0 0 0.035 0"/>
<feBlend mode="normal" in2="effect2_dropShadow_10093_703" result="effect3_dropShadow_10093_703"/>
<feColorMatrix in="SourceAlpha" type="matrix" values="0 0 0 0 0 0 0 0 0 0 0 0 0 0 0 0 0 0 127 0" result="hardAlpha"/>
<feOffset dy="25"/>
<feGaussianBlur stdDeviation="12.0588"/>
<feColorMatrix type="matrix" values="0 0 0 0 0.01 0 0 0 0 0.00965 0 0 0 0 0.0094 0 0 0 0.0456112 0"/>
<feBlend mode="normal" in2="effect3_dropShadow_10093_703" result="effect4_dropShadow_10093_703"/>
<feColorMatrix in="SourceAlpha" type="matrix" values="0 0 0 0 0 0 0 0 0 0 0 0 0 0 0 0 0 0 127 0" result="hardAlpha"/>
<feOffset dy="35"/>
<feGaussianBlur stdDeviation="40"/>
<feColorMatrix type="matrix" values="0 0 0 0 0.0117647 0 0 0 0 0.00784314 0 0 0 0 0.00784314 0 0 0 0.07 0"/>
<feBlend mode="normal" in2="effect4_dropShadow_10093_703" result="effect5_dropShadow_10093_703"/>
<feBlend mode="normal" in="SourceGraphic" in2="effect5_dropShadow_10093_703" result="shape"/>
</filter>
<clipPath id="clip0_10093_703">
<rect width="3.83429" height="3.83429" fill="white" transform="translate(205.637 147.328)"/>
</clipPath>
<clipPath id="clip1_10093_703">
<rect width="3.83429" height="3.83429" fill="white" transform="translate(242.586 147.328)"/>
</clipPath>
<clipPath id="clip2_10093_703">
<rect width="3.83429" height="3.83429" fill="white" transform="translate(273.92 147.328)"/>
</clipPath>
<clipPath id="clip3_10093_703">
<path d="M178.971 162.491C178.971 161.336 179.908 160.4 181.063 160.4H284.937C286.092 160.4 287.029 161.336 287.029 162.491V250.331C287.029 251.486 286.092 252.423 284.937 252.423H181.063C179.908 252.423 178.971 251.486 178.971 250.331V162.491Z" fill="white"/>
</clipPath>
<clipPath id="clip4_10093_703">
<rect width="98.6457" height="77.6571" fill="white" transform="translate(187.669 160.4)"/>
</clipPath>
<clipPath id="clip5_10093_703">
<rect width="108.406" height="66.2286" fill="white" transform="translate(177.909 162.143)"/>
</clipPath>
<clipPath id="clip6_10093_703">
<rect width="19.7291" height="77.6571" fill="white" transform="translate(187.669 160.4)"/>
</clipPath>
<clipPath id="clip7_10093_703">
<rect width="19.7291" height="77.6571" fill="white" transform="translate(207.398 160.4)"/>
</clipPath>
<clipPath id="clip8_10093_703">
<rect width="19.7291" height="77.6571" fill="white" transform="translate(227.127 160.4)"/>
</clipPath>
<clipPath id="clip9_10093_703">
<path d="M246.856 162.491C246.856 161.336 247.792 160.4 248.947 160.4H264.494C265.649 160.4 266.585 161.336 266.585 162.491V235.965C266.585 237.12 265.649 238.057 264.494 238.057H248.947C247.792 238.057 246.856 237.12 246.856 235.965V162.491Z" fill="white"/>
</clipPath>
<clipPath id="clip10_10093_703">
<path d="M255.021 177.928C255.021 177.543 255.333 177.231 255.718 177.231H257.81C258.195 177.231 258.507 177.543 258.507 177.928V186.294H255.021V177.928Z" fill="white"/>
</clipPath>
<clipPath id="clip11_10093_703">
<path d="M258.507 225.508C258.507 225.893 258.195 226.205 257.81 226.205H255.718C255.333 226.205 255.021 225.893 255.021 225.508V217.143H258.507V225.508Z" fill="white"/>
</clipPath>
<clipPath id="clip12_10093_703">
<path d="M266.585 162.491C266.585 161.336 267.522 160.4 268.677 160.4H284.223C285.378 160.4 286.314 161.336 286.314 162.491V235.965C286.314 237.12 285.378 238.057 284.223 238.057H268.677C267.522 238.057 266.585 237.12 266.585 235.965V162.491Z" fill="white"/>
</clipPath>
<clipPath id="clip13_10093_703">
<path d="M274.75 181.937C274.75 181.552 275.063 181.24 275.448 181.24H277.539C277.924 181.24 278.236 181.552 278.236 181.937V190.303H274.75V181.937Z" fill="white"/>
</clipPath>
<clipPath id="clip14_10093_703">
<path d="M278.236 217.84C278.236 218.225 277.924 218.537 277.539 218.537H275.448C275.063 218.537 274.75 218.225 274.75 217.84V209.474H278.236V217.84Z" fill="white"/>
</clipPath>
<clipPath id="clip15_10093_703">
<path d="M243.774 248.028C243.774 247.258 244.399 246.634 245.169 246.634C245.939 246.634 246.563 247.258 246.563 248.028C246.563 248.798 245.939 249.422 245.169 249.422C244.399 249.422 243.774 248.798 243.774 248.028Z" fill="white"/>
</clipPath>
<clipPath id="clip16_10093_703">
<path d="M241.683 242.8C241.683 242.415 241.995 242.103 242.38 242.103H247.957C248.342 242.103 248.654 242.415 248.654 242.8V253.954H241.683V242.8Z" fill="white"/>
</clipPath>
</defs>
</svg>
