<svg width="334" height="222" viewBox="0 0 334 222" fill="none" xmlns="http://www.w3.org/2000/svg">
<g filter="url(#filter0_d_9916_27602)">
<rect x="1.66675" y="1" width="330.667" height="220" rx="12" fill="white"/>
<path d="M141.197 190.413C122.289 184.269 106.193 171.58 95.8045 154.629C85.4164 137.677 81.4179 117.575 84.528 97.9377C87.6382 78.3009 97.653 60.4182 112.771 47.5061C127.889 34.594 147.118 27.5 167 27.5V111L141.197 190.413Z" fill="#47999E"/>
<path d="M240.726 150.201C231.604 167.357 216.784 180.795 198.819 188.2C180.855 195.604 160.87 196.512 142.308 190.766L167 111L240.726 150.201Z" fill="#C2D6D3"/>
<path d="M248.36 129.783C246.784 136.608 244.356 143.208 241.133 149.427L167 111L248.36 129.783Z" fill="#E1EBEA"/>
<path d="M250.471 113.186C250.334 118.434 249.702 123.658 248.583 128.788L167 111L250.471 113.186Z" fill="#E1EBEA"/>
<path d="M249.963 101.548C250.359 105.024 250.537 108.522 250.494 112.02L167 111L249.963 101.548Z" fill="#204C47"/>
<path d="M240.031 70.5184C245.133 79.723 248.449 89.8091 249.805 100.246L167 111L240.031 70.5184Z" fill="#DAB3E6"/>
<path d="M168.457 27.5127C182.964 27.7659 197.155 31.7948 209.63 39.2023C222.106 46.6098 232.436 57.1403 239.603 69.7558L167 111L168.457 27.5127Z" fill="#8A1D96"/>
<rect x="95" y="39" width="143.143" height="143.143" rx="71.5714" fill="white"/>
<path d="M149.239 93.3561V91.7093H157.891V93.3561H154.54V102.553H152.591V93.3561H149.239ZM161.843 102.712C161.049 102.712 160.36 102.538 159.778 102.188C159.195 101.839 158.744 101.35 158.422 100.721C158.105 100.093 157.946 99.3588 157.946 98.5187C157.946 97.6785 158.105 96.9425 158.422 96.3107C158.744 95.6788 159.195 95.1881 159.778 94.8387C160.36 94.4892 161.049 94.3145 161.843 94.3145C162.637 94.3145 163.325 94.4892 163.908 94.8387C164.49 95.1881 164.94 95.6788 165.258 96.3107C165.579 96.9425 165.74 97.6785 165.74 98.5187C165.74 99.3588 165.579 100.093 165.258 100.721C164.94 101.35 164.49 101.839 163.908 102.188C163.325 102.538 162.637 102.712 161.843 102.712ZM161.853 101.177C162.284 101.177 162.644 101.059 162.934 100.822C163.223 100.582 163.438 100.261 163.58 99.8583C163.724 99.4559 163.797 99.0076 163.797 98.5134C163.797 98.0157 163.724 97.5656 163.58 97.1632C163.438 96.7572 163.223 96.4342 162.934 96.1942C162.644 95.9541 162.284 95.8341 161.853 95.8341C161.412 95.8341 161.045 95.9541 160.752 96.1942C160.463 96.4342 160.246 96.7572 160.101 97.1632C159.96 97.5656 159.889 98.0157 159.889 98.5134C159.889 99.0076 159.96 99.4559 160.101 99.8583C160.246 100.261 160.463 100.582 160.752 100.822C161.045 101.059 161.412 101.177 161.853 101.177ZM171.428 94.4204V95.9029H166.753V94.4204H171.428ZM167.907 92.4718H169.824V100.107C169.824 100.365 169.863 100.563 169.94 100.7C170.021 100.834 170.127 100.926 170.258 100.976C170.389 101.025 170.533 101.05 170.692 101.05C170.812 101.05 170.922 101.041 171.02 101.023C171.123 101.006 171.2 100.99 171.253 100.976L171.576 102.474C171.474 102.509 171.328 102.548 171.137 102.591C170.95 102.633 170.72 102.658 170.449 102.665C169.968 102.679 169.536 102.606 169.151 102.448C168.767 102.285 168.461 102.035 168.235 101.696C168.013 101.357 167.903 100.933 167.907 100.425V92.4718ZM175.372 102.718C174.856 102.718 174.392 102.626 173.979 102.442C173.57 102.255 173.245 101.98 173.005 101.616C172.768 101.253 172.65 100.804 172.65 100.271C172.65 99.8124 172.735 99.4329 172.904 99.1329C173.074 98.8328 173.305 98.5928 173.598 98.4128C173.891 98.2327 174.221 98.0968 174.588 98.0051C174.959 97.9098 175.342 97.8409 175.737 97.7986C176.213 97.7491 176.6 97.705 176.897 97.6662C177.193 97.6238 177.408 97.5603 177.543 97.4756C177.68 97.3873 177.749 97.2514 177.749 97.0678V97.0361C177.749 96.6372 177.631 96.3283 177.394 96.1095C177.158 95.8906 176.817 95.7812 176.372 95.7812C175.903 95.7812 175.53 95.8835 175.255 96.0883C174.983 96.293 174.8 96.5348 174.704 96.8137L172.915 96.5595C173.056 96.0653 173.289 95.6523 173.614 95.3205C173.938 94.9851 174.336 94.7345 174.805 94.5686C175.274 94.3992 175.793 94.3145 176.362 94.3145C176.754 94.3145 177.144 94.3603 177.532 94.4521C177.92 94.5439 178.275 94.6957 178.596 94.9075C178.917 95.1158 179.175 95.3999 179.369 95.76C179.567 96.12 179.666 96.5701 179.666 97.1102V102.553H177.823V101.436H177.76C177.643 101.662 177.479 101.874 177.267 102.072C177.059 102.266 176.796 102.423 176.478 102.543C176.164 102.659 175.795 102.718 175.372 102.718ZM175.869 101.309C176.254 101.309 176.588 101.233 176.87 101.081C177.152 100.926 177.37 100.721 177.521 100.467C177.677 100.213 177.754 99.936 177.754 99.6359V98.6775C177.694 98.7269 177.592 98.7728 177.447 98.8152C177.306 98.8576 177.147 98.8946 176.971 98.9264C176.794 98.9582 176.619 98.9864 176.446 99.0111C176.273 99.0358 176.123 99.057 175.996 99.0747C175.71 99.1135 175.455 99.177 175.229 99.2653C175.003 99.3535 174.824 99.4771 174.694 99.6359C174.563 99.7912 174.498 99.9925 174.498 100.24C174.498 100.593 174.627 100.859 174.884 101.039C175.142 101.219 175.47 101.309 175.869 101.309ZM183.51 91.7093V102.553H181.593V91.7093H183.51Z" fill="#60606C"/>
<path d="M126.182 129.216V112.949H127.224V129.216H126.182ZM128.946 118.319C128.895 117.806 128.677 117.408 128.292 117.124C127.906 116.84 127.383 116.698 126.722 116.698C126.273 116.698 125.894 116.762 125.585 116.889C125.276 117.012 125.038 117.183 124.873 117.404C124.712 117.624 124.632 117.874 124.632 118.153C124.623 118.386 124.672 118.59 124.778 118.763C124.888 118.937 125.038 119.087 125.229 119.215C125.42 119.337 125.64 119.445 125.89 119.539C126.14 119.628 126.407 119.704 126.69 119.767L127.86 120.047C128.427 120.174 128.948 120.343 129.423 120.555C129.897 120.767 130.308 121.028 130.655 121.337C131.003 121.646 131.272 122.01 131.462 122.43C131.657 122.849 131.757 123.33 131.761 123.872C131.757 124.668 131.553 125.359 131.151 125.943C130.753 126.524 130.177 126.975 129.423 127.297C128.673 127.615 127.769 127.773 126.71 127.773C125.659 127.773 124.744 127.612 123.965 127.29C123.189 126.969 122.584 126.492 122.147 125.861C121.715 125.225 121.489 124.44 121.467 123.503H124.13C124.159 123.94 124.284 124.304 124.505 124.596C124.729 124.884 125.028 125.103 125.401 125.251C125.778 125.395 126.203 125.467 126.678 125.467C127.144 125.467 127.548 125.399 127.891 125.264C128.239 125.128 128.508 124.939 128.698 124.698C128.889 124.457 128.984 124.179 128.984 123.866C128.984 123.573 128.897 123.328 128.724 123.129C128.554 122.93 128.304 122.76 127.974 122.62C127.648 122.48 127.247 122.353 126.773 122.239L125.356 121.883C124.259 121.616 123.393 121.199 122.757 120.631C122.122 120.064 121.806 119.299 121.811 118.338C121.806 117.55 122.016 116.861 122.44 116.273C122.867 115.684 123.454 115.224 124.2 114.894C124.945 114.563 125.792 114.398 126.741 114.398C127.707 114.398 128.55 114.563 129.27 114.894C129.995 115.224 130.558 115.684 130.96 116.273C131.363 116.861 131.57 117.543 131.583 118.319H128.946ZM138.288 127.767C137.39 127.767 136.589 127.602 135.886 127.271C135.187 126.941 134.632 126.486 134.222 125.905C133.811 125.325 133.597 124.66 133.58 123.91H136.248C136.278 124.414 136.49 124.823 136.884 125.136C137.278 125.45 137.746 125.607 138.288 125.607C138.72 125.607 139.101 125.511 139.432 125.321C139.766 125.126 140.027 124.857 140.213 124.514C140.404 124.166 140.499 123.768 140.499 123.319C140.499 122.862 140.402 122.459 140.207 122.112C140.016 121.765 139.752 121.494 139.413 121.299C139.074 121.104 138.686 121.004 138.25 121C137.869 121 137.498 121.078 137.138 121.235C136.782 121.392 136.505 121.606 136.306 121.877L133.859 121.438L134.476 114.576H142.431V116.825H136.744L136.407 120.085H136.484C136.712 119.763 137.058 119.496 137.519 119.284C137.981 119.073 138.498 118.967 139.07 118.967C139.853 118.967 140.552 119.151 141.166 119.52C141.781 119.888 142.266 120.394 142.622 121.038C142.977 121.678 143.153 122.415 143.149 123.249C143.153 124.126 142.95 124.906 142.539 125.588C142.132 126.265 141.563 126.799 140.83 127.189C140.101 127.574 139.254 127.767 138.288 127.767ZM147.616 125.81L147.546 126.509C147.491 127.068 147.385 127.625 147.228 128.18C147.076 128.739 146.915 129.245 146.745 129.699C146.58 130.152 146.447 130.508 146.345 130.766H144.591C144.655 130.516 144.742 130.167 144.852 129.718C144.962 129.273 145.066 128.773 145.163 128.218C145.261 127.663 145.322 127.098 145.347 126.522L145.379 125.81H147.616ZM149.868 125.302V123.135L155.301 114.576H157.169V117.575H156.063L152.639 122.995V123.097H160.359V125.302H149.868ZM156.114 127.589V124.641L156.165 123.681V114.576H158.745V127.589H156.114ZM166.945 127.767C166.047 127.767 165.246 127.602 164.543 127.271C163.844 126.941 163.289 126.486 162.878 125.905C162.467 125.325 162.253 124.66 162.236 123.91H164.905C164.935 124.414 165.146 124.823 165.54 125.136C165.934 125.45 166.402 125.607 166.945 125.607C167.377 125.607 167.758 125.511 168.088 125.321C168.423 125.126 168.684 124.857 168.87 124.514C169.061 124.166 169.156 123.768 169.156 123.319C169.156 122.862 169.058 122.459 168.864 122.112C168.673 121.765 168.408 121.494 168.069 121.299C167.73 121.104 167.343 121.004 166.907 121C166.525 121 166.155 121.078 165.795 121.235C165.439 121.392 165.161 121.606 164.962 121.877L162.516 121.438L163.132 114.576H171.087V116.825H165.401L165.064 120.085H165.14C165.369 119.763 165.714 119.496 166.176 119.284C166.638 119.073 167.154 118.967 167.726 118.967C168.51 118.967 169.209 119.151 169.823 119.52C170.437 119.888 170.922 120.394 171.278 121.038C171.634 121.678 171.81 122.415 171.805 123.249C171.81 124.126 171.606 124.906 171.195 125.588C170.789 126.265 170.219 126.799 169.486 127.189C168.758 127.574 167.91 127.767 166.945 127.767ZM178.719 127.767C178.049 127.763 177.403 127.651 176.781 127.43C176.162 127.21 175.607 126.852 175.116 126.356C174.624 125.861 174.235 125.204 173.947 124.387C173.663 123.569 173.521 122.565 173.521 121.375C173.525 120.282 173.65 119.306 173.896 118.446C174.146 117.582 174.502 116.849 174.963 116.247C175.429 115.646 175.986 115.188 176.634 114.875C177.283 114.557 178.009 114.398 178.814 114.398C179.682 114.398 180.449 114.568 181.114 114.907C181.779 115.241 182.313 115.697 182.715 116.273C183.122 116.849 183.368 117.495 183.452 118.211H180.739C180.633 117.757 180.411 117.402 180.072 117.143C179.733 116.885 179.314 116.756 178.814 116.756C177.967 116.756 177.323 117.124 176.882 117.861C176.446 118.598 176.224 119.6 176.215 120.867H176.304C176.499 120.481 176.762 120.153 177.092 119.882C177.427 119.606 177.806 119.397 178.229 119.253C178.657 119.104 179.108 119.03 179.583 119.03C180.354 119.03 181.04 119.212 181.641 119.577C182.243 119.937 182.717 120.432 183.065 121.064C183.412 121.695 183.586 122.417 183.586 123.23C183.586 124.111 183.38 124.895 182.969 125.581C182.563 126.267 181.993 126.805 181.26 127.195C180.532 127.581 179.684 127.771 178.719 127.767ZM178.706 125.607C179.129 125.607 179.509 125.505 179.843 125.302C180.178 125.098 180.441 124.823 180.631 124.476C180.822 124.128 180.917 123.739 180.917 123.307C180.917 122.874 180.822 122.487 180.631 122.144C180.445 121.801 180.186 121.527 179.856 121.324C179.526 121.121 179.149 121.019 178.725 121.019C178.407 121.019 178.113 121.078 177.842 121.197C177.575 121.316 177.34 121.481 177.136 121.693C176.937 121.904 176.781 122.15 176.666 122.43C176.552 122.705 176.495 122.999 176.495 123.313C176.495 123.732 176.59 124.116 176.781 124.463C176.975 124.81 177.238 125.088 177.569 125.295C177.903 125.503 178.282 125.607 178.706 125.607ZM186.602 127.754C186.183 127.754 185.823 127.606 185.522 127.31C185.226 127.009 185.077 126.649 185.077 126.229C185.077 125.814 185.226 125.458 185.522 125.162C185.823 124.865 186.183 124.717 186.602 124.717C187.009 124.717 187.365 124.865 187.67 125.162C187.975 125.458 188.127 125.814 188.127 126.229C188.127 126.509 188.055 126.765 187.911 126.998C187.771 127.227 187.587 127.411 187.358 127.551C187.13 127.687 186.878 127.754 186.602 127.754ZM190.324 127.589V125.607L194.956 121.318C195.35 120.936 195.681 120.593 195.947 120.288C196.219 119.983 196.424 119.685 196.564 119.392C196.704 119.096 196.773 118.776 196.773 118.433C196.773 118.052 196.687 117.723 196.513 117.448C196.339 117.169 196.102 116.955 195.801 116.806C195.501 116.654 195.16 116.578 194.778 116.578C194.38 116.578 194.033 116.658 193.736 116.819C193.44 116.98 193.211 117.211 193.05 117.512C192.889 117.812 192.809 118.17 192.809 118.585H190.197C190.197 117.734 190.39 116.995 190.775 116.368C191.161 115.741 191.701 115.256 192.396 114.913C193.09 114.57 193.891 114.398 194.797 114.398C195.729 114.398 196.54 114.563 197.231 114.894C197.926 115.22 198.466 115.673 198.851 116.254C199.237 116.834 199.429 117.499 199.429 118.249C199.429 118.74 199.332 119.225 199.137 119.704C198.947 120.182 198.606 120.714 198.114 121.299C197.623 121.879 196.93 122.576 196.036 123.389L194.137 125.251V125.34H199.601V127.589H190.324ZM201.118 125.302V123.135L206.551 114.576H208.419V117.575H207.313L203.888 122.995V123.097H211.608V125.302H201.118ZM207.364 127.589V124.641L207.415 123.681V114.576H209.995V127.589H207.364Z" fill="#131316"/>
</g>
<defs>
<filter id="filter0_d_9916_27602" x="0.666748" y="0" width="332.667" height="222" filterUnits="userSpaceOnUse" color-interpolation-filters="sRGB">
<feFlood flood-opacity="0" result="BackgroundImageFix"/>
<feColorMatrix in="SourceAlpha" type="matrix" values="0 0 0 0 0 0 0 0 0 0 0 0 0 0 0 0 0 0 127 0" result="hardAlpha"/>
<feMorphology radius="1" operator="dilate" in="SourceAlpha" result="effect1_dropShadow_9916_27602"/>
<feOffset/>
<feComposite in2="hardAlpha" operator="out"/>
<feColorMatrix type="matrix" values="0 0 0 0 0.0666667 0 0 0 0 0.0666667 0 0 0 0 0.0666667 0 0 0 0.04 0"/>
<feBlend mode="normal" in2="BackgroundImageFix" result="effect1_dropShadow_9916_27602"/>
<feBlend mode="normal" in="SourceGraphic" in2="effect1_dropShadow_9916_27602" result="shape"/>
</filter>
</defs>
</svg>
