<svg width="480" height="803" viewBox="0 0 480 803" fill="none" xmlns="http://www.w3.org/2000/svg">
<g clip-path="url(#clip0_1579_5090)">
<rect width="480" height="803" rx="24" fill="white"/>
<rect x="16" y="16" width="448" height="91" rx="16" fill="#FAF8F7"/>
<path d="M41.5554 49V34.4545H46.8111C47.9332 34.4545 48.8684 34.6487 49.6165 35.0369C50.3693 35.4252 50.9328 35.965 51.3068 36.6562C51.6809 37.3428 51.8679 38.1359 51.8679 39.0355C51.8679 39.9399 51.6785 40.7306 51.2997 41.4077C50.9209 42.08 50.3551 42.6032 49.6023 42.9773C48.8542 43.3513 47.919 43.5384 46.7969 43.5384H42.8764V41.5781H46.5554C47.2562 41.5781 47.8243 41.4787 48.2599 41.2798C48.7003 41.081 49.0223 40.7921 49.2259 40.4134C49.4342 40.0346 49.5384 39.5753 49.5384 39.0355C49.5384 38.4957 49.4342 38.0294 49.2259 37.6364C49.0175 37.2434 48.6932 36.9427 48.2528 36.7344C47.8125 36.5213 47.2396 36.4148 46.5341 36.4148H43.8636V49H41.5554ZM48.821 42.4304L52.4148 49H49.8082L46.2784 42.4304H48.821ZM58.8293 49.2202C57.7498 49.2202 56.8194 48.9905 56.0381 48.5312C55.2616 48.0672 54.6627 47.4162 54.2413 46.5781C53.8199 45.7353 53.6092 44.7481 53.6092 43.6165C53.6092 42.4943 53.8199 41.5095 54.2413 40.6619C54.6627 39.8097 55.2522 39.1444 56.0097 38.6662C56.772 38.188 57.6622 37.9489 58.6802 37.9489C59.3147 37.9489 59.9231 38.053 60.5055 38.2614C61.0879 38.465 61.6087 38.7869 62.068 39.2273C62.5272 39.6629 62.8895 40.2287 63.1546 40.9247C63.4198 41.6207 63.5523 42.4588 63.5523 43.4389V44.1989H54.8094V42.5724H61.3719C61.3719 42.0327 61.2607 41.5521 61.0381 41.1307C60.8156 40.7093 60.5031 40.3778 60.1006 40.1364C59.7029 39.8902 59.2365 39.767 58.7015 39.767C58.1238 39.767 57.6196 39.9067 57.1887 40.1861C56.7578 40.4654 56.424 40.8324 56.1873 41.2869C55.9553 41.7415 55.8369 42.2339 55.8322 42.7642V44.071C55.8322 44.7765 55.9576 45.3778 56.2086 45.875C56.4595 46.3722 56.8099 46.7509 57.2597 47.0114C57.7143 47.2718 58.2446 47.402 58.8506 47.402C59.2484 47.402 59.6082 47.3452 59.9302 47.2315C60.2569 47.1179 60.5386 46.9498 60.7754 46.7273C61.0121 46.5 61.192 46.2183 61.3151 45.8821L63.4245 46.223C63.2683 46.8243 62.9818 47.3499 62.5651 47.7997C62.1485 48.2495 61.6229 48.5999 60.9884 48.8509C60.354 49.0971 59.6343 49.2202 58.8293 49.2202ZM74.8959 38.0909L70.9541 49H68.5393L64.5976 38.0909H66.9911L69.6899 46.4148H69.8036L72.5024 38.0909H74.8959ZM81.1098 49.2202C80.0303 49.2202 79.0999 48.9905 78.3186 48.5312C77.5421 48.0672 76.9431 47.4162 76.5217 46.5781C76.1003 45.7353 75.8896 44.7481 75.8896 43.6165C75.8896 42.4943 76.1003 41.5095 76.5217 40.6619C76.9431 39.8097 77.5326 39.1444 78.2902 38.6662C79.0525 38.188 79.9427 37.9489 80.9607 37.9489C81.5951 37.9489 82.2036 38.053 82.7859 38.2614C83.3683 38.465 83.8892 38.7869 84.3484 39.2273C84.8077 39.6629 85.1699 40.2287 85.4351 40.9247C85.7002 41.6207 85.8328 42.4588 85.8328 43.4389V44.1989H77.0899V42.5724H83.6524C83.6524 42.0327 83.5411 41.5521 83.3186 41.1307C83.0961 40.7093 82.7836 40.3778 82.3811 40.1364C81.9834 39.8902 81.517 39.767 80.982 39.767C80.4043 39.767 79.9 39.9067 79.4692 40.1861C79.0383 40.4654 78.7045 40.8324 78.4678 41.2869C78.2357 41.7415 78.1174 42.2339 78.1126 42.7642V44.071C78.1126 44.7765 78.2381 45.3778 78.4891 45.875C78.74 46.3722 79.0904 46.7509 79.5402 47.0114C79.9947 47.2718 80.525 47.402 81.1311 47.402C81.5288 47.402 81.8887 47.3452 82.2107 47.2315C82.5374 47.1179 82.8191 46.9498 83.0558 46.7273C83.2926 46.5 83.4725 46.2183 83.5956 45.8821L85.705 46.223C85.5487 46.8243 85.2623 47.3499 84.8456 47.7997C84.4289 48.2495 83.9034 48.5999 83.2689 48.8509C82.6344 49.0971 81.9147 49.2202 81.1098 49.2202ZM90.2871 42.544V49H88.0499V38.0909H90.1948V39.8878H90.3298C90.5807 39.3007 90.9761 38.8319 91.5158 38.4815C92.0556 38.1264 92.7351 37.9489 93.5542 37.9489C94.3023 37.9489 94.9557 38.1051 95.5144 38.4176C96.0731 38.7301 96.5064 39.1918 96.8141 39.8026C97.1219 40.4134 97.2758 41.1662 97.2758 42.0611V49H95.0386V42.3523C95.0386 41.5758 94.8373 40.9697 94.4349 40.5341C94.0324 40.0937 93.4784 39.8736 92.7729 39.8736C92.29 39.8736 91.8615 39.9777 91.4874 40.1861C91.1134 40.3944 90.8198 40.6974 90.6067 41.0952C90.3937 41.4929 90.2871 41.9759 90.2871 42.544ZM106.886 44.4616V38.0909H109.124V49H106.936V47.0966H106.822C106.571 47.6837 106.169 48.1714 105.615 48.5597C105.066 48.9479 104.379 49.142 103.555 49.142C102.855 49.142 102.234 48.9858 101.695 48.6733C101.155 48.3608 100.731 47.8991 100.423 47.2884C100.116 46.6776 99.9616 45.9247 99.9616 45.0298V38.0909H102.199V44.7386C102.199 45.4678 102.4 46.0502 102.803 46.4858C103.21 46.9167 103.735 47.1321 104.379 47.1321C104.772 47.1321 105.161 47.035 105.544 46.8409C105.932 46.6468 106.252 46.3532 106.503 45.9602C106.759 45.5625 106.886 45.063 106.886 44.4616ZM116.552 49.2202C115.472 49.2202 114.542 48.9905 113.761 48.5312C112.984 48.0672 112.385 47.4162 111.964 46.5781C111.543 45.7353 111.332 44.7481 111.332 43.6165C111.332 42.4943 111.543 41.5095 111.964 40.6619C112.385 39.8097 112.975 39.1444 113.732 38.6662C114.495 38.188 115.385 37.9489 116.403 37.9489C117.037 37.9489 117.646 38.053 118.228 38.2614C118.811 38.465 119.331 38.7869 119.791 39.2273C120.25 39.6629 120.612 40.2287 120.877 40.9247C121.142 41.6207 121.275 42.4588 121.275 43.4389V44.1989H112.532V42.5724H119.095C119.095 42.0327 118.983 41.5521 118.761 41.1307C118.538 40.7093 118.226 40.3778 117.823 40.1364C117.426 39.8902 116.959 39.767 116.424 39.767C115.846 39.767 115.342 39.9067 114.911 40.1861C114.48 40.4654 114.147 40.8324 113.91 41.2869C113.678 41.7415 113.56 42.2339 113.555 42.7642V44.071C113.555 44.7765 113.68 45.3778 113.931 45.875C114.182 46.3722 114.533 46.7509 114.982 47.0114C115.437 47.2718 115.967 47.402 116.573 47.402C116.971 47.402 117.331 47.3452 117.653 47.2315C117.98 47.1179 118.261 46.9498 118.498 46.7273C118.735 46.5 118.915 46.2183 119.038 45.8821L121.147 46.223C120.991 46.8243 120.704 47.3499 120.288 47.7997C119.871 48.2495 119.346 48.5999 118.711 48.8509C118.077 49.0971 117.357 49.2202 116.552 49.2202Z" fill="#525252"/>
<path d="M48.3324 88.5455V63.0909H49.9631V88.5455H48.3324ZM53.1548 71.1648C53.062 70.2699 52.6577 69.5772 51.9418 69.0866C51.2325 68.5895 50.321 68.3409 49.2074 68.3409C48.4186 68.3409 47.7391 68.4602 47.169 68.6989C46.6056 68.9375 46.1681 69.2656 45.8565 69.6832C45.5516 70.1009 45.3991 70.5748 45.3991 71.1051C45.3925 71.5426 45.492 71.9238 45.6974 72.2486C45.9096 72.5734 46.188 72.8452 46.5327 73.0639C46.884 73.2827 47.2685 73.4683 47.6861 73.6207C48.1037 73.7732 48.518 73.8991 48.929 73.9986L50.8679 74.4858C51.5971 74.6581 52.313 74.8935 53.0156 75.1918C53.7249 75.4834 54.3613 75.858 54.9247 76.3153C55.4948 76.7727 55.9489 77.3295 56.2869 77.9858C56.6316 78.642 56.804 79.4176 56.804 80.3125C56.804 81.4924 56.5024 82.5331 55.8991 83.4347C55.2959 84.3362 54.4209 85.0421 53.2741 85.5526C52.134 86.063 50.7552 86.3182 49.1378 86.3182C47.5734 86.3182 46.2145 86.0729 45.0611 85.5824C43.9143 85.0919 43.0161 84.3859 42.3665 83.4645C41.7235 82.5365 41.3755 81.4162 41.3224 80.1037H44.7827C44.8423 80.8196 45.0677 81.4162 45.4588 81.8935C45.8565 82.3641 46.3703 82.7187 47 82.9574C47.6364 83.1894 48.339 83.3054 49.108 83.3054C49.9299 83.3054 50.6558 83.1795 51.2855 82.9276C51.9152 82.6757 52.4091 82.3243 52.767 81.8736C53.1316 81.4162 53.3139 80.8859 53.3139 80.2827C53.3139 79.7325 53.1548 79.2784 52.8366 78.9205C52.5185 78.5559 52.081 78.2543 51.5241 78.0156C50.9673 77.777 50.3243 77.5649 49.5952 77.3793L47.2486 76.7528C45.5848 76.322 44.2689 75.669 43.3011 74.794C42.34 73.919 41.8594 72.759 41.8594 71.3139C41.8594 70.1207 42.1809 69.08 42.8239 68.1918C43.4735 67.2969 44.3551 66.6009 45.4688 66.1037C46.589 65.6065 47.8518 65.358 49.2571 65.358C50.6823 65.358 51.9351 65.6065 53.0156 66.1037C54.0961 66.5942 54.9446 67.277 55.5611 68.152C56.1842 69.027 56.5057 70.0312 56.5256 71.1648H53.1548ZM67.9619 65.6364V86H64.452V69.0767H64.3327L59.54 72.1591V68.9077L64.6011 65.6364H67.9619ZM80.4945 86.3778C78.8771 86.3712 77.4917 85.9536 76.3383 85.125C75.1848 84.2964 74.2999 83.0966 73.6834 81.5256C73.0736 79.9479 72.7686 78.0488 72.7686 75.8281C72.7686 73.6141 73.0769 71.7282 73.6934 70.1705C74.3098 68.6061 75.1948 67.4129 76.3482 66.5909C77.5082 65.7689 78.8903 65.358 80.4945 65.358C82.1053 65.358 83.4874 65.7689 84.6408 66.5909C85.8008 67.4129 86.6891 68.6061 87.3056 70.1705C87.9221 71.7348 88.2303 73.6207 88.2303 75.8281C88.2303 78.0554 87.9221 79.9579 87.3056 81.5355C86.6891 83.1065 85.8042 84.3063 84.6508 85.1349C83.4973 85.9635 82.1119 86.3778 80.4945 86.3778ZM80.4945 83.4048C81.8004 83.4048 82.8278 82.7618 83.5769 81.4759C84.3326 80.1899 84.7071 78.3073 84.7005 75.8281C84.7005 74.1908 84.5281 72.812 84.1834 71.6918C83.8454 70.5715 83.3615 69.7263 82.7317 69.1562C82.1086 68.5795 81.3629 68.2912 80.4945 68.2912C79.2019 68.2912 78.1777 68.9342 77.4221 70.2202C76.673 71.5062 76.2952 73.3755 76.2885 75.8281C76.2885 77.4787 76.4576 78.8674 76.7956 79.9943C77.1337 81.1212 77.6176 81.973 78.2473 82.5497C78.8771 83.1198 79.6261 83.4048 80.4945 83.4048ZM94.8691 83.2159L94.7299 84.2997C94.6371 85.1283 94.4713 85.9735 94.2327 86.8352C94.0007 87.7036 93.7554 88.5024 93.4969 89.2315C93.245 89.9673 93.0395 90.5473 92.8804 90.9716H90.5438C90.6366 90.5672 90.7625 90.0137 90.9216 89.3111C91.0807 88.6151 91.2332 87.8329 91.379 86.9645C91.5315 86.1027 91.6375 85.2244 91.6972 84.3295L91.7767 83.2159H94.8691ZM98.766 86V83.4645L105.786 76.4744C106.475 75.7652 107.049 75.1387 107.506 74.5952C107.97 74.045 108.318 73.518 108.55 73.0142C108.782 72.5038 108.898 71.9602 108.898 71.3835C108.898 70.7339 108.746 70.1738 108.441 69.7031C108.142 69.2325 107.731 68.8679 107.208 68.6094C106.684 68.3509 106.094 68.2216 105.438 68.2216C104.748 68.2216 104.145 68.3641 103.628 68.6491C103.118 68.9276 102.72 69.3253 102.435 69.8423C102.157 70.3594 102.017 70.9692 102.017 71.6719H98.6864C98.6864 70.3991 98.9748 69.2888 99.5515 68.3409C100.135 67.393 100.94 66.6605 101.968 66.1435C102.995 65.6198 104.168 65.358 105.488 65.358C106.833 65.358 108.013 65.6132 109.027 66.1236C110.042 66.634 110.83 67.3333 111.394 68.2216C111.964 69.1032 112.249 70.1042 112.249 71.2244C112.249 71.9801 112.103 72.7259 111.811 73.4616C111.526 74.1974 111.023 75.0128 110.3 75.9077C109.584 76.7959 108.577 77.8731 107.277 79.1392L103.608 82.9077V83.0568H112.557V86H98.766ZM123.36 86.3778C121.742 86.3712 120.357 85.9536 119.203 85.125C118.05 84.2964 117.165 83.0966 116.549 81.5256C115.939 79.9479 115.634 78.0488 115.634 75.8281C115.634 73.6141 115.942 71.7282 116.559 70.1705C117.175 68.6061 118.06 67.4129 119.213 66.5909C120.373 65.7689 121.755 65.358 123.36 65.358C124.97 65.358 126.353 65.7689 127.506 66.5909C128.666 67.4129 129.554 68.6061 130.171 70.1705C130.787 71.7348 131.095 73.6207 131.095 75.8281C131.095 78.0554 130.787 79.9579 130.171 81.5355C129.554 83.1065 128.669 84.3063 127.516 85.1349C126.363 85.9635 124.977 86.3778 123.36 86.3778ZM123.36 83.4048C124.666 83.4048 125.693 82.7618 126.442 81.4759C127.198 80.1899 127.572 78.3073 127.566 75.8281C127.566 74.1908 127.393 72.812 127.049 71.6918C126.711 70.5715 126.227 69.7263 125.597 69.1562C124.974 68.5795 124.228 68.2912 123.36 68.2912C122.067 68.2912 121.043 68.9342 120.287 70.2202C119.538 71.5062 119.16 73.3755 119.154 75.8281C119.154 77.4787 119.323 78.8674 119.661 79.9943C119.999 81.1212 120.483 81.973 121.113 82.5497C121.742 83.1198 122.491 83.4048 123.36 83.4048ZM141.692 86.2784C140.737 86.2718 139.802 86.1061 138.888 85.7812C137.979 85.4498 137.158 84.9062 136.422 84.1506C135.686 83.3949 135.099 82.3873 134.662 81.1278C134.231 79.8617 134.015 78.294 134.015 76.4247C134.022 74.6747 134.208 73.117 134.572 71.7514C134.937 70.3793 135.464 69.2192 136.153 68.2713C136.843 67.3234 137.671 66.6009 138.639 66.1037C139.613 65.6065 140.704 65.358 141.91 65.358C143.176 65.358 144.297 65.6065 145.271 66.1037C146.246 66.6009 147.034 67.2803 147.638 68.142C148.241 69.0038 148.619 69.9782 148.771 71.0653H145.311C145.119 70.2633 144.731 69.6203 144.148 69.1364C143.564 68.6458 142.819 68.4006 141.91 68.4006C140.479 68.4006 139.372 69.0237 138.589 70.2699C137.807 71.5161 137.413 73.2363 137.406 75.4304H137.555C137.887 74.8471 138.311 74.3499 138.828 73.9389C139.345 73.5213 139.925 73.1998 140.568 72.9744C141.218 72.7491 141.904 72.6364 142.626 72.6364C143.819 72.6364 144.89 72.9247 145.838 73.5014C146.792 74.0715 147.551 74.857 148.115 75.858C148.678 76.8523 148.957 77.9957 148.95 79.2884C148.957 80.6141 148.655 81.8073 148.045 82.8679C147.435 83.9285 146.587 84.7637 145.5 85.3736C144.413 85.9834 143.143 86.285 141.692 86.2784ZM141.682 83.4148C142.417 83.4148 143.077 83.2358 143.66 82.8778C144.25 82.5133 144.714 82.026 145.052 81.4162C145.39 80.7997 145.556 80.1136 145.55 79.358C145.556 78.6089 145.394 77.9328 145.062 77.3295C144.731 76.7263 144.277 76.2457 143.7 75.8878C143.123 75.5298 142.467 75.3509 141.731 75.3509C141.175 75.3509 140.658 75.4569 140.18 75.669C139.71 75.8812 139.295 76.1761 138.937 76.554C138.586 76.9252 138.308 77.3527 138.102 77.8366C137.903 78.3205 137.804 78.8343 137.804 79.3778C137.804 80.107 137.97 80.7765 138.301 81.3864C138.639 81.9962 139.1 82.4867 139.683 82.858C140.273 83.2292 140.939 83.4148 141.682 83.4148ZM153.526 86.2088C152.936 86.2088 152.432 86.0033 152.014 85.5923C151.597 85.1747 151.391 84.6709 151.398 84.081C151.391 83.5043 151.597 83.0104 152.014 82.5994C152.432 82.1818 152.936 81.973 153.526 81.973C154.096 81.973 154.59 82.1818 155.007 82.5994C155.431 83.0104 155.647 83.5043 155.654 84.081C155.647 84.4721 155.544 84.83 155.345 85.1548C155.153 85.4796 154.898 85.7382 154.58 85.9304C154.261 86.116 153.91 86.2088 153.526 86.2088ZM159.265 86V83.4645L166.284 76.4744C166.974 75.7652 167.547 75.1387 168.005 74.5952C168.469 74.045 168.817 73.518 169.049 73.0142C169.281 72.5038 169.397 71.9602 169.397 71.3835C169.397 70.7339 169.244 70.1738 168.939 69.7031C168.641 69.2325 168.23 68.8679 167.706 68.6094C167.183 68.3509 166.593 68.2216 165.936 68.2216C165.247 68.2216 164.644 68.3641 164.127 68.6491C163.616 68.9276 163.219 69.3253 162.934 69.8423C162.655 70.3594 162.516 70.9692 162.516 71.6719H159.185C159.185 70.3991 159.473 69.2888 160.05 68.3409C160.633 67.393 161.439 66.6605 162.466 66.1435C163.494 65.6198 164.667 65.358 165.986 65.358C167.332 65.358 168.512 65.6132 169.526 66.1236C170.54 66.634 171.329 67.3333 171.892 68.2216C172.463 69.1032 172.748 70.1042 172.748 71.2244C172.748 71.9801 172.602 72.7259 172.31 73.4616C172.025 74.1974 171.521 75.0128 170.799 75.9077C170.083 76.7959 169.075 77.8731 167.776 79.1392L164.107 82.9077V83.0568H173.056V86H159.265ZM183.858 86.3778C182.241 86.3712 180.855 85.9536 179.702 85.125C178.549 84.2964 177.664 83.0966 177.047 81.5256C176.437 79.9479 176.132 78.0488 176.132 75.8281C176.132 73.6141 176.441 71.7282 177.057 70.1705C177.674 68.6061 178.559 67.4129 179.712 66.5909C180.872 65.7689 182.254 65.358 183.858 65.358C185.469 65.358 186.851 65.7689 188.005 66.5909C189.165 67.4129 190.053 68.6061 190.669 70.1705C191.286 71.7348 191.594 73.6207 191.594 75.8281C191.594 78.0554 191.286 79.9579 190.669 81.5355C190.053 83.1065 189.168 84.3063 188.015 85.1349C186.861 85.9635 185.476 86.3778 183.858 86.3778ZM183.858 83.4048C185.164 83.4048 186.192 82.7618 186.941 81.4759C187.696 80.1899 188.071 78.3073 188.064 75.8281C188.064 74.1908 187.892 72.812 187.547 71.6918C187.209 70.5715 186.725 69.7263 186.095 69.1562C185.472 68.5795 184.727 68.2912 183.858 68.2912C182.566 68.2912 181.541 68.9342 180.786 70.2202C180.037 71.5062 179.659 73.3755 179.652 75.8281C179.652 77.4787 179.821 78.8674 180.159 79.9943C180.497 81.1212 180.981 81.973 181.611 82.5497C182.241 83.1198 182.99 83.4048 183.858 83.4048Z" fill="#191919"/>
<path d="M364 51.5V71.5003M364 51.5L372 59.5001M364 51.5L356 59.5001" stroke="#5BA183" stroke-width="2.40004" stroke-linecap="round" stroke-linejoin="round"/>
<path d="M393.973 51.6364V72H390.463V55.0767H390.344L385.551 58.1591V54.9077L390.612 51.6364H393.973ZM406.506 72.3778C404.888 72.3712 403.503 71.9536 402.35 71.125C401.196 70.2964 400.311 69.0966 399.695 67.5256C399.085 65.9479 398.78 64.0488 398.78 61.8281C398.78 59.6141 399.088 57.7282 399.705 56.1705C400.321 54.6061 401.206 53.4129 402.36 52.5909C403.52 51.7689 404.902 51.358 406.506 51.358C408.117 51.358 409.499 51.7689 410.652 52.5909C411.812 53.4129 412.7 54.6061 413.317 56.1705C413.933 57.7348 414.242 59.6207 414.242 61.8281C414.242 64.0554 413.933 65.9579 413.317 67.5355C412.7 69.1065 411.816 70.3063 410.662 71.1349C409.509 71.9635 408.123 72.3778 406.506 72.3778ZM406.506 69.4048C407.812 69.4048 408.839 68.7618 409.588 67.4759C410.344 66.1899 410.718 64.3073 410.712 61.8281C410.712 60.1908 410.539 58.812 410.195 57.6918C409.857 56.5715 409.373 55.7263 408.743 55.1562C408.12 54.5795 407.374 54.2912 406.506 54.2912C405.213 54.2912 404.189 54.9342 403.433 56.2202C402.684 57.5062 402.307 59.3755 402.3 61.8281C402.3 63.4787 402.469 64.8674 402.807 65.9943C403.145 67.1212 403.629 67.973 404.259 68.5497C404.888 69.1198 405.637 69.4048 406.506 69.4048ZM428.298 68.1818V67.108C428.298 66.3258 428.46 65.6065 428.785 64.9503C429.117 64.294 429.601 63.767 430.237 63.3693C430.873 62.9716 431.646 62.7727 432.554 62.7727C433.482 62.7727 434.261 62.9716 434.89 63.3693C435.52 63.7604 435.997 64.2841 436.322 64.9403C436.647 65.5966 436.809 66.3191 436.809 67.108V68.1818C436.809 68.964 436.644 69.6832 436.312 70.3395C435.987 70.9957 435.507 71.5227 434.87 71.9205C434.241 72.3182 433.468 72.517 432.554 72.517C431.632 72.517 430.853 72.3182 430.217 71.9205C429.587 71.5227 429.11 70.9957 428.785 70.3395C428.46 69.6832 428.298 68.964 428.298 68.1818ZM430.814 67.108V68.1818C430.814 68.7187 430.94 69.2126 431.191 69.6634C431.45 70.1075 431.904 70.3295 432.554 70.3295C433.203 70.3295 433.651 70.1075 433.896 69.6634C434.148 69.2192 434.274 68.7254 434.274 68.1818V67.108C434.274 66.5644 434.155 66.0705 433.916 65.6264C433.677 65.1757 433.223 64.9503 432.554 64.9503C431.917 64.9503 431.467 65.1757 431.201 65.6264C430.943 66.0705 430.814 66.5644 430.814 67.108ZM417.977 56.5284V55.4545C417.977 54.6657 418.143 53.9432 418.474 53.2869C418.806 52.6307 419.289 52.107 419.926 51.7159C420.562 51.3182 421.334 51.1193 422.243 51.1193C423.164 51.1193 423.94 51.3182 424.569 51.7159C425.199 52.107 425.676 52.6307 426.001 53.2869C426.326 53.9432 426.488 54.6657 426.488 55.4545V56.5284C426.488 57.3172 426.323 58.0398 425.991 58.696C425.666 59.3456 425.186 59.8693 424.549 60.267C423.92 60.6581 423.151 60.8537 422.243 60.8537C421.315 60.8537 420.532 60.6581 419.896 60.267C419.266 59.8693 418.789 59.3423 418.464 58.6861C418.139 58.0298 417.977 57.3106 417.977 56.5284ZM420.503 55.4545V56.5284C420.503 57.072 420.629 57.5658 420.88 58.0099C421.139 58.4541 421.593 58.6761 422.243 58.6761C422.886 58.6761 423.333 58.4541 423.585 58.0099C423.837 57.5658 423.963 57.072 423.963 56.5284V55.4545C423.963 54.911 423.84 54.4171 423.595 53.973C423.356 53.5223 422.905 53.2969 422.243 53.2969C421.6 53.2969 421.149 53.5223 420.89 53.973C420.632 54.4238 420.503 54.9176 420.503 55.4545ZM419.051 72L433.051 51.6364H435.507L421.507 72H419.051Z" fill="#5BA183"/>
<rect x="16" y="115" width="448" height="91" rx="16" fill="#FAF8F7"/>
<path d="M41.5554 148V133.455H50.7599V135.422H43.8636V139.733H50.2841V141.7H43.8636V146.033H50.8381V148H41.5554ZM55.1717 137.091L57.5296 141.281L59.9089 137.091H62.3308L58.9572 142.545L62.3663 148H59.9515L57.5296 143.959L55.1219 148H52.693L56.0665 142.545L52.7427 137.091H55.1717ZM64.3632 152.091V137.091H66.5507V138.866H66.7212C66.849 138.63 67.0289 138.362 67.2609 138.064C67.4977 137.766 67.822 137.505 68.2339 137.283C68.6459 137.06 69.1857 136.949 69.8533 136.949C70.7245 136.949 71.5034 137.169 72.1899 137.609C72.8765 138.05 73.4186 138.689 73.8163 139.527C74.2141 140.365 74.4129 141.378 74.4129 142.567C74.4129 143.746 74.2164 144.757 73.8234 145.599C73.4304 146.442 72.8907 147.089 72.2041 147.538C71.5223 147.983 70.7434 148.206 69.8675 148.206C69.2141 148.206 68.679 148.097 68.2624 147.879C67.8457 147.661 67.5166 147.403 67.2751 147.105C67.0384 146.807 66.8537 146.537 66.7212 146.295H66.6004V152.091H64.3632ZM66.5578 142.545C66.5578 143.294 66.6643 143.952 66.8774 144.52C67.0952 145.088 67.4101 145.531 67.822 145.848C68.2387 146.165 68.7429 146.324 69.3348 146.324C69.9503 146.324 70.4664 146.158 70.8831 145.827C71.2998 145.495 71.6146 145.045 71.8277 144.477C72.0408 143.904 72.1473 143.26 72.1473 142.545C72.1473 141.835 72.0431 141.201 71.8348 140.642C71.6265 140.079 71.314 139.636 70.8973 139.314C70.4806 138.992 69.9598 138.831 69.3348 138.831C68.7335 138.831 68.2268 138.985 67.8149 139.293C67.403 139.6 67.0905 140.034 66.8774 140.592C66.6643 141.146 66.5578 141.797 66.5578 142.545ZM81.3832 148.22C80.3037 148.22 79.3733 147.991 78.592 147.531C77.8155 147.067 77.2166 146.416 76.7952 145.578C76.3738 144.735 76.1631 143.748 76.1631 142.616C76.1631 141.494 76.3738 140.509 76.7952 139.662C77.2166 138.81 77.8061 138.144 78.5636 137.666C79.3259 137.188 80.2161 136.949 81.2341 136.949C81.8686 136.949 82.477 137.053 83.0594 137.261C83.6418 137.465 84.1626 137.787 84.6219 138.227C85.0812 138.663 85.4434 139.229 85.7085 139.925C85.9737 140.621 86.1063 141.459 86.1063 142.439V143.199H77.3634V141.572H83.9259C83.9259 141.033 83.8146 140.552 83.592 140.131C83.3695 139.709 83.057 139.378 82.6545 139.136C82.2568 138.89 81.7904 138.767 81.2554 138.767C80.6777 138.767 80.1735 138.907 79.7426 139.186C79.3117 139.465 78.9779 139.832 78.7412 140.287C78.5092 140.741 78.3908 141.234 78.3861 141.764V143.071C78.3861 143.777 78.5116 144.378 78.7625 144.875C79.0134 145.372 79.3638 145.751 79.8136 146.011C80.2682 146.272 80.7985 146.402 81.4045 146.402C81.8023 146.402 82.1621 146.345 82.4841 146.232C82.8108 146.118 83.0925 145.95 83.3293 145.727C83.566 145.5 83.7459 145.218 83.869 144.882L85.9784 145.223C85.8222 145.824 85.5357 146.35 85.119 146.8C84.7024 147.25 84.1768 147.6 83.5423 147.851C82.9079 148.097 82.1882 148.22 81.3832 148.22ZM90.5606 141.544V148H88.3234V137.091H90.4683V138.888H90.6032C90.8541 138.301 91.2495 137.832 91.7893 137.482C92.329 137.126 93.0085 136.949 93.8276 136.949C94.5757 136.949 95.2291 137.105 95.7879 137.418C96.3466 137.73 96.7798 138.192 97.0876 138.803C97.3953 139.413 97.5492 140.166 97.5492 141.061V148H95.312V141.352C95.312 140.576 95.1108 139.97 94.7083 139.534C94.3058 139.094 93.7519 138.874 93.0464 138.874C92.5634 138.874 92.1349 138.978 91.7609 139.186C91.3868 139.394 91.0933 139.697 90.8802 140.095C90.6671 140.493 90.5606 140.976 90.5606 141.544ZM108.523 139.811L106.492 140.131C106.416 139.884 106.293 139.652 106.123 139.435C105.952 139.217 105.723 139.039 105.434 138.902C105.145 138.76 104.785 138.689 104.354 138.689C103.772 138.689 103.284 138.819 102.891 139.08C102.498 139.34 102.302 139.674 102.302 140.081C102.302 140.431 102.432 140.715 102.692 140.933C102.958 141.146 103.384 141.324 103.971 141.466L105.739 141.864C106.753 142.091 107.505 142.448 107.998 142.936C108.495 143.419 108.744 144.046 108.744 144.818C108.744 145.481 108.552 146.068 108.168 146.58C107.785 147.091 107.254 147.493 106.577 147.787C105.905 148.076 105.124 148.22 104.234 148.22C102.984 148.22 101.968 147.955 101.187 147.425C100.406 146.89 99.9273 146.134 99.7521 145.159L101.918 144.861C102.046 145.386 102.304 145.784 102.692 146.054C103.085 146.319 103.594 146.452 104.219 146.452C104.897 146.452 105.436 146.312 105.839 146.033C106.246 145.749 106.45 145.403 106.45 144.996C106.45 144.66 106.324 144.38 106.073 144.158C105.827 143.93 105.443 143.76 104.923 143.646L103.076 143.241C102.049 143.014 101.291 142.645 100.803 142.134C100.316 141.622 100.072 140.978 100.072 140.202C100.072 139.548 100.252 138.98 100.612 138.497C100.976 138.009 101.478 137.631 102.117 137.361C102.761 137.086 103.5 136.949 104.333 136.949C105.536 136.949 106.483 137.209 107.174 137.73C107.865 138.246 108.315 138.94 108.523 139.811ZM115.654 148.22C114.574 148.22 113.644 147.991 112.862 147.531C112.086 147.067 111.487 146.416 111.065 145.578C110.644 144.735 110.433 143.748 110.433 142.616C110.433 141.494 110.644 140.509 111.065 139.662C111.487 138.81 112.076 138.144 112.834 137.666C113.596 137.188 114.486 136.949 115.504 136.949C116.139 136.949 116.747 137.053 117.33 137.261C117.912 137.465 118.433 137.787 118.892 138.227C119.351 138.663 119.714 139.229 119.979 139.925C120.244 140.621 120.377 141.459 120.377 142.439V143.199H111.634V141.572H118.196C118.196 141.033 118.085 140.552 117.862 140.131C117.64 139.709 117.327 139.378 116.925 139.136C116.527 138.89 116.061 138.767 115.526 138.767C114.948 138.767 114.444 138.907 114.013 139.186C113.582 139.465 113.248 139.832 113.012 140.287C112.779 140.741 112.661 141.234 112.656 141.764V143.071C112.656 143.777 112.782 144.378 113.033 144.875C113.284 145.372 113.634 145.751 114.084 146.011C114.538 146.272 115.069 146.402 115.675 146.402C116.073 146.402 116.432 146.345 116.754 146.232C117.081 146.118 117.363 145.95 117.6 145.727C117.836 145.5 118.016 145.218 118.139 144.882L120.249 145.223C120.092 145.824 119.806 146.35 119.389 146.8C118.973 147.25 118.447 147.6 117.813 147.851C117.178 148.097 116.458 148.22 115.654 148.22ZM130.882 139.811L128.851 140.131C128.775 139.884 128.652 139.652 128.481 139.435C128.311 139.217 128.081 139.039 127.793 138.902C127.504 138.76 127.144 138.689 126.713 138.689C126.131 138.689 125.643 138.819 125.25 139.08C124.857 139.34 124.66 139.674 124.66 140.081C124.66 140.431 124.791 140.715 125.051 140.933C125.316 141.146 125.742 141.324 126.329 141.466L128.098 141.864C129.111 142.091 129.864 142.448 130.356 142.936C130.854 143.419 131.102 144.046 131.102 144.818C131.102 145.481 130.91 146.068 130.527 146.58C130.143 147.091 129.613 147.493 128.936 147.787C128.264 148.076 127.482 148.22 126.592 148.22C125.342 148.22 124.327 147.955 123.545 147.425C122.764 146.89 122.286 146.134 122.111 145.159L124.277 144.861C124.405 145.386 124.663 145.784 125.051 146.054C125.444 146.319 125.953 146.452 126.578 146.452C127.255 146.452 127.795 146.312 128.197 146.033C128.605 145.749 128.808 145.403 128.808 144.996C128.808 144.66 128.683 144.38 128.432 144.158C128.186 143.93 127.802 143.76 127.281 143.646L125.435 143.241C124.407 143.014 123.65 142.645 123.162 142.134C122.674 141.622 122.43 140.978 122.43 140.202C122.43 139.548 122.61 138.98 122.97 138.497C123.335 138.009 123.837 137.631 124.476 137.361C125.12 137.086 125.858 136.949 126.692 136.949C127.894 136.949 128.841 137.209 129.533 137.73C130.224 138.246 130.674 138.94 130.882 139.811Z" fill="#525252"/>
<path d="M48.3324 187.545V162.091H49.9631V187.545H48.3324ZM53.1548 170.165C53.062 169.27 52.6577 168.577 51.9418 168.087C51.2325 167.589 50.321 167.341 49.2074 167.341C48.4186 167.341 47.7391 167.46 47.169 167.699C46.6056 167.938 46.1681 168.266 45.8565 168.683C45.5516 169.101 45.3991 169.575 45.3991 170.105C45.3925 170.543 45.492 170.924 45.6974 171.249C45.9096 171.573 46.188 171.845 46.5327 172.064C46.884 172.283 47.2685 172.468 47.6861 172.621C48.1037 172.773 48.518 172.899 48.929 172.999L50.8679 173.486C51.5971 173.658 52.313 173.893 53.0156 174.192C53.7249 174.483 54.3613 174.858 54.9247 175.315C55.4948 175.773 55.9489 176.33 56.2869 176.986C56.6316 177.642 56.804 178.418 56.804 179.312C56.804 180.492 56.5024 181.533 55.8991 182.435C55.2959 183.336 54.4209 184.042 53.2741 184.553C52.134 185.063 50.7552 185.318 49.1378 185.318C47.5734 185.318 46.2145 185.073 45.0611 184.582C43.9143 184.092 43.0161 183.386 42.3665 182.464C41.7235 181.536 41.3755 180.416 41.3224 179.104H44.7827C44.8423 179.82 45.0677 180.416 45.4588 180.893C45.8565 181.364 46.3703 181.719 47 181.957C47.6364 182.189 48.339 182.305 49.108 182.305C49.9299 182.305 50.6558 182.179 51.2855 181.928C51.9152 181.676 52.4091 181.324 52.767 180.874C53.1316 180.416 53.3139 179.886 53.3139 179.283C53.3139 178.732 53.1548 178.278 52.8366 177.92C52.5185 177.556 52.081 177.254 51.5241 177.016C50.9673 176.777 50.3243 176.565 49.5952 176.379L47.2486 175.753C45.5848 175.322 44.2689 174.669 43.3011 173.794C42.34 172.919 41.8594 171.759 41.8594 170.314C41.8594 169.121 42.1809 168.08 42.8239 167.192C43.4735 166.297 44.3551 165.601 45.4688 165.104C46.589 164.607 47.8518 164.358 49.2571 164.358C50.6823 164.358 51.9351 164.607 53.0156 165.104C54.0961 165.594 54.9446 166.277 55.5611 167.152C56.1842 168.027 56.5057 169.031 56.5256 170.165H53.1548ZM66.8085 185.278C65.5093 185.278 64.3459 185.033 63.3185 184.543C62.291 184.045 61.4723 183.366 60.8625 182.504C60.2526 181.636 59.9311 180.645 59.898 179.531H63.2986C63.3649 180.38 63.7328 181.072 64.4023 181.609C65.0718 182.146 65.8739 182.415 66.8085 182.415C67.5509 182.415 68.2105 182.246 68.7872 181.908C69.3705 181.563 69.8246 181.089 70.1494 180.486C70.4809 179.883 70.6466 179.193 70.6466 178.418C70.6466 177.629 70.4775 176.929 70.1395 176.32C69.8014 175.71 69.3341 175.232 68.7375 174.888C68.1475 174.536 67.4714 174.357 66.7091 174.351C66.0992 174.344 65.4927 174.454 64.8895 174.679C64.2863 174.904 63.8057 175.203 63.4477 175.574L60.2758 175.067L61.3596 164.636H72.9932V167.58H64.273L63.6665 173.068H63.7858C64.1636 172.644 64.6939 172.289 65.3767 172.004C66.0595 171.719 66.8019 171.577 67.604 171.577C68.8369 171.577 69.9373 171.868 70.9051 172.452C71.8795 173.035 72.6452 173.837 73.202 174.858C73.7588 175.872 74.0372 177.032 74.0372 178.338C74.0372 179.677 73.729 180.87 73.1125 181.918C72.5026 182.965 71.6542 183.787 70.567 184.384C69.4799 184.98 68.2271 185.278 66.8085 185.278ZM80.763 182.216L80.6238 183.3C80.531 184.128 80.3652 184.973 80.1266 185.835C79.8946 186.704 79.6493 187.502 79.3908 188.232C79.1389 188.967 78.9334 189.547 78.7743 189.972H76.4377C76.5305 189.567 76.6564 189.014 76.8155 188.311C76.9746 187.615 77.1271 186.833 77.2729 185.964C77.4254 185.103 77.5314 184.224 77.5911 183.33L77.6706 182.216H80.763ZM84.2821 181.162V178.358L92.9724 164.636H95.2693V168.653H93.8573L87.8914 178.099V178.259H99.9525V181.162H84.2821ZM93.9767 185V180.307L94.0164 179.054V164.636H97.3176V185H93.9767ZM110.029 185.278C108.73 185.278 107.567 185.033 106.539 184.543C105.512 184.045 104.693 183.366 104.083 182.504C103.473 181.636 103.152 180.645 103.119 179.531H106.519C106.585 180.38 106.953 181.072 107.623 181.609C108.292 182.146 109.094 182.415 110.029 182.415C110.772 182.415 111.431 182.246 112.008 181.908C112.591 181.563 113.045 181.089 113.37 180.486C113.701 179.883 113.867 179.193 113.867 178.418C113.867 177.629 113.698 176.929 113.36 176.32C113.022 175.71 112.555 175.232 111.958 174.888C111.368 174.536 110.692 174.357 109.93 174.351C109.32 174.344 108.713 174.454 108.11 174.679C107.507 174.904 107.026 175.203 106.668 175.574L103.496 175.067L104.58 164.636H116.214V167.58H107.494L106.887 173.068H107.006C107.384 172.644 107.915 172.289 108.597 172.004C109.28 171.719 110.023 171.577 110.825 171.577C112.058 171.577 113.158 171.868 114.126 172.452C115.1 173.035 115.866 173.837 116.423 174.858C116.979 175.872 117.258 177.032 117.258 178.338C117.258 179.677 116.95 180.87 116.333 181.918C115.723 182.965 114.875 183.787 113.788 184.384C112.701 184.98 111.448 185.278 110.029 185.278ZM127.886 185.278C126.932 185.272 125.997 185.106 125.082 184.781C124.174 184.45 123.352 183.906 122.616 183.151C121.881 182.395 121.294 181.387 120.856 180.128C120.426 178.862 120.21 177.294 120.21 175.425C120.217 173.675 120.402 172.117 120.767 170.751C121.132 169.379 121.659 168.219 122.348 167.271C123.037 166.323 123.866 165.601 124.834 165.104C125.808 164.607 126.899 164.358 128.105 164.358C129.371 164.358 130.491 164.607 131.466 165.104C132.44 165.601 133.229 166.28 133.832 167.142C134.436 168.004 134.813 168.978 134.966 170.065H131.506C131.313 169.263 130.926 168.62 130.342 168.136C129.759 167.646 129.013 167.401 128.105 167.401C126.673 167.401 125.566 168.024 124.784 169.27C124.002 170.516 123.607 172.236 123.601 174.43H123.75C124.081 173.847 124.506 173.35 125.023 172.939C125.54 172.521 126.12 172.2 126.763 171.974C127.412 171.749 128.098 171.636 128.821 171.636C130.014 171.636 131.085 171.925 132.033 172.501C132.987 173.071 133.746 173.857 134.31 174.858C134.873 175.852 135.151 176.996 135.145 178.288C135.151 179.614 134.85 180.807 134.24 181.868C133.63 182.929 132.782 183.764 131.695 184.374C130.607 184.983 129.338 185.285 127.886 185.278ZM127.876 182.415C128.612 182.415 129.272 182.236 129.855 181.878C130.445 181.513 130.909 181.026 131.247 180.416C131.585 179.8 131.751 179.114 131.744 178.358C131.751 177.609 131.588 176.933 131.257 176.33C130.926 175.726 130.472 175.246 129.895 174.888C129.318 174.53 128.662 174.351 127.926 174.351C127.369 174.351 126.852 174.457 126.375 174.669C125.904 174.881 125.49 175.176 125.132 175.554C124.781 175.925 124.502 176.353 124.297 176.837C124.098 177.321 123.999 177.834 123.999 178.378C123.999 179.107 124.164 179.777 124.496 180.386C124.834 180.996 125.294 181.487 125.878 181.858C126.468 182.229 127.134 182.415 127.876 182.415ZM139.72 185.209C139.13 185.209 138.627 185.003 138.209 184.592C137.791 184.175 137.586 183.671 137.593 183.081C137.586 182.504 137.791 182.01 138.209 181.599C138.627 181.182 139.13 180.973 139.72 180.973C140.29 180.973 140.784 181.182 141.202 181.599C141.626 182.01 141.842 182.504 141.848 183.081C141.842 183.472 141.739 183.83 141.54 184.155C141.348 184.48 141.093 184.738 140.774 184.93C140.456 185.116 140.105 185.209 139.72 185.209ZM145.459 185V182.464L152.479 175.474C153.169 174.765 153.742 174.139 154.199 173.595C154.663 173.045 155.011 172.518 155.243 172.014C155.475 171.504 155.591 170.96 155.591 170.384C155.591 169.734 155.439 169.174 155.134 168.703C154.836 168.232 154.425 167.868 153.901 167.609C153.377 167.351 152.787 167.222 152.131 167.222C151.442 167.222 150.839 167.364 150.321 167.649C149.811 167.928 149.413 168.325 149.128 168.842C148.85 169.359 148.711 169.969 148.711 170.672H145.38C145.38 169.399 145.668 168.289 146.245 167.341C146.828 166.393 147.634 165.661 148.661 165.143C149.688 164.62 150.862 164.358 152.181 164.358C153.527 164.358 154.706 164.613 155.721 165.124C156.735 165.634 157.524 166.333 158.087 167.222C158.657 168.103 158.942 169.104 158.942 170.224C158.942 170.98 158.796 171.726 158.505 172.462C158.22 173.197 157.716 174.013 156.993 174.908C156.277 175.796 155.27 176.873 153.971 178.139L150.302 181.908V182.057H159.25V185H145.459ZM161.84 181.162V178.358L170.53 164.636H172.827V168.653H171.415L165.449 178.099V178.259H177.51V181.162H161.84ZM171.534 185V180.307L171.574 179.054V164.636H174.875V185H171.534Z" fill="#191919"/>
<path d="M366 170.5V150.5M366 170.5L358 162.5M366 170.5L374 162.5" stroke="#5BA183" stroke-width="2.40004" stroke-linecap="round" stroke-linejoin="round"/>
<path d="M395.973 150.636V171H392.463V154.077H392.344L387.551 157.159V153.908L392.612 150.636H395.973ZM401.108 171V168.464L408.128 161.474C408.817 160.765 409.391 160.139 409.848 159.595C410.312 159.045 410.66 158.518 410.892 158.014C411.124 157.504 411.24 156.96 411.24 156.384C411.24 155.734 411.088 155.174 410.783 154.703C410.485 154.232 410.074 153.868 409.55 153.609C409.026 153.351 408.436 153.222 407.78 153.222C407.091 153.222 406.487 153.364 405.97 153.649C405.46 153.928 405.062 154.325 404.777 154.842C404.499 155.359 404.36 155.969 404.36 156.672H401.029C401.029 155.399 401.317 154.289 401.894 153.341C402.477 152.393 403.282 151.661 404.31 151.143C405.337 150.62 406.511 150.358 407.83 150.358C409.175 150.358 410.355 150.613 411.369 151.124C412.384 151.634 413.173 152.333 413.736 153.222C414.306 154.103 414.591 155.104 414.591 156.224C414.591 156.98 414.445 157.726 414.154 158.462C413.869 159.197 413.365 160.013 412.642 160.908C411.926 161.796 410.919 162.873 409.619 164.139L405.95 167.908V168.057H414.899V171H401.108ZM429.122 167.182V166.108C429.122 165.326 429.285 164.607 429.609 163.95C429.941 163.294 430.425 162.767 431.061 162.369C431.698 161.972 432.47 161.773 433.378 161.773C434.306 161.773 435.085 161.972 435.715 162.369C436.344 162.76 436.822 163.284 437.146 163.94C437.471 164.597 437.634 165.319 437.634 166.108V167.182C437.634 167.964 437.468 168.683 437.136 169.339C436.812 169.996 436.331 170.523 435.695 170.92C435.065 171.318 434.293 171.517 433.378 171.517C432.457 171.517 431.678 171.318 431.041 170.92C430.412 170.523 429.934 169.996 429.609 169.339C429.285 168.683 429.122 167.964 429.122 167.182ZM431.638 166.108V167.182C431.638 167.719 431.764 168.213 432.016 168.663C432.274 169.107 432.728 169.33 433.378 169.33C434.028 169.33 434.475 169.107 434.72 168.663C434.972 168.219 435.098 167.725 435.098 167.182V166.108C435.098 165.564 434.979 165.071 434.74 164.626C434.501 164.176 434.047 163.95 433.378 163.95C432.742 163.95 432.291 164.176 432.026 164.626C431.767 165.071 431.638 165.564 431.638 166.108ZM418.801 155.528V154.455C418.801 153.666 418.967 152.943 419.298 152.287C419.63 151.631 420.114 151.107 420.75 150.716C421.386 150.318 422.159 150.119 423.067 150.119C423.988 150.119 424.764 150.318 425.394 150.716C426.023 151.107 426.501 151.631 426.825 152.287C427.15 152.943 427.313 153.666 427.313 154.455V155.528C427.313 156.317 427.147 157.04 426.815 157.696C426.491 158.346 426.01 158.869 425.374 159.267C424.744 159.658 423.975 159.854 423.067 159.854C422.139 159.854 421.357 159.658 420.72 159.267C420.091 158.869 419.613 158.342 419.288 157.686C418.964 157.03 418.801 156.311 418.801 155.528ZM421.327 154.455V155.528C421.327 156.072 421.453 156.566 421.705 157.01C421.963 157.454 422.417 157.676 423.067 157.676C423.71 157.676 424.157 157.454 424.409 157.01C424.661 156.566 424.787 156.072 424.787 155.528V154.455C424.787 153.911 424.664 153.417 424.419 152.973C424.18 152.522 423.73 152.297 423.067 152.297C422.424 152.297 421.973 152.522 421.715 152.973C421.456 153.424 421.327 153.918 421.327 154.455ZM419.875 171L433.875 150.636H436.331L422.331 171H419.875Z" fill="#5BA183"/>
<rect x="16" y="214" width="448" height="91" rx="16" fill="#FAF8F7"/>
<path d="M53.3523 232.455V247H51.25L43.9915 236.524H43.8636V247H41.5554V232.455H43.6719L50.9304 242.945H51.0653V232.455H53.3523ZM60.9387 247.22C59.8592 247.22 58.9288 246.991 58.1475 246.531C57.371 246.067 56.772 245.416 56.3506 244.578C55.9292 243.735 55.7185 242.748 55.7185 241.616C55.7185 240.494 55.9292 239.509 56.3506 238.662C56.772 237.81 57.3615 237.144 58.1191 236.666C58.8814 236.188 59.7716 235.949 60.7896 235.949C61.424 235.949 62.0325 236.053 62.6148 236.261C63.1972 236.465 63.7181 236.787 64.1773 237.227C64.6366 237.663 64.9988 238.229 65.264 238.925C65.5291 239.621 65.6617 240.459 65.6617 241.439V242.199H56.9188V240.572H63.4813C63.4813 240.033 63.3701 239.552 63.1475 239.131C62.925 238.709 62.6125 238.378 62.21 238.136C61.8123 237.89 61.3459 237.767 60.8109 237.767C60.2332 237.767 59.729 237.907 59.2981 238.186C58.8672 238.465 58.5334 238.832 58.2967 239.287C58.0647 239.741 57.9463 240.234 57.9415 240.764V242.071C57.9415 242.777 58.067 243.378 58.318 243.875C58.5689 244.372 58.9193 244.751 59.3691 245.011C59.8237 245.272 60.354 245.402 60.96 245.402C61.3577 245.402 61.7176 245.345 62.0396 245.232C62.3663 245.118 62.648 244.95 62.8847 244.727C63.1215 244.5 63.3014 244.218 63.4245 243.882L65.5339 244.223C65.3776 244.824 65.0912 245.35 64.6745 245.8C64.2578 246.25 63.7323 246.6 63.0978 246.851C62.4633 247.097 61.7436 247.22 60.9387 247.22ZM73.0635 236.091V237.866H67.0266V236.091H73.0635ZM68.6104 233.477H70.8476V243.776C70.8476 244.169 70.9068 244.467 71.0251 244.67C71.1435 244.869 71.2974 245.004 71.4868 245.075C71.6809 245.146 71.8916 245.182 72.1189 245.182C72.2893 245.182 72.4385 245.172 72.5663 245.153C72.6942 245.13 72.7936 245.108 72.8646 245.089L73.2624 246.908C73.1345 246.955 72.9522 247.005 72.7155 247.057C72.4835 247.109 72.1946 247.137 71.849 247.142C71.2714 247.156 70.7363 247.059 70.2439 246.851C69.7515 246.638 69.3561 246.311 69.0578 245.871C68.7595 245.43 68.6104 244.876 68.6104 244.209V233.477ZM80.3741 251.091V236.091H82.5616V237.866H82.7321C82.8599 237.63 83.0399 237.362 83.2719 237.064C83.5086 236.766 83.833 236.505 84.2449 236.283C84.6568 236.06 85.1966 235.949 85.8642 235.949C86.7354 235.949 87.5143 236.169 88.2009 236.609C88.8874 237.05 89.4295 237.689 89.8273 238.527C90.225 239.365 90.4239 240.378 90.4239 241.567C90.4239 242.746 90.2274 243.757 89.8344 244.599C89.4414 245.442 88.9016 246.089 88.2151 246.538C87.5332 246.983 86.7544 247.206 85.8784 247.206C85.225 247.206 84.69 247.097 84.2733 246.879C83.8566 246.661 83.5276 246.403 83.2861 246.105C83.0493 245.807 82.8647 245.537 82.7321 245.295H82.6114V251.091H80.3741ZM82.5687 241.545C82.5687 242.294 82.6753 242.952 82.8884 243.52C83.1062 244.088 83.421 244.531 83.833 244.848C84.2496 245.165 84.7539 245.324 85.3457 245.324C85.9613 245.324 86.4774 245.158 86.894 244.827C87.3107 244.495 87.6256 244.045 87.8386 243.477C88.0517 242.904 88.1582 242.26 88.1582 241.545C88.1582 240.835 88.0541 240.201 87.8457 239.642C87.6374 239.079 87.3249 238.636 86.9082 238.314C86.4916 237.992 85.9707 237.831 85.3457 237.831C84.7444 237.831 84.2378 237.985 83.8259 238.293C83.4139 238.6 83.1014 239.034 82.8884 239.592C82.6753 240.146 82.5687 240.797 82.5687 241.545ZM92.657 247V236.091H94.8232V237.845H94.9368C95.1357 237.249 95.4837 236.78 95.9808 236.439C96.478 236.098 97.0462 235.928 97.6854 235.928C97.9837 235.928 98.2512 235.963 98.4879 236.034C98.7294 236.105 98.9401 236.202 99.12 236.325L98.4098 238.193C98.282 238.127 98.1352 238.075 97.9695 238.037C97.8085 237.994 97.6238 237.973 97.4155 237.973C96.9373 237.973 96.5088 238.077 96.13 238.286C95.7512 238.494 95.4505 238.78 95.228 239.145C95.0054 239.509 94.8942 239.929 94.8942 240.402V247H92.657ZM104.773 247.22C103.741 247.22 102.841 246.986 102.074 246.517C101.307 246.048 100.71 245.393 100.284 244.55C99.8628 243.702 99.6521 242.717 99.6521 241.595C99.6521 240.464 99.8628 239.474 100.284 238.626C100.71 237.779 101.307 237.121 102.074 236.652C102.841 236.183 103.741 235.949 104.773 235.949C105.81 235.949 106.709 236.183 107.472 236.652C108.239 237.121 108.833 237.779 109.254 238.626C109.681 239.474 109.894 240.464 109.894 241.595C109.894 242.717 109.681 243.702 109.254 244.55C108.833 245.393 108.239 246.048 107.472 246.517C106.709 246.986 105.81 247.22 104.773 247.22ZM104.78 245.366C105.424 245.366 105.957 245.196 106.378 244.855C106.804 244.509 107.119 244.05 107.323 243.477C107.531 242.904 107.635 242.275 107.635 241.588C107.635 240.897 107.531 240.265 107.323 239.692C107.119 239.114 106.804 238.652 106.378 238.307C105.957 237.961 105.424 237.788 104.78 237.788C104.131 237.788 103.594 237.961 103.168 238.307C102.746 238.652 102.431 239.114 102.223 239.692C102.015 240.265 101.911 240.897 101.911 241.588C101.911 242.275 102.015 242.904 102.223 243.477C102.431 244.05 102.746 244.509 103.168 244.855C103.594 245.196 104.131 245.366 104.78 245.366ZM117.382 236.091V237.866H111.147V236.091H117.382ZM112.816 247V234.884C112.816 234.188 112.965 233.61 113.263 233.151C113.566 232.691 113.966 232.348 114.463 232.121C114.965 231.889 115.51 231.773 116.097 231.773C116.532 231.773 116.907 231.808 117.219 231.879C117.532 231.946 117.764 232.007 117.915 232.064L117.411 233.854C117.311 233.821 117.181 233.785 117.02 233.747C116.864 233.709 116.677 233.69 116.459 233.69C115.952 233.69 115.59 233.816 115.372 234.067C115.159 234.313 115.053 234.67 115.053 235.139V247H112.816ZM119.427 247V236.091H121.664V247H119.427ZM120.557 234.443C120.178 234.443 119.853 234.315 119.584 234.06C119.314 233.804 119.179 233.499 119.179 233.143C119.179 232.784 119.314 232.478 119.584 232.227C119.853 231.972 120.178 231.844 120.557 231.844C120.935 231.844 121.26 231.972 121.53 232.227C121.799 232.483 121.934 232.788 121.934 233.143C121.934 233.499 121.799 233.804 121.53 234.06C121.26 234.315 120.935 234.443 120.557 234.443ZM129.551 236.091V237.866H123.514V236.091H129.551ZM125.098 233.477H127.335V243.776C127.335 244.169 127.394 244.467 127.513 244.67C127.631 244.869 127.785 245.004 127.974 245.075C128.168 245.146 128.379 245.182 128.606 245.182C128.777 245.182 128.926 245.172 129.054 245.153C129.182 245.13 129.281 245.108 129.352 245.089L129.75 246.908C129.622 246.955 129.44 247.005 129.203 247.057C128.971 247.109 128.682 247.137 128.337 247.142C127.759 247.156 127.224 247.059 126.731 246.851C126.239 246.638 125.844 246.311 125.545 245.871C125.247 245.43 125.098 244.876 125.098 244.209V233.477Z" fill="#525252"/>
<path d="M48.3324 286.545V261.091H49.9631V286.545H48.3324ZM53.1548 269.165C53.062 268.27 52.6577 267.577 51.9418 267.087C51.2325 266.589 50.321 266.341 49.2074 266.341C48.4186 266.341 47.7391 266.46 47.169 266.699C46.6056 266.938 46.1681 267.266 45.8565 267.683C45.5516 268.101 45.3991 268.575 45.3991 269.105C45.3925 269.543 45.492 269.924 45.6974 270.249C45.9096 270.573 46.188 270.845 46.5327 271.064C46.884 271.283 47.2685 271.468 47.6861 271.621C48.1037 271.773 48.518 271.899 48.929 271.999L50.8679 272.486C51.5971 272.658 52.313 272.893 53.0156 273.192C53.7249 273.483 54.3613 273.858 54.9247 274.315C55.4948 274.773 55.9489 275.33 56.2869 275.986C56.6316 276.642 56.804 277.418 56.804 278.312C56.804 279.492 56.5024 280.533 55.8991 281.435C55.2959 282.336 54.4209 283.042 53.2741 283.553C52.134 284.063 50.7552 284.318 49.1378 284.318C47.5734 284.318 46.2145 284.073 45.0611 283.582C43.9143 283.092 43.0161 282.386 42.3665 281.464C41.7235 280.536 41.3755 279.416 41.3224 278.104H44.7827C44.8423 278.82 45.0677 279.416 45.4588 279.893C45.8565 280.364 46.3703 280.719 47 280.957C47.6364 281.189 48.339 281.305 49.108 281.305C49.9299 281.305 50.6558 281.179 51.2855 280.928C51.9152 280.676 52.4091 280.324 52.767 279.874C53.1316 279.416 53.3139 278.886 53.3139 278.283C53.3139 277.732 53.1548 277.278 52.8366 276.92C52.5185 276.556 52.081 276.254 51.5241 276.016C50.9673 275.777 50.3243 275.565 49.5952 275.379L47.2486 274.753C45.5848 274.322 44.2689 273.669 43.3011 272.794C42.34 271.919 41.8594 270.759 41.8594 269.314C41.8594 268.121 42.1809 267.08 42.8239 266.192C43.4735 265.297 44.3551 264.601 45.4688 264.104C46.589 263.607 47.8518 263.358 49.2571 263.358C50.6823 263.358 51.9351 263.607 53.0156 264.104C54.0961 264.594 54.9446 265.277 55.5611 266.152C56.1842 267.027 56.5057 268.031 56.5256 269.165H53.1548ZM59.4605 280.162V277.358L68.1508 263.636H70.4477V267.653H69.0358L63.0699 277.099V277.259H75.131V280.162H59.4605ZM69.1551 284V279.307L69.1949 278.054V263.636H72.496V284H69.1551ZM81.7747 281.216L81.6355 282.3C81.5427 283.128 81.377 283.973 81.1383 284.835C80.9063 285.704 80.6611 286.502 80.4025 287.232C80.1506 287.967 79.9451 288.547 79.7861 288.972H77.4494C77.5422 288.567 77.6682 288.014 77.8272 287.311C77.9863 286.615 78.1388 285.833 78.2846 284.964C78.4371 284.103 78.5432 283.224 78.6028 282.33L78.6824 281.216H81.7747ZM85.8059 284L94.536 266.729V266.58H84.4138V263.636H98.1553V266.659L89.4451 284H85.8059ZM99.2905 280.162V277.358L107.981 263.636H110.278V267.653H108.866L102.9 277.099V277.259H114.961V280.162H99.2905ZM108.985 284V279.307L109.025 278.054V263.636H112.326V284H108.985ZM125.048 263.358C126.002 263.365 126.937 263.534 127.851 263.865C128.766 264.196 129.588 264.737 130.317 265.486C131.053 266.235 131.637 267.239 132.067 268.499C132.505 269.751 132.724 271.306 132.724 273.162C132.73 274.925 132.548 276.496 132.177 277.875C131.806 279.247 131.275 280.411 130.586 281.365C129.903 282.313 129.075 283.036 128.1 283.533C127.132 284.03 126.042 284.278 124.829 284.278C123.563 284.278 122.442 284.03 121.468 283.533C120.494 283.036 119.705 282.356 119.101 281.494C118.498 280.626 118.124 279.635 117.978 278.521H121.428C121.62 279.343 122.008 280.003 122.592 280.5C123.175 280.991 123.921 281.236 124.829 281.236C126.261 281.236 127.368 280.613 128.15 279.366C128.939 278.114 129.336 276.374 129.343 274.146H129.194C128.862 274.73 128.438 275.23 127.921 275.648C127.404 276.065 126.821 276.387 126.171 276.612C125.528 276.838 124.842 276.95 124.113 276.95C122.926 276.95 121.856 276.665 120.901 276.095C119.947 275.518 119.191 274.733 118.634 273.739C118.077 272.738 117.796 271.594 117.789 270.308C117.789 268.996 118.091 267.812 118.694 266.759C119.297 265.705 120.142 264.873 121.229 264.263C122.323 263.646 123.596 263.345 125.048 263.358ZM125.067 266.222C124.325 266.222 123.662 266.401 123.079 266.759C122.495 267.116 122.035 267.6 121.697 268.21C121.359 268.82 121.19 269.496 121.19 270.239C121.196 270.988 121.362 271.664 121.687 272.267C122.018 272.87 122.469 273.351 123.039 273.709C123.616 274.06 124.275 274.236 125.018 274.236C125.568 274.236 126.082 274.13 126.559 273.918C127.036 273.705 127.45 273.411 127.802 273.033C128.16 272.655 128.438 272.224 128.637 271.74C128.842 271.256 128.942 270.749 128.935 270.219C128.935 269.503 128.766 268.843 128.428 268.24C128.097 267.637 127.639 267.15 127.056 266.778C126.473 266.407 125.81 266.222 125.067 266.222ZM137.396 284.209C136.806 284.209 136.302 284.003 135.885 283.592C135.467 283.175 135.262 282.671 135.268 282.081C135.262 281.504 135.467 281.01 135.885 280.599C136.302 280.182 136.806 279.973 137.396 279.973C137.966 279.973 138.46 280.182 138.878 280.599C139.302 281.01 139.517 281.504 139.524 282.081C139.517 282.472 139.415 282.83 139.216 283.155C139.024 283.48 138.768 283.738 138.45 283.93C138.132 284.116 137.781 284.209 137.396 284.209ZM149.814 263.358C150.769 263.365 151.704 263.534 152.618 263.865C153.533 264.196 154.355 264.737 155.084 265.486C155.82 266.235 156.403 267.239 156.834 268.499C157.272 269.751 157.491 271.306 157.491 273.162C157.497 274.925 157.315 276.496 156.944 277.875C156.572 279.247 156.042 280.411 155.353 281.365C154.67 282.313 153.841 283.036 152.867 283.533C151.899 284.03 150.809 284.278 149.596 284.278C148.33 284.278 147.209 284.03 146.235 283.533C145.26 283.036 144.472 282.356 143.868 281.494C143.265 280.626 142.891 279.635 142.745 278.521H146.195C146.387 279.343 146.775 280.003 147.358 280.5C147.942 280.991 148.687 281.236 149.596 281.236C151.027 281.236 152.134 280.613 152.917 279.366C153.705 278.114 154.103 276.374 154.11 274.146H153.961C153.629 274.73 153.205 275.23 152.688 275.648C152.171 276.065 151.588 276.387 150.938 276.612C150.295 276.838 149.609 276.95 148.88 276.95C147.693 276.95 146.623 276.665 145.668 276.095C144.714 275.518 143.958 274.733 143.401 273.739C142.844 272.738 142.562 271.594 142.556 270.308C142.556 268.996 142.857 267.812 143.461 266.759C144.064 265.705 144.909 264.873 145.996 264.263C147.09 263.646 148.363 263.345 149.814 263.358ZM149.834 266.222C149.092 266.222 148.429 266.401 147.846 266.759C147.262 267.116 146.802 267.6 146.464 268.21C146.125 268.82 145.956 269.496 145.956 270.239C145.963 270.988 146.129 271.664 146.454 272.267C146.785 272.87 147.236 273.351 147.806 273.709C148.383 274.06 149.042 274.236 149.785 274.236C150.335 274.236 150.848 274.13 151.326 273.918C151.803 273.705 152.217 273.411 152.569 273.033C152.927 272.655 153.205 272.224 153.404 271.74C153.609 271.256 153.709 270.749 153.702 270.219C153.702 269.503 153.533 268.843 153.195 268.24C152.864 267.637 152.406 267.15 151.823 266.778C151.24 266.407 150.577 266.222 149.834 266.222ZM168.099 284.278C167.145 284.272 166.21 284.106 165.295 283.781C164.387 283.45 163.565 282.906 162.829 282.151C162.093 281.395 161.507 280.387 161.069 279.128C160.638 277.862 160.423 276.294 160.423 274.425C160.43 272.675 160.615 271.117 160.98 269.751C161.344 268.379 161.871 267.219 162.561 266.271C163.25 265.323 164.079 264.601 165.047 264.104C166.021 263.607 167.111 263.358 168.318 263.358C169.584 263.358 170.704 263.607 171.679 264.104C172.653 264.601 173.442 265.28 174.045 266.142C174.648 267.004 175.026 267.978 175.179 269.065H171.718C171.526 268.263 171.138 267.62 170.555 267.136C169.972 266.646 169.226 266.401 168.318 266.401C166.886 266.401 165.779 267.024 164.997 268.27C164.215 269.516 163.82 271.236 163.814 273.43H163.963C164.294 272.847 164.718 272.35 165.235 271.939C165.753 271.521 166.333 271.2 166.976 270.974C167.625 270.749 168.311 270.636 169.034 270.636C170.227 270.636 171.297 270.925 172.245 271.501C173.2 272.071 173.959 272.857 174.522 273.858C175.086 274.852 175.364 275.996 175.358 277.288C175.364 278.614 175.063 279.807 174.453 280.868C173.843 281.929 172.994 282.764 171.907 283.374C170.82 283.983 169.551 284.285 168.099 284.278ZM168.089 281.415C168.825 281.415 169.485 281.236 170.068 280.878C170.658 280.513 171.122 280.026 171.46 279.416C171.798 278.8 171.964 278.114 171.957 277.358C171.964 276.609 171.801 275.933 171.47 275.33C171.138 274.726 170.684 274.246 170.108 273.888C169.531 273.53 168.875 273.351 168.139 273.351C167.582 273.351 167.065 273.457 166.588 273.669C166.117 273.881 165.703 274.176 165.345 274.554C164.994 274.925 164.715 275.353 164.51 275.837C164.311 276.321 164.211 276.834 164.211 277.378C164.211 278.107 164.377 278.777 164.708 279.386C165.047 279.996 165.507 280.487 166.091 280.858C166.681 281.229 167.347 281.415 168.089 281.415Z" fill="#191919"/>
<path d="M378 249.5V269.5M378 249.5L386 257.5M378 249.5L370 257.5" stroke="#5BA183" stroke-width="2.40004" stroke-linecap="round" stroke-linejoin="round"/>
<path d="M407.208 270.278C406.253 270.272 405.318 270.106 404.404 269.781C403.496 269.45 402.674 268.906 401.938 268.151C401.202 267.395 400.615 266.387 400.178 265.128C399.747 263.862 399.531 262.294 399.531 260.425C399.538 258.675 399.724 257.117 400.088 255.751C400.453 254.379 400.98 253.219 401.669 252.271C402.359 251.323 403.187 250.601 404.155 250.104C405.13 249.607 406.22 249.358 407.426 249.358C408.692 249.358 409.813 249.607 410.787 250.104C411.762 250.601 412.55 251.28 413.154 252.142C413.757 253.004 414.135 253.978 414.287 255.065H410.827C410.635 254.263 410.247 253.62 409.664 253.136C409.08 252.646 408.335 252.401 407.426 252.401C405.995 252.401 404.888 253.024 404.105 254.27C403.323 255.516 402.929 257.236 402.922 259.43H403.071C403.403 258.847 403.827 258.35 404.344 257.939C404.861 257.521 405.441 257.2 406.084 256.974C406.734 256.749 407.42 256.636 408.142 256.636C409.335 256.636 410.406 256.925 411.354 257.501C412.308 258.071 413.067 258.857 413.631 259.858C414.194 260.852 414.473 261.996 414.466 263.288C414.473 264.614 414.171 265.807 413.561 266.868C412.951 267.929 412.103 268.764 411.016 269.374C409.929 269.983 408.659 270.285 407.208 270.278ZM407.198 267.415C407.933 267.415 408.593 267.236 409.176 266.878C409.766 266.513 410.23 266.026 410.568 265.416C410.906 264.8 411.072 264.114 411.066 263.358C411.072 262.609 410.91 261.933 410.578 261.33C410.247 260.726 409.793 260.246 409.216 259.888C408.639 259.53 407.983 259.351 407.247 259.351C406.691 259.351 406.174 259.457 405.696 259.669C405.226 259.881 404.811 260.176 404.453 260.554C404.102 260.925 403.824 261.353 403.618 261.837C403.419 262.321 403.32 262.834 403.32 263.378C403.32 264.107 403.486 264.777 403.817 265.386C404.155 265.996 404.616 266.487 405.199 266.858C405.789 267.229 406.455 267.415 407.198 267.415ZM428.575 266.182V265.108C428.575 264.326 428.737 263.607 429.062 262.95C429.393 262.294 429.877 261.767 430.514 261.369C431.15 260.972 431.922 260.773 432.83 260.773C433.758 260.773 434.537 260.972 435.167 261.369C435.797 261.76 436.274 262.284 436.599 262.94C436.924 263.597 437.086 264.319 437.086 265.108V266.182C437.086 266.964 436.92 267.683 436.589 268.339C436.264 268.996 435.784 269.523 435.147 269.92C434.517 270.318 433.745 270.517 432.83 270.517C431.909 270.517 431.13 270.318 430.494 269.92C429.864 269.523 429.387 268.996 429.062 268.339C428.737 267.683 428.575 266.964 428.575 266.182ZM431.09 265.108V266.182C431.09 266.719 431.216 267.213 431.468 267.663C431.727 268.107 432.181 268.33 432.83 268.33C433.48 268.33 433.927 268.107 434.173 267.663C434.425 267.219 434.551 266.725 434.551 266.182V265.108C434.551 264.564 434.431 264.071 434.193 263.626C433.954 263.176 433.5 262.95 432.83 262.95C432.194 262.95 431.743 263.176 431.478 263.626C431.22 264.071 431.09 264.564 431.09 265.108ZM418.254 254.528V253.455C418.254 252.666 418.419 251.943 418.751 251.287C419.082 250.631 419.566 250.107 420.203 249.716C420.839 249.318 421.611 249.119 422.519 249.119C423.441 249.119 424.216 249.318 424.846 249.716C425.476 250.107 425.953 250.631 426.278 251.287C426.603 251.943 426.765 252.666 426.765 253.455V254.528C426.765 255.317 426.599 256.04 426.268 256.696C425.943 257.346 425.463 257.869 424.826 258.267C424.196 258.658 423.427 258.854 422.519 258.854C421.591 258.854 420.809 258.658 420.173 258.267C419.543 257.869 419.066 257.342 418.741 256.686C418.416 256.03 418.254 255.311 418.254 254.528ZM420.779 253.455V254.528C420.779 255.072 420.905 255.566 421.157 256.01C421.416 256.454 421.87 256.676 422.519 256.676C423.162 256.676 423.61 256.454 423.862 256.01C424.114 255.566 424.24 255.072 424.24 254.528V253.455C424.24 252.911 424.117 252.417 423.872 251.973C423.633 251.522 423.182 251.297 422.519 251.297C421.876 251.297 421.426 251.522 421.167 251.973C420.909 252.424 420.779 252.918 420.779 253.455ZM419.328 270L433.328 249.636H435.784L421.784 270H419.328Z" fill="#5BA183"/>
<path d="M39.0441 343.455V358H36.7359V345.749H36.6506L33.1918 347.993V345.812L36.814 343.455H39.0441ZM47.6835 358.199C46.7791 358.199 45.9671 358.026 45.2474 357.68C44.5324 357.33 43.9619 356.852 43.5357 356.246C43.1143 355.64 42.8871 354.946 42.8539 354.165H45.0911C45.1432 354.785 45.4155 355.294 45.9079 355.692C46.405 356.085 46.9969 356.281 47.6835 356.281C48.2327 356.281 48.7204 356.156 49.1465 355.905C49.5727 355.649 49.9065 355.299 50.1479 354.854C50.3942 354.404 50.5173 353.895 50.5173 353.327C50.5173 352.744 50.3918 352.226 50.1408 351.771C49.8899 351.317 49.5442 350.962 49.1039 350.706C48.6683 350.446 48.1664 350.313 47.5982 350.308C47.1626 350.304 46.7246 350.379 46.2843 350.536C45.844 350.692 45.4888 350.895 45.219 351.146L43.1167 350.827L43.9192 343.455H52.03V345.415H45.8369L45.3823 349.435H45.4675C45.7469 349.146 46.1257 348.907 46.6039 348.717C47.0821 348.528 47.5959 348.433 48.1451 348.433C49.0305 348.433 49.8189 348.644 50.5102 349.065C51.2062 349.482 51.7531 350.055 52.1508 350.784C52.5485 351.509 52.7474 352.339 52.7474 353.277C52.7474 354.224 52.5319 355.069 52.1011 355.812C51.6702 356.551 51.0736 357.134 50.3113 357.56C49.549 357.986 48.673 358.199 47.6835 358.199ZM57.2603 354.371L57.2461 351.651H57.6296L61.8697 347.091H64.5259L59.604 352.375H59.2205L57.2603 354.371ZM55.2077 358V343.455H57.445V358H55.2077ZM62.0898 358L58.2688 352.872L59.8029 351.303L64.81 358H62.0898Z" fill="#8A8988"/>
<path d="M39.4777 401.622V416.167H37.1695V403.916H37.0842L33.6254 406.16V403.979L37.2476 401.622H39.4777ZM48.394 416.416C47.2624 416.416 46.2941 416.12 45.4892 415.528C44.6843 414.936 44.0664 414.081 43.6355 412.964C43.2094 411.842 42.9963 410.488 42.9963 408.901C42.9963 407.32 43.2117 405.973 43.6426 404.86C44.0735 403.743 44.6914 402.89 45.4963 402.303C46.3012 401.716 47.2671 401.423 48.394 401.423C49.5209 401.423 50.4868 401.716 51.2918 402.303C52.1014 402.89 52.7193 403.743 53.1455 404.86C53.5763 405.978 53.7918 407.325 53.7918 408.901C53.7918 410.488 53.5763 411.842 53.1455 412.964C52.7193 414.086 52.1038 414.943 51.2989 415.535C50.4939 416.122 49.5257 416.416 48.394 416.416ZM48.394 414.441C49.3599 414.441 50.1175 413.97 50.6668 413.028C51.216 412.081 51.4906 410.705 51.4906 408.901C51.4906 407.708 51.3652 406.7 51.1142 405.876C50.8633 405.052 50.5058 404.429 50.0418 404.008C49.5825 403.582 49.0332 403.369 48.394 403.369C47.4376 403.369 46.6824 403.845 46.1284 404.796C45.5792 405.743 45.3022 407.112 45.2974 408.901C45.2974 410.099 45.4205 411.11 45.6668 411.934C45.9177 412.758 46.2728 413.383 46.7321 413.809C47.1961 414.23 47.7501 414.441 48.394 414.441ZM58.2603 412.538L58.2461 409.818H58.6296L62.8697 405.258H65.5259L60.604 410.542H60.2205L58.2603 412.538ZM56.2077 416.167V401.622H58.445V416.167H56.2077ZM63.0898 416.167L59.2688 411.039L60.8029 409.47L65.81 416.167H63.0898Z" fill="#8A8988"/>
<path d="M38.6835 474.532C37.7791 474.532 36.9671 474.359 36.2474 474.013C35.5324 473.663 34.9619 473.185 34.5357 472.579C34.1143 471.973 33.8871 471.279 33.8539 470.498H36.0911C36.1432 471.118 36.4155 471.627 36.9079 472.025C37.405 472.418 37.9969 472.614 38.6835 472.614C39.2327 472.614 39.7204 472.489 40.1465 472.238C40.5727 471.982 40.9065 471.632 41.1479 471.187C41.3942 470.737 41.5173 470.228 41.5173 469.66C41.5173 469.077 41.3918 468.559 41.1408 468.104C40.8899 467.65 40.5442 467.295 40.1039 467.039C39.6683 466.779 39.1664 466.646 38.5982 466.641C38.1626 466.637 37.7246 466.712 37.2843 466.869C36.844 467.025 36.4888 467.228 36.219 467.479L34.1167 467.16L34.9192 459.788H43.03V461.748H36.8369L36.3823 465.768H36.4675C36.7469 465.479 37.1257 465.24 37.6039 465.05C38.0821 464.861 38.5959 464.766 39.1451 464.766C40.0305 464.766 40.8189 464.977 41.5102 465.398C42.2062 465.815 42.7531 466.388 43.1508 467.117C43.5485 467.842 43.7474 468.672 43.7474 469.61C43.7474 470.557 43.5319 471.402 43.1011 472.146C42.6702 472.884 42.0736 473.467 41.3113 473.893C40.549 474.319 39.673 474.532 38.6835 474.532ZM48.2603 470.704L48.2461 467.984H48.6296L52.8697 463.424H55.5259L50.604 468.708H50.2205L48.2603 470.704ZM46.2077 474.333V459.788H48.445V474.333H46.2077ZM53.0898 474.333L49.2688 469.205L50.8029 467.636L55.81 474.333H53.0898Z" fill="#8A8988"/>
<path d="M39.4854 532.749C38.3538 532.749 37.3855 532.453 36.5806 531.861C35.7757 531.269 35.1578 530.414 34.7269 529.297C34.3008 528.175 34.0877 526.821 34.0877 525.234C34.0877 523.653 34.3031 522.306 34.734 521.193C35.1649 520.076 35.7828 519.223 36.5877 518.636C37.3926 518.049 38.3585 517.756 39.4854 517.756C40.6123 517.756 41.5782 518.049 42.3832 518.636C43.1928 519.223 43.8107 520.076 44.2369 521.193C44.6677 522.311 44.8832 523.658 44.8832 525.234C44.8832 526.821 44.6677 528.175 44.2369 529.297C43.8107 530.419 43.1952 531.276 42.3903 531.868C41.5853 532.455 40.6171 532.749 39.4854 532.749ZM39.4854 530.774C40.4513 530.774 41.2089 530.303 41.7582 529.361C42.3074 528.414 42.582 527.038 42.582 525.234C42.582 524.041 42.4566 523.033 42.2056 522.209C41.9547 521.385 41.5972 520.762 41.1332 520.341C40.6739 519.915 40.1246 519.702 39.4854 519.702C38.529 519.702 37.7738 520.178 37.2198 521.129C36.6706 522.076 36.3936 523.445 36.3888 525.234C36.3888 526.432 36.512 527.443 36.7582 528.267C37.0091 529.091 37.3642 529.716 37.8235 530.142C38.2875 530.563 38.8415 530.774 39.4854 530.774Z" fill="#8A8988"/>
<path d="M40.1467 582.435V584.346H33.6695V582.435H40.1467ZM47.6835 590.866C46.7791 590.866 45.9671 590.693 45.2474 590.347C44.5324 589.997 43.9619 589.519 43.5357 588.913C43.1143 588.307 42.8871 587.613 42.8539 586.832H45.0911C45.1432 587.452 45.4155 587.961 45.9079 588.359C46.405 588.752 46.9969 588.948 47.6835 588.948C48.2327 588.948 48.7204 588.823 49.1465 588.572C49.5727 588.316 49.9065 587.966 50.1479 587.521C50.3942 587.071 50.5173 586.562 50.5173 585.994C50.5173 585.411 50.3918 584.893 50.1408 584.438C49.8899 583.984 49.5442 583.629 49.1039 583.373C48.6683 583.113 48.1664 582.98 47.5982 582.975C47.1626 582.97 46.7246 583.046 46.2843 583.203C45.844 583.359 45.4888 583.562 45.219 583.813L43.1167 583.494L43.9192 576.122H52.03V578.082H45.8369L45.3823 582.102H45.4675C45.7469 581.813 46.1257 581.574 46.6039 581.384C47.0821 581.195 47.5959 581.1 48.1451 581.1C49.0305 581.1 49.8189 581.311 50.5102 581.732C51.2062 582.149 51.7531 582.722 52.1508 583.451C52.5485 584.176 52.7474 585.006 52.7474 585.944C52.7474 586.891 52.5319 587.736 52.1011 588.479C51.6702 589.218 51.0736 589.801 50.3113 590.227C49.549 590.653 48.673 590.866 47.6835 590.866ZM57.2603 587.038L57.2461 584.318H57.6296L61.8697 579.758H64.5259L59.604 585.042H59.2205L57.2603 587.038ZM55.2077 590.667V576.122H57.445V590.667H55.2077ZM62.0898 590.667L58.2688 585.539L59.8029 583.97L64.81 590.667H62.0898Z" fill="#8A8988"/>
<path d="M40.1881 640.601V642.512H33.7109V640.601H40.1881ZM48.4777 634.288V648.833H46.1695V636.582H46.0842L42.6254 638.826V636.646L46.2476 634.288H48.4777ZM57.394 649.082C56.2624 649.082 55.2941 648.786 54.4892 648.194C53.6843 647.602 53.0664 646.747 52.6355 645.63C52.2094 644.508 51.9963 643.154 51.9963 641.567C51.9963 639.986 52.2117 638.639 52.6426 637.526C53.0735 636.409 53.6914 635.556 54.4963 634.969C55.3012 634.382 56.2671 634.089 57.394 634.089C58.5209 634.089 59.4868 634.382 60.2918 634.969C61.1014 635.556 61.7193 636.409 62.1455 637.526C62.5763 638.644 62.7918 639.991 62.7918 641.567C62.7918 643.154 62.5763 644.508 62.1455 645.63C61.7193 646.752 61.1038 647.609 60.2989 648.201C59.4939 648.788 58.5257 649.082 57.394 649.082ZM57.394 647.107C58.3599 647.107 59.1175 646.636 59.6668 645.694C60.216 644.747 60.4906 643.371 60.4906 641.567C60.4906 640.374 60.3652 639.366 60.1142 638.542C59.8633 637.718 59.5058 637.095 59.0418 636.674C58.5825 636.248 58.0332 636.035 57.394 636.035C56.4376 636.035 55.6824 636.511 55.1284 637.462C54.5792 638.409 54.3022 639.778 54.2974 641.567C54.2974 642.765 54.4205 643.776 54.6668 644.6C54.9177 645.424 55.2728 646.049 55.7321 646.475C56.1961 646.896 56.7501 647.107 57.394 647.107ZM67.2603 645.204L67.2461 642.484H67.6296L71.8697 637.924H74.5259L69.604 643.208H69.2205L67.2603 645.204ZM65.2077 648.833V634.288H67.445V648.833H65.2077ZM72.0898 648.833L68.2688 643.705L69.8029 642.136L74.81 648.833H72.0898Z" fill="#8A8988"/>
<path d="M40.7545 698.768V700.679H34.2773V698.768H40.7545ZM49.0441 692.455V707H46.7359V694.749H46.6506L43.1918 696.993V694.812L46.814 692.455H49.0441ZM57.6835 707.199C56.7791 707.199 55.9671 707.026 55.2474 706.68C54.5324 706.33 53.9619 705.852 53.5357 705.246C53.1143 704.64 52.887 703.946 52.8539 703.165H55.0911C55.1432 703.785 55.4155 704.294 55.9079 704.692C56.405 705.085 56.9969 705.281 57.6835 705.281C58.2327 705.281 58.7204 705.156 59.1465 704.905C59.5727 704.649 59.9065 704.299 60.1479 703.854C60.3942 703.404 60.5173 702.895 60.5173 702.327C60.5173 701.744 60.3918 701.226 60.1408 700.771C59.8899 700.317 59.5442 699.962 59.1039 699.706C58.6683 699.446 58.1664 699.313 57.5982 699.308C57.1626 699.304 56.7246 699.379 56.2843 699.536C55.844 699.692 55.4888 699.895 55.219 700.146L53.1167 699.827L53.9192 692.455H62.03V694.415H55.8369L55.3823 698.435H55.4675C55.7469 698.146 56.1257 697.907 56.6039 697.717C57.0821 697.528 57.5959 697.433 58.1451 697.433C59.0305 697.433 59.8189 697.644 60.5102 698.065C61.2062 698.482 61.7531 699.055 62.1508 699.784C62.5485 700.509 62.7474 701.339 62.7474 702.277C62.7474 703.224 62.5319 704.069 62.1011 704.812C61.6702 705.551 61.0736 706.134 60.3113 706.56C59.549 706.986 58.673 707.199 57.6835 707.199ZM67.2603 703.371L67.2461 700.651H67.6296L71.8697 696.091H74.5259L69.604 701.375H69.2205L67.2603 703.371ZM65.2077 707V692.455H67.445V707H65.2077ZM72.0898 707L68.2688 701.872L69.8029 700.303L74.81 707H72.0898Z" fill="#8A8988"/>
<g clip-path="url(#clip1_1579_5090)">
<g clip-path="url(#clip2_1579_5090)">
<line x1="-297" y1="352" x2="571" y2="352" stroke="white" stroke-width="2"/>
<line x1="-297" y1="410" x2="571" y2="410" stroke="white" stroke-width="2"/>
<line x1="-297" y1="468" x2="571" y2="468" stroke="white" stroke-width="2"/>
<line y1="-1" x2="868" y2="-1" transform="matrix(1 0 0 -1 -297 527)" stroke="#FAF8F7" stroke-width="2"/>
<line y1="-1" x2="868" y2="-1" transform="matrix(1 0 0 -1 -297 585)" stroke="white" stroke-width="2"/>
<line y1="-1" x2="868" y2="-1" transform="matrix(1 0 0 -1 -297 643)" stroke="white" stroke-width="2"/>
</g>
<g clip-path="url(#clip3_1579_5090)">
<path d="M112 645C112 647.209 110.209 649 108 649H96C93.7909 649 92 647.209 92 645V529H112V645Z" fill="#525252"/>
<path d="M92 433C92 430.791 93.7909 429 96 429H108C110.209 429 112 430.791 112 433V527H92V433Z" fill="#5BA183"/>
<circle cx="102" cy="543" r="5" fill="#191919" stroke="#FAF8F7" stroke-width="2"/>
<path d="M104.198 739.455H106.492V749.746C106.492 750.679 106.305 751.479 105.93 752.146C105.556 752.809 105.033 753.318 104.361 753.673C103.689 754.024 102.903 754.199 102.003 754.199C101.174 754.199 100.431 754.05 99.7728 753.751C99.1147 753.448 98.5938 753.008 98.2103 752.43C97.8315 751.853 97.6421 751.145 97.6421 750.307H99.9291C99.9338 750.705 100.026 751.05 100.206 751.344C100.391 751.637 100.642 751.865 100.959 752.026C101.281 752.182 101.65 752.26 102.067 752.26C102.521 752.26 102.907 752.165 103.225 751.976C103.542 751.782 103.783 751.498 103.949 751.124C104.115 750.75 104.198 750.29 104.198 749.746V739.455Z" fill="#8A8988"/>
</g>
<g clip-path="url(#clip4_1579_5090)">
<path d="M142.25 619C142.25 621.209 140.46 623 138.25 623H126.25C124.041 623 122.25 621.209 122.25 619V529H142.25V619Z" fill="#525252"/>
<path d="M122.25 397C122.25 394.791 124.041 393 126.25 393H138.25C140.46 393 142.25 394.791 142.25 397V527H122.25V397Z" fill="#5BA183"/>
<circle cx="132.083" cy="503" r="5" fill="#191919" stroke="#FAF8F7" stroke-width="2"/>
<path d="M127.962 754V739.455H137.06V741.422H130.27V745.733H136.413V747.7H130.27V754H127.962Z" fill="#8A8988"/>
</g>
<g clip-path="url(#clip5_1579_5090)">
<path d="M172.5 645C172.5 647.209 170.709 649 168.5 649H156.5C154.29 649 152.5 647.209 152.5 645V529H172.5V645Z" fill="#525252"/>
<path d="M152.5 449C152.5 446.791 154.29 445 156.5 445H168.5C170.709 445 172.5 446.791 172.5 449V527H152.5V449Z" fill="#5BA183"/>
<circle cx="162.167" cy="563" r="5" fill="#191919" stroke="#FAF8F7" stroke-width="2"/>
<path d="M154.775 739.455H157.581L162.133 750.57H162.304L166.856 739.455H169.662V754H167.46V743.609H167.325L163.106 753.972H161.331L157.112 743.595H156.977V754H154.775V739.455Z" fill="#8A8988"/>
</g>
<g clip-path="url(#clip6_1579_5090)">
<path d="M202.75 599C202.75 601.209 200.959 603 198.75 603H186.75C184.541 603 182.75 601.209 182.75 599V529H202.75V599Z" fill="#525252"/>
<path d="M183.083 397C183.083 394.791 184.874 393 187.083 393H199.083C201.292 393 203.083 394.791 203.083 397V527H183.083V397Z" fill="#5BA183"/>
<circle cx="192.25" cy="503" r="5" fill="#191919" stroke="#FAF8F7" stroke-width="2"/>
<path d="M188.618 754H186.168L191.374 739.455H194.087L199.293 754H196.842L192.787 742.182H192.673L188.618 754ZM188.931 748.304H196.516V750.214H188.931V748.304Z" fill="#8A8988"/>
</g>
<g clip-path="url(#clip7_1579_5090)">
<path d="M233 695C233 697.209 231.209 699 229 699H217C214.791 699 213 697.209 213 695V529H233V695Z" fill="#525252"/>
<path d="M213 431C213 428.791 214.791 427 217 427H229C231.209 427 233 428.791 233 431V527H213V431Z" fill="#5BA183"/>
<circle cx="222.333" cy="583" r="5" fill="#191919" stroke="#FAF8F7" stroke-width="2"/>
<path d="M214.942 739.455H217.748L222.3 750.57H222.471L227.023 739.455H229.828V754H227.627V743.609H227.492L223.273 753.972H221.498L217.279 743.595H217.144V754H214.942V739.455Z" fill="#8A8988"/>
</g>
<g clip-path="url(#clip8_1579_5090)">
<path d="M263.25 585C263.25 587.209 261.459 589 259.25 589H247.25C245.04 589 243.25 587.209 243.25 585V529H263.25V585Z" fill="#525252"/>
<path d="M243.25 397C243.25 394.791 245.04 393 247.25 393H259.25C261.459 393 263.25 394.791 263.25 397V527H243.25V397Z" fill="#5BA183"/>
<circle cx="252.417" cy="477" r="5" fill="#191919" stroke="#FAF8F7" stroke-width="2"/>
<path d="M254.614 739.455H256.908V749.746C256.908 750.679 256.721 751.479 256.347 752.146C255.973 752.809 255.45 753.318 254.778 753.673C254.105 754.024 253.319 754.199 252.42 754.199C251.591 754.199 250.848 754.05 250.189 753.751C249.531 753.448 249.011 753.008 248.627 752.43C248.248 751.853 248.059 751.145 248.059 750.307H250.346C250.35 750.705 250.443 751.05 250.623 751.344C250.807 751.637 251.058 751.865 251.376 752.026C251.698 752.182 252.067 752.26 252.484 752.26C252.938 752.26 253.324 752.165 253.641 751.976C253.958 751.782 254.2 751.498 254.366 751.124C254.531 750.75 254.614 750.29 254.614 749.746V739.455Z" fill="#8A8988"/>
</g>
<g clip-path="url(#clip9_1579_5090)">
<path d="M293.333 645C293.333 647.209 291.542 649 289.333 649H277.333C275.124 649 273.333 647.209 273.333 645V529H293.333V645Z" fill="#525252"/>
<path d="M273.5 373C273.5 370.791 275.291 369 277.5 369H289.5C291.709 369 293.5 370.791 293.5 373V527H273.5V373Z" fill="#5BA183"/>
<circle cx="282.5" cy="463" r="5" fill="#191919" stroke="#FAF8F7" stroke-width="2"/>
<path d="M284.698 739.455H286.992V749.746C286.992 750.679 286.805 751.479 286.431 752.146C286.056 752.809 285.533 753.318 284.861 753.673C284.189 754.024 283.403 754.199 282.503 754.199C281.674 754.199 280.931 754.05 280.273 753.751C279.615 753.448 279.094 753.008 278.71 752.43C278.332 751.853 278.142 751.145 278.142 750.307H280.429C280.434 750.705 280.526 751.05 280.706 751.344C280.891 751.637 281.142 751.865 281.459 752.026C281.781 752.182 282.15 752.26 282.567 752.26C283.021 752.26 283.407 752.165 283.725 751.976C284.042 751.782 284.283 751.498 284.449 751.124C284.615 750.75 284.698 750.29 284.698 749.746V739.455Z" fill="#8A8988"/>
</g>
<g clip-path="url(#clip10_1579_5090)">
<path d="M323.75 677C323.75 679.209 321.959 681 319.75 681H307.75C305.541 681 303.75 679.209 303.75 677V529H323.75V677Z" fill="#525252"/>
<path d="M303.416 397C303.416 394.791 305.207 393 307.416 393H319.416C321.625 393 323.416 394.791 323.416 397V527H303.416V397Z" fill="#5BA183"/>
<circle cx="313.75" cy="533" r="5" fill="#191919" stroke="#FAF8F7" stroke-width="2"/>
<path d="M308.951 754H306.501L311.707 739.455H314.42L319.626 754H317.176L313.12 742.182H313.007L308.951 754ZM309.264 748.304H316.849V750.214H309.264V748.304Z" fill="#8A8988"/>
</g>
<g clip-path="url(#clip11_1579_5090)">
<path d="M353.5 645C353.5 647.209 351.709 649 349.5 649H337.5C335.29 649 333.5 647.209 333.5 645V529H353.5V645Z" fill="#525252"/>
<path d="M333.5 397C333.5 394.791 335.29 393 337.5 393H349.5C351.709 393 353.5 394.791 353.5 397V527H333.5V397Z" fill="#5BA183"/>
<circle cx="342.667" cy="503" r="5" fill="#191919" stroke="#FAF8F7" stroke-width="2"/>
<path d="M345.799 743.318C345.728 742.66 345.425 742.149 344.89 741.784C344.355 741.42 343.678 741.237 342.859 741.237C342.276 741.237 341.772 741.327 341.346 741.507C340.92 741.687 340.591 741.936 340.359 742.253C340.127 742.565 340.011 742.923 340.011 743.325C340.011 743.661 340.089 743.95 340.245 744.192C340.406 744.433 340.617 744.637 340.877 744.803C341.138 744.968 341.419 745.106 341.723 745.214C342.026 745.323 342.321 745.413 342.61 745.484L344.017 745.847C344.504 745.965 344.994 746.126 345.487 746.33C345.979 746.528 346.431 746.789 346.843 747.111C347.255 747.428 347.587 747.821 347.838 748.29C348.093 748.759 348.221 749.317 348.221 749.966C348.221 750.795 348.008 751.531 347.582 752.175C347.156 752.814 346.538 753.318 345.728 753.688C344.923 754.052 343.948 754.234 342.802 754.234C341.704 754.234 340.752 754.062 339.947 753.716C339.142 753.37 338.512 752.875 338.058 752.232C337.603 751.583 337.355 750.809 337.312 749.909H339.613C339.656 750.43 339.824 750.863 340.117 751.209C340.411 751.554 340.79 751.812 341.254 751.983C341.718 752.149 342.229 752.232 342.788 752.232C343.399 752.232 343.938 752.137 344.407 751.947C344.881 751.753 345.252 751.486 345.522 751.145C345.797 750.799 345.934 750.399 345.934 749.945C345.934 749.528 345.816 749.185 345.579 748.915C345.342 748.645 345.018 748.422 344.606 748.247C344.199 748.072 343.735 747.916 343.214 747.778L341.509 747.317C340.335 747 339.407 746.533 338.725 745.918C338.044 745.297 337.703 744.478 337.703 743.46C337.703 742.617 337.93 741.881 338.384 741.251C338.844 740.622 339.464 740.132 340.245 739.781C341.031 739.431 341.917 739.256 342.901 739.256C343.901 739.256 344.779 739.431 345.536 739.781C346.299 740.127 346.898 740.605 347.333 741.216C347.774 741.827 348.003 742.527 348.022 743.318H345.799Z" fill="#8A8988"/>
</g>
<g clip-path="url(#clip12_1579_5090)">
<path d="M382.25 683C382.25 685.209 380.459 687 378.25 687H366.25C364.041 687 362.25 685.209 362.25 683V529H382.25V683Z" fill="#525252"/>
<path d="M362.25 435C362.25 432.791 364.041 431 366.25 431H378.25C380.459 431 382.25 432.791 382.25 435V527H362.25V435Z" fill="#5BA183"/>
<circle cx="372.75" cy="543" r="5" fill="#191919" stroke="#FAF8F7" stroke-width="2"/>
<path d="M379.684 746.727C379.684 748.28 379.397 749.616 378.824 750.733C378.251 751.85 377.468 752.707 376.474 753.304C375.484 753.901 374.359 754.199 373.1 754.199C371.84 754.199 370.714 753.901 369.719 753.304C368.73 752.703 367.948 751.846 367.375 750.733C366.803 749.616 366.516 748.28 366.516 746.727C366.516 745.17 366.803 743.834 367.375 742.722C367.948 741.604 368.73 740.747 369.719 740.151C370.714 739.554 371.84 739.256 373.1 739.256C374.359 739.256 375.484 739.554 376.474 740.151C377.468 740.747 378.251 741.604 378.824 742.722C379.397 743.834 379.684 745.17 379.684 746.727ZM377.39 746.727C377.39 745.562 377.203 744.582 376.829 743.787C376.459 742.987 375.95 742.381 375.302 741.969C374.658 741.557 373.924 741.351 373.1 741.351C372.276 741.351 371.54 741.557 370.891 741.969C370.247 742.381 369.738 742.987 369.364 743.787C368.995 744.582 368.81 745.562 368.81 746.727C368.81 747.887 368.995 748.867 369.364 749.668C369.738 750.468 370.247 751.074 370.891 751.486C371.54 751.898 372.276 752.104 373.1 752.104C373.924 752.104 374.658 751.898 375.302 751.486C375.95 751.074 376.459 750.468 376.829 749.668C377.203 748.867 377.39 747.887 377.39 746.727Z" fill="#8A8988"/>
</g>
<g clip-path="url(#clip13_1579_5090)">
<g clip-path="url(#clip14_1579_5090)">
<path d="M393.125 381C393.125 378.791 394.916 377 397.125 377H409.125C411.334 377 413.125 378.791 413.125 381V429H393.125V381Z" fill="#F0F5F2"/>
<line x1="362.418" y1="408.293" x2="464.418" y2="306.293" stroke="#5BA183" stroke-width="2"/>
<line x1="362.418" y1="416.293" x2="464.418" y2="314.293" stroke="#5BA183" stroke-width="2"/>
<line x1="362.418" y1="424.293" x2="464.418" y2="322.293" stroke="#5BA183" stroke-width="2"/>
<line x1="362.418" y1="432.293" x2="464.418" y2="330.293" stroke="#5BA183" stroke-width="2"/>
<line x1="362.418" y1="440.293" x2="464.418" y2="338.293" stroke="#5BA183" stroke-width="2"/>
<line x1="362.418" y1="448.293" x2="464.418" y2="346.293" stroke="#5BA183" stroke-width="2"/>
<line x1="362.418" y1="456.293" x2="464.418" y2="354.293" stroke="#5BA183" stroke-width="2"/>
<line x1="362.418" y1="464.293" x2="464.418" y2="362.293" stroke="#5BA183" stroke-width="2"/>
<line x1="362.418" y1="472.293" x2="464.418" y2="370.293" stroke="#5BA183" stroke-width="2"/>
<line x1="362.418" y1="480.293" x2="464.418" y2="378.293" stroke="#5BA183" stroke-width="2"/>
<line x1="362.418" y1="488.293" x2="464.418" y2="386.293" stroke="#5BA183" stroke-width="2"/>
<line x1="362.418" y1="496.293" x2="464.418" y2="394.293" stroke="#5BA183" stroke-width="2"/>
<line x1="362.418" y1="504.293" x2="464.418" y2="402.293" stroke="#5BA183" stroke-width="2"/>
</g>
<rect width="20" height="105" transform="translate(393 420)" fill="#5BA183"/>
<rect width="20" height="104" transform="translate(393 527)" fill="#525252"/>
<g clip-path="url(#clip15_1579_5090)">
<path d="M413.125 679C413.125 681.209 411.334 683 409.125 683H397.125C394.916 683 393.125 681.209 393.125 679V631H413.125V679Z" fill="#F0F5F2"/>
<line x1="443.832" y1="651.707" x2="341.832" y2="753.707" stroke="#525252" stroke-width="2"/>
<line x1="443.832" y1="643.707" x2="341.832" y2="745.707" stroke="#525252" stroke-width="2"/>
<line x1="443.832" y1="635.707" x2="341.832" y2="737.707" stroke="#525252" stroke-width="2"/>
<line x1="443.832" y1="627.707" x2="341.832" y2="729.707" stroke="#525252" stroke-width="2"/>
<line x1="443.832" y1="619.707" x2="341.832" y2="721.707" stroke="#525252" stroke-width="2"/>
<line x1="443.832" y1="611.707" x2="341.832" y2="713.707" stroke="#525252" stroke-width="2"/>
<line x1="443.832" y1="603.707" x2="341.832" y2="705.707" stroke="#525252" stroke-width="2"/>
<line x1="443.832" y1="595.707" x2="341.832" y2="697.707" stroke="#525252" stroke-width="2"/>
<line x1="443.832" y1="587.707" x2="341.832" y2="689.707" stroke="#525252" stroke-width="2"/>
<line x1="443.832" y1="579.707" x2="341.832" y2="681.707" stroke="#525252" stroke-width="2"/>
<line x1="443.832" y1="571.707" x2="341.832" y2="673.707" stroke="#525252" stroke-width="2"/>
<line x1="443.832" y1="563.707" x2="341.832" y2="665.707" stroke="#525252" stroke-width="2"/>
<line x1="443.832" y1="555.707" x2="341.832" y2="657.707" stroke="#525252" stroke-width="2"/>
</g>
<circle cx="403.125" cy="513" r="5" fill="#191919" stroke="#FAF8F7" stroke-width="2"/>
<path d="M408.825 739.455V754H406.723L399.464 743.524H399.336V754H397.028V739.455H399.145L406.403 749.945H406.538V739.455H408.825Z" fill="#525252"/>
</g>
<g clip-path="url(#clip16_1579_5090)">
<path d="M432.326 754H427.561V739.455H432.461C433.896 739.455 435.125 739.746 436.147 740.328C437.175 740.906 437.963 741.737 438.512 742.821C439.062 743.901 439.336 745.196 439.336 746.706C439.336 748.221 439.059 749.523 438.505 750.612C437.956 751.701 437.158 752.539 436.112 753.126C435.065 753.709 433.803 754 432.326 754ZM429.869 751.99H432.205C433.29 751.99 434.192 751.786 434.911 751.379C435.631 750.972 436.169 750.378 436.524 749.597C436.884 748.811 437.063 747.847 437.063 746.706C437.063 745.57 436.886 744.613 436.531 743.837C436.176 743.055 435.645 742.466 434.94 742.068C434.239 741.666 433.368 741.464 432.326 741.464H429.869V751.99Z" fill="#8A8988"/>
</g>
</g>
<path d="M402 513.5L373.519 542.885C372.645 543.787 371.165 543.67 370.445 542.641L343.756 504.542C343.022 503.494 341.506 503.395 340.642 504.339L314.954 532.403C313.969 533.479 312.201 533.173 311.635 531.828L283.095 463.949C282.65 462.891 281.407 462.423 280.375 462.926L252.314 476.603C251.797 476.855 251.413 477.318 251.261 477.873L223.873 577.978C223.36 579.855 220.74 579.968 220.067 578.142L193.816 506.885C193.208 505.234 190.918 505.116 190.144 506.695L163.619 560.792C162.883 562.293 160.74 562.282 160.019 560.774L133.574 505.476C132.926 504.121 131.072 503.937 130.17 505.138L101 544" stroke="#191919" stroke-width="2"/>
</g>
<defs>
<clipPath id="clip0_1579_5090">
<rect width="480" height="803" rx="24" fill="white"/>
</clipPath>
<clipPath id="clip1_1579_5090">
<rect width="361" height="443" fill="white" transform="translate(87 328)"/>
</clipPath>
<clipPath id="clip2_1579_5090">
<rect width="622" height="380" fill="white" transform="translate(-174 337)"/>
</clipPath>
<clipPath id="clip3_1579_5090">
<rect width="30.0833" height="443" fill="white" transform="translate(87 328)"/>
</clipPath>
<clipPath id="clip4_1579_5090">
<rect width="30.0833" height="443" fill="white" transform="translate(117.083 328)"/>
</clipPath>
<clipPath id="clip5_1579_5090">
<rect width="30.0833" height="443" fill="white" transform="translate(147.167 328)"/>
</clipPath>
<clipPath id="clip6_1579_5090">
<rect width="30.0833" height="443" fill="white" transform="translate(177.25 328)"/>
</clipPath>
<clipPath id="clip7_1579_5090">
<rect width="30.0833" height="443" fill="white" transform="translate(207.333 328)"/>
</clipPath>
<clipPath id="clip8_1579_5090">
<rect width="30.0833" height="443" fill="white" transform="translate(237.417 328)"/>
</clipPath>
<clipPath id="clip9_1579_5090">
<rect width="30.0833" height="443" fill="white" transform="translate(267.5 328)"/>
</clipPath>
<clipPath id="clip10_1579_5090">
<rect width="30.0833" height="443" fill="white" transform="translate(297.583 328)"/>
</clipPath>
<clipPath id="clip11_1579_5090">
<rect width="30.0833" height="443" fill="white" transform="translate(327.667 328)"/>
</clipPath>
<clipPath id="clip12_1579_5090">
<rect width="30.0833" height="443" fill="white" transform="translate(357.75 328)"/>
</clipPath>
<clipPath id="clip13_1579_5090">
<path d="M387.833 340C387.833 333.373 393.206 328 399.833 328H405.917C412.544 328 417.917 333.373 417.917 340V759C417.917 765.627 412.544 771 405.917 771H399.833C393.206 771 387.833 765.627 387.833 759V340Z" fill="white"/>
</clipPath>
<clipPath id="clip14_1579_5090">
<path d="M393.125 381C393.125 378.791 394.916 377 397.125 377H409.125C411.334 377 413.125 378.791 413.125 381V429H393.125V381Z" fill="white"/>
</clipPath>
<clipPath id="clip15_1579_5090">
<path d="M413.125 679C413.125 681.209 411.334 683 409.125 683H397.125C394.916 683 393.125 681.209 393.125 679V631H413.125V679Z" fill="white"/>
</clipPath>
<clipPath id="clip16_1579_5090">
<rect width="30.0833" height="443" fill="white" transform="translate(417.917 328)"/>
</clipPath>
</defs>
</svg>
